<?xml version="1.0" encoding="utf-8"?>
<!-- Generator: Adobe Illustrator 25.4.1, SVG Export Plug-In . SVG Version: 6.00 Build 0)  -->
<svg version="1.1" id="Layer_1" xmlns="http://www.w3.org/2000/svg" width="130" height="28" xmlns:xlink="http://www.w3.org/1999/xlink" x="0px" y="0px"
	 viewBox="0 0 120 24" style="enable-background:new 0 0 120 24;" xml:space="preserve">
<style type="text/css">
	.st0{fill:none;stroke:#FFFFFF;stroke-miterlimit:10;}
	.st1{fill:#FFFFFF;}
</style>
<path class="st0" d="M106,8.1c0,2.8-2.2,5-5,5s-5-2.2-5-5s2.2-5,5-5C103.7,3.1,106,5.3,106,8.1z"/>
<path class="st1" d="M99.5,10.1v-4h1.5c0.3,0,0.5,0,0.7,0.1s0.3,0.2,0.4,0.4s0.1,0.3,0.1,0.5s0,0.3-0.1,0.4
	c-0.1,0.1-0.1,0.2-0.3,0.3c-0.1,0.1-0.2,0.1-0.3,0.1l0,0c0.1,0,0.3,0.1,0.4,0.1c0.1,0.1,0.2,0.2,0.3,0.3c0.1,0.1,0.1,0.3,0.1,0.5
	s0,0.4-0.1,0.5c-0.1,0.2-0.3,0.3-0.5,0.4c-0.2,0.1-0.5,0.1-0.8,0.1h-1.4V10.1z M100,9.7h1c0.3,0,0.6-0.1,0.7-0.2
	c0.1-0.1,0.2-0.3,0.2-0.4c0-0.1,0-0.3-0.1-0.4c-0.1-0.1-0.2-0.2-0.3-0.3c-0.1-0.1-0.3-0.1-0.5-0.1h-1.1v1.4H100z M100,7.9h1
	c0.2,0,0.3,0,0.4-0.1s0.2-0.1,0.3-0.2c0.1-0.1,0.1-0.2,0.1-0.4s-0.1-0.3-0.2-0.4c-0.1-0.1-0.3-0.2-0.6-0.2h-1
	C100,6.6,100,7.9,100,7.9z"/>
<path class="st1" d="M23.9,10.6c0.8,0,1.5,0.1,2.2,0.4s1.3,0.7,1.7,1.2c0.5,0.5,0.9,1.1,1.2,1.7c0.3,0.7,0.4,1.4,0.4,2.2
	c0,0.8-0.1,1.5-0.4,2.2s-0.7,1.3-1.2,1.8s-1.1,0.9-1.7,1.2c-0.7,0.3-1.5,0.4-2.2,0.4h-4.3c-0.8,0-1.5-0.1-2.2-0.4s-1.3-0.7-1.8-1.2
	c-0.5-0.5-0.9-1.1-1.2-1.8c-0.3-0.7-0.4-1.4-0.4-2.2h4.2c0,0.4,0.1,0.7,0.4,1s0.6,0.4,1,0.4h4.3c0.4,0,0.7-0.1,1-0.4s0.4-0.6,0.4-1
	c0-0.4-0.1-0.7-0.4-1s-0.6-0.4-1-0.4h-1.3h-3c-0.8,0-1.5-0.1-2.2-0.4s-1.3-0.7-1.8-1.2c-0.5-0.5-0.9-1.1-1.2-1.7
	C14.1,10.7,14,10,14,9.2s0.1-1.5,0.4-2.2s0.7-1.3,1.2-1.8c0.5-0.5,1.1-0.9,1.8-1.2c0.7-0.2,1.4-0.3,2.2-0.3h4.3
	c0.8,0,1.5,0.1,2.2,0.4c0.7,0.3,1.3,0.7,1.7,1.2c0.5,0.5,0.9,1.1,1.2,1.8c0.3,0.7,0.4,1.4,0.4,2.2h-4.2c0-0.4-0.1-0.7-0.4-1
	c-0.3-0.3-0.6-0.4-1-0.4h-4.3c-0.4,0-0.7,0.1-1,0.4c-0.3,0.3-0.4,0.6-0.4,1s0.1,0.7,0.4,1s0.6,0.4,1,0.4h1.3L23.9,10.6L23.9,10.6z"
	/>
<path class="st1" d="M44.6,3.7l-5.2,9l-0.3,0.6v8.4h-4.2v-8.4l-0.3-0.6l-5.2-9h4.8L37,8.5l2.8-4.8H44.6z"/>
<path class="st1" d="M52.7,3.7c1.3,0,2.4,0.2,3.5,0.7s2,1.1,2.9,1.9c0.8,0.8,1.5,1.8,1.9,2.9c0.5,1.1,0.7,2.3,0.7,3.5
	s-0.2,2.4-0.7,3.5s-1.1,2.1-1.9,2.9c-0.8,0.8-1.8,1.5-2.9,1.9c-1.1,0.5-2.3,0.7-3.5,0.7h-6.3v-4.2h6.4c0.7,0,1.3-0.1,1.9-0.4
	c0.6-0.2,1.1-0.6,1.5-1c0.4-0.4,0.8-0.9,1-1.5s0.4-1.2,0.4-1.9c0-0.7-0.1-1.3-0.4-1.9c-0.2-0.6-0.6-1.1-1-1.5s-0.9-0.8-1.5-1
	s-1.2-0.4-1.9-0.4h-2.2v2.7h-4.2V3.7H52.7z"/>
<path class="st1" d="M78.5,3.7v18h-4.2h-0.7l-10.4-18H68l6.2,10.7V3.7H78.5z M63.2,21.7V11h4.2v10.7H63.2z"/>
<path class="st1" d="M93.5,3.7v4.2h-5.6v13.8h-4.2V7.9h-5.6V3.7h5.6h4.2H93.5z"/>
</svg>
