<?xml version="1.0" encoding="utf-8"?>
<!-- Generator: Adobe Illustrator 25.4.1, SVG Export Plug-In . SVG Version: 6.00 Build 0)  -->
<svg version="1.0" id="Layer_1" xmlns="http://www.w3.org/2000/svg" width="122" height="36" xmlns:xlink="http://www.w3.org/1999/xlink" x="0px" y="0px"
	 viewBox="0 0 122 36" enable-background="new 0 0 122 36" xml:space="preserve">
<path fill="#FFFFFF" d="M18,0h85.6c9.9,0,18,8.1,18,18l0,0c0,9.9-8.1,18-18,18H18C8.1,36,0,27.9,0,18l0,0C0,8.1,8.1,0,18,0z"/>
<path d="M107.6,13.4c0,2.8-2.2,5-5,5c-2.8,0-5-2.2-5-5c0-2.8,2.2-5,5-5C105.3,8.4,107.6,10.6,107.6,13.4z"/>
<path fill="#FFFFFF" d="M106.6,13.4c0,2.2-1.8,4-4,4s-4-1.8-4-4c0-2.2,1.8-4,4-4S106.6,11.2,106.6,13.4z"/>
<path d="M101.1,15.4v-4h1.5c0.3,0,0.5,0,0.7,0.1c0.2,0.1,0.3,0.2,0.4,0.4c0.1,0.2,0.1,0.3,0.1,0.5c0,0.2,0,0.3-0.1,0.4
	c-0.1,0.1-0.1,0.2-0.3,0.3c-0.1,0.1-0.2,0.1-0.3,0.1v0c0.1,0,0.3,0.1,0.4,0.1c0.1,0.1,0.2,0.2,0.3,0.3c0.1,0.1,0.1,0.3,0.1,0.5
	c0,0.2,0,0.4-0.1,0.5c-0.1,0.2-0.3,0.3-0.5,0.4c-0.2,0.1-0.5,0.1-0.8,0.1H101.1z M101.6,15h1c0.3,0,0.6-0.1,0.7-0.2
	c0.1-0.1,0.2-0.3,0.2-0.4c0-0.1,0-0.3-0.1-0.4c-0.1-0.1-0.2-0.2-0.3-0.3c-0.1-0.1-0.3-0.1-0.5-0.1h-1.1V15z M101.6,13.2h1
	c0.2,0,0.3,0,0.4-0.1c0.1-0.1,0.2-0.1,0.3-0.2c0.1-0.1,0.1-0.2,0.1-0.4c0-0.2-0.1-0.3-0.2-0.4c-0.1-0.1-0.3-0.2-0.6-0.2h-1V13.2z"/>
<path fill="#080502" d="M25.5,15.9c0.8,0,1.5,0.1,2.2,0.4c0.7,0.3,1.3,0.7,1.7,1.2c0.5,0.5,0.9,1.1,1.2,1.7c0.3,0.7,0.4,1.4,0.4,2.2
	c0,0.8-0.1,1.5-0.4,2.2c-0.3,0.7-0.7,1.3-1.2,1.8c-0.5,0.5-1.1,0.9-1.7,1.2C27,26.9,26.2,27,25.5,27h-4.3c-0.8,0-1.5-0.1-2.2-0.4
	c-0.7-0.3-1.3-0.7-1.8-1.2c-0.5-0.5-0.9-1.1-1.2-1.8c-0.3-0.7-0.4-1.4-0.4-2.2h4.2c0,0.4,0.1,0.7,0.4,1c0.3,0.3,0.6,0.4,1,0.4h4.3
	c0.4,0,0.7-0.1,1-0.4c0.3-0.3,0.4-0.6,0.4-1c0-0.4-0.1-0.7-0.4-1c-0.3-0.3-0.6-0.4-1-0.4h-1.3h-3c-0.8,0-1.5-0.1-2.2-0.4
	c-0.7-0.3-1.3-0.7-1.8-1.2c-0.5-0.5-0.9-1.1-1.2-1.7c-0.3-0.7-0.4-1.4-0.4-2.2c0-0.8,0.1-1.5,0.4-2.2c0.3-0.7,0.7-1.3,1.2-1.8
	c0.5-0.5,1.1-0.9,1.8-1.2C19.7,9.1,20.4,9,21.2,9h4.3c0.8,0,1.5,0.1,2.2,0.4c0.7,0.3,1.3,0.7,1.7,1.2c0.5,0.5,0.9,1.1,1.2,1.8
	c0.3,0.7,0.4,1.4,0.4,2.2h-4.2c0-0.4-0.1-0.7-0.4-1c-0.3-0.3-0.6-0.4-1-0.4h-4.3c-0.4,0-0.7,0.1-1,0.4c-0.3,0.3-0.4,0.6-0.4,1
	c0,0.4,0.1,0.7,0.4,1c0.3,0.3,0.6,0.4,1,0.4h1.3H25.5z"/>
<path fill="#080502" d="M46.2,9L41,18l-0.3,0.6V27h-4.2v-8.4L36.2,18L31,9h4.8l2.8,4.8L41.4,9H46.2z"/>
<path fill="#080502" d="M54.3,9c1.3,0,2.4,0.2,3.5,0.7c1.1,0.5,2,1.1,2.9,1.9c0.8,0.8,1.5,1.8,1.9,2.9c0.5,1.1,0.7,2.3,0.7,3.5
	c0,1.2-0.2,2.4-0.7,3.5c-0.5,1.1-1.1,2.1-1.9,2.9c-0.8,0.8-1.8,1.5-2.9,1.9c-1.1,0.5-2.3,0.7-3.5,0.7H48v-4.2h6.4
	c0.7,0,1.3-0.1,1.9-0.4c0.6-0.2,1.1-0.6,1.5-1s0.8-0.9,1-1.5c0.2-0.6,0.4-1.2,0.4-1.9c0-0.7-0.1-1.3-0.4-1.9c-0.2-0.6-0.6-1.1-1-1.5
	c-0.4-0.4-0.9-0.8-1.5-1c-0.6-0.2-1.2-0.4-1.9-0.4h-2.2v2.7H48V9H54.3z"/>
<path fill="#080502" d="M80.1,9v18h-4.2h-0.7L64.8,9h4.8l6.2,10.7V9H80.1z M64.8,27V16.3H69V27H64.8z"/>
<path fill="#080502" d="M95.1,9v4.2h-5.6V27h-4.2V13.2h-5.6V9h5.6h4.2H95.1z"/>
</svg>
