<?xml version="1.0" encoding="utf-8"?>
<!-- Generator: Adobe Illustrator 26.0.1, SVG Export Plug-In . SVG Version: 6.00 Build 0)  -->
<svg version="1.1" id="Layer_1" xmlns="http://www.w3.org/2000/svg" xmlns:xlink="http://www.w3.org/1999/xlink" x="0px" y="0px"
	 viewBox="0 0 100 100" style="enable-background:new 0 0 100 100;" xml:space="preserve">
<style type="text/css">
	.st0{display:none;}
	.st1{fill:#FFFFFF;}
	.st2{fill-rule:evenodd;clip-rule:evenodd;fill:#FFFFFF;}
	.st3{fill-rule:evenodd;clip-rule:evenodd;}
	.st4{fill:none;}
	.st5{clip-path:url(#XMLID_00000127738196659481004550000005588129532662011565_);fill:#FFFFFF;}
</style>
<rect class="st0" width="100" height="100"/>
<g>
	<path class="st1" d="M76,24.4c-14-14-36.7-14-50.7,0s-14,36.7,0,50.7c6.7,6.7,15.8,10.5,25.3,10.5c5.5,0.1,10.9-1.2,15.7-3.6
		l-1.2-1.4c-4.5,2.2-9.5,3.4-14.5,3.3c-18.8,0-34.1-15.3-34.1-34.1s15.3-34.1,34.1-34.1s34.1,15.3,34.1,34.1c0,0,0,0,0,0
		c0.1,12.5-6.8,24.1-17.8,30l1.2,1.4c2.9-1.6,5.6-3.6,7.9-6C90,61.1,90,38.4,76,24.4L76,24.4z"/>
	<path class="st2" d="M74,91.7L44.1,44.3c-1.8-2.9-2.9-6-4.8-9.1c-0.6,0.3-1.1,0.6-1.7,0.8c1.2,1.9,1.8,3.6,1.3,3.9
		s-2.1-1.1-3.6-3.3s-2.2-4.2-1.7-4.6s1.3,0.5,2.4,1.8c0.6-0.3,1.1-0.5,1.7-0.8c-4.9-6.1-9-2.7-4,4.7c2.3,3.3,5.1,5.7,7.3,8.7
		L74,91.7z"/>
	<path class="st1" d="M26.4,43.3c1.2-1.1,2.5-2.2,3.8-3.3c1.3-1.1,2.6-2.1,3.9-3.1l2-1.5c0.7-0.5,1.3-1,2-1.5c1.3-1,2.7-1.9,4.1-2.8
		s2.8-1.8,4.3-2.5c1.5-0.8,3-1.5,4.6-2.1c0.8-0.3,1.6-0.5,2.4-0.7c0.8-0.2,1.7-0.3,2.5-0.3c0.4,0,0.9,0,1.3,0.1
		c0.4,0.1,0.9,0.2,1.2,0.4c0.4,0.2,0.8,0.5,1.1,0.8c0.3,0.3,0.6,0.6,0.8,1c0.5,0.7,0.8,1.5,1,2.4c0.2,0.8,0.4,1.7,0.5,2.5
		c0.1,1.7,0.1,3.3,0,5c-0.2,3.3-0.6,6.7-0.9,10c-0.1,1.7-0.2,3.3-0.2,5c0,1.7,0.2,3.3,0.5,4.9c0.2,0.8,0.5,1.6,0.9,2.3
		c0.4,0.7,0.9,1.4,1.5,1.9c0.7,0.5,1.4,0.9,2.2,1.2c0.8,0.3,1.6,0.5,2.4,0.5c-0.8,0-1.7-0.2-2.5-0.4c-0.8-0.3-1.6-0.7-2.3-1.2
		c-0.7-0.5-1.2-1.2-1.6-1.9c-0.4-0.7-0.8-1.5-1-2.3c-0.2-0.8-0.4-1.6-0.5-2.5c-0.1-0.8-0.2-1.7-0.2-2.5c0-1.7,0-3.3,0.2-5
		c0.2-3.3,0.6-6.7,0.8-10c0.1-1.6,0.1-3.3-0.1-4.9c-0.1-0.8-0.2-1.6-0.4-2.4c-0.2-0.8-0.5-1.5-0.9-2.2c-0.2-0.3-0.5-0.6-0.7-0.9
		c-0.3-0.3-0.6-0.5-0.9-0.7c-0.7-0.3-1.5-0.5-2.3-0.5c-0.8,0-1.6,0.1-2.4,0.2c-0.8,0.2-1.6,0.4-2.4,0.7c-0.8,0.3-1.5,0.6-2.3,0.9
		s-1.5,0.7-2.2,1.1c-1.5,0.8-2.9,1.6-4.3,2.5s-2.8,1.8-4.2,2.7c-0.7,0.5-1.4,0.9-2,1.4s-1.3,1-2,1.5C31.5,39.1,28.9,41.2,26.4,43.3z
		"/>
	<path class="st1" d="M50.9,88.7c-0.4,0.2-0.5,0.8-0.5,1.2l-0.3,5c0,0.4,0,1,0.3,1.2l-3.3-0.2c-1.1,0-1.9-0.9-1.9-2
		c0-0.8,0.7-1.6,2.3-1.7c0.8,0,2.2-0.5,2.2-1.3l0.1-2.2L50.9,88.7z M47.4,92.2c-0.9,0.1-1.6,0.8-1.6,1.7c-0.1,0.9,0.5,1.7,1.4,1.9
		c0,0,0.1,0,0.1,0l2,0.1l0.3-4.7C49.1,91.8,48.3,92.2,47.4,92.2z"/>
	<path class="st1" d="M45.5,88.2c-0.4,0.2-0.6,0.8-0.7,1.1L44,94.6c0,0.3,0.1,0.5,0.4,0.6l-1.2,0.2l1-6.1c0.1-0.4,0.1-1-0.2-1.3
		L45.5,88.2z"/>
	<path class="st1" d="M41.5,87.5c1.4,0.4,2.1,1.9,1.7,3.2c-0.4,1.2-1.6,1.9-2.8,1.8c-0.9-0.2-1.6-0.9-1.8-1.7l3.6,0.8
		c0-0.1,0.1-0.2,0.1-0.3c0.3-1.6-0.6-3.1-2.2-3.5l0,0c-0.4,0.2-0.7,0.5-0.8,0.9h-0.1C39.5,87.7,40.5,87.2,41.5,87.5z M39.2,91
		c0,0.8,0.8,1.5,1.6,1.4c0.5,0,1-0.3,1.2-0.8L39.2,91z M41.3,87.5c-0.4-0.1-0.9-0.1-1.3,0.1c1.6,0.4,2.6,2,2.2,3.6c0,0,0,0,0,0v0.1
		c0.2-0.3,0.3-0.6,0.4-1C43.1,88.7,42.3,87.8,41.3,87.5L41.3,87.5z"/>
	<path class="st1" d="M38.7,88.3c0,0.1,0,0.2-0.1,0.3c-0.1,0.2-0.1,0.3-0.2,0.4c-0.6,0.6-1.6,0.8-2.3,0.4l-0.8-0.3
		c0.2,0.4,0.6,0.7,1,0.8l0.9,0.3c-0.4,0.7-1.3,1-2.1,0.6c-0.8-0.2-1.3-1.1-1.1-2c0-0.1,0-0.1,0.1-0.2l0.8-2.2c0.1-0.4,0.3-1,0-1.3
		l1,0.4l-0.5,1.2c0.5-0.7,1.4-0.9,2.2-0.6C38.4,86.6,38.9,87.5,38.7,88.3z M34.5,89c-0.4,1,0,1.6,0.5,1.8c0.6,0.2,1.2-0.1,1.4-0.7
		c0,0,0,0,0,0L36.2,90c-0.8-0.3-1.3-1.1-1.2-2L34.5,89z M35.5,86.8L35.5,86.8c-0.1,0.1-0.2,0.2-0.2,0.3c-0.1,0.1-0.1,0.2-0.2,0.4
		c-0.2,0.5-0.2,1.1,0,1.6l0.9,0.3c0.6,0.4,1.5,0.1,1.8-0.5c0,0,0.1-0.1,0.1-0.1c0.1-0.2,0.1-0.3,0.1-0.5c0-0.8-0.4-1.5-1.2-1.7
		C36.4,86.3,35.9,86.4,35.5,86.8L35.5,86.8z"/>
	<path class="st1" d="M33.9,86.6l-1.5,3.2l0.3,0.1l0,0l0.2,0.1l-1.3,0.2l0.3-0.6l-0.6-0.3v-0.1l0.6,0.3l1.5-3.2
		c0.4-0.9,0.2-1.6-0.2-1.8v-0.1c0.8,0.3,1.2,1.2,0.9,2C33.9,86.5,33.9,86.5,33.9,86.6z"/>
	<path class="st1" d="M31.1,83.4c1.2,0.7,1.7,2.3,1,3.5c-0.7,1.2-2.3,1.7-3.5,1c-0.8-0.5-1.2-1.3-1.3-2.2l3.2,1.8
		c0.1-0.1,0.1-0.2,0.2-0.3c0.8-1.4,0.3-3.2-1.1-4h-0.1c-0.4,0.1-0.8,0.3-1.1,0.7h-0.1C29.1,83,30.3,82.8,31.1,83.4z M28,86.1
		c-0.2,0.8,0.3,1.6,1.1,1.8c0.5,0.1,1,0,1.4-0.4L28,86.1z M31,83.4c-0.4-0.2-0.8-0.3-1.2-0.2c1.4,0.8,1.9,2.7,1.1,4.1c0,0,0,0,0,0
		l-0.1,0.1c0.3-0.2,0.5-0.5,0.7-0.8C32.3,85,31.8,83.9,31,83.4z"/>
	<path class="st1" d="M25.8,79.7l-1.6,2.1c-0.6,0.7-0.7,1.7-0.4,2.5c-0.1-0.9,0.2-1.7,0.7-2.4c0.5-0.7,1.2-1.2,2.1-1.2
		c0.3,0,0.6,0.1,0.9,0.3c0.9,0.9,0.9,2.3,0.1,3.2l-0.1,0.1c-1.1,1.3-2.4,1.3-3.2,0.7c-0.8-0.7-1-1.8-0.5-2.7l-1.9,2.5
		c-0.2,0.2-0.1,0.5,0.1,0.7l-1.1-0.4l3.8-4.9c0.2-0.3,0.6-0.8,0.4-1.2L25.8,79.7z M26.6,80.8c-0.8,0.1-1.6,0.5-2,1.2
		c-0.8,1-1.1,2.2-0.4,2.8l0,0c0.6,0.5,1.7,0.4,2.8-0.9l0.1-0.1c0.9-1.2,0.8-2.3,0.2-2.8C27.1,80.9,26.8,80.8,26.6,80.8z"/>
	<path class="st1" d="M22.1,76.7c-0.2,0-0.3,0.1-0.4,0.2c-0.1,0.1-0.2,0.2-0.4,0.2l-3.8,3.2c-0.1,0.1-0.2,0.2-0.3,0.3
		c-0.1,0.1-0.2,0.2-0.3,0.4c-0.1,0.1-0.1,0.3-0.1,0.4l-1.4-1.7c-0.3-0.4-0.5-0.8-0.7-1.2c-0.1-0.4-0.1-0.8,0-1.2
		c0.1-0.4,0.3-0.8,0.5-1.2c0.2-0.4,0.5-0.7,0.9-1c0.4-0.3,0.8-0.6,1.2-0.8c0.4-0.2,0.9-0.3,1.4-0.3c0.5,0,0.9,0,1.3,0.2
		c0.4,0.2,0.8,0.5,1.1,0.8l1.4,1.7C22.4,76.7,22.2,76.7,22.1,76.7z M21.8,76l-0.7-0.9c-0.2-0.3-0.6-0.5-0.9-0.6
		c-0.4-0.1-0.8-0.1-1.2,0c-0.4,0.1-0.9,0.2-1.3,0.4c-0.4,0.2-0.8,0.5-1.2,0.8c-0.3,0.3-0.6,0.6-0.9,0.9c-0.2,0.3-0.4,0.6-0.6,1
		c-0.1,0.3-0.1,0.7-0.1,1.1c0.1,0.4,0.2,0.7,0.5,1l0.8,0.9L21.8,76z"/>
	<path class="st1" d="M17.7,70.3c0.7,1.1,0.4,2.7-0.7,3.4c-0.1,0-0.1,0.1-0.2,0.1c-1.1,0.8-2.6,0.5-3.4-0.6c0,0,0,0,0,0
		c-0.5-0.8-0.5-1.7-0.1-2.5l2,3.1c0.1,0,0.2-0.1,0.3-0.2c1.4-0.9,1.8-2.7,0.9-4.1c0,0,0,0,0,0v-0.1c-0.4-0.1-0.9-0.1-1.2,0.1
		l-0.1-0.1C16.1,69.1,17.2,69.5,17.7,70.3z M13.6,71.3c-0.4,0.5-0.4,1.2-0.1,1.8c0.4,0.5,1,0.8,1.7,0.7L13.6,71.3z M17.5,70.3
		c-0.2-0.4-0.6-0.7-1-0.8c0.9,1.4,0.4,3.3-1,4.1c0,0,0,0,0,0l-0.1,0.1c0.4-0.1,0.7-0.2,1-0.4C17.9,72.3,18,71.1,17.5,70.3L17.5,70.3
		z"/>
	<path class="st1" d="M15.8,67.3c0.1,0.3,0.1,0.6,0,0.9c-0.1,0.2-0.2,0.4-0.4,0.6L15,68.4l0.2-0.1c0.4-0.1,0.6-0.6,0.5-1
		c0,0,0,0,0,0c-0.1-0.3-0.2-0.6-0.3-0.8c-0.2-0.4-0.5-0.8-0.8-1c-0.2-0.1-0.4-0.1-0.6-0.1c-0.1,0-0.2,0.1-0.2,0.2
		c-0.6,0.9,0.6,3.7-0.7,4.3h-0.1c-0.3,0.1-0.7,0.1-1,0c-0.4-0.3-0.7-0.6-0.9-1.1c-0.3-0.5-0.4-1.1-0.3-1.6c0.1-0.2,0.2-0.4,0.4-0.6
		l0.4,0.4l-0.1,0.1c-0.4,0.1-0.7,0.6-0.5,1c0,0,0,0,0,0c0.1,0.2,0.1,0.5,0.2,0.7c0.2,0.4,0.5,0.8,0.8,1c0.2,0.1,0.4,0.2,0.6,0.1
		c0.1,0,0.2-0.1,0.2-0.2c0.6-0.8-0.7-3.2,0.4-4.1c0.4-0.3,0.9-0.4,1.4-0.2c0.4,0.2,0.7,0.6,0.9,1C15.7,66.7,15.8,67,15.8,67.3z"/>
	<path class="st1" d="M8.8,66.6c-0.1,0.1-0.3,0-0.4-0.1c0,0,0,0,0,0c-0.1-0.2,0-0.3,0.2-0.4c0.2-0.1,0.3,0,0.4,0.2c0,0,0,0,0,0
		C9.1,66.3,9,66.5,8.8,66.6C8.8,66.6,8.8,66.6,8.8,66.6z M14.8,64.8c-0.4-0.2-0.9-0.2-1.3,0l-2.8,1.1c-0.3,0.1-0.4,0.4-0.3,0.7
		l-0.7-0.9l3.7-1.4c0.4-0.1,0.9-0.4,1-0.8L14.8,64.8z"/>
	<path class="st1" d="M14.6,63.3c-0.9,0.2-1.7-0.4-1.9-1.3c0,0,0,0,0-0.1c-0.1-0.5,0-1,0.3-1.4c0.3-0.3,0.6-0.5,1-0.6
		c0.2,0,0.4,0,0.6,0c-0.3-0.1-0.6-0.1-0.8,0c-0.6,0.1-1.1,0.5-1.2,1.1c-0.1,0.4-0.3,0.8-0.6,1.2c0.1,0.9-0.4,1.7-1.3,1.9
		c-0.9,0.2-1.9-0.4-2.1-1.4c-0.4-0.2-0.6-0.6-0.8-1c-0.1-0.3-0.1-0.6,0-0.9l0.5,0.4C8,61.6,8,61.8,8,62.1c0.1,0.2,0.2,0.4,0.4,0.6
		c-0.1-0.5,0-1.1,0.3-1.5l-1.1-2l1.6-0.4c-0.9,0.1-1.7-0.4-1.9-1.3c-0.2-1.1,0.5-2.1,1.6-2.3c0,0,0.1,0,0.1,0l1.7-0.4
		c0.4-0.1,1-0.3,1.1-0.7l0.3,1.5c-0.3-0.3-0.9-0.3-1.3-0.2l-1.6,0.4l0,0c-1.4,0.3-1.9,1.2-1.8,1.9s1.1,1.4,2.6,1l1.5-0.3
		c0.4-0.1,1-0.3,1.1-0.7l0.3,1.4c-0.3-0.3-0.9-0.3-1.3-0.2l-3,0.7c-0.2,0-0.4,0.3-0.4,0.5l0.6,1c0.2-0.3,0.5-0.5,0.9-0.6
		c1-0.2,1.9,0.5,2.1,1.4c0,0,0,0.1,0,0.1c0,0.1,0,0.1,0,0.2c0.7-0.9,0.3-2.4,1.7-2.8c1.1-0.2,1.9,0.7,2.1,1.7c0.3,0.9-0.1,1.8-1,2.1
		C14.6,63.3,14.6,63.3,14.6,63.3z M11.2,62.7c-0.9,0.2-1.8-0.3-2.2-1.1c-0.4,0.3-0.5,0.7-0.4,1.2c0.3,0.8,1.1,1.2,1.9,0.9
		c0.6-0.1,1.2-0.6,1.3-1.2C11.6,62.5,11.4,62.6,11.2,62.7z M9.9,61.1c-0.3,0.1-0.6,0.2-0.8,0.4c0.3,0.8,1.2,1.3,2.1,1.1
		c0.2-0.1,0.4-0.2,0.6-0.3c0-0.1,0-0.2,0-0.3C11.5,61.2,10.6,60.8,9.9,61.1z M15,60.2c-0.3-0.1-0.7-0.1-1-0.1
		c-0.4,0.1-0.7,0.3-1,0.6c-0.3,0.4-0.4,0.8-0.3,1.3c0.2,0.8,1,1.4,1.8,1.2c0,0,0,0,0,0c0.8-0.3,1.3-1.1,1.1-2
		C15.6,60.8,15.3,60.4,15,60.2z"/>
	<path class="st1" d="M8,50.6c-2-0.1-3.6-1.8-3.5-3.8c0-0.9,0.4-1.8,1-2.4l0.2,0.2c-0.7,0.5-1.1,1.3-1.1,2.1C4.6,48.6,6.1,50,8,50
		c0,0,0,0,0,0c1.8,0.2,3.5-1,3.8-2.9c0,0,0,0,0,0c0-0.9-0.3-1.9-0.9-2.6l0.1-0.1c0.7,0.7,1,1.7,0.9,2.7C11.7,49.1,10,50.7,8,50.6z"
		/>
	<path class="st1" d="M10.8,44c-0.4,0.1-0.9,0.1-1.3,0c-0.9-0.2-1.6-0.8-1.9-1.7c-0.1-0.4-0.2-0.9-0.1-1.3c0.2-0.9,0.8-1.6,1.7-1.9
		c0.4-0.2,0.9-0.2,1.3-0.1c1.4,0.3,2.3,1.6,2,3c0,0,0,0,0,0C12.4,42.9,11.7,43.7,10.8,44z M12.4,40.8c-0.2-0.6-0.8-1.1-1.5-1.2
		c-0.5-0.1-1-0.1-1.5,0.1c-0.9,0.2-1.5,0.9-1.8,1.8l0,0c-0.1,0.3-0.1,0.6,0,0.8c0.2,0.6,0.8,1.1,1.5,1.2c0.5,0.1,1,0.1,1.5-0.1
		c0.9-0.2,1.5-0.9,1.8-1.8C12.5,41.3,12.5,41,12.4,40.8L12.4,40.8z"/>
	<path class="st1" d="M12.8,39.5c-0.2,0-0.3-0.2-0.2-0.4c0,0,0,0,0,0c0.1-0.2,0.2-0.2,0.4-0.2c0.2,0,0.3,0.2,0.2,0.4
		S13,39.5,12.8,39.5C12.8,39.5,12.8,39.5,12.8,39.5z"/>
	<path class="st1" d="M40.3,12.2c0.3-0.3,0.3-0.9,0.2-1.3l-1-4.9c-0.1-0.4-0.3-1-0.7-1.1l3.3-0.7c1.1-0.2,2.1,0.4,2.4,1.5
		c0.2,0.8-0.3,1.8-1.8,2.2c-0.8,0.2-2,1-1.8,1.8l0.5,2.1L40.3,12.2z M42.7,8c0.8-0.3,1.3-1.1,1.1-2c-0.1-0.9-0.9-1.6-1.9-1.4
		c0,0,0,0-0.1,0l-2,0.4l0.9,4.7C41,8.8,42,8.2,42.7,8z"/>
	<path class="st1" d="M45.6,11.3c0.3-0.2,0.4-0.9,0.3-1.3l-0.6-5.3c0-0.3-0.3-0.5-0.6-0.5l1.1-0.5l0.7,6.2c0,0.4,0.2,1,0.6,1.2
		L45.6,11.3z"/>
	<path class="st1" d="M49.7,11c-1.4,0.1-2.5-1-2.6-2.3c0-0.1,0-0.1,0-0.2C47,7.1,48,6,49.4,5.9c0,0,0,0,0.1,0c0.9,0,1.7,0.4,2.2,1.1
		L48,7.1c0,0.1,0,0.2,0,0.3c0.1,1.6,1.4,2.9,3,2.9h0.1c0.3-0.3,0.5-0.7,0.6-1.1h0.1C51.6,10.3,50.7,11,49.7,11z M49.8,10.9
		c0.4,0,0.9-0.2,1.2-0.5c-1.7,0.1-3-1.2-3.1-2.9c0,0,0,0,0-0.1V7.3c-0.1,0.4-0.1,0.7-0.1,1.1C47.8,10.2,48.8,10.9,49.8,10.9
		L49.8,10.9z M50.9,7c-0.3-0.6-0.8-1-1.5-1c-0.6,0-1.2,0.4-1.4,1H50.9z"/>
	<path class="st1" d="M52.1,9.5c0-0.1,0-0.2,0-0.3c0-0.2,0.1-0.3,0.1-0.5c0.4-0.8,1.3-1.2,2.2-1l0.9,0.1c-0.3-0.3-0.7-0.5-1.1-0.5
		l-1-0.1c0.2-0.8,1-1.3,1.9-1.2c0.9,0,1.6,0.7,1.6,1.6c0,0.1,0,0.2,0,0.2l-0.2,2.3c0,0.4,0,1,0.3,1.2l-1-0.1l0.1-1.3
		c-0.4,0.8-1.2,1.2-2,1.1C52.9,11,52.2,10.3,52.1,9.5z M55.6,10.1L55.6,10.1c0.1-0.1,0.1-0.2,0.1-0.3c0-0.1,0.1-0.3,0.1-0.4
		c0.1-0.5-0.1-1.1-0.4-1.5l-1-0.1c-0.9-0.1-1.6,0.3-1.7,1.1c0,0.2,0,0.3,0,0.5c0.2,0.7,0.8,1.3,1.5,1.3
		C54.8,10.9,55.3,10.6,55.6,10.1z M56,7.7c0.1-1-0.4-1.6-0.9-1.6c-0.6,0-1.1,0.4-1.2,1h0.3c0.9,0.1,1.6,0.7,1.7,1.6L56,7.7z"/>
	<path class="st1" d="M57.2,9.9l0.6-3.5l-0.3-0.1l0,0h-0.2l1.2-0.5l-0.1,0.6l0.7,0.1v0.1l-0.7-0.1L57.8,10c-0.2,1,0.2,1.6,0.7,1.7
		v0.1c-0.8-0.1-1.4-0.9-1.3-1.7C57.2,10,57.2,9.9,57.2,9.9z"/>
	<path class="st1" d="M60.7,12.3c-1.3-0.3-2.1-1.7-1.8-3c0-0.1,0-0.1,0.1-0.2c0.3-1.3,1.6-2.2,2.9-1.9c0,0,0.1,0,0.1,0
		c0.9,0.3,1.5,0.9,1.8,1.8l-3.6-1c0,0.1-0.1,0.2-0.1,0.3c-0.4,1.6,0.5,3.2,2.1,3.6h0.1c0.4-0.2,0.7-0.5,0.9-0.9h0.1
		C62.8,12.1,61.7,12.6,60.7,12.3z M60.9,12.2c0.4,0.1,0.9,0.1,1.3-0.1c-1.6-0.4-2.6-2.1-2.1-3.7c0,0,0,0,0,0V8.3
		c-0.2,0.3-0.3,0.6-0.4,1C59.2,11,59.9,12,60.9,12.2z M63.1,8.8c0-0.8-0.7-1.5-1.5-1.5c-0.5,0-1,0.3-1.3,0.7L63.1,8.8z"/>
	<path class="st1" d="M66.8,14.5l1-2.5c0.4-0.8,0.3-1.8-0.3-2.5c0.4,0.8,0.3,1.7,0,2.5c-0.3,0.8-0.9,1.4-1.7,1.7
		c-0.3,0.1-0.6,0.1-0.9-0.1c-1.1-0.6-1.5-2-0.9-3.1l0.1-0.1c0.7-1.5,2-1.9,2.9-1.5c0.9,0.4,1.4,1.5,1.2,2.4l1.2-2.9
		c0.1-0.3,0-0.6-0.2-0.7l1.2,0.1l-2.4,5.7c-0.2,0.4-0.3,0.9-0.1,1.3L66.8,14.5z M65.7,13.6c0.8-0.3,1.4-0.9,1.6-1.6
		c0.5-1.1,0.5-2.5-0.3-2.8l0,0c-0.8-0.3-1.8,0.1-2.4,1.6l-0.1,0.1c-0.6,1.4-0.2,2.4,0.6,2.7C65.3,13.7,65.5,13.7,65.7,13.6z"/>
	<path class="st1" d="M71.2,16.4c0.1-0.1,0.3-0.2,0.4-0.3c0.1-0.1,0.2-0.2,0.3-0.3l2.9-4.1c0.1-0.1,0.2-0.2,0.2-0.4
		c0.1-0.1,0.1-0.3,0.2-0.4c0-0.1,0-0.3,0-0.4l1.8,1.3c0.4,0.3,0.7,0.6,1,1c0.2,0.4,0.3,0.8,0.3,1.3c0,0.4,0,0.8-0.2,1.2
		c-0.1,0.4-0.3,0.8-0.6,1.2c-0.3,0.4-0.6,0.7-1,1c-0.4,0.3-0.8,0.5-1.2,0.7c-0.4,0.2-0.9,0.2-1.3,0.2c-0.5,0-0.9-0.2-1.3-0.5
		l-1.8-1.3C70.9,16.5,71,16.4,71.2,16.4z M71.6,17l0.9,0.7c0.3,0.2,0.7,0.4,1.1,0.4c0.4,0,0.8-0.1,1.2-0.3c0.4-0.2,0.8-0.4,1.1-0.7
		c0.4-0.3,0.7-0.6,1-1c0.2-0.3,0.4-0.7,0.6-1.1c0.1-0.4,0.2-0.7,0.3-1.1c0-0.4,0-0.7-0.2-1.1c-0.2-0.4-0.4-0.7-0.7-0.9l-1-0.7
		L71.6,17z"/>
	<path class="st1" d="M77.1,21.4c-1.1-0.9-1.1-2.6-0.2-3.6c0.9-1.1,2.6-1.1,3.6-0.2c0.6,0.6,0.9,1.5,0.8,2.4l-2.7-2.5
		c-0.1,0.1-0.2,0.2-0.3,0.2c-1.1,1.2-1,3,0.1,4.2c0,0,0,0,0,0v0c0.4,0,0.9-0.1,1.2-0.4l0.1,0.1C78.9,22.2,77.8,22.1,77.1,21.4z
		 M77.2,21.4c0.3,0.3,0.7,0.5,1.2,0.5c-1.2-1.1-1.3-3-0.1-4.2c0,0,0,0,0,0l0.1-0.1c-0.3,0.2-0.6,0.4-0.9,0.7
		C76.3,19.5,76.5,20.7,77.2,21.4L77.2,21.4z M80.8,19.4c0.2-0.6,0.1-1.3-0.3-1.8c-0.5-0.4-1.2-0.5-1.8-0.2L80.8,19.4z"/>
	<path class="st1" d="M79.7,23.9c-0.2-0.3-0.2-0.6-0.3-0.9c0-0.2,0.1-0.5,0.2-0.6l0.5,0.3L80,22.8C79.6,23,79.5,23.5,79.7,23.9
		c0.2,0.2,0.4,0.5,0.6,0.7c0.3,0.4,0.7,0.6,1.1,0.8c0.3,0.1,0.7,0,0.8-0.4c0,0,0,0,0,0c0.4-1-1.5-3.4-0.4-4.3l0,0
		c0.3-0.2,0.7-0.3,1-0.2c0.5,0.1,0.9,0.4,1.2,0.8c0.4,0.4,0.6,0.9,0.7,1.5c0,0.2-0.1,0.5-0.2,0.6L83.9,23l0.1-0.1
		c0.4-0.2,0.5-0.7,0.2-1.1c-0.1-0.2-0.2-0.4-0.4-0.6c-0.3-0.4-0.7-0.6-1.1-0.7c-0.2-0.1-0.4,0-0.6,0.1c-0.1,0.1-0.1,0.2-0.2,0.3
		c-0.4,0.9,1.5,2.9,0.6,4.1c-0.1,0.1-0.1,0.2-0.2,0.2c-0.3,0.2-0.6,0.3-1,0.3c-0.5-0.1-0.9-0.4-1.2-0.8C80,24.4,79.8,24.1,79.7,23.9
		z"/>
	<path class="st1" d="M81.3,26c0.4,0.2,1-0.1,1.3-0.3l2.5-1.8c0.2-0.2,0.3-0.5,0.1-0.7l0.9,0.7L83,26.2c-0.3,0.2-0.8,0.6-0.7,1.1
		L81.3,26z M86.6,22.8c0.1-0.1,0.3-0.1,0.4,0.1s0.1,0.3-0.1,0.4c-0.1,0.1-0.3,0.1-0.4-0.1l0,0C86.4,23.1,86.5,22.9,86.6,22.8z"/>
	<path class="st1" d="M81.9,27.4c0.8-0.4,1.8-0.1,2.2,0.7c0,0,0,0,0,0c0.2,0.4,0.3,0.9,0.1,1.4c-0.2,0.4-0.5,0.7-0.8,0.9
		c-0.2,0.1-0.4,0.2-0.6,0.2c0.3,0,0.6-0.1,0.8-0.2c0.6-0.2,0.9-0.8,0.9-1.4c0-0.4,0.1-0.9,0.2-1.3c-0.3-0.8,0-1.8,0.8-2.2
		c0.9-0.4,1.9-0.1,2.4,0.8c0.4,0.1,0.8,0.4,1,0.8c0.1,0.3,0.2,0.6,0.2,0.9l-0.5-0.3c0.1-0.3,0.1-0.6-0.1-0.8
		c-0.1-0.2-0.3-0.4-0.5-0.5c0.2,0.5,0.3,1.1,0.1,1.6l1.6,1.6l-1.4,0.8c0.8-0.3,1.8,0,2.2,0.7c0.5,1,0.1,2.2-0.9,2.7c0,0-0.1,0-0.1,0
		l-1.5,0.8c-0.3,0.2-0.9,0.5-0.9,1l-0.7-1.3c0.3,0.2,1,0,1.3-0.2l1.5-0.8l0,0c1.3-0.7,1.6-1.6,1.2-2.3s-1.4-1-2.8-0.3l-1.3,0.7
		c-0.3,0.2-0.9,0.5-0.9,1l-0.7-1.3c0.4,0.2,0.9,0.1,1.3-0.2l2.7-1.4c0.2-0.1,0.3-0.4,0.3-0.6L88,28c-0.1,0.3-0.4,0.6-0.7,0.8
		c-0.9,0.4-1.9,0-2.4-0.8l-0.1-0.2c-0.4,1,0.3,2.4-1,3.1c-1,0.4-2.1-0.1-2.5-1.1c-0.5-0.8-0.3-1.8,0.4-2.4
		C81.8,27.4,81.8,27.4,81.9,27.4z M82.3,30.5c0.8,0.1,1.5-0.3,1.8-1c0.2-0.4,0.1-0.9-0.1-1.4c-0.4-0.8-1.3-1.1-2.1-0.7c0,0,0,0,0,0
		c-0.8,0.5-1,1.5-0.5,2.2c0,0,0,0,0,0C81.6,30.1,81.9,30.4,82.3,30.5z M85.3,27.1c0.8-0.4,1.8-0.2,2.4,0.5c0.3-0.4,0.3-0.9,0.1-1.3
		c-0.5-0.6-1.4-0.8-2-0.4c-0.6,0.3-1,0.9-1,1.5C84.9,27.4,85.1,27.2,85.3,27.1L85.3,27.1z M87,28.3c0.3-0.1,0.5-0.3,0.7-0.6
		c-0.5-0.7-1.5-0.9-2.3-0.5c-0.2,0.1-0.4,0.3-0.5,0.5c0,0.1,0,0.2,0.1,0.3C85.4,28.6,86.3,28.8,87,28.3z"/>
	<path class="st1" d="M91.6,38c2-0.4,3.9,0.9,4.4,2.9c0.2,0.9,0,1.8-0.4,2.5l-0.3-0.2c0.5-0.6,0.7-1.5,0.6-2.3
		C95.1,39,93,38,91.1,38.7c-1.5,0.6-2.5,2-2.4,3.6c0.2,0.9,0.8,1.7,1.6,2.3v0.1c-1.7-1.1-2.2-3.4-1.1-5.1
		C89.8,38.8,90.6,38.2,91.6,38z"/>
	<path class="st1" d="M90.5,45.1c1.2-0.8,2.8-0.4,3.6,0.7c0.2,0.4,0.4,0.8,0.4,1.2c0.1,1.4-1,2.6-2.4,2.7c-0.9,0-1.8-0.4-2.3-1.1
		c-0.2-0.4-0.4-0.8-0.4-1.2C89.3,46.5,89.7,45.6,90.5,45.1z M89.8,48.6c0.4,0.5,1.1,0.8,1.7,0.8c0.5,0,1-0.2,1.5-0.5
		c0.8-0.5,1.3-1.3,1.3-2.2l0,0c0-0.3-0.1-0.6-0.3-0.8c-0.4-0.5-1.1-0.8-1.7-0.8c-0.5,0-1,0.2-1.4,0.5c-0.8,0.5-1.3,1.3-1.3,2.2
		C89.6,48.1,89.7,48.4,89.8,48.6z"/>
	<path class="st1" d="M89.7,50c0.2,0,0.3,0.1,0.3,0.3c0,0.2-0.1,0.3-0.3,0.3c-0.2,0-0.3-0.1-0.3-0.3c0,0,0,0,0,0
		C89.4,50.1,89.5,50,89.7,50C89.7,50,89.7,50,89.7,50z"/>
</g>
</svg>
