<svg id="Layer_1" data-name="Layer 1" xmlns="http://www.w3.org/2000/svg" viewBox="0 0 100 100"><defs><style>.cls-1,.cls-2{fill:#fff;}.cls-2{fill-rule:evenodd;}</style></defs><path class="cls-1" d="M76,24.39A35.88,35.88,0,1,0,50.58,85.64,33.38,33.38,0,0,0,66.3,82l-1.2-1.4a31,31,0,0,1-14.52,3.26A34.12,34.12,0,1,1,84.7,49.76a33.68,33.68,0,0,1-17.84,30l1.2,1.4a32,32,0,0,0,7.89-6,35.88,35.88,0,0,0,0-50.74Z"/><path class="cls-2" d="M74,91.74,44.12,44.27c-1.83-2.9-2.94-6-4.84-9.07-.56.3-1.12.58-1.68.85,1.18,1.91,1.76,3.58,1.31,3.89s-2.12-1.14-3.59-3.31-2.25-4.22-1.74-4.56,1.35.49,2.43,1.77c.56-.26,1.14-.55,1.72-.85-4.92-6.11-9-2.7-4,4.69C36,41,38.79,43.35,41,46.39L74,91.74Z"/><path class="cls-1" d="M26.35,43.34q1.86-1.68,3.78-3.27C31.41,39,32.7,38,34,36.93l2-1.52c.67-.5,1.35-1,2-1.47,1.35-1,2.73-1.92,4.14-2.81s2.85-1.75,4.32-2.54a34.49,34.49,0,0,1,4.59-2.08,21.94,21.94,0,0,1,2.43-.72,11.39,11.39,0,0,1,2.55-.28,6.39,6.39,0,0,1,1.3.14,4.75,4.75,0,0,1,1.25.43,4.44,4.44,0,0,1,1.1.77,5.43,5.43,0,0,1,.84,1,8.5,8.5,0,0,1,1,2.38A15.36,15.36,0,0,1,62,32.76a32.63,32.63,0,0,1,0,5c-.18,3.35-.62,6.65-.89,10-.14,1.65-.24,3.31-.24,5a21.28,21.28,0,0,0,.52,4.91,9.89,9.89,0,0,0,.86,2.29,6.4,6.4,0,0,0,1.5,1.92A7,7,0,0,0,66,63.08a10,10,0,0,0,2.43.53,9.75,9.75,0,0,1-2.46-.42A7,7,0,0,1,63.7,62a6.87,6.87,0,0,1-1.63-1.93,9.6,9.6,0,0,1-1-2.35,16,16,0,0,1-.48-2.48c-.1-.83-.15-1.67-.17-2.51,0-1.68,0-3.35.15-5,.24-3.34.63-6.65.8-9.95a33.89,33.89,0,0,0-.06-4.94,14.69,14.69,0,0,0-.42-2.4,7.82,7.82,0,0,0-.94-2.2,5.39,5.39,0,0,0-.73-.91,4.09,4.09,0,0,0-.94-.66A5.18,5.18,0,0,0,56,26.15a10.31,10.31,0,0,0-2.4.25,19.24,19.24,0,0,0-2.36.67c-.78.28-1.54.59-2.3.93s-1.5.69-2.23,1.07c-1.48.76-2.91,1.59-4.33,2.46s-2.8,1.78-4.17,2.73c-.69.47-1.37.94-2,1.43s-1.35,1-2,1.46Q30.17,40.12,26.35,43.34Z"/><path class="cls-1" d="M50.87,88.66c-.38.18-.48.8-.51,1.19l-.31,5c0,.38,0,1,.35,1.24l-3.33-.22a2,2,0,0,1-1.92-2c.05-.84.74-1.63,2.31-1.71.79,0,2.19-.48,2.24-1.3l.14-2.21Zm-3.42,3.53a1.7,1.7,0,0,0-1.6,1.7,1.64,1.64,0,0,0,1.49,1.88l2,.13.31-4.74A3,3,0,0,1,47.45,92.19Z"/><path class="cls-1" d="M45.49,88.24c-.4.15-.59.75-.65,1.13L44,94.61a.57.57,0,0,0,.42.61l-1.15.17,1-6.11c.06-.38.09-1-.24-1.27Z"/><path class="cls-1" d="M41.47,87.49a2.57,2.57,0,0,1-1.11,5,2.65,2.65,0,0,1-1.84-1.71l3.59.85a3.37,3.37,0,0,0,.1-.34A3,3,0,0,0,40,87.75H40a1.77,1.77,0,0,0-.83.93l-.08,0A2,2,0,0,1,41.47,87.49ZM39.24,91a1.52,1.52,0,0,0,2.83.68Zm2.1-3.47a2,2,0,0,0-1.26.11,3,3,0,0,1,2.21,3.64l0,.13a3.56,3.56,0,0,0,.41-1C43.08,88.73,42.29,87.79,41.34,87.57Z"/><path class="cls-1" d="M38.73,88.31a2.76,2.76,0,0,1-.08.27,2.09,2.09,0,0,1-.25.44,1.94,1.94,0,0,1-2.35.38l-.81-.31a1.74,1.74,0,0,0,1,.81l.92.35a1.54,1.54,0,0,1-2.08.62,1.57,1.57,0,0,1-1-2.11l.82-2.17c.13-.36.3-1,0-1.29l1,.37-.46,1.21a1.92,1.92,0,0,1,2.22-.55A1.77,1.77,0,0,1,38.73,88.31ZM34.55,89c-.37,1,0,1.62.49,1.81a1.09,1.09,0,0,0,1.38-.7l-.25-.1a1.91,1.91,0,0,1-1.25-2Zm1-2.21h0a1.44,1.44,0,0,0-.21.26,1.69,1.69,0,0,0-.19.38,2.08,2.08,0,0,0,0,1.57l.9.34a1.34,1.34,0,0,0,1.9-.65,1.76,1.76,0,0,0,.11-.49,1.69,1.69,0,0,0-1.15-1.7A1.28,1.28,0,0,0,35.54,86.76Z"/><path class="cls-1" d="M33.88,86.58l-1.51,3.19.28.13h0l.18.08-1.29.19.28-.58-.64-.3,0-.08.63.3,1.51-3.19c.42-.88.23-1.59-.23-1.8l0-.07A1.52,1.52,0,0,1,33.88,86.58Z"/><path class="cls-1" d="M31.14,83.36a2.57,2.57,0,0,1-2.49,4.5,2.68,2.68,0,0,1-1.28-2.17l3.2,1.83a1.81,1.81,0,0,0,.19-.29,3,3,0,0,0-1.08-4l-.06,0a1.88,1.88,0,0,0-1.07.66l-.07,0A2,2,0,0,1,31.14,83.36ZM28,86.14a1.52,1.52,0,0,0,2.52,1.45Zm3-2.74a2,2,0,0,0-1.24-.25,3,3,0,0,1,1.08,4.12l-.06.11a3.52,3.52,0,0,0,.68-.85C32.32,85,31.84,83.89,31,83.4Z"/><path class="cls-1" d="M25.81,79.68l-1.65,2.13a2.39,2.39,0,0,0-.35,2.48,3.08,3.08,0,0,1,.72-2.39,2.8,2.8,0,0,1,2.08-1.23,1.45,1.45,0,0,1,.87.3,2.3,2.3,0,0,1,.06,3.23l-.07.1c-1.08,1.29-2.38,1.32-3.18.7a2.15,2.15,0,0,1-.52-2.68l-1.94,2.51a.58.58,0,0,0,.06.74l-1.08-.4,3.78-4.9c.24-.3.57-.83.4-1.22Zm.82,1.09a2.63,2.63,0,0,0-2,1.18c-.75,1-1.09,2.25-.43,2.81l0,0c.64.5,1.72.38,2.77-.88l.1-.13c.9-1.17.78-2.3.17-2.77A1.19,1.19,0,0,0,26.63,80.77Z"/><path class="cls-1" d="M22.11,76.72a1.52,1.52,0,0,0-.43.2,4.37,4.37,0,0,0-.36.25L17.5,80.35a4.36,4.36,0,0,0-.32.31,1.46,1.46,0,0,0-.27.38.62.62,0,0,0-.06.42l-1.43-1.72a3.13,3.13,0,0,1-.67-1.25,2.74,2.74,0,0,1,0-1.24,3.33,3.33,0,0,1,.49-1.15,4.4,4.4,0,0,1,.87-1,4.83,4.83,0,0,1,1.23-.75,4.16,4.16,0,0,1,1.36-.33,3,3,0,0,1,1.34.18,2.7,2.7,0,0,1,1.13.82l1.38,1.67A.67.67,0,0,0,22.11,76.72Zm-.3-.74-.73-.87a1.78,1.78,0,0,0-.94-.61,2.78,2.78,0,0,0-1.19,0,4.51,4.51,0,0,0-1.27.42,6.21,6.21,0,0,0-1.19.77,5.61,5.61,0,0,0-.86.9,3.73,3.73,0,0,0-.55,1A2.43,2.43,0,0,0,15,78.66a2.18,2.18,0,0,0,.49,1l.77.92Z"/><path class="cls-1" d="M17.67,70.33a2.45,2.45,0,0,1-.87,3.49,2.45,2.45,0,0,1-3.44-.68,2.69,2.69,0,0,1-.11-2.52l2,3.12a1.87,1.87,0,0,0,.31-.17,2.94,2.94,0,0,0,.93-4.06l0-.06a1.82,1.82,0,0,0-1.25.09l-.05-.07A2,2,0,0,1,17.67,70.33Zm-4.09,1a1.72,1.72,0,0,0-.13,1.81,1.68,1.68,0,0,0,1.68.65Zm3.94-1a2,2,0,0,0-1-.81,3,3,0,0,1-1,4.15l-.11.07a3.49,3.49,0,0,0,1-.43C17.94,72.34,18,71.12,17.52,70.3Z"/><path class="cls-1" d="M15.82,67.3a1.84,1.84,0,0,1,0,.93,1.07,1.07,0,0,1-.37.57l-.41-.45.16-.07a.78.78,0,0,0,.51-1,4,4,0,0,0-.29-.81,2.2,2.2,0,0,0-.84-1,.76.76,0,0,0-.65-.06.73.73,0,0,0-.24.2c-.64.87.59,3.65-.74,4.28l-.06,0a1.19,1.19,0,0,1-1,0A2.3,2.3,0,0,1,11,68.84a2.52,2.52,0,0,1-.26-1.62,1.23,1.23,0,0,1,.37-.56l.41.44-.14.06a.79.79,0,0,0-.52,1,2.9,2.9,0,0,0,.24.68,2.18,2.18,0,0,0,.84,1,.69.69,0,0,0,.65.06.54.54,0,0,0,.23-.2c.61-.8-.66-3.22.45-4.09a1.27,1.27,0,0,1,1.37-.16,2.19,2.19,0,0,1,.91,1A4.34,4.34,0,0,1,15.82,67.3Z"/><path class="cls-1" d="M8.82,66.57a.29.29,0,0,1-.39-.17A.31.31,0,0,1,8.6,66a.3.3,0,0,1,.39.17A.29.29,0,0,1,8.82,66.57Zm5.94-1.82a1.45,1.45,0,0,0-1.3,0l-2.84,1.11a.55.55,0,0,0-.31.66l-.73-.9,3.66-1.43c.35-.14.91-.43,1-.85Z"/><path class="cls-1" d="M14.56,63.34A1.63,1.63,0,0,1,12.62,62a1.58,1.58,0,0,1,.28-1.36,1.82,1.82,0,0,1,1-.64,1.57,1.57,0,0,1,.61,0,1.6,1.6,0,0,0-.84,0,1.47,1.47,0,0,0-1.25,1.11,3.16,3.16,0,0,1-.56,1.15,1.79,1.79,0,0,1-1.3,1.94,1.81,1.81,0,0,1-2.08-1.36,1.78,1.78,0,0,1-.76-1,1.68,1.68,0,0,1,0-.91l.46.39a1.23,1.23,0,0,0-.15.8,1.18,1.18,0,0,0,.37.6,1.91,1.91,0,0,1,.3-1.55l-1.13-2L9.2,58.8a1.78,1.78,0,0,1-1.95-1.28A2,2,0,0,1,9,55.17l1.69-.39c.38-.09,1-.29,1.08-.7l.34,1.47c-.28-.32-.91-.27-1.29-.18l-1.63.37h0c-1.41.33-1.93,1.17-1.76,1.87S8.51,59,10,58.61l1.46-.34c.37-.09,1-.28,1.08-.69L12.88,59c-.28-.31-.91-.27-1.29-.18l-3,.69a.5.5,0,0,0-.4.51l.58,1a1.55,1.55,0,0,1,.91-.58A1.81,1.81,0,0,1,11.82,62a1.29,1.29,0,0,1,0,.19c.68-.87.3-2.44,1.72-2.77,1.06-.24,1.89.69,2.13,1.73A1.67,1.67,0,0,1,14.56,63.34Zm-3.4-.66A1.93,1.93,0,0,1,9,61.55a1.24,1.24,0,0,0-.44,1.19,1.5,1.5,0,0,0,1.9.89,1.65,1.65,0,0,0,1.32-1.24A1.35,1.35,0,0,1,11.16,62.68ZM9.85,61.1a2.05,2.05,0,0,0-.81.4,1.88,1.88,0,0,0,2.11,1.11,1.29,1.29,0,0,0,.62-.34,1.24,1.24,0,0,0,0-.27A1.5,1.5,0,0,0,9.85,61.1ZM15,60.19a1.91,1.91,0,0,0-1-.07,1.74,1.74,0,0,0-1,.61A1.51,1.51,0,0,0,12.7,62a1.55,1.55,0,0,0,1.85,1.23,1.61,1.61,0,0,0,1.08-2A1.64,1.64,0,0,0,15,60.19Z"/><path class="cls-1" d="M8,50.57A3.67,3.67,0,0,1,5.5,44.35l.2.25a2.84,2.84,0,0,0-1.14,2.09A3.37,3.37,0,0,0,8,50a3.37,3.37,0,0,0,3.79-2.9,3.56,3.56,0,0,0-.92-2.58l.06-.06a3.64,3.64,0,0,1,.94,2.68A3.69,3.69,0,0,1,8,50.57Z"/><path class="cls-1" d="M10.83,44A2.48,2.48,0,0,1,9.51,44a2.57,2.57,0,0,1-1.93-1.71A2.66,2.66,0,0,1,7.5,41,2.58,2.58,0,0,1,9.21,39.1,2.49,2.49,0,0,1,10.53,39a2.54,2.54,0,0,1,2,3A2.55,2.55,0,0,1,10.83,44Zm1.55-3.21a1.89,1.89,0,0,0-1.47-1.17,2.92,2.92,0,0,0-1.51.1,2.56,2.56,0,0,0-1.78,1.79h0a1.68,1.68,0,0,0,0,.83,1.88,1.88,0,0,0,1.47,1.18,3,3,0,0,0,1.51-.1,2.59,2.59,0,0,0,1.78-1.8A1.71,1.71,0,0,0,12.38,40.74Z"/><path class="cls-1" d="M12.84,39.45a.3.3,0,0,1-.21-.37.32.32,0,0,1,.38-.21.3.3,0,1,1-.17.58Z"/><path class="cls-1" d="M40.29,12.24c.32-.27.26-.9.18-1.28l-1-4.87c-.07-.38-.26-1-.66-1.11l3.28-.65a2,2,0,0,1,2.37,1.46c.17.81-.3,1.75-1.79,2.24-.76.25-2,1-1.83,1.83L41.3,12ZM42.69,8a1.7,1.7,0,0,0,1.11-2,1.67,1.67,0,0,0-1.93-1.44l-2,.4.93,4.66C41,8.81,42,8.17,42.69,8Z"/><path class="cls-1" d="M45.6,11.26c.34-.24.38-.88.34-1.26l-.56-5.27a.58.58,0,0,0-.56-.48l1.06-.47.65,6.16c0,.38.17,1,.56,1.16Z"/><path class="cls-1" d="M49.67,11a2.45,2.45,0,0,1-2.56-2.53,2.45,2.45,0,0,1,2.34-2.61A2.68,2.68,0,0,1,51.68,7L48,7.11a2,2,0,0,0,0,.35,3,3,0,0,0,3,2.87h.07a1.72,1.72,0,0,0,.56-1.11h.09A2,2,0,0,1,49.67,11Zm.11-.11A2,2,0,0,0,51,10.41,3,3,0,0,1,47.9,7.46V7.33a3.66,3.66,0,0,0-.13,1.09C47.8,10.16,48.8,10.87,49.78,10.85ZM50.92,7a1.71,1.71,0,0,0-1.49-1A1.66,1.66,0,0,0,48,7Z"/><path class="cls-1" d="M52.11,9.46a2.81,2.81,0,0,1,0-.29,1.55,1.55,0,0,1,.13-.48,1.92,1.92,0,0,1,2.17-1l.87.09a1.85,1.85,0,0,0-1.14-.53l-1-.1A1.55,1.55,0,0,1,55,6,1.58,1.58,0,0,1,56.58,7.8l-.23,2.31c0,.38-.05,1,.3,1.25l-1-.1.13-1.3a1.94,1.94,0,0,1-2,1.11A1.77,1.77,0,0,1,52.11,9.46Zm3.48.67h0a1.57,1.57,0,0,0,.14-.3,1.84,1.84,0,0,0,.08-.42,2.08,2.08,0,0,0-.44-1.51l-1-.1c-.88-.08-1.59.32-1.67,1.12a1.77,1.77,0,0,0,0,.51,1.68,1.68,0,0,0,1.55,1.34A1.27,1.27,0,0,0,55.59,10.13ZM56,7.74c.11-1-.4-1.57-.94-1.62a1.08,1.08,0,0,0-1.15,1l.27,0a1.93,1.93,0,0,1,1.72,1.6Z"/><path class="cls-1" d="M57.25,9.88l.63-3.47-.3-.06h0l-.19,0,1.2-.52-.12.64.69.13v.08l-.7-.13L57.81,10c-.17,1,.2,1.6.69,1.69v.07A1.51,1.51,0,0,1,57.25,9.88Z"/><path class="cls-1" d="M60.72,12.29A2.45,2.45,0,0,1,59,9.14,2.45,2.45,0,0,1,62,7.3a2.69,2.69,0,0,1,1.79,1.77l-3.56-1a3.19,3.19,0,0,0-.11.33,3,3,0,0,0,2.08,3.61l.07,0a1.89,1.89,0,0,0,.86-.92l.08,0A2,2,0,0,1,60.72,12.29Zm.13-.08a2,2,0,0,0,1.27-.08A3,3,0,0,1,60,8.43l0-.13a3.83,3.83,0,0,0-.44,1C59.15,11,59.91,12,60.85,12.21Zm2.2-3.42A1.52,1.52,0,0,0,60.24,8Z"/><path class="cls-1" d="M66.81,14.47l1-2.48a2.34,2.34,0,0,0-.3-2.48A3,3,0,0,1,67.48,12a2.77,2.77,0,0,1-1.69,1.72,1.44,1.44,0,0,1-.92-.07,2.29,2.29,0,0,1-.89-3.1l.05-.12c.71-1.53,2-1.88,2.89-1.49a2.14,2.14,0,0,1,1.19,2.45l1.23-2.92a.57.57,0,0,0-.25-.69l1.15.1-2.4,5.71c-.15.35-.34.95-.07,1.28Zm-1.07-.84A2.62,2.62,0,0,0,67.38,12c.48-1.13.48-2.46-.3-2.82l0,0c-.75-.32-1.76.07-2.45,1.56l-.06.15c-.58,1.36-.17,2.42.55,2.72A1.16,1.16,0,0,0,65.74,13.63Z"/><path class="cls-1" d="M71.15,16.38a1.52,1.52,0,0,0,.37-.3c.11-.12.2-.24.28-.34l2.87-4.05c.07-.11.15-.23.23-.38a1.46,1.46,0,0,0,.16-.44.7.7,0,0,0,0-.43l1.82,1.3a3.06,3.06,0,0,1,1,1A2.71,2.71,0,0,1,78.15,14,3.31,3.31,0,0,1,78,15.21a4.64,4.64,0,0,1-.59,1.15,4.92,4.92,0,0,1-1,1,4.11,4.11,0,0,1-1.23.67,3.08,3.08,0,0,1-1.34.17,2.66,2.66,0,0,1-1.3-.5l-1.77-1.26A.68.68,0,0,0,71.15,16.38Zm.48.63.93.66a1.78,1.78,0,0,0,1.07.35,2.76,2.76,0,0,0,1.16-.27A4.78,4.78,0,0,0,75.91,17a5.94,5.94,0,0,0,1-1,5.62,5.62,0,0,0,.6-1.1,3.62,3.62,0,0,0,.26-1.14,2.38,2.38,0,0,0-.19-1.06,2.14,2.14,0,0,0-.73-.87l-1-.69Z"/><path class="cls-1" d="M77.09,21.41a2.57,2.57,0,0,1,3.44-3.82,2.68,2.68,0,0,1,.75,2.4l-2.69-2.51a3.07,3.07,0,0,0-.26.25,2.94,2.94,0,0,0,.15,4.16l0,.05a1.82,1.82,0,0,0,1.19-.41l.06.06A2,2,0,0,1,77.09,21.41Zm.15,0a2,2,0,0,0,1.16.53,3,3,0,0,1-.13-4.26l.09-.1a4,4,0,0,0-.86.68C76.31,19.54,76.53,20.74,77.24,21.4Zm3.55-2a1.73,1.73,0,0,0-.34-1.79,1.67,1.67,0,0,0-1.79-.19Z"/><path class="cls-1" d="M79.65,23.87a2,2,0,0,1-.26-.9,1.21,1.21,0,0,1,.22-.65l.51.33-.14.11a.79.79,0,0,0-.24,1.07,4,4,0,0,0,.48.71,2.29,2.29,0,0,0,1.08.75.63.63,0,0,0,.82-.37c.4-1-1.51-3.37-.39-4.32l0,0a1.21,1.21,0,0,1,1-.22,2.35,2.35,0,0,1,1.16.79,2.56,2.56,0,0,1,.67,1.49,1.3,1.3,0,0,1-.22.65L83.88,23l.12-.1a.79.79,0,0,0,.25-1.08,2.92,2.92,0,0,0-.4-.59,2.18,2.18,0,0,0-1.08-.74.69.69,0,0,0-.63.1.61.61,0,0,0-.18.26c-.38.92,1.47,2.94.62,4.07a1.39,1.39,0,0,1-.23.25,1.2,1.2,0,0,1-1,.26,2.31,2.31,0,0,1-1.16-.79A5.1,5.1,0,0,1,79.65,23.87Z"/><path class="cls-1" d="M81.33,26.05c.39.18,1-.11,1.26-.34l2.46-1.8a.57.57,0,0,0,.13-.72l.94.68L83,26.2c-.31.22-.78.65-.73,1.07Zm5.27-3.28a.3.3,0,1,1-.06.42A.3.3,0,0,1,86.6,22.77Z"/><path class="cls-1" d="M81.89,27.36a1.64,1.64,0,0,1,2.21.76,1.6,1.6,0,0,1,.08,1.39,1.8,1.8,0,0,1-.82.88,1.65,1.65,0,0,1-.58.19,1.71,1.71,0,0,0,.82-.23A1.46,1.46,0,0,0,84.52,29a3.13,3.13,0,0,1,.24-1.27,1.79,1.79,0,0,1,.76-2.2,1.81,1.81,0,0,1,2.36.78,1.79,1.79,0,0,1,1,.79,1.69,1.69,0,0,1,.18.89l-.54-.26a1.19,1.19,0,0,0-.06-.81A1.13,1.13,0,0,0,88,26.4,2,2,0,0,1,88.06,28l1.61,1.64-1.43.76a1.77,1.77,0,0,1,2.21.73,2,2,0,0,1-1,2.71l-1.52.81c-.35.18-.87.53-.88.95l-.7-1.32c.35.23,1,0,1.29-.16l1.48-.78h0c1.27-.68,1.56-1.62,1.22-2.26s-1.43-1-2.79-.29l-1.32.7c-.34.18-.86.52-.87,1l-.7-1.33a1.43,1.43,0,0,0,1.29-.16l2.69-1.42a.54.54,0,0,0,.26-.6L88,28.05a1.67,1.67,0,0,1-.73.8A1.83,1.83,0,0,1,84.89,28l-.09-.18c-.43,1,.34,2.44-1,3.12a1.94,1.94,0,0,1-2.5-1.12A1.69,1.69,0,0,1,81.89,27.36Zm.42,3.15a1.72,1.72,0,0,0,1.79-1A1.49,1.49,0,0,0,84,28.16a1.55,1.55,0,0,0-2.11-.72,1.62,1.62,0,0,0-.52,2.26A1.64,1.64,0,0,0,82.31,30.51Zm3-3.38a1.93,1.93,0,0,1,2.4.53,1.21,1.21,0,0,0,.12-1.26A1.51,1.51,0,0,0,85.8,26a1.66,1.66,0,0,0-1,1.54A1.53,1.53,0,0,1,85.34,27.13ZM87,28.32a2.08,2.08,0,0,0,.68-.59,1.86,1.86,0,0,0-2.32-.53,1.14,1.14,0,0,0-.51.48.8.8,0,0,0,.09.26A1.5,1.5,0,0,0,87,28.32Z"/><path class="cls-1" d="M91.56,38a3.69,3.69,0,0,1,4.36,2.86,3.62,3.62,0,0,1-.38,2.52l-.27-.19a2.84,2.84,0,0,0,.57-2.31,3.66,3.66,0,0,0-7.08,1.49,3.6,3.6,0,0,0,1.56,2.26l0,.07A3.69,3.69,0,0,1,91.56,38Z"/><path class="cls-1" d="M90.48,45.14a2.59,2.59,0,0,1,3.56.74,2.62,2.62,0,0,1,.42,1.25,2.57,2.57,0,0,1-4.71,1.55,2.52,2.52,0,0,1-.42-1.25A2.57,2.57,0,0,1,90.48,45.14Zm-.66,3.5a1.88,1.88,0,0,0,1.72.76A3.08,3.08,0,0,0,93,48.92a2.57,2.57,0,0,0,1.26-2.2h0a1.68,1.68,0,0,0-.26-.79,1.88,1.88,0,0,0-1.72-.76,3,3,0,0,0-1.43.49,2.58,2.58,0,0,0-1.26,2.2A1.61,1.61,0,0,0,89.82,48.64Z"/><path class="cls-1" d="M89.7,50a.31.31,0,0,1,.3.3.32.32,0,0,1-.31.3.3.3,0,0,1-.3-.31A.3.3,0,0,1,89.7,50Z"/></svg>