<svg id="Layer_1" data-name="Layer 1" xmlns="http://www.w3.org/2000/svg" xmlns:xlink="http://www.w3.org/1999/xlink" viewBox="0 0 100 100"><defs><style>.cls-1{fill:url(#linear-gradient);}.cls-2{fill:url(#linear-gradient-2);}.cls-3{fill:url(#linear-gradient-3);}.cls-4{fill:url(#linear-gradient-4);}.cls-5{fill:url(#linear-gradient-5);}.cls-6{fill:url(#linear-gradient-6);}.cls-7{fill:url(#linear-gradient-7);}.cls-8{fill:url(#linear-gradient-8);}.cls-9{fill:url(#linear-gradient-9);}.cls-10{fill:#fff;}</style><linearGradient id="linear-gradient" x1="30.45" y1="77.98" x2="79.89" y2="8.94" gradientUnits="userSpaceOnUse"><stop offset="0" stop-color="#bc0ff5"/><stop offset="0.48" stop-color="#2688b2"/><stop offset="1" stop-color="#06e96f"/></linearGradient><linearGradient id="linear-gradient-2" x1="-4.91" y1="31.71" x2="83.02" y2="92.93" xlink:href="#linear-gradient"/><linearGradient id="linear-gradient-3" x1="19.56" y1="-3.43" x2="107.48" y2="57.8" xlink:href="#linear-gradient"/><linearGradient id="linear-gradient-4" x1="-15.33" y1="46.68" x2="72.59" y2="107.91" xlink:href="#linear-gradient"/><linearGradient id="linear-gradient-5" x1="21.8" y1="-6.65" x2="109.72" y2="54.58" xlink:href="#linear-gradient"/><linearGradient id="linear-gradient-6" x1="-9.74" y1="38.66" x2="78.18" y2="99.88" xlink:href="#linear-gradient"/><linearGradient id="linear-gradient-7" x1="3.75" y1="19.27" x2="91.68" y2="80.5" xlink:href="#linear-gradient"/><linearGradient id="linear-gradient-8" x1="4.6" y1="18.05" x2="92.52" y2="79.28" xlink:href="#linear-gradient"/><linearGradient id="linear-gradient-9" x1="24.76" y1="-10.9" x2="112.68" y2="50.33" xlink:href="#linear-gradient"/></defs><path class="cls-1" d="M88.57,49c-2,.43-4.37,1.15-5.89-.57a3.47,3.47,0,0,1-.81-1.94c-.18-2,.78-3.6,1.72-5.19l.38-.64a10,10,0,0,0,1.82-4.91,4.16,4.16,0,0,0-1.6-3.36,3.09,3.09,0,0,0-3.6,0c-.78.59-1.18,1.57-2,2.16a3.49,3.49,0,0,1-4.42-.68,8.12,8.12,0,0,1-1.84-4.46c-.4-2.6-.48-5.45-2.86-7.18a3,3,0,0,0-3.6,0c-1.45,1.16-1,3-1,4.59a2.31,2.31,0,0,1-4.16,1.42c-.56-.74-1.12-1.49-2-1.63-2-.31-2.65,2.66-4.29,3.83s-3.77.32-5-1.12a12.91,12.91,0,0,1-2.11-5.14c-.59-2.2-1.42-4.51-3.64-5.52a3.13,3.13,0,0,0-3.36.39c-1.48,1.29-1,3.36-.08,4.86s2.43,3.06,2.43,5.14a2.51,2.51,0,0,1-1.37,2.29c-2.74,1.23-4.75-3.79-7.53-1.9a3.29,3.29,0,0,0-1.35,2.45c-.17,1.84-1.58,5.17-4.17,3.25a4.06,4.06,0,0,1-.72-.77c-.6-.79-2-1.57-2.81-.84-.67.59-.41,1.67-.62,2.53-.45,1.84-3,2.32-4.73,1.65-2.36-.89-4.11-3.07-6.9-3.07a2.8,2.8,0,0,0-2.67,1.8c-.74,2.15,1.76,3.82,3.82,4.29a21.55,21.55,0,0,1,2.53.72,4,4,0,0,1,1.85,1.14.85.85,0,0,1,.2.61.69.69,0,0,1-.44.55,1.07,1.07,0,0,1-.85-.13,3.6,3.6,0,0,0-.66-.2,3.29,3.29,0,0,0-1.59.1A3.26,3.26,0,0,0,13,44.72a2.5,2.5,0,0,0,1.12,3.66,4.19,4.19,0,0,0,3.56.25,1.71,1.71,0,0,1,1.84.07,1.36,1.36,0,0,1,.27,1.58,3.58,3.58,0,0,1-2.29,1.64L8.46,55.3c-1.57.58-3.21,1.22-4.08,2.77A2.74,2.74,0,0,0,4.05,60C4.47,62,6.8,62.26,8.36,61.46a14,14,0,0,0,3.21-2.81c1.19-1.19,2.73-2.27,4.49-1.82a2.14,2.14,0,0,1,1.62,2.65C17.31,60.6,16,61,15,61.57s-2.16,2.1-1,3a1.72,1.72,0,0,0,1.76.2l6.8-2.89a1.53,1.53,0,0,1,1.9,2.22,5.31,5.31,0,0,1-.54.71c-1.24,1.38-3,2.27-3.72,4.12a2.65,2.65,0,0,0,.14,2.36c1.15,1.83,3.73.94,5.06-.51,2.09-2.28,2.86-5.6,5.83-7.14a3.67,3.67,0,0,1,3.68.09c1.64,1.07,1.3,2.7,1.44,4.19.1,1,.62,2.22,1.65,2.4s2-.89,2.45-1.94c.51-1.3.75-2.84,2.26-3.4A3,3,0,0,1,46,66c1.63,2,1.24,4.53,1,6.89-.16,1.93-.16,4,1.15,5.56a3.12,3.12,0,0,0,3.28,1.1c2.24-.69,2.44-3.72,2.09-6s-.61-5.13,1.34-6.36a5.6,5.6,0,0,1,1.88-.65l4.35-.93c2.48-.53,5.41-.93,7.22.84.86.85,1.3,2.07,2.4,2.72a1.73,1.73,0,0,0,1.73.07c1.15-.67.74-2.37,1.19-3.6.53-1.48,2.34-2.13,3.9-1.94a14.76,14.76,0,0,1,4.37,1.68c2.36,1.09,5.14,1.78,7.48.28a3.58,3.58,0,0,0,1.48-4.48c-.72-1.54-2.38-2-4.16-2.06A1.85,1.85,0,0,1,86,55.57l0,0c2.11-.84,4.58-.49,6.46-2.1a2.7,2.7,0,0,0,1-2.57c-.42-2-3-2.27-4.85-1.88"/><path class="cls-2" d="M64.24,76.53l-.84-.68a.78.78,0,0,0-1.28.7c.22,1.55.52,3.48.8,4.61.21.89.51,1.84,1.51,2.15a2,2,0,0,0,1.92-.49A3.12,3.12,0,0,0,66.6,79a9.35,9.35,0,0,0-2.36-2.46"/><path class="cls-3" d="M52.92,24.14a.55.55,0,0,0,1,.2,14.47,14.47,0,0,0,1.86-5A4,4,0,0,0,55.86,18a1.51,1.51,0,0,0-2.46-1,3.15,3.15,0,0,0-1.29,2.59,10.11,10.11,0,0,0,.5,3,13.42,13.42,0,0,1,.31,1.66"/><path class="cls-4" d="M31.26,74c-.05-.25-.14-.54-.38-.62s-.57.23-.73.52a51.26,51.26,0,0,0-2.65,5.14,3.46,3.46,0,0,0,.33,3,2.59,2.59,0,0,0,2.52,1,2.62,2.62,0,0,0,2-1.83,5.25,5.25,0,0,0-.11-2.36l-1-4.86"/><path class="cls-5" d="M93,39.94a26.7,26.7,0,0,0-4.63,2.61.87.87,0,0,0,.43,1.58c1.33.1,2.93.2,3.86.23a4.44,4.44,0,0,0,2-.27A2.5,2.5,0,0,0,96,41.74v0a2.12,2.12,0,0,0-3-1.77"/><path class="cls-6" d="M6.94,49.2A2.61,2.61,0,0,0,5,49.81a1.28,1.28,0,0,0-.39,1.1c.13.73.9,1,1.58,1.14a7.87,7.87,0,0,0,4.54-.63.64.64,0,0,0-.05-1.17,14.77,14.77,0,0,0-3.74-1"/><path class="cls-7" d="M18.6,31.84l.8.94a.7.7,0,0,0,1.22-.34c.08-.4.16-.81.21-1.22A3.56,3.56,0,0,0,20,28a1.79,1.79,0,0,0-1.39-.49,1.74,1.74,0,0,0-1.29,2.4,5.69,5.69,0,0,0,1.26,1.94"/><path class="cls-8" d="M78.78,70.32a4,4,0,0,0,.35,1.22,2.49,2.49,0,0,0,.66,1.13,2,2,0,0,0,1.58.29,1.74,1.74,0,0,0,1.07-.66,2,2,0,0,0,.08-1.83,3,3,0,0,0-1.34-1.32,1.79,1.79,0,0,0-2,0,1.43,1.43,0,0,0-.38,1.17"/><path class="cls-9" d="M79.38,25.25c.13-.66.18-1.43-.47-1.82a1.36,1.36,0,0,0-1.21,0,3,3,0,0,0-1.53,3,6.15,6.15,0,0,0,.72,2.27.48.48,0,0,0,.84,0,16.37,16.37,0,0,0,1.65-3.49"/><path class="cls-10" d="M28.29,46.92a.81.81,0,0,1,.54.22.75.75,0,0,1,.23.55v6a1.45,1.45,0,0,1-.17.67,2.18,2.18,0,0,1-.44.57,2.05,2.05,0,0,1-.63.4,1.94,1.94,0,0,1-.7.14,1.89,1.89,0,0,1-.7-.13A2.39,2.39,0,0,1,25.8,55a1.89,1.89,0,0,1-.44-.57,1.58,1.58,0,0,1-.16-.72V41.83a1.48,1.48,0,0,1,.16-.68,2.18,2.18,0,0,1,.44-.57,2.27,2.27,0,0,1,.62-.4,1.9,1.9,0,0,1,.7-.14,1.93,1.93,0,0,1,.7.13,2.16,2.16,0,0,1,.63.36,1.89,1.89,0,0,1,.44.57,1.6,1.6,0,0,1,.17.73v1.23a.78.78,0,0,1-1.55,0V42a.38.38,0,0,0-.11-.29.39.39,0,0,0-.28-.11.37.37,0,0,0-.27.11.42.42,0,0,0-.11.29V53.54a.42.42,0,0,0,.11.29.37.37,0,0,0,.27.11.39.39,0,0,0,.28-.11.38.38,0,0,0,.11-.29V47.69a.75.75,0,0,1,.23-.55A.82.82,0,0,1,28.29,46.92Zm5.4-2.71a1.82,1.82,0,0,1-.4,1.17,1.75,1.75,0,0,1,.4,1.17v8.16a.79.79,0,0,1-.77.77.7.7,0,0,1-.55-.23.73.73,0,0,1-.22-.54V46.55a.4.4,0,0,0-.11-.29.42.42,0,0,0-.29-.11h-.38v8.56a.79.79,0,0,1-.77.77.79.79,0,0,1-.77-.77V46.15H28.29a.79.79,0,0,1-.78-.77.79.79,0,0,1,.78-.77h1.54v-3.8a.74.74,0,0,1,.23-.54A.78.78,0,0,1,30.6,40h1.15A1.91,1.91,0,0,1,33.69,42ZM32.15,42a.38.38,0,0,0-.4-.4h-.38v3h.38a.38.38,0,0,0,.4-.4Z"/><path class="cls-10" d="M35.42,55.48a.79.79,0,0,1-.77-.77V40.81a.7.7,0,0,1,.23-.54.74.74,0,0,1,.54-.23h2.31a.78.78,0,0,1,.55.23.77.77,0,0,1-.55,1.31H36.19v3H37a.79.79,0,0,1,.77.77.79.79,0,0,1-.77.77h-.77v7.79h1.54a.78.78,0,0,1,.55.23.77.77,0,0,1-.55,1.31Z"/><path class="cls-10" d="M45.63,40a.74.74,0,0,1,.54.23.77.77,0,0,1-.54,1.31V54.71a.79.79,0,0,1-.77.77.79.79,0,0,1-.77-.77V41.58H40.23a.76.76,0,0,1-.55-1.31.78.78,0,0,1,.55-.23Zm-4.24,2.31a1.93,1.93,0,0,1,1.92,1.95V54.71a.79.79,0,0,1-.77.77.79.79,0,0,1-.77-.77V48.47H41v6.24a.78.78,0,0,1-1.55,0V44.3a1.95,1.95,0,0,1,1.94-1.95Zm.38,1.95a.4.4,0,0,0-.11-.29.37.37,0,0,0-.27-.11.39.39,0,0,0-.28.11.36.36,0,0,0-.11.29v2.62h.77Z"/><path class="cls-10" d="M48.12,55.48a.79.79,0,0,1-.77-.77V40.81a.74.74,0,0,1,.23-.54.78.78,0,0,1,.54-.23.74.74,0,0,1,.54.23.7.7,0,0,1,.23.54v13.9a.79.79,0,0,1-.77.77Z"/><path class="cls-10" d="M49.86,40.74a.64.64,0,0,1,.16-.47.6.6,0,0,1,.44-.23.66.66,0,0,1,.49.15.72.72,0,0,1,.22.47l.57,7.56.57-7.56a.72.72,0,0,1,.22-.47A.66.66,0,0,1,53,40a.62.62,0,0,1,.45.23.56.56,0,0,1,.15.47l-1,14a.84.84,0,0,1-.26.5.69.69,0,0,1-.51.2H51.7a.72.72,0,0,1-.53-.2.73.73,0,0,1-.25-.5Z"/><path class="cls-10" d="M56.09,46.13v7.46a.36.36,0,0,0,.13.24.4.4,0,0,0,.27.11.42.42,0,0,0,.26-.11.35.35,0,0,0,.12-.24V47.72a.8.8,0,0,1,.22-.57.73.73,0,0,1,.55-.23.75.75,0,0,1,.55.23.8.8,0,0,1,.22.57v6a1.44,1.44,0,0,1-.16.67,2.14,2.14,0,0,1-.43.56,2,2,0,0,1-.61.39,2,2,0,0,1-.72.14A2,2,0,0,1,55.15,55a1.82,1.82,0,0,1-.43-.56,1.47,1.47,0,0,1-.17-.69v-12a1.45,1.45,0,0,1,.17-.67,1.67,1.67,0,0,1,.44-.55,2.21,2.21,0,0,1,.63-.38,1.94,1.94,0,0,1,.7-.14,2.1,2.1,0,0,1,.7.12,2.06,2.06,0,0,1,.61.35,1.82,1.82,0,0,1,.45.55,1.58,1.58,0,0,1,.16.72v3.55a.84.84,0,0,1-.21.57.68.68,0,0,1-.52.23Zm.78-1.55V42a.42.42,0,0,0-.14-.32.37.37,0,0,0-.26-.12.35.35,0,0,0-.25.12.44.44,0,0,0-.13.32v2.62Z"/><path class="cls-10" d="M62.27,40.81A.72.72,0,0,1,63,40a.77.77,0,0,1,.57.21.76.76,0,0,1,.21.56.75.75,0,0,1-.21.56.77.77,0,0,1-.57.21.76.76,0,0,1-.56-.21A.75.75,0,0,1,62.27,40.81ZM63,55.48a.79.79,0,0,1-.77-.77V43a.78.78,0,0,1,1.55,0V54.71a.79.79,0,0,1-.78.77Z"/><path class="cls-10" d="M66.69,40a1.88,1.88,0,0,1,1.38.56A1.84,1.84,0,0,1,68.63,42V54.71a.76.76,0,0,1-1.31.54.74.74,0,0,1-.23-.54V42a.4.4,0,0,0-.11-.27.42.42,0,0,0-.29-.11.38.38,0,0,0-.37.38V54.71a.71.71,0,0,1-.24.54.7.7,0,0,1-.54.23.79.79,0,0,1-.77-.77V42A1.91,1.91,0,0,1,66.69,40Z"/><path class="cls-10" d="M70.35,55.48a.79.79,0,0,1-.77-.77V40.81a.74.74,0,0,1,.23-.54.78.78,0,0,1,.54-.23.74.74,0,0,1,.54.23.7.7,0,0,1,.23.54v5.34l.69-5.43a.84.84,0,0,1,.28-.52.71.71,0,0,1,.58-.16.8.8,0,0,1,.51.3.71.71,0,0,1,.15.56l-.75,6,.77,7.72a.68.68,0,0,1-.16.56.84.84,0,0,1-.52.28.65.65,0,0,1-.55-.16.81.81,0,0,1-.29-.52l-.71-7.11v7a.79.79,0,0,1-.77.77Z"/><path class="cls-10" d="M39.39,57h.52v3.13h-.52Z"/><path class="cls-10" d="M41.77,59.15V57h.45v3.13h-.48l-1.05-2.27v2.27h-.46V57h.55Z"/><path class="cls-10" d="M42.55,57h.52v1.45L43.88,57h.56l-.89,1.53,1,1.6h-.59l-.85-1.47v1.47h-.52Z"/><path class="cls-10" d="M45.91,57.49h-.56V57H47v.47h-.57v2.66h-.52Z"/><path class="cls-10" d="M47.12,60.15V57h.52v1.26h.9V57h.52v3.13h-.52V58.76h-.9v1.39Z"/><path class="cls-10" d="M49.39,57h1.5v.47h-1v.79h1v.48h-1v.91h1v.48h-1.5Z"/><path class="cls-10" d="M52.72,57v2.19a.55.55,0,0,0,.12.39.57.57,0,0,0,.7,0,.55.55,0,0,0,.12-.39V57h.51v2.26a.91.91,0,0,1-.23.67,1.21,1.21,0,0,1-1.5,0,.91.91,0,0,1-.23-.67V57Z"/><path class="cls-10" d="M56,59.15V57h.46v3.13H56l-1-2.27v2.27h-.46V57H55Z"/><path class="cls-10" d="M57.18,57.49h-.56V57h1.65v.47H57.7v2.66h-.52Z"/><path class="cls-10" d="M58.39,60.15V57h.52v1.26h.9V57h.52v3.13h-.52V58.76h-.9v1.39Z"/><path class="cls-10" d="M60.65,57h.52v3.13h-.52Z"/><path class="cls-10" d="M63,59.15V57h.46v3.13H63l-1-2.27v2.27h-.46V57H62Z"/><path class="cls-10" d="M63.81,57h.51v1.45L65.13,57h.57l-.9,1.53,1,1.6h-.6l-.85-1.47v1.47h-.51Z"/><path class="cls-10" d="M66.23,60.15h-.52L66.57,57h.49L68,60.15h-.52l-.2-.73h-.8Zm.59-2.41L66.55,59h.54Z"/><path class="cls-10" d="M68,57h.83a.89.89,0,0,1,.63.19.75.75,0,0,1,.23.59.59.59,0,0,1-.48.65.75.75,0,0,1,.62.8.87.87,0,0,1-.9.9H68Zm.52,1.26h.22a.4.4,0,0,0,.29-.08.47.47,0,0,0,0-.65.46.46,0,0,0-.31-.08h-.2Zm0,1.41h.29a.44.44,0,0,0,.33-.1.39.39,0,0,0,.16-.36.45.45,0,0,0-.16-.38.46.46,0,0,0-.34-.11h-.28Z"/><path class="cls-10" d="M70.08,57h.52v2.65h.89v.48H70.08Z"/><path class="cls-10" d="M71.63,57h1.5v.47h-1v.79h1v.48h-1v.91h1v.48h-1.5Z"/></svg>