<?xml version="1.0" encoding="utf-8"?>
<!-- Generator: Adobe Illustrator 26.0.1, SVG Export Plug-In . SVG Version: 6.00 Build 0)  -->
<svg version="1.1" id="Layer_1" xmlns="http://www.w3.org/2000/svg" xmlns:xlink="http://www.w3.org/1999/xlink" x="0px" y="0px"
	 viewBox="0 0 100 100" style="enable-background:new 0 0 100 100;" xml:space="preserve">
<style type="text/css">
	.st0{display:none;}
	.st1{fill:#FFFFFF;}
	.st2{fill-rule:evenodd;clip-rule:evenodd;fill:#FFFFFF;}
	.st3{fill-rule:evenodd;clip-rule:evenodd;}
	.st4{fill:none;}
	.st5{clip-path:url(#XMLID_00000175312700613922886640000001282570875797126042_);fill:#FFFFFF;}
</style>
<rect class="st0" width="100" height="100"/>
<g>
	<g>
		<path class="st1" d="M54.8,38.2C54.9,39,55,40,55,40.9c0,1.9-0.3,3.7-0.8,5.2h0.5c0.5-1.5,0.7-3.3,0.7-5.2c0-0.9-0.1-1.9-0.2-2.7
			H54.8z"/>
		<path class="st1" d="M50,19.2c-9.9,0-18,8-18,18c0,9.9,8,18,18,18c9.9,0,18-8,18-18C68,27.3,59.9,19.2,50,19.2z M52.8,25.9
			l0.2,2.4L45.7,29l-0.2-2.4L52.8,25.9z M37.9,30.3l22.2-2.1l0.3,3.4l-22.2,2.1L37.9,30.3z M61.3,46.1H44.9c0.5-1.5,0.7-3.3,0.7-5.2
			c0-0.9-0.1-1.9-0.2-2.7H45c0.1,0.9,0.2,1.8,0.2,2.7c0,1.9-0.3,3.7-0.8,5.2h-6v-7.9v-3.9h5.4h0.5h9.4h0.5h6.6
			c0,0.1,0.1,0.1,0.1,0.2c0,0.1,0.1,0.1,0.1,0.2c0,0,0,0,0,0.1c0,0,0,0.1,0.1,0.1c0,0,0,0,0,0.1c0,0,0,0.1,0.1,0.1c0,0,0,0,0,0.1
			c0,0.1,0,0.1,0.1,0.2c0,0,0,0,0,0c0,0.1,0,0.1,0.1,0.2c0,0,0,0,0,0c0,0.1,0,0.1,0.1,0.2c0,0,0,0,0,0c0,0.1,0,0.1,0.1,0.2
			c0,0,0,0,0,0c0,0.1,0,0.1,0.1,0.2c0,0,0,0,0,0c0,0.2,0.1,0.3,0.1,0.5c0,0,0,0,0,0c0,0.1,0,0.1,0.1,0.2c0,0,0,0,0,0
			c0,0.1,0,0.2,0.1,0.2c0,0,0,0,0,0c0.1,0.2,0.1,0.5,0.1,0.8c0,0,0,0,0,0c0.2,0.9,0.2,2,0.2,3C62.1,42.8,61.8,44.6,61.3,46.1z"/>
	</g>
	<g>
		<g>
			<path class="st1" d="M20,68.3v-9.8h3.7l2.9,5.8l2.9-5.8h3.7v9.8h-2.9v-5.5l-2.7,5.5h-1.9l-2.7-5.5v5.5H20z"/>
			<path class="st1" d="M34,68.3v-9.8h6.8c1.9,0,3.8,0.6,3.8,2.8c0,1-0.6,1.6-1.5,1.9c1.2,0.3,1.9,1,1.9,2.3c0,2.2-2.1,2.9-4,2.9H34
				z M40.8,62.3c0.5,0,1-0.2,1-0.8c0-0.6-0.5-0.8-1-0.8h-3.9v1.6H40.8z M36.9,66h4c0.6,0,1.2-0.1,1.2-0.8c0-0.7-0.6-0.8-1.2-0.8h-4
				V66z"/>
			<path class="st1" d="M48.4,65.9h6.8v2.4h-9.7v-9.8h2.9V65.9z"/>
			<path class="st1" d="M66,58.5v2.4h-7.3v1.3h7v2.3h-7v1.4H66v2.4H55.8v-9.8H66z"/>
			<path class="st1" d="M66.8,68.3v-9.8h3.7l2.9,5.8l2.9-5.8H80v9.8h-2.9v-5.5l-2.7,5.5h-1.9l-2.7-5.5v5.5H66.8z"/>
		</g>
	</g>
	<g>
		<g>
			<path class="st1" d="M20,72.5c0-1.8,1.6-2.5,3.3-2.5c0.8,0,1.7,0.1,2.3,0.6l-0.7,1c-0.5-0.2-1.1-0.4-1.7-0.4
				c-0.9,0-1.9,0.3-1.9,1.4c0,1.1,1,1.4,1.9,1.4c0.6,0,1.1-0.1,1.7-0.4l0.7,1C25,74.9,24,75,23.3,75C21.6,75,20,74.4,20,72.5z"/>
			<path class="st1" d="M28.9,70c1.6,0,3.3,0.7,3.3,2.5c0,1.8-1.6,2.5-3.3,2.5s-3.3-0.7-3.3-2.5C25.6,70.7,27.2,70,28.9,70z
				 M27,72.5c0,1.1,1,1.4,1.9,1.4s1.9-0.3,1.9-1.4c0-1.1-1-1.4-1.9-1.4S27,71.4,27,72.5z"/>
			<path class="st1" d="M32.6,74.9v-4.8h1.8l1.4,2.8l1.4-2.8h1.8v4.8h-1.4v-2.7l-1.3,2.7h-0.9L34,72.2v2.7H32.6z"/>
			<path class="st1" d="M39.6,74.9v-4.8h3.2c1.2,0,2.1,0.5,2.1,1.8c0,1.3-0.9,1.8-2.1,1.8H41l0,1.2H39.6z M41,72.5h1.8
				c0.4,0,0.7-0.2,0.7-0.6c0-0.4-0.3-0.6-0.7-0.6H41V72.5z"/>
			<path class="st1" d="M46.7,70.1h1.2l2.6,4.8H49l-0.4-0.8H46l-0.4,0.8h-1.5L46.7,70.1z M46.6,73.1H48l-0.7-1.2L46.6,73.1z"/>
			<path class="st1" d="M52.5,70.1l2.4,3v-3h1.4v4.8h-1.7l-2.4-3v3h-1.4v-4.8H52.5z"/>
			<path class="st1" d="M56.6,70.1h1.7l1.4,1.7l1.4-1.7h1.7L60.4,73v1.9H59V73L56.6,70.1z"/>
			<path class="st1" d="M65.7,73.7h3.3v1.2h-4.7v-4.8h1.4V73.7z"/>
			<path class="st1" d="M70.9,73.7h3.3v1.2h-4.7v-4.8h1.4V73.7z"/>
			<path class="st1" d="M74.4,72.5c0-1.8,1.6-2.5,3.3-2.5c0.8,0,1.7,0.1,2.3,0.6l-0.7,1c-0.5-0.2-1.1-0.4-1.7-0.4
				c-0.9,0-1.9,0.3-1.9,1.4c0,1.1,1,1.4,1.9,1.4c0.6,0,1.1-0.1,1.7-0.4l0.7,1c-0.6,0.5-1.6,0.6-2.3,0.6C76,75,74.4,74.4,74.4,72.5z"
				/>
		</g>
	</g>
	<g>
		<g>
			<path class="st1" d="M33,78.4L33,78.4c-0.1,0.1-0.1,0.1-0.2,0.1c0,0-0.1,0-0.1,0.1c0,0,0,0.1,0,0.2v1.7c0,0.1,0,0.1,0,0.2
				c0,0,0,0.1,0.1,0.1c0,0,0.1,0,0.1,0h0.2c0.1,0,0.1,0,0.2-0.1c0.1,0,0.1-0.1,0.2-0.2c0.1-0.1,0.1-0.1,0.1-0.2
				c0-0.1,0.1-0.2,0.1-0.3h0.1c0,0.1,0,0.2,0,0.3c0,0.1,0,0.1,0,0.2c0,0.1,0,0.2,0,0.3c-0.1,0-0.2,0-0.4,0c-0.1,0-0.3,0-0.4,0
				c-0.1,0-0.1,0-0.2,0c-0.1,0-0.2,0-0.3,0c-0.1,0-0.2,0-0.3,0c-0.1,0-0.2,0-0.3,0v-0.1c0.1,0,0.1,0,0.2,0c0,0,0.1,0,0.1-0.1
				c0,0,0-0.1,0-0.2v-1.6c0-0.1,0-0.1,0-0.2c0,0,0-0.1-0.1-0.1c0,0-0.1,0-0.2,0v-0.1c0.1,0,0.1,0,0.2,0c0.1,0,0.2,0,0.3,0
				c0.1,0,0.2,0,0.3,0C32.8,78.4,32.9,78.4,33,78.4z"/>
			<path class="st1" d="M35.9,78.4L35.9,78.4c-0.1,0.1-0.1,0.1-0.2,0.1c0,0-0.1,0.1-0.1,0.1c0,0.1,0,0.1,0,0.3v0.9
				c0,0.1,0,0.3,0,0.4c0,0.1-0.1,0.2-0.1,0.3c-0.1,0.1-0.1,0.2-0.3,0.2c-0.1,0.1-0.2,0.1-0.4,0.1c-0.1,0-0.2,0-0.3,0
				c-0.1,0-0.2-0.1-0.3-0.1c-0.1-0.1-0.1-0.1-0.2-0.2c0-0.1-0.1-0.2-0.1-0.3c0-0.1,0-0.2,0-0.4v-1c0-0.1,0-0.1,0-0.2
				c0,0,0-0.1-0.1-0.1c0,0-0.1,0-0.2,0v-0.1c0.1,0,0.1,0,0.2,0c0.1,0,0.2,0,0.3,0s0.2,0,0.3,0c0.1,0,0.2,0,0.2,0v0.1
				c-0.1,0-0.1,0-0.2,0c0,0-0.1,0-0.1,0.1c0,0,0,0.1,0,0.2V80c0,0.1,0,0.2,0,0.3c0,0.1,0,0.2,0.1,0.2c0,0.1,0.1,0.1,0.1,0.1
				c0.1,0,0.1,0,0.2,0c0.2,0,0.3,0,0.4-0.1c0.1-0.1,0.1-0.2,0.2-0.3s0.1-0.3,0.1-0.4v-0.9c0-0.1,0-0.2,0-0.3c0-0.1,0-0.1-0.1-0.1
				c0,0-0.1,0-0.2-0.1v-0.1c0,0,0.1,0,0.2,0c0.1,0,0.1,0,0.2,0c0.1,0,0.1,0,0.2,0C35.8,78.4,35.9,78.4,35.9,78.4z"/>
			<path class="st1" d="M37,78.4L37,78.4c-0.1,0.1-0.2,0.1-0.2,0.1c0,0,0,0.1,0,0.1l1.3,1.9c0,0.1,0.1,0.1,0.1,0.1c0,0,0.1,0,0.1,0
				v0.1c0,0-0.1,0-0.2,0c-0.1,0-0.2,0-0.3,0c-0.1,0-0.2,0-0.3,0c-0.1,0-0.2,0-0.2,0v-0.1c0.1,0,0.2,0,0.2,0c0,0,0,0,0-0.1l-1.3-1.9
				c0-0.1-0.1-0.1-0.1-0.1c0,0-0.1,0-0.1,0v-0.1c0,0,0.1,0,0.2,0c0.1,0,0.2,0,0.3,0c0.1,0,0.2,0,0.3,0C36.9,78.4,36.9,78.4,37,78.4z
				 M37,79.6C37,79.6,37,79.6,37,79.6l-0.3,0.5c-0.1,0.1-0.1,0.2-0.1,0.3c0,0.1,0,0.1,0.1,0.2c0,0,0.1,0.1,0.2,0.1v0.1
				c0,0-0.1,0-0.1,0c0,0-0.1,0-0.1,0c-0.1,0-0.1,0-0.1,0c0,0-0.1,0-0.1,0c-0.1,0-0.1,0-0.2,0c-0.1,0-0.1,0-0.1,0v-0.1
				c0.1,0,0.2-0.1,0.2-0.1c0.1-0.1,0.2-0.2,0.2-0.3L37,79.6z M38.2,78.4L38.2,78.4c-0.1,0.1-0.1,0.1-0.2,0.2
				c-0.1,0.1-0.1,0.1-0.2,0.2l-0.5,0.7l0-0.1l0.3-0.5c0.1-0.1,0.1-0.2,0.2-0.3c0-0.1,0-0.1,0-0.2c0,0-0.1-0.1-0.2-0.1v-0.1
				c0,0,0.1,0,0.1,0c0.1,0,0.1,0,0.2,0c0,0,0.1,0,0.1,0c0.1,0,0.1,0,0.2,0C38.1,78.4,38.1,78.4,38.2,78.4z"/>
			<path class="st1" d="M40.5,78.4L40.5,78.4c-0.1,0.1-0.1,0.1-0.2,0.1c0,0-0.1,0.1-0.1,0.1c0,0.1,0,0.1,0,0.3v0.9
				c0,0.1,0,0.3,0,0.4c0,0.1-0.1,0.2-0.1,0.3c-0.1,0.1-0.1,0.2-0.3,0.2c-0.1,0.1-0.2,0.1-0.4,0.1c-0.1,0-0.2,0-0.3,0
				c-0.1,0-0.2-0.1-0.3-0.1c-0.1-0.1-0.1-0.1-0.2-0.2c0-0.1-0.1-0.2-0.1-0.3c0-0.1,0-0.2,0-0.4v-1c0-0.1,0-0.1,0-0.2
				c0,0,0-0.1-0.1-0.1c0,0-0.1,0-0.2,0v-0.1c0.1,0,0.1,0,0.2,0c0.1,0,0.2,0,0.3,0s0.2,0,0.3,0c0.1,0,0.2,0,0.2,0v0.1
				c-0.1,0-0.1,0-0.2,0c0,0-0.1,0-0.1,0.1c0,0,0,0.1,0,0.2V80c0,0.1,0,0.2,0,0.3c0,0.1,0,0.2,0.1,0.2c0,0.1,0.1,0.1,0.1,0.1
				c0.1,0,0.1,0,0.2,0c0.2,0,0.3,0,0.4-0.1c0.1-0.1,0.1-0.2,0.2-0.3s0.1-0.3,0.1-0.4v-0.9c0-0.1,0-0.2,0-0.3c0-0.1,0-0.1-0.1-0.1
				c0,0-0.1,0-0.2-0.1v-0.1c0,0,0.1,0,0.2,0c0.1,0,0.1,0,0.2,0c0.1,0,0.1,0,0.2,0C40.4,78.4,40.5,78.4,40.5,78.4z"/>
			<path class="st1" d="M40.7,78.4c0.1,0,0.1,0,0.2,0c0.1,0,0.2,0,0.3,0c0.1,0,0.2,0,0.3,0c0.1,0,0.2,0,0.2,0c0.2,0,0.4,0,0.5,0.1
				c0.1,0,0.2,0.1,0.3,0.2c0.1,0.1,0.1,0.2,0.1,0.3c0,0.1,0,0.2,0,0.2c0,0.1-0.1,0.1-0.2,0.2c-0.1,0.1-0.2,0.1-0.3,0.2
				c-0.1,0-0.3,0.1-0.5,0.1h-0.3v-0.1h0.3c0.1,0,0.2,0,0.3-0.1c0.1,0,0.1-0.1,0.1-0.2s0-0.2,0-0.3c0-0.2,0-0.3-0.1-0.4
				c-0.1-0.1-0.2-0.1-0.3-0.1c-0.1,0-0.1,0-0.2,0.1c0,0,0,0.1,0,0.2v1.6c0,0.1,0,0.1,0,0.2c0,0,0,0.1,0.1,0.1c0,0,0.1,0,0.2,0v0.1
				c-0.1,0-0.1,0-0.2,0s-0.2,0-0.3,0c-0.1,0-0.2,0-0.3,0c-0.1,0-0.2,0-0.2,0v-0.1c0.1,0,0.1,0,0.2,0c0,0,0.1,0,0.1-0.1
				c0,0,0-0.1,0-0.2v-1.6c0-0.1,0-0.1,0-0.2c0,0,0-0.1-0.1-0.1C40.8,78.5,40.8,78.5,40.7,78.4L40.7,78.4z M41.3,79.6
				c0.1,0,0.2,0,0.2,0c0.1,0,0.1,0,0.2,0c0.1,0,0.1,0,0.1,0c0.2,0,0.3,0.1,0.4,0.1c0.1,0.1,0.2,0.2,0.2,0.3l0.1,0.3
				c0,0.1,0,0.1,0.1,0.2c0,0,0.1,0.1,0.1,0.1c0,0,0.1,0,0.1,0s0,0,0.1-0.1l0,0c-0.1,0.1-0.1,0.1-0.2,0.1c-0.1,0-0.2,0-0.2,0
				c-0.1,0-0.2,0-0.3-0.1c-0.1-0.1-0.1-0.1-0.2-0.3L42,80.1c0-0.1,0-0.2-0.1-0.2c0-0.1-0.1-0.1-0.1-0.2c0,0-0.1-0.1-0.2-0.1
				L41.3,79.6L41.3,79.6z"/>
			<path class="st1" d="M44.8,78.4L44.8,78.4c0,0.1-0.1,0.1-0.1,0.2c-0.1,0.1-0.1,0.1-0.2,0.3l-0.6,1.2h-0.2L43,78.6
				c0-0.1-0.1-0.1-0.1-0.1c0,0-0.1,0-0.1,0v-0.1c0.1,0,0.1,0,0.2,0c0.1,0,0.1,0,0.2,0c0.1,0,0.2,0,0.3,0c0.1,0,0.2,0,0.3,0v0.1
				c-0.1,0-0.1,0-0.1,0c0,0-0.1,0-0.1,0c0,0,0,0.1,0,0.1l0.5,1L44,79.8l0.3-0.7c0.1-0.2,0.1-0.3,0.1-0.4c0-0.1,0-0.2-0.1-0.2
				c0,0-0.1-0.1-0.2-0.1v-0.1c0.1,0,0.1,0,0.2,0c0.1,0,0.1,0,0.2,0c0,0,0.1,0,0.1,0C44.8,78.4,44.8,78.4,44.8,78.4z M44.1,79.6v0.8
				c0,0.1,0,0.1,0,0.2c0,0,0,0.1,0.1,0.1c0,0,0.1,0,0.2,0v0.1c-0.1,0-0.1,0-0.2,0c-0.1,0-0.2,0-0.3,0c-0.1,0-0.2,0-0.3,0
				c-0.1,0-0.2,0-0.2,0v-0.1c0.1,0,0.1,0,0.2,0c0,0,0.1,0,0.1-0.1c0,0,0-0.1,0-0.2v-0.7l0.3,0.2L44.1,79.6z"/>
			<path class="st1" d="M47.8,78.4c0,0.1,0,0.2,0,0.3c0,0.1,0,0.2,0,0.2c0,0,0,0.1,0,0.1c0,0,0,0.1,0,0.1h-0.1
				c0-0.2-0.1-0.3-0.1-0.4c-0.1-0.1-0.1-0.2-0.2-0.2c-0.1,0-0.2-0.1-0.3-0.1H47v1.9c0,0.1,0,0.2,0,0.2s0.1,0.1,0.1,0.1
				c0.1,0,0.1,0,0.2,0v0.1c-0.1,0-0.2,0-0.3,0c-0.1,0-0.2,0-0.4,0c-0.1,0-0.2,0-0.3,0c-0.1,0-0.2,0-0.3,0v-0.1c0.1,0,0.2,0,0.2,0
				c0.1,0,0.1,0,0.1-0.1c0,0,0-0.1,0-0.2v-1.9h-0.1c-0.1,0-0.2,0-0.3,0.1c-0.1,0-0.1,0.1-0.2,0.2c-0.1,0.1-0.1,0.3-0.1,0.4h-0.1
				c0,0,0-0.1,0-0.1c0,0,0-0.1,0-0.1c0-0.1,0-0.1,0-0.2c0-0.1,0-0.2,0-0.3c0.1,0,0.2,0,0.3,0c0.1,0,0.2,0,0.4,0s0.2,0,0.3,0
				c0.1,0,0.2,0,0.3,0s0.2,0,0.4,0C47.6,78.4,47.7,78.4,47.8,78.4z"/>
			<path class="st1" d="M48,78.4c0.1,0,0.1,0,0.2,0c0.1,0,0.2,0,0.3,0c0.1,0,0.2,0,0.3,0c0.1,0,0.2,0,0.2,0c0.2,0,0.4,0,0.5,0.1
				c0.1,0,0.2,0.1,0.3,0.2c0.1,0.1,0.1,0.2,0.1,0.3c0,0.1,0,0.2,0,0.2c0,0.1-0.1,0.1-0.2,0.2c-0.1,0.1-0.2,0.1-0.3,0.2
				c-0.1,0-0.3,0.1-0.5,0.1h-0.3v-0.1h0.3c0.1,0,0.2,0,0.3-0.1c0.1,0,0.1-0.1,0.1-0.2s0-0.2,0-0.3c0-0.2,0-0.3-0.1-0.4
				c-0.1-0.1-0.2-0.1-0.3-0.1c-0.1,0-0.1,0-0.2,0.1c0,0,0,0.1,0,0.2v1.6c0,0.1,0,0.1,0,0.2c0,0,0,0.1,0.1,0.1c0,0,0.1,0,0.2,0v0.1
				c-0.1,0-0.1,0-0.2,0s-0.2,0-0.3,0c-0.1,0-0.2,0-0.3,0c-0.1,0-0.2,0-0.2,0v-0.1c0.1,0,0.1,0,0.2,0c0,0,0.1,0,0.1-0.1
				c0,0,0-0.1,0-0.2v-1.6c0-0.1,0-0.1,0-0.2c0,0,0-0.1-0.1-0.1C48.1,78.5,48.1,78.5,48,78.4L48,78.4z M48.6,79.6c0.1,0,0.2,0,0.2,0
				c0.1,0,0.1,0,0.2,0c0.1,0,0.1,0,0.1,0c0.2,0,0.3,0.1,0.4,0.1c0.1,0.1,0.2,0.2,0.2,0.3l0.1,0.3c0,0.1,0,0.1,0.1,0.2
				c0,0,0.1,0.1,0.1,0.1c0,0,0.1,0,0.1,0s0,0,0.1-0.1l0,0c-0.1,0.1-0.1,0.1-0.2,0.1c-0.1,0-0.2,0-0.2,0c-0.1,0-0.2,0-0.3-0.1
				c-0.1-0.1-0.1-0.1-0.2-0.3l-0.1-0.3c0-0.1,0-0.2-0.1-0.2c0-0.1-0.1-0.1-0.1-0.2c0,0-0.1-0.1-0.2-0.1L48.6,79.6L48.6,79.6z"/>
			<path class="st1" d="M51.6,78.4l0.8,2.1c0,0.1,0.1,0.1,0.1,0.2c0,0,0.1,0,0.1,0v0.1c-0.1,0-0.1,0-0.2,0c-0.1,0-0.2,0-0.3,0
				c-0.1,0-0.2,0-0.3,0c-0.1,0-0.2,0-0.2,0v-0.1c0.1,0,0.2,0,0.2-0.1c0,0,0-0.1,0-0.2l-0.6-1.5l0.1-0.1l-0.5,1.3
				c0,0.1-0.1,0.2-0.1,0.3c0,0.1,0,0.1,0,0.2c0,0,0.1,0.1,0.1,0.1c0,0,0.1,0,0.2,0v0.1c-0.1,0-0.1,0-0.2,0c-0.1,0-0.1,0-0.2,0
				c0,0-0.1,0-0.1,0c0,0-0.1,0-0.1,0v-0.1c0,0,0.1,0,0.1-0.1c0-0.1,0.1-0.1,0.1-0.3l0.8-1.9c0,0,0.1,0,0.1,0S51.6,78.4,51.6,78.4z
				 M51.8,79.8L51.8,79.8l-1,0.1l0-0.1H51.8z"/>
			<path class="st1" d="M53.5,78.3c0.1,0,0.2,0,0.3,0c0.1,0,0.1,0.1,0.2,0.1c0,0,0,0,0.1,0c0,0,0,0,0,0c0,0,0,0,0,0c0,0,0-0.1,0-0.1
				h0.1c0,0,0,0.1,0,0.2c0,0.1,0,0.1,0,0.2c0,0.1,0,0.2,0,0.4h-0.1c0-0.1,0-0.2-0.1-0.3c0-0.1-0.1-0.2-0.2-0.3
				C53.8,78.5,53.7,78.4,53.5,78.3c0,0.1-0.1,0.1-0.2,0.2c-0.1,0.1-0.1,0.1-0.1,0.2c0,0.1,0,0.2,0.1,0.2c0,0.1,0.1,0.1,0.2,0.2
				c0.1,0.1,0.2,0.1,0.3,0.2c0.1,0.1,0.2,0.1,0.3,0.2s0.2,0.1,0.2,0.2c0.1,0.1,0.1,0.2,0.1,0.3c0,0.1,0,0.3-0.1,0.4
				c-0.1,0.1-0.2,0.2-0.3,0.2c-0.1,0-0.3,0.1-0.4,0.1c-0.1,0-0.2,0-0.3,0c-0.1,0-0.1-0.1-0.2-0.1c0,0-0.1,0-0.1,0c0,0,0,0,0,0
				c0,0,0,0.1,0,0.1h-0.1c0-0.1,0-0.1,0-0.2c0-0.1,0-0.2,0-0.3c0-0.1,0-0.3,0-0.4h0.1c0,0.1,0,0.3,0.1,0.4c0,0.1,0.1,0.2,0.2,0.3
				c0.1,0.1,0.2,0.1,0.3,0.1c0.1,0,0.1,0,0.2,0c0.1,0,0.1-0.1,0.1-0.1c0-0.1,0.1-0.1,0.1-0.2c0-0.1,0-0.2-0.1-0.2
				c0-0.1-0.1-0.1-0.2-0.2c-0.1-0.1-0.2-0.1-0.3-0.2c-0.1-0.1-0.2-0.1-0.3-0.2c-0.1-0.1-0.2-0.1-0.2-0.2c-0.1-0.1-0.1-0.2-0.1-0.3
				c0-0.1,0-0.3,0.1-0.3c0.1-0.1,0.2-0.2,0.3-0.2C53.3,78.4,53.4,78.3,53.5,78.3z"/>
			<path class="st1" d="M54.5,80.7L54.5,80.7c0.1-0.1,0.1-0.1,0.2-0.1c0,0,0.1,0,0.1-0.1c0,0,0-0.1,0-0.2v-1.6c0-0.1,0-0.1,0-0.2
				c0,0,0-0.1-0.1-0.1c0,0-0.1,0-0.2,0v-0.1c0.1,0,0.1,0,0.2,0c0.1,0,0.2,0,0.3,0c0.1,0,0.2,0,0.3,0c0.1,0,0.2,0,0.2,0v0.1
				c-0.1,0-0.1,0-0.2,0c0,0-0.1,0-0.1,0.1c0,0,0,0.1,0,0.2v1.6c0,0.1,0,0.1,0,0.2c0,0,0,0.1,0.1,0.1c0,0,0.1,0,0.2,0v0.1
				c-0.1,0-0.1,0-0.2,0s-0.2,0-0.3,0c-0.1,0-0.2,0-0.3,0C54.6,80.7,54.5,80.7,54.5,80.7z M55,79.6L55,79.6l1.3-0.1v0.1H55z
				 M55.9,80.7L55.9,80.7c0.1-0.1,0.1-0.1,0.2-0.1c0,0,0.1,0,0.1-0.1c0,0,0-0.1,0-0.2v-1.6c0-0.1,0-0.1,0-0.2c0,0,0-0.1-0.1-0.1
				c0,0-0.1,0-0.2,0v-0.1c0.1,0,0.1,0,0.2,0c0.1,0,0.2,0,0.3,0c0.1,0,0.2,0,0.3,0c0.1,0,0.2,0,0.2,0v0.1c-0.1,0-0.1,0-0.2,0
				c0,0-0.1,0-0.1,0.1c0,0,0,0.1,0,0.2v1.6c0,0.1,0,0.1,0,0.2c0,0,0,0.1,0.1,0.1c0,0,0.1,0,0.2,0v0.1c-0.1,0-0.1,0-0.2,0
				c-0.1,0-0.2,0-0.3,0c-0.1,0-0.2,0-0.3,0C56,80.7,55.9,80.7,55.9,80.7z"/>
			<path class="st1" d="M60.3,78.4L60.3,78.4c0,0.1-0.1,0.1-0.2,0.2c-0.1,0.1-0.1,0.2-0.2,0.3l-0.7,1.9c0,0,0,0-0.1,0c0,0,0,0-0.1,0
				c0,0,0,0-0.1,0c0,0,0,0-0.1,0l-0.8-2.1c0-0.1-0.1-0.1-0.1-0.2c0,0-0.1,0-0.1,0v-0.1c0.1,0,0.1,0,0.2,0c0.1,0,0.2,0,0.3,0
				c0.1,0,0.2,0,0.3,0c0.1,0,0.2,0,0.2,0v0.1c-0.1,0-0.1,0-0.2,0c0,0-0.1,0-0.1,0.1c0,0,0,0.1,0,0.2l0.6,1.5l-0.1,0.1l0.5-1.2
				c0.1-0.2,0.1-0.3,0.1-0.4c0-0.1,0-0.2-0.1-0.2c0,0-0.1-0.1-0.2-0.1v-0.1c0.1,0,0.1,0,0.2,0c0.1,0,0.1,0,0.2,0c0,0,0.1,0,0.1,0
				C60.2,78.4,60.2,78.4,60.3,78.4z"/>
			<path class="st1" d="M60.8,78.4l0.8,2.1c0,0.1,0.1,0.1,0.1,0.2c0,0,0.1,0,0.1,0v0.1c-0.1,0-0.1,0-0.2,0s-0.2,0-0.3,0
				c-0.1,0-0.2,0-0.3,0c-0.1,0-0.2,0-0.2,0v-0.1c0.1,0,0.2,0,0.2-0.1c0,0,0-0.1,0-0.2l-0.6-1.5l0.1-0.1L60,80.1
				c0,0.1-0.1,0.2-0.1,0.3c0,0.1,0,0.1,0,0.2c0,0,0.1,0.1,0.1,0.1c0,0,0.1,0,0.2,0v0.1c-0.1,0-0.1,0-0.2,0c-0.1,0-0.1,0-0.2,0
				c0,0-0.1,0-0.1,0c0,0-0.1,0-0.1,0v-0.1c0,0,0.1,0,0.1-0.1c0-0.1,0.1-0.1,0.1-0.3l0.8-1.9c0,0,0.1,0,0.1,0S60.8,78.4,60.8,78.4z
				 M61.1,79.8L61.1,79.8l-1,0.1l0-0.1H61.1z"/>
			<path class="st1" d="M63,78.4L63,78.4c-0.1,0.1-0.1,0.1-0.2,0.1c0,0-0.1,0-0.1,0.1c0,0,0,0.1,0,0.2v1.7c0,0.1,0,0.1,0,0.2
				c0,0,0,0.1,0.1,0.1c0,0,0.1,0,0.1,0h0.2c0.1,0,0.1,0,0.2-0.1c0.1,0,0.1-0.1,0.2-0.2c0.1-0.1,0.1-0.1,0.1-0.2
				c0-0.1,0.1-0.2,0.1-0.3h0.1c0,0.1,0,0.2,0,0.3c0,0.1,0,0.1,0,0.2c0,0.1,0,0.2,0,0.3c-0.1,0-0.2,0-0.4,0c-0.1,0-0.3,0-0.4,0
				c-0.1,0-0.1,0-0.2,0c-0.1,0-0.2,0-0.3,0c-0.1,0-0.2,0-0.3,0c-0.1,0-0.2,0-0.3,0v-0.1c0.1,0,0.1,0,0.2,0c0,0,0.1,0,0.1-0.1
				c0,0,0-0.1,0-0.2v-1.6c0-0.1,0-0.1,0-0.2c0,0,0-0.1-0.1-0.1c0,0-0.1,0-0.2,0v-0.1c0.1,0,0.1,0,0.2,0c0.1,0,0.2,0,0.3,0
				c0.1,0,0.2,0,0.3,0C62.9,78.4,62.9,78.4,63,78.4z"/>
			<path class="st1" d="M65.8,78.4c0,0.1,0,0.2,0,0.3c0,0.1,0,0.2,0,0.2c0,0,0,0.1,0,0.1c0,0,0,0.1,0,0.1h-0.1
				c0-0.2-0.1-0.3-0.1-0.4c0-0.1-0.1-0.2-0.2-0.2c-0.1,0-0.2-0.1-0.3-0.1H65c-0.1,0-0.1,0-0.1,0c0,0-0.1,0-0.1,0.1c0,0,0,0.1,0,0.2
				v1.7c0,0.1,0,0.1,0,0.2c0,0,0,0.1,0.1,0.1c0,0,0.1,0,0.1,0h0.2c0.1,0,0.2,0,0.3-0.1c0.1,0,0.1-0.1,0.2-0.2
				c0.1-0.1,0.1-0.2,0.1-0.4h0.1c0,0.1,0,0.2,0,0.3c0,0.1,0,0.1,0,0.2c0,0.1,0,0.2,0,0.3c-0.1,0-0.2,0-0.4,0c-0.1,0-0.3,0-0.4,0
				c-0.1,0-0.1,0-0.2,0c-0.1,0-0.2,0-0.3,0c-0.1,0-0.2,0-0.3,0c-0.1,0-0.2,0-0.3,0v-0.1c0.1,0,0.1,0,0.2,0c0,0,0.1,0,0.1-0.1
				c0,0,0-0.1,0-0.2v-1.6c0-0.1,0-0.1,0-0.2c0,0,0-0.1-0.1-0.1c0,0-0.1,0-0.2,0v-0.1c0.1,0,0.2,0,0.3,0c0.1,0,0.2,0,0.3,0
				c0.1,0,0.2,0,0.3,0c0.1,0,0.2,0,0.2,0c0.1,0,0.2,0,0.3,0C65.5,78.4,65.7,78.4,65.8,78.4z M65.2,79.5L65.2,79.5l-0.6,0.1v-0.1
				H65.2z M65.3,79.1c0,0.1,0,0.2,0,0.3c0,0.1,0,0.1,0,0.2c0,0.1,0,0.1,0,0.2c0,0.1,0,0.2,0,0.3h-0.1c0-0.1,0-0.1-0.1-0.2
				c0-0.1-0.1-0.1-0.1-0.2c-0.1,0-0.1-0.1-0.2-0.1v-0.1c0.1,0,0.1,0,0.2,0c0,0,0.1-0.1,0.1-0.1c0,0,0.1-0.1,0.1-0.1
				C65.2,79.2,65.3,79.1,65.3,79.1L65.3,79.1z"/>
			<path class="st1" d="M68.1,78.4c0,0.1,0,0.2,0,0.3c0,0.1,0,0.2,0,0.2c0,0,0,0.1,0,0.1c0,0,0,0.1,0,0.1H68c0-0.2-0.1-0.3-0.1-0.4
				c-0.1-0.1-0.1-0.2-0.2-0.2c-0.1,0-0.2-0.1-0.3-0.1h-0.1v1.9c0,0.1,0,0.2,0,0.2c0,0,0.1,0.1,0.1,0.1c0.1,0,0.1,0,0.2,0v0.1
				c-0.1,0-0.2,0-0.3,0c-0.1,0-0.2,0-0.4,0c-0.1,0-0.2,0-0.3,0c-0.1,0-0.2,0-0.3,0v-0.1c0.1,0,0.2,0,0.2,0c0.1,0,0.1,0,0.1-0.1
				c0,0,0-0.1,0-0.2v-1.9h-0.1c-0.1,0-0.2,0-0.3,0.1s-0.1,0.1-0.2,0.2c-0.1,0.1-0.1,0.3-0.1,0.4h-0.1c0,0,0-0.1,0-0.1s0-0.1,0-0.1
				c0-0.1,0-0.1,0-0.2c0-0.1,0-0.2,0-0.3c0.1,0,0.2,0,0.3,0c0.1,0,0.2,0,0.4,0c0.1,0,0.2,0,0.3,0c0.1,0,0.2,0,0.3,0s0.2,0,0.4,0
				C67.9,78.4,68,78.4,68.1,78.4z"/>
		</g>
	</g>
</g>
</svg>
