<?xml version="1.0" encoding="utf-8"?>
<!-- Generator: Adobe Illustrator 26.0.1, SVG Export Plug-In . SVG Version: 6.00 Build 0)  -->
<svg version="1.1" id="Layer_1" xmlns="http://www.w3.org/2000/svg" xmlns:xlink="http://www.w3.org/1999/xlink" x="0px" y="0px"
	 viewBox="0 0 100 100" style="enable-background:new 0 0 100 100;" xml:space="preserve">
<style type="text/css">
	.st0{display:none;}
	.st1{fill:#FFFFFF;}
	.st2{fill-rule:evenodd;clip-rule:evenodd;fill:#FFFFFF;}
	.st3{fill-rule:evenodd;clip-rule:evenodd;}
	.st4{fill:none;}
	.st5{clip-path:url(#XMLID_00000040574242654143151860000008761627716324226467_);fill:#FFFFFF;}
</style>
<rect class="st0" width="100" height="100"/>
<g>
	<path class="st1" d="M26.7,54.7v-0.2h3.5v0.2h-0.9l1.8,5.1l1.2-3.2l-0.6-1.9h-0.7v-0.2h3.5v0.2h-0.9l1.8,5.1l1.1-3.1
		c0.2-0.7,0.4-1.1,0.4-1.3c0-0.3-0.1-0.4-0.2-0.5c-0.2-0.1-0.4-0.1-0.8-0.2v-0.2h2.5v0.2c-0.2,0.1-0.4,0.1-0.5,0.3
		c-0.1,0.1-0.2,0.2-0.3,0.4c-0.1,0.1-0.2,0.3-0.2,0.5c-0.1,0.2-0.1,0.3-0.2,0.5l-2.1,5.6h-0.9l-1.6-4.7l-1.7,4.7h-0.9l-2.5-7.2H26.7
		z"/>
	<path class="st1" d="M38.9,57.2h-0.6v-0.2h1.2c0.4,0,0.7-0.1,1-0.2v4.9h0.6v0.2h-2.7v-0.2h0.6V57.2z M38.9,55.2
		c0-0.2,0.1-0.4,0.2-0.6c0.1-0.2,0.3-0.2,0.6-0.2c0.2,0,0.4,0.1,0.6,0.2c0.1,0.2,0.2,0.3,0.2,0.6c0,0.2-0.1,0.4-0.2,0.6
		c-0.2,0.1-0.3,0.2-0.6,0.2c-0.2,0-0.4-0.1-0.6-0.2C39,55.6,38.9,55.4,38.9,55.2"/>
	<path class="st1" d="M43.6,56.8v1c0.2-0.3,0.5-0.6,0.8-0.7c0.3-0.2,0.6-0.2,0.9-0.2c0.6,0,1,0.1,1.2,0.4c0.2,0.3,0.3,0.6,0.3,1v3.4
		h0.6v0.2h-2.6v-0.2h0.5v-3.1c0-0.4,0-0.7-0.1-0.9c-0.1-0.2-0.2-0.3-0.5-0.3c-0.2,0-0.3,0.1-0.5,0.2c-0.2,0.1-0.3,0.2-0.4,0.4
		c-0.1,0.2-0.1,0.3-0.1,0.5v3.2H44v0.2h-2.7v-0.2H42v-4.5h-0.6v-0.2h1.2C43,56.9,43.3,56.9,43.6,56.8"/>
	<path class="st1" d="M51.1,61.9v-0.8c-0.2,0.4-0.3,0.6-0.6,0.7C50.3,62,50,62,49.7,62c-0.3,0-0.6-0.1-0.9-0.2
		c-0.3-0.1-0.5-0.3-0.7-0.6c-0.2-0.2-0.3-0.5-0.5-0.9c-0.1-0.3-0.2-0.7-0.2-1c0-0.6,0.1-1.1,0.4-1.5c0.3-0.4,0.6-0.7,1-0.9
		c0.4-0.2,0.8-0.3,1.1-0.3c0.2,0,0.5,0.1,0.7,0.3c0.2,0.2,0.4,0.4,0.4,0.6v-2.8h-0.6v-0.2h1.2c0.4,0,0.7-0.1,1-0.2v7.2h0.6v0.2H51.1
		z M49.2,58.5v1.7c0,0.6,0.1,1,0.2,1.2c0.2,0.2,0.4,0.4,0.6,0.4c0.3,0,0.5-0.1,0.6-0.3c0.2-0.2,0.3-0.5,0.3-0.8
		c0.1-0.3,0.1-0.7,0.1-1.2v-0.7c0-1.1-0.4-1.7-1-1.7c-0.1,0-0.2,0-0.4,0.1c-0.1,0.1-0.2,0.2-0.3,0.4C49.3,57.9,49.2,58.1,49.2,58.5"
		/>
	<path class="st1" d="M53.7,62v-2h0.3c0,0.2,0.1,0.4,0.2,0.6c0.1,0.2,0.2,0.4,0.4,0.6c0.2,0.2,0.3,0.3,0.6,0.4
		c0.2,0.1,0.4,0.1,0.7,0.1c0.4,0,0.7-0.1,0.8-0.2c0.2-0.2,0.2-0.3,0.2-0.5c0-0.3-0.1-0.5-0.3-0.6c-0.2-0.1-0.4-0.2-0.7-0.3l-1-0.3
		c-0.3-0.1-0.5-0.3-0.7-0.5c-0.2-0.2-0.3-0.6-0.3-1.1c0-0.4,0.1-0.7,0.3-0.9c0.2-0.2,0.5-0.4,0.7-0.4c0.3-0.1,0.5-0.1,0.8-0.1
		c0.2,0,0.5,0.1,0.8,0.2c0.2,0.1,0.4,0.1,0.4,0.1c0.2,0,0.3-0.1,0.4-0.2h0.2v1.5h-0.2c-0.1-0.5-0.4-0.8-0.7-1.1
		c-0.3-0.2-0.6-0.3-0.9-0.3c-0.3,0-0.6,0.1-0.7,0.2c-0.2,0.1-0.3,0.3-0.3,0.4c0,0.3,0.1,0.4,0.2,0.6c0.2,0.1,0.4,0.2,0.6,0.3
		l1.1,0.3c0.8,0.2,1.2,0.7,1.2,1.6c0,0.4-0.1,0.8-0.3,1c-0.2,0.3-0.5,0.4-0.8,0.5C56.3,62,56,62,55.7,62c-0.3,0-0.6-0.1-0.8-0.2
		c-0.1,0-0.1-0.1-0.2-0.1c-0.1,0-0.2-0.1-0.2-0.1c-0.1,0-0.1,0-0.2,0c-0.1,0-0.2,0-0.2,0.1c-0.1,0.1-0.1,0.1-0.1,0.3H53.7z"/>
	<path class="st1" d="M61.8,60.4v-3.3h-0.6v-0.2h1.2c0.4,0,0.7-0.1,1-0.2v4.9h0.6v0.2h-2.1V61c-0.4,0.6-1.1,1-1.9,1h-0.2
		c-0.3,0-0.6-0.1-0.8-0.3c-0.2-0.2-0.3-0.4-0.3-0.7v-3.9H58v-0.2h1.2c0.4,0,0.7-0.1,1-0.2v4.1c0,0.2,0.1,0.4,0.2,0.5
		c0.1,0.1,0.2,0.2,0.4,0.2c0.1,0,0.3,0,0.5-0.1c0.2-0.1,0.3-0.2,0.4-0.4C61.7,60.8,61.8,60.6,61.8,60.4"/>
	<path class="st1" d="M64.8,57.2h-0.6v-0.2h1.2c0.4,0,0.7-0.1,1-0.2v0.6h0c0.1-0.1,0.2-0.3,0.4-0.4c0.2-0.1,0.5-0.2,0.9-0.2
		c0.3,0,0.6,0.1,0.8,0.2c0.3,0.1,0.4,0.4,0.4,0.8c0,0.3-0.1,0.5-0.2,0.6c-0.2,0.2-0.4,0.3-0.6,0.3c-0.2,0-0.3-0.1-0.5-0.2
		c-0.2-0.1-0.2-0.3-0.2-0.5c0-0.2,0-0.4,0.1-0.5c0.1-0.2,0.1-0.3,0.1-0.3c0-0.1-0.1-0.1-0.2-0.1c-0.3,0-0.5,0.2-0.7,0.5
		c-0.2,0.3-0.3,0.7-0.3,1.2v3H67v0.2h-2.7v-0.2h0.6V57.2z"/>
	<path class="st1" d="M69.9,57.4h-0.7v-0.2h0.7c0-0.6,0.1-1.1,0.2-1.5c0.1-0.4,0.3-0.7,0.6-0.9c0.3-0.2,0.6-0.3,1.1-0.3
		c0.6,0,1,0.1,1.3,0.3c0.2,0.2,0.3,0.5,0.3,0.7c0,0.2-0.1,0.3-0.2,0.4c-0.1,0.1-0.3,0.2-0.5,0.2c-0.2,0-0.3-0.1-0.5-0.2
		c-0.1-0.1-0.2-0.3-0.2-0.5c0-0.1,0-0.2,0.1-0.3c0,0,0.1-0.1,0.1-0.2c0.1-0.1,0.1-0.2,0.1-0.2c0-0.1-0.1-0.1-0.4-0.1
		c-0.2,0-0.4,0.1-0.4,0.2c-0.1,0.1-0.1,0.3-0.1,0.5c0,0.2,0,0.4,0.1,0.6c0.1,0.2,0.1,0.5,0.1,0.9v0.4h1v0.2h-1v4.3H72v0.2h-2.7v-0.2
		h0.6V57.4z"/>
	<path class="st1" d="M29.3,63.5v5.4c0,0.3,0.1,0.6,0.3,0.9c0.2,0.3,0.6,0.4,1.2,0.4c0.8,0,1.3-0.2,1.5-0.7c0.2-0.4,0.3-0.9,0.3-1.4
		v-3.2c0-0.5-0.1-0.8-0.2-1.1c-0.1-0.2-0.4-0.4-0.8-0.4v-0.2h2.1v0.2c-0.3,0-0.6,0.1-0.7,0.4C33,64.1,33,64.3,33,64.6v3.6
		c0,0.5-0.2,1-0.5,1.6c-0.3,0.5-1,0.8-2.1,0.8c-0.9,0-1.5-0.1-1.9-0.4c-0.4-0.3-0.7-0.6-0.8-0.9c-0.1-0.3-0.1-0.7-0.1-1.2v-4.6h-0.9
		v-0.2h3.5v0.2H29.3z"/>
	<path class="st1" d="M36.1,65.5v0.9c0.2-0.3,0.5-0.5,0.8-0.7c0.3-0.2,0.6-0.2,0.9-0.2c0.6,0,1,0.1,1.1,0.4c0.2,0.3,0.2,0.6,0.2,1
		v3.3h0.5v0.2h-2.5v-0.2h0.5v-3c0-0.4,0-0.7-0.1-0.9c-0.1-0.2-0.2-0.2-0.4-0.2c-0.2,0-0.3,0-0.5,0.1c-0.1,0.1-0.3,0.2-0.4,0.4
		c-0.1,0.2-0.1,0.3-0.1,0.5v3.1h0.5v0.2h-2.6v-0.2h0.6v-4.4h-0.6v-0.2h1.2C35.6,65.6,35.9,65.6,36.1,65.5"/>
	<path class="st1" d="M40.6,65.9H40v-0.2h1.2c0.4,0,0.7-0.1,0.9-0.2v4.7h0.5v0.2h-2.6v-0.2h0.5V65.9z M40.5,64
		c0-0.2,0.1-0.4,0.2-0.5s0.3-0.2,0.6-0.2c0.2,0,0.4,0.1,0.6,0.2c0.1,0.2,0.2,0.3,0.2,0.5c0,0.2-0.1,0.4-0.2,0.6
		c-0.2,0.1-0.3,0.2-0.5,0.2c-0.2,0-0.4-0.1-0.6-0.2C40.6,64.4,40.5,64.2,40.5,64"/>
	<path class="st1" d="M42.6,65.6h2.8v0.2h-0.6l1.2,2.9l0.7-1.9c0.1-0.2,0.1-0.3,0.1-0.4v-0.2c-0.1-0.3-0.3-0.4-0.6-0.4v-0.2h1.7v0.2
		c-0.3,0-0.4,0.1-0.5,0.3c-0.1,0.2-0.2,0.4-0.4,0.8l-1.4,3.5H45l-1.8-4.6h-0.5V65.6z"/>
	<path class="st1" d="M52.1,69.2l0.2,0.1c-0.5,0.8-1.1,1.3-1.9,1.3c-0.4,0-0.9-0.1-1.3-0.3c-0.4-0.2-0.8-0.5-1-0.9
		c-0.3-0.4-0.4-0.8-0.4-1.3c0-0.4,0.1-0.8,0.3-1.2c0.2-0.4,0.5-0.7,0.8-1c0.4-0.2,0.8-0.4,1.2-0.4c0.4,0,0.8,0.1,1.1,0.3
		c0.4,0.2,0.7,0.5,0.9,0.8c0.2,0.4,0.3,0.8,0.3,1.3h-3v1c0,0.5,0.1,0.9,0.2,1.1c0.2,0.2,0.4,0.4,0.8,0.4C51,70.4,51.6,70,52.1,69.2
		 M49.4,67.6h1.5v-0.5c0-0.4,0-0.8-0.1-1c-0.1-0.3-0.3-0.4-0.6-0.4c-0.4,0-0.7,0.3-0.7,0.9c0,0.1,0,0.2,0,0.2c0,0.1,0,0.1,0,0.1
		V67.6z"/>
	<path class="st1" d="M53.2,65.9h-0.6v-0.2h1.2c0.4,0,0.7-0.1,0.9-0.2v0.6h0c0.1-0.1,0.2-0.3,0.4-0.4c0.2-0.1,0.5-0.2,0.8-0.2
		c0.3,0,0.5,0.1,0.8,0.2c0.3,0.1,0.4,0.4,0.4,0.8c0,0.2-0.1,0.5-0.2,0.6c-0.1,0.2-0.4,0.2-0.6,0.2c-0.2,0-0.3-0.1-0.5-0.2
		c-0.2-0.1-0.2-0.3-0.2-0.5c0-0.2,0-0.4,0.1-0.5c0.1-0.2,0.1-0.3,0.1-0.3c0-0.1-0.1-0.1-0.2-0.1c-0.3,0-0.5,0.2-0.7,0.5
		c-0.2,0.3-0.3,0.7-0.3,1.2v2.9h0.5v0.2h-2.6v-0.2h0.5V65.9z"/>
	<path class="st1" d="M57.3,70.5v-1.9h0.3c0,0.2,0.1,0.4,0.2,0.6c0.1,0.2,0.2,0.4,0.4,0.5c0.2,0.2,0.3,0.3,0.5,0.4
		c0.2,0.1,0.4,0.1,0.7,0.1c0.4,0,0.6-0.1,0.8-0.2c0.1-0.1,0.2-0.3,0.2-0.5c0-0.2-0.1-0.4-0.3-0.6c-0.2-0.1-0.4-0.2-0.7-0.3l-1-0.3
		c-0.3-0.1-0.5-0.2-0.7-0.5c-0.2-0.2-0.3-0.6-0.3-1c0-0.4,0.1-0.7,0.3-0.9c0.2-0.2,0.4-0.4,0.7-0.4c0.3-0.1,0.5-0.1,0.8-0.1
		c0.2,0,0.4,0.1,0.8,0.2c0.2,0.1,0.4,0.1,0.4,0.1c0.2,0,0.3-0.1,0.4-0.2H61V67h-0.2c-0.1-0.5-0.4-0.8-0.7-1
		c-0.3-0.2-0.6-0.3-0.9-0.3c-0.3,0-0.5,0.1-0.7,0.2c-0.2,0.1-0.3,0.2-0.3,0.4c0,0.2,0.1,0.4,0.2,0.5c0.2,0.1,0.4,0.2,0.6,0.3l1,0.3
		c0.8,0.2,1.2,0.7,1.2,1.5c0,0.4-0.1,0.7-0.3,1c-0.2,0.3-0.5,0.4-0.8,0.5c-0.3,0.1-0.6,0.2-0.9,0.2c-0.3,0-0.5-0.1-0.8-0.2
		c-0.1,0-0.1-0.1-0.2-0.1c-0.1,0-0.2-0.1-0.2-0.1c-0.1,0-0.1,0-0.2,0c-0.1,0-0.2,0-0.2,0.1c-0.1,0.1-0.1,0.1-0.1,0.2H57.3z"/>
	<path class="st1" d="M62.1,65.9h-0.5v-0.2h1.2c0.4,0,0.7-0.1,0.9-0.2v4.7h0.5v0.2h-2.6v-0.2h0.5V65.9z M62.1,64
		c0-0.2,0.1-0.4,0.2-0.5c0.1-0.2,0.3-0.2,0.6-0.2c0.2,0,0.4,0.1,0.6,0.2s0.2,0.3,0.2,0.5c0,0.2-0.1,0.4-0.2,0.6
		c-0.2,0.1-0.3,0.2-0.5,0.2c-0.2,0-0.4-0.1-0.6-0.2C62.2,64.4,62.1,64.2,62.1,64"/>
	<path class="st1" d="M64.9,64.1l1.5-0.4v1.9h0.9v0.2h-0.9v3.5c0,0.2,0,0.3,0.1,0.5c0.1,0.1,0.2,0.2,0.4,0.2c0.1,0,0.2,0,0.4-0.1
		l0.1,0.2c-0.4,0.3-0.8,0.5-1.3,0.5c-0.5,0-0.8-0.1-0.9-0.4c-0.1-0.2-0.2-0.5-0.2-0.7v-3.6h-0.6v-0.2h0.6V64.1z"/>
	<path class="st1" d="M70.4,71.1L68,65.9h-0.4v-0.2h2.7v0.2h-0.6l1.5,3.2l0.7-2.2c0.1-0.1,0.1-0.3,0.1-0.4c0-0.4-0.2-0.5-0.7-0.5
		h-0.2v-0.2h2.2v0.2h-0.1c-0.3,0-0.5,0.1-0.7,0.2c-0.2,0.2-0.3,0.4-0.4,0.7l-1.2,3.8c-0.2,0.5-0.4,1-0.6,1.3
		c-0.2,0.3-0.4,0.5-0.6,0.7c-0.2,0.1-0.5,0.2-0.7,0.2c-0.2,0-0.4,0-0.6-0.1c-0.2-0.1-0.3-0.2-0.5-0.4c-0.1-0.2-0.2-0.3-0.2-0.5
		c0-0.2,0.1-0.4,0.3-0.6c0.2-0.1,0.4-0.2,0.6-0.2c0.2,0,0.3,0.1,0.5,0.2c0.1,0.1,0.2,0.3,0.2,0.5c0,0.1,0,0.2,0,0.2
		c0,0.1-0.1,0.2-0.1,0.3c0,0.1-0.1,0.2-0.1,0.2c0,0,0,0.1,0.1,0.1c0,0,0.1,0.1,0.2,0.1C69.6,72.4,70,72,70.4,71.1"/>
	<path class="st1" d="M35.3,74.8c0,0.2-0.1,0.4-0.2,0.6c-0.2,0.1-0.4,0.2-0.6,0.2c-0.2,0-0.3,0-0.5-0.1c-0.1-0.1-0.2-0.2-0.3-0.3
		l0.2-0.2c0,0.1,0.1,0.2,0.2,0.3c0.1,0.1,0.2,0.1,0.4,0.1c0.2,0,0.3,0,0.4-0.1C35,75.1,35,75,35,74.8c0-0.1,0-0.2-0.1-0.3
		c-0.1-0.1-0.2-0.2-0.4-0.3c-0.2-0.1-0.4-0.2-0.5-0.4c-0.1-0.1-0.1-0.3-0.1-0.4c0-0.2,0.1-0.4,0.2-0.5c0.1-0.1,0.3-0.2,0.5-0.2
		c0.1,0,0.3,0,0.4,0.1c0.1,0.1,0.2,0.1,0.3,0.2L35,73.2c0-0.1-0.1-0.1-0.2-0.2c-0.1,0-0.2-0.1-0.3-0.1c-0.1,0-0.2,0-0.3,0.1
		c-0.1,0.1-0.1,0.2-0.1,0.3c0,0.1,0,0.2,0.1,0.3c0.1,0.1,0.2,0.2,0.3,0.2l0,0C35.1,74.2,35.3,74.5,35.3,74.8"/>
	<path class="st1" d="M37.4,75.5h-0.3v-0.3c-0.1,0.1-0.1,0.2-0.2,0.2c-0.1,0.1-0.2,0.1-0.4,0.1c-0.2,0-0.4-0.1-0.6-0.3
		c-0.2-0.2-0.2-0.4-0.2-0.7c0-0.3,0.1-0.5,0.2-0.6c0.2-0.2,0.4-0.2,0.6-0.2c0.1,0,0.3,0,0.4,0.1c0.1,0.1,0.2,0.1,0.2,0.2v-0.3h0.3
		V75.5z M37.1,74.7c0-0.2-0.1-0.3-0.2-0.4c-0.1-0.1-0.2-0.2-0.4-0.2c-0.2,0-0.3,0.1-0.4,0.2c-0.1,0.1-0.2,0.3-0.2,0.4
		c0,0.2,0.1,0.3,0.2,0.5c0.1,0.1,0.2,0.2,0.4,0.2c0.2,0,0.3-0.1,0.4-0.2C37,75,37.1,74.9,37.1,74.7"/>
	<path class="st1" d="M38.8,73.8l-0.1,0.3c0,0,0,0-0.1,0c0,0-0.1,0-0.1,0c-0.1,0-0.3,0.1-0.3,0.2c-0.1,0.1-0.1,0.3-0.1,0.6v0.7h-0.3
		v-1.7h0.3v0.3c0-0.1,0.1-0.2,0.2-0.3c0.1-0.1,0.2-0.1,0.3-0.1C38.6,73.8,38.7,73.8,38.8,73.8C38.7,73.8,38.7,73.8,38.8,73.8"/>
	<path class="st1" d="M40.6,75.5h-0.3v-0.3c-0.1,0.1-0.1,0.2-0.2,0.2c-0.1,0.1-0.2,0.1-0.4,0.1c-0.2,0-0.4-0.1-0.6-0.3
		c-0.2-0.2-0.2-0.4-0.2-0.7c0-0.3,0.1-0.5,0.2-0.6c0.2-0.2,0.4-0.2,0.6-0.2c0.1,0,0.3,0,0.4,0.1c0.1,0.1,0.2,0.1,0.2,0.2v-0.3h0.3
		V75.5z M40.3,74.7c0-0.2-0.1-0.3-0.2-0.4c-0.1-0.1-0.2-0.2-0.4-0.2c-0.2,0-0.3,0.1-0.4,0.2c-0.1,0.1-0.2,0.3-0.2,0.4
		c0,0.2,0.1,0.3,0.2,0.5c0.1,0.1,0.2,0.2,0.4,0.2c0.2,0,0.3-0.1,0.4-0.2C40.2,75,40.3,74.9,40.3,74.7"/>
	<path class="st1" d="M42.4,75.5h-0.3v-1c0-0.2,0-0.3-0.1-0.4C42,74.1,41.9,74,41.8,74c-0.1,0-0.3,0.1-0.3,0.2
		c-0.1,0.1-0.1,0.3-0.1,0.5v0.8H41v-3h0.3v1.6c0.1-0.1,0.1-0.2,0.2-0.2c0.1-0.1,0.2-0.1,0.3-0.1c0.2,0,0.3,0.1,0.4,0.2
		c0.1,0.1,0.1,0.3,0.1,0.5V75.5z"/>
	<rect x="42.7" y="74.4" class="st1" width="0.6" height="0.3"/>
	<path class="st1" d="M46.5,75.5h-0.4L46,75.3c-0.1,0.1-0.3,0.2-0.4,0.2c-0.1,0-0.3,0.1-0.5,0.1c-0.4,0-0.7-0.1-1-0.4
		c-0.3-0.3-0.4-0.6-0.4-1c0-0.4,0.1-0.7,0.4-1c0.3-0.3,0.6-0.4,1-0.4c0.4,0,0.8,0.1,1,0.4c0.3,0.3,0.4,0.6,0.4,1
		c0,0.2,0,0.4-0.1,0.5c-0.1,0.2-0.2,0.3-0.3,0.4L46.5,75.5z M46.2,74.2c0-0.3-0.1-0.6-0.3-0.8c-0.2-0.2-0.5-0.3-0.8-0.3
		c-0.3,0-0.6,0.1-0.8,0.3c-0.2,0.2-0.3,0.5-0.3,0.8c0,0.3,0.1,0.6,0.3,0.8c0.2,0.2,0.5,0.3,0.8,0.3c0.1,0,0.2,0,0.4-0.1
		c0.1,0,0.2-0.1,0.3-0.2l-0.6-0.6h0.4l0.4,0.5c0.1-0.1,0.2-0.2,0.2-0.3C46.2,74.4,46.2,74.3,46.2,74.2"/>
	<path class="st1" d="M48.3,74.8c0,0.3-0.1,0.5-0.2,0.6c-0.1,0.1-0.3,0.2-0.5,0.2c-0.2,0-0.4-0.1-0.5-0.2c-0.1-0.1-0.2-0.3-0.2-0.6
		v-1h0.3v1c0,0.2,0,0.3,0.1,0.4c0.1,0.1,0.2,0.1,0.3,0.1s0.2,0,0.3-0.1c0.1-0.1,0.1-0.2,0.1-0.4v-1h0.3V74.8z"/>
	<path class="st1" d="M49.1,73.2c0,0.1,0,0.1-0.1,0.1c0,0-0.1,0.1-0.1,0.1c-0.1,0-0.1,0-0.1-0.1c0,0-0.1-0.1-0.1-0.1
		c0-0.1,0-0.1,0.1-0.1c0,0,0.1-0.1,0.1-0.1c0.1,0,0.1,0,0.1,0.1C49.1,73.1,49.1,73.1,49.1,73.2 M49,75.5h-0.3v-1.7H49V75.5z"/>
	<polygon class="st1" points="50.1,74.1 49.9,74.1 49.9,75.5 49.6,75.5 49.6,74.1 49.4,74.1 49.4,73.8 49.6,73.8 49.6,73.1 
		49.9,73.1 49.9,73.8 50.1,73.8 	"/>
	<path class="st1" d="M52,75.5h-0.3v-0.3c-0.1,0.1-0.1,0.2-0.2,0.2c-0.1,0.1-0.2,0.1-0.4,0.1c-0.2,0-0.4-0.1-0.6-0.3
		c-0.2-0.2-0.2-0.4-0.2-0.7c0-0.3,0.1-0.5,0.2-0.6c0.2-0.2,0.4-0.2,0.6-0.2c0.1,0,0.3,0,0.4,0.1c0.1,0.1,0.2,0.1,0.2,0.2v-0.3H52
		V75.5z M51.7,74.7c0-0.2-0.1-0.3-0.2-0.4c-0.1-0.1-0.2-0.2-0.4-0.2c-0.2,0-0.3,0.1-0.4,0.2c-0.1,0.1-0.2,0.3-0.2,0.4
		c0,0.2,0.1,0.3,0.2,0.5c0.1,0.1,0.2,0.2,0.4,0.2c0.2,0,0.3-0.1,0.4-0.2C51.6,75,51.7,74.9,51.7,74.7"/>
	<path class="st1" d="M56.4,74.2c0,0.4-0.1,0.7-0.4,1c-0.3,0.3-0.6,0.4-1,0.4c-0.4,0-0.7-0.1-1-0.4c-0.3-0.3-0.4-0.6-0.4-1
		c0-0.4,0.1-0.7,0.4-1c0.3-0.3,0.6-0.4,1-0.4c0.4,0,0.8,0.1,1,0.4C56.2,73.4,56.4,73.8,56.4,74.2 M56.1,74.2c0-0.3-0.1-0.6-0.3-0.8
		S55.2,73,54.9,73c-0.3,0-0.6,0.1-0.8,0.3c-0.2,0.2-0.3,0.5-0.3,0.8c0,0.3,0.1,0.6,0.3,0.8c0.2,0.2,0.5,0.3,0.8,0.3
		c0.3,0,0.6-0.1,0.8-0.3C55.9,74.7,56.1,74.5,56.1,74.2"/>
	<path class="st1" d="M57.5,72.8C57.4,72.8,57.4,72.8,57.5,72.8c-0.1,0-0.1,0-0.1,0c-0.1,0-0.1,0-0.2,0.1c0,0.1,0,0.2,0,0.3v0.7h0.3
		v0.3h-0.3v1.4h-0.3v-1.4h-0.2v-0.3h0.2v-0.7c0-0.2,0-0.4,0.1-0.5c0.1-0.1,0.2-0.2,0.4-0.2c0,0,0.1,0,0.1,0c0,0,0.1,0,0.1,0V72.8z"
		/>
	<path class="st1" d="M58.5,72.8C58.5,72.8,58.4,72.8,58.5,72.8c-0.1,0-0.1,0-0.1,0c-0.1,0-0.1,0-0.2,0.1c0,0.1,0,0.2,0,0.3v0.7h0.3
		v0.3h-0.3v1.4h-0.3v-1.4h-0.2v-0.3h0.2v-0.7c0-0.2,0-0.4,0.1-0.5c0.1-0.1,0.2-0.2,0.4-0.2c0,0,0.1,0,0.1,0c0,0,0.1,0,0.1,0V72.8z"
		/>
	<path class="st1" d="M59.7,73.8l-0.1,0.3c0,0,0,0-0.1,0c0,0-0.1,0-0.1,0c-0.1,0-0.3,0.1-0.3,0.2c-0.1,0.1-0.1,0.3-0.1,0.6v0.7h-0.3
		v-1.7H59v0.3c0-0.1,0.1-0.2,0.2-0.3c0.1-0.1,0.2-0.1,0.3-0.1C59.5,73.8,59.6,73.8,59.7,73.8C59.6,73.8,59.7,73.8,59.7,73.8"/>
	<path class="st1" d="M60.3,73.2c0,0.1,0,0.1-0.1,0.1c0,0-0.1,0.1-0.1,0.1c-0.1,0-0.1,0-0.1-0.1c0,0-0.1-0.1-0.1-0.1
		c0-0.1,0-0.1,0.1-0.1c0,0,0.1-0.1,0.1-0.1c0.1,0,0.1,0,0.1,0.1C60.3,73.1,60.3,73.1,60.3,73.2 M60.2,75.5H60v-1.7h0.3V75.5z"/>
	<path class="st1" d="M62.2,75.5h-0.3v-1c0-0.2,0-0.3-0.1-0.4c-0.1-0.1-0.2-0.1-0.3-0.1c-0.1,0-0.3,0.1-0.3,0.2
		c-0.1,0.1-0.1,0.3-0.1,0.5v0.8h-0.3v-1.7H61v0.3c0.1-0.1,0.1-0.2,0.2-0.2c0.1-0.1,0.2-0.1,0.3-0.1c0.2,0,0.3,0.1,0.4,0.2
		c0.1,0.1,0.1,0.3,0.1,0.5V75.5z"/>
	<path class="st1" d="M64.2,75.6c0,0.3-0.1,0.5-0.2,0.7c-0.1,0.1-0.4,0.2-0.6,0.2c-0.2,0-0.4,0-0.5-0.1c-0.1-0.1-0.2-0.2-0.2-0.4
		h0.3c0,0.1,0.1,0.2,0.2,0.2c0.1,0,0.2,0.1,0.3,0.1c0.2,0,0.3,0,0.4-0.1c0.1-0.1,0.1-0.2,0.1-0.4v-0.4c-0.1,0.1-0.1,0.2-0.2,0.2
		c-0.1,0.1-0.2,0.1-0.4,0.1c-0.2,0-0.4-0.1-0.6-0.3c-0.2-0.2-0.2-0.4-0.2-0.7c0-0.3,0.1-0.5,0.2-0.6c0.2-0.2,0.4-0.2,0.6-0.2
		c0.1,0,0.3,0,0.4,0.1c0.1,0.1,0.2,0.1,0.2,0.2v-0.3h0.3V75.6z M63.9,74.7c0-0.2-0.1-0.3-0.2-0.4c-0.1-0.1-0.2-0.2-0.4-0.2
		c-0.2,0-0.3,0.1-0.4,0.2c-0.1,0.1-0.2,0.3-0.2,0.4c0,0.2,0.1,0.3,0.2,0.5c0.1,0.1,0.2,0.2,0.4,0.2c0.2,0,0.3-0.1,0.4-0.2
		C63.9,75,63.9,74.9,63.9,74.7"/>
	<path class="st1" d="M66.3,75.5H66v-0.3c-0.1,0.1-0.1,0.2-0.2,0.2c-0.1,0.1-0.2,0.1-0.4,0.1c-0.2,0-0.4-0.1-0.6-0.3
		c-0.2-0.2-0.2-0.4-0.2-0.7c0-0.3,0.1-0.5,0.2-0.6c0.2-0.2,0.4-0.2,0.6-0.2c0.1,0,0.3,0,0.4,0.1c0.1,0.1,0.2,0.1,0.2,0.2v-0.3h0.3
		V75.5z M66,74.7c0-0.2-0.1-0.3-0.2-0.4c-0.1-0.1-0.2-0.2-0.4-0.2c-0.2,0-0.3,0.1-0.4,0.2c-0.1,0.1-0.2,0.3-0.2,0.4
		c0,0.2,0.1,0.3,0.2,0.5c0.1,0.1,0.2,0.2,0.4,0.2c0.2,0,0.3-0.1,0.4-0.2C66,75,66,74.9,66,74.7"/>
	<path class="st1" d="M40.7,79.2h-0.4L40,78.8c-0.1,0.1-0.3,0.2-0.4,0.3c-0.1,0.1-0.3,0.1-0.4,0.1c-0.2,0-0.4-0.1-0.6-0.2
		c-0.1-0.1-0.2-0.3-0.2-0.6c0-0.2,0.1-0.3,0.2-0.4c0.1-0.1,0.3-0.3,0.5-0.4L39,77.5c-0.1-0.1-0.2-0.2-0.2-0.3c0-0.1,0-0.2,0-0.2
		c0-0.2,0.1-0.3,0.2-0.4c0.1-0.1,0.3-0.2,0.4-0.2c0.2,0,0.3,0.1,0.4,0.2c0.1,0.1,0.2,0.2,0.2,0.4c0,0.1,0,0.3-0.1,0.4
		c-0.1,0.1-0.2,0.2-0.4,0.3l0.6,0.8c0.1-0.1,0.1-0.1,0.2-0.2c0.1-0.1,0.1-0.2,0.1-0.2l0.2,0.2c-0.1,0.1-0.1,0.2-0.2,0.3
		c-0.1,0.1-0.1,0.2-0.2,0.3L40.7,79.2z M39.9,78.6l-0.6-0.8c-0.2,0.1-0.3,0.2-0.4,0.3c-0.1,0.1-0.1,0.2-0.1,0.3c0,0.1,0,0.3,0.1,0.4
		c0.1,0.1,0.2,0.1,0.4,0.1c0.1,0,0.2,0,0.3-0.1C39.6,78.8,39.8,78.7,39.9,78.6 M39.7,76.9c0-0.1,0-0.2-0.1-0.2
		c-0.1-0.1-0.1-0.1-0.2-0.1c-0.1,0-0.2,0-0.2,0.1C39,76.8,39,76.8,39,76.9c0,0.1,0,0.1,0,0.2c0,0.1,0.1,0.1,0.1,0.2l0.1,0.1
		c0.1-0.1,0.2-0.2,0.3-0.2C39.6,77.1,39.7,77,39.7,76.9"/>
	<path class="st1" d="M44.9,77.8c0,0.4-0.1,0.7-0.4,1c-0.3,0.3-0.6,0.4-1,0.4c-0.4,0-0.7-0.1-1-0.4c-0.3-0.3-0.4-0.6-0.4-1
		c0-0.4,0.1-0.7,0.4-1c0.3-0.3,0.6-0.4,1-0.4c0.4,0,0.8,0.1,1,0.4C44.7,77.1,44.9,77.4,44.9,77.8 M44.6,77.8c0-0.3-0.1-0.6-0.3-0.8
		c-0.2-0.2-0.5-0.3-0.8-0.3c-0.3,0-0.6,0.1-0.8,0.3c-0.2,0.2-0.3,0.5-0.3,0.8c0,0.3,0.1,0.6,0.3,0.8c0.2,0.2,0.5,0.3,0.8,0.3
		c0.3,0,0.6-0.1,0.8-0.3C44.5,78.4,44.6,78.1,44.6,77.8"/>
	<path class="st1" d="M46.8,79.2h-0.3v-0.3c-0.1,0.1-0.1,0.2-0.2,0.2c-0.1,0.1-0.2,0.1-0.4,0.1c-0.2,0-0.4-0.1-0.6-0.3
		c-0.2-0.2-0.2-0.4-0.2-0.7c0-0.3,0.1-0.5,0.2-0.6c0.2-0.2,0.4-0.2,0.6-0.2c0.1,0,0.3,0,0.4,0.1c0.1,0.1,0.2,0.1,0.2,0.2v-1.6h0.3
		V79.2z M46.5,78.3c0-0.2-0.1-0.3-0.2-0.4c-0.1-0.1-0.2-0.2-0.4-0.2c-0.2,0-0.3,0.1-0.4,0.2c-0.1,0.1-0.2,0.3-0.2,0.4
		c0,0.2,0.1,0.3,0.2,0.5c0.1,0.1,0.2,0.2,0.4,0.2c0.2,0,0.3-0.1,0.4-0.2C46.5,78.6,46.5,78.5,46.5,78.3"/>
	<path class="st1" d="M48.9,79.2h-0.3v-0.3c-0.1,0.1-0.1,0.2-0.2,0.2c-0.1,0.1-0.2,0.1-0.4,0.1c-0.2,0-0.4-0.1-0.6-0.3
		c-0.2-0.2-0.2-0.4-0.2-0.7c0-0.3,0.1-0.5,0.2-0.6c0.2-0.2,0.4-0.2,0.6-0.2c0.1,0,0.3,0,0.4,0.1c0.1,0.1,0.2,0.1,0.2,0.2v-0.3h0.3
		V79.2z M48.6,78.3c0-0.2-0.1-0.3-0.2-0.4c-0.1-0.1-0.2-0.2-0.4-0.2c-0.2,0-0.3,0.1-0.4,0.2c-0.1,0.1-0.2,0.3-0.2,0.4
		c0,0.2,0.1,0.3,0.2,0.5c0.1,0.1,0.2,0.2,0.4,0.2c0.2,0,0.3-0.1,0.4-0.2C48.6,78.6,48.6,78.5,48.6,78.3"/>
	<path class="st1" d="M51.1,78.7c0,0.3,0,0.5-0.1,0.6c-0.1,0.1-0.2,0.2-0.4,0.2c-0.1,0-0.2,0-0.2,0c-0.1,0-0.1-0.1-0.2-0.1l0.1-0.3
		c0,0,0.1,0.1,0.1,0.1c0,0,0.1,0,0.1,0c0.1,0,0.2,0,0.2-0.1c0-0.1,0.1-0.2,0.1-0.4v-2.2h0.3V78.7z"/>
	<path class="st1" d="M53.3,78.3c0,0.3-0.1,0.5-0.3,0.6c-0.2,0.2-0.4,0.3-0.6,0.3c-0.3,0-0.5-0.1-0.6-0.3c-0.2-0.2-0.3-0.4-0.3-0.6
		c0-0.3,0.1-0.5,0.3-0.6c0.2-0.2,0.4-0.3,0.6-0.3c0.3,0,0.5,0.1,0.6,0.3C53.2,77.9,53.3,78.1,53.3,78.3 M53,78.3
		c0-0.2-0.1-0.3-0.2-0.4c-0.1-0.1-0.3-0.2-0.4-0.2c-0.2,0-0.3,0.1-0.4,0.2c-0.1,0.1-0.2,0.3-0.2,0.4c0,0.2,0.1,0.3,0.2,0.5
		c0.1,0.1,0.3,0.2,0.4,0.2c0.2,0,0.3-0.1,0.4-0.2C53,78.6,53,78.5,53,78.3"/>
	<path class="st1" d="M55.1,79.2h-0.3v-1c0-0.2,0-0.3-0.1-0.4c-0.1-0.1-0.2-0.1-0.3-0.1c-0.1,0-0.3,0.1-0.3,0.2
		C54,78,54,78.1,54,78.4v0.8h-0.3v-3H54v1.6c0.1-0.1,0.1-0.2,0.2-0.2c0.1-0.1,0.2-0.1,0.3-0.1c0.2,0,0.3,0.1,0.4,0.2
		c0.1,0.1,0.1,0.3,0.1,0.5V79.2z"/>
	<path class="st1" d="M57.1,79.2h-0.3v-0.3c-0.1,0.1-0.1,0.2-0.2,0.2c-0.1,0.1-0.2,0.1-0.4,0.1c-0.2,0-0.4-0.1-0.6-0.3
		c-0.2-0.2-0.2-0.4-0.2-0.7c0-0.3,0.1-0.5,0.2-0.6c0.2-0.2,0.4-0.2,0.6-0.2c0.1,0,0.3,0,0.4,0.1c0.1,0.1,0.2,0.1,0.2,0.2v-0.3h0.3
		V79.2z M56.9,78.3c0-0.2-0.1-0.3-0.2-0.4c-0.1-0.1-0.2-0.2-0.4-0.2c-0.2,0-0.3,0.1-0.4,0.2c-0.1,0.1-0.2,0.3-0.2,0.4
		c0,0.2,0.1,0.3,0.2,0.5c0.1,0.1,0.2,0.2,0.4,0.2c0.2,0,0.3-0.1,0.4-0.2C56.8,78.6,56.9,78.5,56.9,78.3"/>
	<path class="st1" d="M59,79.2h-0.3v-1c0-0.2,0-0.3-0.1-0.4c-0.1-0.1-0.2-0.1-0.3-0.1c-0.1,0-0.3,0.1-0.3,0.2
		c-0.1,0.1-0.1,0.3-0.1,0.5v0.8h-0.3v-1.7h0.3v0.3c0.1-0.1,0.1-0.2,0.2-0.2c0.1-0.1,0.2-0.1,0.3-0.1c0.2,0,0.3,0.1,0.4,0.2
		c0.1,0.1,0.1,0.3,0.1,0.5V79.2z"/>
	<path class="st1" d="M60.9,79.2h-0.3v-1c0-0.2,0-0.3-0.1-0.4c-0.1-0.1-0.2-0.1-0.3-0.1c-0.1,0-0.3,0.1-0.3,0.2
		c-0.1,0.1-0.1,0.3-0.1,0.5v0.8h-0.3v-1.7h0.3v0.3c0.1-0.1,0.1-0.2,0.2-0.2c0.1-0.1,0.2-0.1,0.3-0.1c0.2,0,0.3,0.1,0.4,0.2
		c0.1,0.1,0.1,0.3,0.1,0.5V79.2z"/>
	<path class="st1" d="M62.9,78.4h-1.4c0,0.2,0.1,0.3,0.2,0.4c0.1,0.1,0.2,0.2,0.4,0.2c0.1,0,0.2,0,0.3-0.1c0.1,0,0.2-0.1,0.2-0.2
		l0.2,0.1c-0.1,0.1-0.2,0.3-0.3,0.3c-0.1,0.1-0.3,0.1-0.5,0.1c-0.3,0-0.5-0.1-0.6-0.3c-0.2-0.2-0.2-0.4-0.2-0.7
		c0-0.3,0.1-0.5,0.2-0.6c0.2-0.2,0.4-0.3,0.6-0.3c0.2,0,0.4,0.1,0.6,0.2c0.2,0.2,0.2,0.4,0.2,0.6V78.4z M62.6,78.2
		c0-0.1-0.1-0.3-0.2-0.3c-0.1-0.1-0.2-0.1-0.4-0.1c-0.1,0-0.3,0-0.4,0.1c-0.1,0.1-0.2,0.2-0.2,0.3H62.6z"/>
	<path class="st1" d="M31.9,83.3c1-0.2,1.6-0.7,1.8-1.4c-0.9-0.4-1.9-0.5-2.8-0.4c-0.9,0.1-1.6,0.5-2,1.1
		C29.8,83.2,30.9,83.5,31.9,83.3"/>
	<path class="st1" d="M28.3,81.3c1,0,1.7-0.4,2-1.1c-0.8-0.5-1.7-0.9-2.6-0.9c-0.9-0.1-1.7,0.2-2.1,0.7
		C26.3,80.8,27.3,81.3,28.3,81.3"/>
	<path class="st1" d="M25.3,78.7c0.9,0.2,1.7-0.1,2.1-0.7c-0.7-0.6-1.5-1.1-2.4-1.4c-0.9-0.2-1.7-0.1-2.2,0.3
		C23.4,77.9,24.3,78.5,25.3,78.7"/>
	<path class="st1" d="M22.8,75.6c0.9,0.4,1.7,0.2,2.2-0.2c-0.5-0.8-1.2-1.4-2-1.8c-0.8-0.4-1.6-0.4-2.3-0.1
		C21.2,74.5,21.9,75.3,22.8,75.6"/>
	<path class="st1" d="M21,72.1c0.8,0.5,1.6,0.5,2.2,0.2c-0.4-0.8-0.9-1.6-1.7-2.1c-0.7-0.5-1.5-0.7-2.2-0.5
		C19.6,70.7,20.2,71.6,21,72.1"/>
	<path class="st1" d="M19.9,68.4c0.7,0.7,1.5,0.8,2.2,0.6c-0.2-0.9-0.6-1.8-1.2-2.4c-0.6-0.7-1.3-1-2.1-1
		C18.8,66.7,19.2,67.7,19.9,68.4"/>
	<path class="st1" d="M19.6,64.4c0.5,0.8,1.3,1.1,2,1c0-0.9-0.3-1.9-0.7-2.7c-0.5-0.8-1.1-1.3-1.8-1.4C18.8,62.5,19,63.6,19.6,64.4"
		/>
	<path class="st1" d="M20,60.4c0.4,0.9,1,1.4,1.8,1.4c0.2-0.9,0.1-1.9-0.2-2.8c-0.3-0.9-0.8-1.5-1.5-1.7
		C19.6,58.3,19.6,59.5,20,60.4"/>
	<path class="st1" d="M33.5,79.6c0.4,0.8,0.5,1.5,0.2,2.2c-0.9-0.3-1.7-1-2.1-1.8c-0.4-0.8-0.2-1.6,0.2-2.2
		C32.5,78.2,33.1,78.8,33.5,79.6"/>
	<path class="st1" d="M30.6,78c0.2,0.8,0.1,1.6-0.3,2.2c-0.8-0.5-1.4-1.3-1.6-2.1c-0.2-0.9,0.1-1.6,0.6-2.1
		C29.9,76.5,30.4,77.2,30.6,78"/>
	<path class="st1" d="M28.2,75.9c0,0.8-0.2,1.6-0.7,2.1c-0.7-0.6-1.1-1.5-1.1-2.4c0-0.9,0.4-1.5,1-1.9
		C27.8,74.3,28.1,75.1,28.2,75.9"/>
	<path class="st1" d="M26.2,73.4c-0.1,0.8-0.5,1.5-1.1,1.9c-0.6-0.7-0.8-1.7-0.6-2.5c0.2-0.8,0.7-1.4,1.4-1.7
		C26.2,71.8,26.3,72.6,26.2,73.4"/>
	<path class="st1" d="M24.8,70.6c-0.3,0.8-0.8,1.4-1.4,1.7c-0.4-0.8-0.5-1.8-0.2-2.6c0.3-0.8,1-1.3,1.7-1.4
		C25,69.1,25,69.9,24.8,70.6"/>
	<path class="st1" d="M23.9,67.6c-0.4,0.7-1,1.2-1.7,1.4c-0.2-0.9-0.1-1.9,0.3-2.6c0.5-0.7,1.2-1.1,1.9-1.1
		C24.4,66.1,24.3,66.9,23.9,67.6"/>
	<path class="st1" d="M23.6,64.4c-0.5,0.6-1.2,1-2,1c-0.1-0.9,0.2-1.9,0.8-2.5c0.6-0.6,1.4-0.8,2.1-0.7C24.4,63,24.1,63.8,23.6,64.4
		"/>
	<path class="st1" d="M23.9,61.2c-0.7,0.5-1.4,0.8-2.1,0.6c0.1-0.9,0.6-1.8,1.3-2.4c0.7-0.5,1.5-0.6,2.2-0.3
		C25,60,24.6,60.7,23.9,61.2"/>
	<path class="st1" d="M68.1,83.3c-1-0.2-1.6-0.7-1.8-1.4c0.9-0.4,1.9-0.5,2.8-0.4c0.9,0.1,1.6,0.5,2,1.1
		C70.2,83.2,69.1,83.5,68.1,83.3"/>
	<path class="st1" d="M71.7,81.3c-1,0-1.7-0.4-2-1.1c0.8-0.5,1.7-0.9,2.6-0.9c0.9-0.1,1.7,0.2,2.1,0.7
		C73.7,80.8,72.7,81.3,71.7,81.3"/>
	<path class="st1" d="M74.7,78.7c-0.9,0.2-1.7-0.1-2.1-0.7c0.7-0.6,1.5-1.1,2.4-1.4c0.9-0.2,1.7-0.1,2.2,0.3
		C76.6,77.9,75.7,78.5,74.7,78.7"/>
	<path class="st1" d="M77.2,75.6c-0.9,0.4-1.7,0.2-2.2-0.2c0.5-0.8,1.2-1.4,2-1.8c0.8-0.4,1.6-0.4,2.3-0.1
		C78.8,74.5,78.1,75.3,77.2,75.6"/>
	<path class="st1" d="M79,72.1c-0.8,0.5-1.6,0.5-2.2,0.2c0.4-0.8,0.9-1.6,1.7-2.1c0.7-0.5,1.5-0.7,2.2-0.5
		C80.4,70.7,79.8,71.6,79,72.1"/>
	<path class="st1" d="M80.1,68.4c-0.7,0.7-1.5,0.8-2.2,0.6c0.2-0.9,0.6-1.8,1.2-2.4c0.6-0.7,1.3-1,2.1-1
		C81.2,66.7,80.8,67.7,80.1,68.4"/>
	<path class="st1" d="M80.4,64.4c-0.5,0.8-1.3,1.1-2,1c0-0.9,0.3-1.9,0.7-2.7c0.5-0.8,1.1-1.3,1.8-1.4C81.2,62.5,81,63.6,80.4,64.4"
		/>
	<path class="st1" d="M80,60.4c-0.4,0.9-1,1.4-1.8,1.4c-0.2-0.9-0.1-1.9,0.2-2.8c0.3-0.9,0.8-1.5,1.5-1.7
		C80.4,58.3,80.4,59.5,80,60.4"/>
	<path class="st1" d="M66.5,79.6c-0.4,0.8-0.5,1.5-0.2,2.2c0.9-0.3,1.7-1,2.1-1.8c0.4-0.8,0.2-1.6-0.2-2.2
		C67.5,78.2,66.9,78.8,66.5,79.6"/>
	<path class="st1" d="M69.4,78c-0.2,0.8-0.1,1.6,0.3,2.2c0.8-0.5,1.4-1.3,1.6-2.1c0.2-0.9-0.1-1.6-0.6-2.1
		C70.1,76.5,69.6,77.2,69.4,78"/>
	<path class="st1" d="M71.8,75.9c0,0.8,0.2,1.6,0.7,2.1c0.7-0.6,1.1-1.5,1.1-2.4c0-0.9-0.4-1.5-1-1.9C72.2,74.3,71.9,75.1,71.8,75.9
		"/>
	<path class="st1" d="M73.8,73.4c0.1,0.8,0.5,1.5,1.1,1.9c0.6-0.7,0.8-1.7,0.6-2.5c-0.2-0.8-0.7-1.4-1.4-1.7
		C73.8,71.8,73.7,72.6,73.8,73.4"/>
	<path class="st1" d="M75.2,70.6c0.3,0.8,0.8,1.4,1.4,1.7c0.4-0.8,0.5-1.8,0.2-2.6c-0.3-0.8-1-1.3-1.7-1.4
		C75,69.1,75,69.9,75.2,70.6"/>
	<path class="st1" d="M76.1,67.6c0.4,0.7,1,1.2,1.7,1.4c0.2-0.9,0.1-1.9-0.3-2.6c-0.5-0.7-1.2-1.1-1.9-1.1
		C75.6,66.1,75.7,66.9,76.1,67.6"/>
	<path class="st1" d="M76.4,64.4c0.5,0.6,1.2,1,2,1c0.1-0.9-0.2-1.9-0.8-2.5c-0.6-0.6-1.4-0.8-2.1-0.7C75.6,63,75.9,63.8,76.4,64.4"
		/>
	<path class="st1" d="M76.1,61.2c0.7,0.5,1.4,0.8,2.1,0.6c-0.1-0.9-0.6-1.8-1.3-2.4c-0.7-0.5-1.5-0.6-2.2-0.3
		C75,60,75.4,60.7,76.1,61.2"/>
	<rect x="41.3" y="81.6" class="st1" width="17.4" height="0.9"/>
	<path class="st1" d="M46.4,47.6l-6.8,5.1c0,0,1.9-2.9,1.6-4.6C41,46.4,46.4,47.6,46.4,47.6"/>
	<path class="st1" d="M26.7,49.9c0,0,18.3,1.6,46.6-9.9L26.7,49.9z"/>
	<path class="st1" d="M26.7,49.9c0,0,18.3-0.3,46.6-9.9L26.7,49.9z"/>
	<path class="st1" d="M53.6,45.2c0-0.2-1-14.3-10.2-28.6l-2,12.2c2.8,0.7,5.2,0.5,5.2,0.5c-2.8,0.6-5.3,0-5.3,0L40,37
		c0,0,4.1,1.1,8.4,0.5c0,0-3.6,1.1-8.6,0.2L39,42.9c0,0,6,1.5,13.5-1.2c0.4,2.2,0.6,3.5,0.6,3.6L53.6,45.2z"/>
</g>
</svg>
