<?xml version="1.0" encoding="utf-8"?>
<!-- Generator: Adobe Illustrator 26.0.1, SVG Export Plug-In . SVG Version: 6.00 Build 0)  -->
<svg version="1.1" id="Layer_1" xmlns="http://www.w3.org/2000/svg" xmlns:xlink="http://www.w3.org/1999/xlink" x="0px" y="0px"
	 viewBox="0 0 100 100" style="enable-background:new 0 0 100 100;" xml:space="preserve">
<style type="text/css">
	.st0{display:none;}
	.st1{fill:#FFFFFF;}
	.st2{fill-rule:evenodd;clip-rule:evenodd;fill:#FFFFFF;}
	.st3{fill-rule:evenodd;clip-rule:evenodd;}
	.st4{fill:none;}
	.st5{clip-path:url(#XMLID_00000008834343531420712350000017333331197682358973_);fill:#FFFFFF;}
</style>
<rect class="st0" width="100" height="100"/>
<g>
	<polygon class="st1" points="40,43.1 40,43.1 40,43.1 40,43.1 	"/>
	<path class="st1" d="M50.2,51.6L50.2,51.6c-4.9,0-9.2-3.9-10.2-8.5C40.8,48,45.1,51.6,50.2,51.6L50.2,51.6
		c5.7,0,10.4-4.6,10.4-10.4l0,0C60.5,47,55.9,51.6,50.2,51.6z"/>
	<g>
		<path class="st1" d="M50.8,32.4c0.3,1.7,2.9,3.2,5.5,4.7c0.9,0.5,1.8,1,2.7,1.5c0.5,0.4,1,0.8,1.6,1.3v-4.2c0-4.3-2.6-8-6.4-9.6
			C51.7,28,50.4,30.2,50.8,32.4z"/>
		<path class="st1" d="M53.4,42.8c-0.9-4.1-9.2-3.5-12-7.5c-0.6-0.8-1-1.6-1.2-2.4c-0.2,0.9-0.4,1.8-0.4,2.7v5.6
			c0,0.6,0.1,1.2,0.2,1.8C49.1,49.6,54.3,46.8,53.4,42.8z"/>
		<path class="st1" d="M50.2,51.6L50.2,51.6c-4.6,0-8.5-3.3-10-7.5C41.5,48.5,45.4,51.6,50.2,51.6L50.2,51.6c0.2,0,0.4,0,0.5,0
			C50.5,51.6,50.4,51.6,50.2,51.6z"/>
	</g>
	<g>
		<g>
			<g>
				<path class="st1" d="M22,72L22,72c-0.6,0-1-0.2-1.4-0.5c-0.4-0.3-0.6-0.7-0.8-1.1c-0.2-0.5-0.3-0.9-0.3-1.2c0-0.2,0-0.4,0.1-0.4
					c0.3,0.5,0.9,0.8,1.8,0.8c0.6,0,1.2-0.1,1.9-0.3c0.7-0.2,1.4-0.5,2-1c0.6-0.4,1-0.9,1.2-1.4c0-0.1,0-0.1,0-0.2
					c0-0.2-0.1-0.2-0.3-0.2c-0.2,0-0.7,0.1-1.4,0.4c-0.7,0.2-1.4,0.5-2.1,0.6c-0.3,0.1-0.6,0.1-0.9,0.1c-0.4,0-0.9-0.1-1.4-0.3
					c-0.5-0.2-0.8-0.8-1-1.8c0-0.1,0-0.3,0-0.4c0-0.8,0.3-1.6,0.9-2.5c0.6-0.9,1.4-1.8,2.4-2.7c1-0.8,2-1.5,3.1-1.9
					c0.6-0.2,1.1-0.3,1.6-0.3c0.4,0,0.9,0.1,1.5,0.4c0.6,0.2,0.9,1,1.1,2.4l0,0.4c0,0.7-0.2,1.5-0.5,2.3c-0.3,0.8-0.7,1.4-1.3,1.7
					c-0.3,0.2-0.7,0.2-1.1,0.2c-1,0-1.7-0.3-2.2-0.9c0.6-0.1,1.2-0.5,1.8-1.1c0.6-0.7,1.1-1.4,1.4-2.1c0.2-0.5,0.3-0.8,0.3-1.1
					c0-0.1,0-0.2-0.1-0.3c-0.1-0.1-0.2-0.1-0.3-0.1c-0.3,0-0.8,0.3-1.5,0.8c-0.7,0.5-1.5,1.3-2.3,2.3c-0.8,1-1.4,1.9-1.8,2.7
					c-0.1,0.3-0.2,0.5-0.2,0.7c0,0.2,0.1,0.4,0.3,0.4l0.2,0c0.3,0,0.8-0.1,1.4-0.2c0.6-0.2,1.3-0.3,1.9-0.3h0.1c0.5,0,1,0.2,1.2,0.6
					c0.2,0.4,0.3,0.9,0.3,1.3c0,0.5-0.2,1-0.6,1.7c-0.4,0.7-1.1,1.3-2.1,1.9C24.3,71.7,23.2,72,22,72z"/>
				<path class="st1" d="M31,70.5c-0.3,0-0.6-0.1-1-0.3c-0.6-0.4-0.9-1.1-0.9-2.3c0-0.1,0-0.5,0.1-1.1c0-0.6,0.2-1.4,0.5-2.6
					c0.3-1.1,0.6-2.2,0.9-3.1c0.3-0.9,0.6-1.6,0.8-2.1c0.2-0.4,0.5-0.6,0.9-0.7c0.2,0,0.4-0.1,0.7-0.1c0.2,0,0.5,0,0.9,0.1
					c0.4,0.1,0.7,0.2,1,0.4c-0.2,0.3-0.6,1-1,2.1c-0.5,1.1-1,2.4-1.4,3.7c-0.5,1.3-0.8,2.5-0.9,3.4l0-0.1c0.6-1.2,1.3-2.3,2-3.4
					c1.3-1.9,2.3-2.9,3.3-3.1H37c0.5,0,0.8,0.3,1.1,0.8c0.2,0.3,0.3,0.6,0.3,0.9c0,0.2,0,0.5-0.1,0.7c-1,2.1-2.3,3.4-3.8,4.1
					c0.5,0.6,1,0.9,1.6,0.9c0.5,0,1-0.1,1.5-0.4c0.5-0.3,0.9-0.7,1.2-1.2c0.3-0.6,0.6-1,0.8-1.3c0.1-0.1,0.1-0.2,0.2-0.2
					c0,0,0.1,0,0.1,0.1c-0.1,0.7-0.3,1.4-0.7,2.1c-0.4,0.7-0.9,1.3-1.5,1.8c-0.6,0.5-1.1,0.7-1.6,0.7h-0.1c-0.8-0.1-1.5-0.4-2.1-0.9
					c-0.6-0.5-1-1-1.1-1.4l-0.2,0.4c-0.5,0.9-0.9,1.6-1,1.9C31.4,70.5,31.2,70.5,31,70.5z M33.2,67.7c0.5,0,1-0.2,1.4-0.6
					c0.4-0.4,0.7-0.9,0.9-1.4c0.2-0.4,0.2-0.7,0.2-0.9c0-0.2,0-0.3-0.1-0.3c-0.1,0-0.3,0.1-0.6,0.4c-0.2,0.3-0.4,0.6-0.6,0.8
					c-0.5,0.6-0.9,1.2-1.3,1.8H33.2z"/>
				<path class="st1" d="M40.7,70.5c-0.2,0-0.4,0-0.6-0.1c-0.2-0.1-0.4-0.2-0.6-0.4c-0.4-0.7-0.6-1.5-0.6-2.3c0-0.1,0-0.3,0-0.8
					c0-0.5,0.1-1.2,0.4-2.1c0.2-0.9,0.5-1.6,0.7-2.2c0.2-0.4,0.5-0.6,0.9-0.7c0.2,0,0.4-0.1,0.6-0.1c0.3,0,0.6,0,1,0.1
					c0.4,0.1,0.7,0.2,1,0.4c-0.3,0.4-0.7,1.1-1.2,2.2c-0.5,1.1-0.9,2.3-1.1,3.6l0-0.1c0.6-1.2,1.3-2.3,2-3.4
					c1.3-1.9,2.3-2.9,3.3-3.1l0.2,0c0.4,0,0.8,0.2,1.2,0.5c0.3,0.2,0.4,0.5,0.4,0.8c0,0.2,0,0.3-0.1,0.5c-0.4,0.7-0.7,1.5-1,2.4
					c-0.3,0.9-0.6,1.6-0.7,2.3c-0.1,0.3-0.1,0.5-0.1,0.7c0,0.3,0.1,0.4,0.2,0.4c0.5,0,1.1-0.7,2-2.1c0.4-0.6,0.6-1,0.7-1.2
					c0-0.1,0.1-0.1,0.1-0.1c0,0,0.1,0,0.1,0.1c-0.1,0.7-0.3,1.4-0.7,2.1c-0.4,0.7-0.9,1.3-1.4,1.8c-0.6,0.5-1.1,0.7-1.6,0.7h-0.1
					c-0.7-0.1-1.2-0.4-1.4-1C44.1,69.1,44,68.6,44,68c0-0.2,0-0.5,0.1-1c0-0.5,0.2-1.2,0.5-2.1c-0.8,1.1-1.7,2.7-2.8,4.7
					c-0.2,0.4-0.4,0.7-0.5,0.8C41,70.5,40.9,70.5,40.7,70.5z"/>
				<path class="st1" d="M50.5,70.4c-0.6,0-1.2-0.1-1.5-0.4c-0.5-0.4-0.8-0.9-0.8-1.6c0-0.5,0.1-0.9,0.4-1.3
					c0.1-0.1,0.3-0.2,0.4-0.2c0.1,0,0.2,0.1,0.2,0.2c0,0.1,0,0.2-0.1,0.4c-0.1,0.2-0.1,0.3-0.1,0.5c0,0.3,0.1,0.5,0.4,0.7
					c0.3,0.2,0.7,0.3,1.2,0.3c0.4,0,0.7-0.1,0.9-0.2c0.2-0.1,0.3-0.3,0.3-0.5c0-0.1,0-0.3-0.1-0.5c-0.1-0.2-0.5-0.6-1.3-1.1
					c-0.8-0.5-1.2-1.1-1.4-1.8c0-0.2,0-0.3,0-0.4c0-0.5,0.2-1,0.5-1.5c0.3-0.5,0.9-0.9,1.6-1.2c0.5-0.2,1-0.3,1.5-0.3
					c0.3,0,0.6,0,1,0.1c0.6,0.2,1,0.5,1.1,1c0,0.2,0.1,0.4,0.1,0.6c0,0.3-0.1,0.6-0.2,1c-0.2,0.4-0.4,0.6-0.7,0.7
					c0-0.3-0.2-0.6-0.6-0.9c-0.4-0.3-0.8-0.5-1.2-0.5c-0.3,0-0.6,0.2-0.7,0.6l0,0.1c0,0.2,0.1,0.3,0.2,0.5c0.2,0.1,0.4,0.3,0.7,0.5
					c0.4,0.2,0.9,0.6,1.3,1c0.4,0.4,0.6,0.9,0.7,1.6v0.1c0,0.8-0.3,1.5-1,2C52.7,70.1,51.7,70.4,50.5,70.4z"/>
				<path class="st1" d="M56.8,70.5c-0.2,0-0.5-0.1-0.8-0.2c-0.8-0.3-1.1-1.1-1.1-2.4c0-0.1,0-0.5,0.1-1c0-0.6,0.2-1.4,0.5-2.6
					c0.3-1.1,0.6-2.2,0.9-3.1c0.3-0.9,0.6-1.6,0.8-2.1c0.2-0.4,0.5-0.6,0.9-0.7c0.2,0,0.4-0.1,0.7-0.1c0.2,0,0.5,0,0.9,0.1
					c0.4,0.1,0.7,0.2,1,0.4c-0.2,0.3-0.6,1-1,2.1c-0.5,1.1-0.9,2.4-1.4,3.7c-0.5,1.3-0.8,2.5-0.9,3.4l0-0.1c0.1-0.2,0.3-0.6,0.7-1.3
					c0.4-0.6,0.8-1.3,1.3-2.1c0.5-0.8,1.1-1.4,1.6-2c0.6-0.6,1.1-1,1.7-1.1l0.2,0c0.4,0,0.8,0.2,1.2,0.5c0.3,0.2,0.4,0.5,0.4,0.8
					c0,0.2,0,0.3-0.1,0.5c-0.3,0.7-0.7,1.5-1,2.4c-0.3,0.9-0.6,1.6-0.7,2.3c-0.1,0.3-0.1,0.5-0.1,0.7c0,0.3,0.1,0.4,0.2,0.4
					c0.3,0,0.6-0.2,0.9-0.6c0.5-0.6,1.1-1.4,1.7-2.5c0.1-0.2,0.2-0.3,0.2-0.3c0,0,0.1,0,0.1,0.1c-0.1,0.7-0.3,1.4-0.7,2.1
					c-0.4,0.7-0.9,1.3-1.4,1.8c-0.6,0.5-1.1,0.7-1.6,0.7h-0.1c-0.7-0.1-1.2-0.4-1.5-1c-0.2-0.4-0.3-0.9-0.3-1.5c0-0.2,0-0.5,0.1-1
					c0-0.5,0.2-1.2,0.5-2.1c-0.6,0.8-1.1,1.6-1.6,2.5c-0.5,0.9-0.9,1.6-1.2,2.2l-0.4,0.8C57.2,70.5,57,70.5,56.8,70.5z"/>
				<path class="st1" d="M67.4,70.3c-0.7,0-1.2-0.2-1.6-0.6c-0.6-0.6-0.9-1.5-0.9-2.7c0-0.3,0-0.8,0.1-1.4c0.1-0.6,0.3-1.2,0.7-1.9
					c0.3-0.7,0.8-1.2,1.4-1.7c0.6-0.4,1.2-0.7,1.9-0.7c1,0,1.7,0.3,2.1,0.9c0.5,0.6,0.7,1.5,0.7,2.4c0,0.8-0.2,1.6-0.5,2.5
					s-0.8,1.6-1.5,2.2C69.2,70,68.4,70.3,67.4,70.3z M68.1,69.2c0.3,0,0.7-0.2,1-0.6c0.3-0.4,0.6-0.9,0.9-1.5
					c0.4-0.9,0.6-1.8,0.6-2.5c0-0.8-0.2-1.2-0.7-1.2c-0.3,0-0.6,0.2-0.9,0.6c-0.3,0.4-0.5,0.9-0.7,1.4c-0.2,0.6-0.4,1.1-0.5,1.7
					c-0.1,0.4-0.1,0.8-0.1,1.1c0,0.1,0,0.3,0,0.6C67.7,69.1,67.9,69.2,68.1,69.2z"/>
				<path class="st1" d="M70.5,73.9c-0.1,0-0.4,0-0.7-0.1c-0.3,0-0.7-0.2-1-0.4c-0.4-0.2-0.6-0.6-0.7-1.1c0.4,0.3,0.7,0.4,1,0.4
					c0.3,0,0.7-0.2,1.1-0.6c0.4-0.4,0.9-1.2,1.3-2.3c0.4-1.2,0.8-2.4,1.1-3.7c0.2-1,0.5-2.2,0.8-3.6c0.1-0.4,0.4-0.7,0.8-0.8
					c0.3-0.1,0.6-0.2,0.9-0.2c0.2,0,0.4,0,0.7,0.1c0.3,0,0.6,0.2,0.9,0.5c-0.1,0.3-0.2,0.6-0.3,0.9c0.3-0.5,0.7-0.8,1.1-1.1
					c0.4-0.3,0.7-0.4,1.1-0.4c1.3,0.1,2,0.9,2,2.4c0,0.6-0.1,1.3-0.2,2c-0.2,0.7-0.4,1.4-0.8,2c-0.4,0.6-0.8,1.1-1.3,1.5
					c-0.5,0.4-1.2,0.6-1.9,0.6c-1,0-1.6-0.3-1.8-1c-1.1,3-2.4,4.6-3.9,4.8C70.6,73.9,70.6,73.9,70.5,73.9z M75.6,69.1
					c0.3,0,0.6-0.3,0.9-0.8c0.3-0.5,0.5-1.1,0.7-1.7c0.3-0.9,0.4-1.7,0.4-2.3c0-0.2,0-0.3-0.1-0.6c0-0.2-0.2-0.3-0.4-0.3
					c-0.3,0-0.5,0.3-0.8,0.8c-0.3,0.5-0.5,1.1-0.8,1.8c0,0.1-0.1,0.3-0.1,0.4v0c-0.2,0.8-0.3,1.5-0.3,2.1
					C75.1,68.9,75.3,69.1,75.6,69.1z"/>
			</g>
		</g>
	</g>
	<path class="st1" d="M60.5,40L60.5,40v1.3c0,5.7-4.6,10.4-10.4,10.4h0c-4.9,0-9.2-3.9-10.2-8.5l-3.1-2l0,0c-0.2-0.2-0.5,0-0.6,0.2
		c-1.7,8.2,4,16.2,12.3,17.2c0.5,0.1,1.1,0.1,1.6,0.1h0c0.1,0,0.2,0,0.4,0c7.1-0.2,12.9-5.7,13.4-12.7c0-0.4,0-0.7,0-1.1v0
		C64.1,42.2,62.7,41.2,60.5,40z"/>
</g>
</svg>
