<?xml version="1.0" encoding="utf-8"?>
<!-- Generator: Adobe Illustrator 26.0.1, SVG Export Plug-In . SVG Version: 6.00 Build 0)  -->
<svg version="1.1" id="Layer_1" xmlns="http://www.w3.org/2000/svg" xmlns:xlink="http://www.w3.org/1999/xlink" x="0px" y="0px"
	 viewBox="0 0 100 100" style="enable-background:new 0 0 100 100;" xml:space="preserve">
<style type="text/css">
	.st0{display:none;}
	.st1{fill:#FFFFFF;}
	.st2{fill-rule:evenodd;clip-rule:evenodd;fill:#FFFFFF;}
	.st3{fill-rule:evenodd;clip-rule:evenodd;}
	.st4{font-family:'CenturyGothic-Bold';}
	.st5{font-size:3.3482px;}
	.st6{fill:none;}
	.st7{clip-path:url(#XMLID_00000160174507642637917260000017638611916665396661_);fill:#FFFFFF;}
</style>
<rect class="st0" width="100" height="100"/>
<g>
	<path class="st1" d="M47.7,34.8H34l0,2.3c-4.1,0.9-7.1,4.6-6.9,9.1c0.2,4.5,3.9,8.1,8.3,8.3c4.1,0.2,7.6-2.4,8.8-6l3.5,0V34.8z
		 M44.2,48.5H34V37.1c0.6-0.1,1.2-0.2,1.9-0.2c4.9,0,8.8,3.9,8.8,8.8C44.7,46.7,44.5,47.6,44.2,48.5z"/>
	<g>
		<path class="st1" d="M49.8,49.5c1,0,1.9,0.9,1.9,1.9c0,0.4-0.1,0.7-0.3,1c-0.2,0.3-0.5,0.5-0.8,0.7l1.1,1.4h-2.1l-0.9-1.2h-1.8
			v1.2h-2v-5H49.8z M46.9,51v0.9h2.4c0.1,0,0.2,0,0.3-0.1c0.1-0.1,0.1-0.2,0.1-0.3c0-0.2-0.2-0.4-0.4-0.4H46.9z"/>
		<path class="st1" d="M58.8,51.9v0.4c0,1.9-1.5,2.5-3.4,2.5c-1.9,0-3.5-0.6-3.4-2.5v-0.4c0-1.9,1.5-2.5,3.4-2.5
			C57.3,49.4,58.8,49.9,58.8,51.9z M56.8,52c0-0.8-0.7-1-1.5-1c-0.8,0-1.5,0.2-1.5,1v0.1c0,0.8,0.7,1,1.5,1c0.8,0,1.5-0.2,1.5-1V52z
			"/>
		<path class="st1" d="M64.1,49.5h2v2.7c0,1.9-1.6,2.5-3.4,2.5c-1.9,0-3.5-0.6-3.4-2.5v-2.7h2v2.6c0,0.8,0.7,1,1.5,1
			c0.8,0,1.5-0.2,1.5-1V49.5z"/>
		<path class="st1" d="M71.4,49.5h2v5h-2.2l-2.7-3.1v3.1h-2v-5h2.7l2.2,2.7V49.5z"/>
		<path class="st1" d="M78.3,49.5c1.4,0,2.4,1.1,2.4,2.5c0,1.4-1,2.5-2.4,2.5h-4.5v-5H78.3z M77.9,51.1h-2.2V53h2.2
			c0.5,0,0.8-0.4,0.8-0.9C78.7,51.5,78.4,51.1,77.9,51.1z"/>
	</g>
	<g>
		<path class="st1" d="M24.2,55.6c1,0,1.9,0.9,1.9,1.9c0,0.4-0.1,0.7-0.3,1c-0.2,0.3-0.5,0.5-0.8,0.7l1.1,1.4H24l-0.9-1.2h-1.8v1.2
			h-2v-5H24.2z M21.3,57v0.9h2.4c0.1,0,0.2,0,0.3-0.1c0.1-0.1,0.1-0.2,0.1-0.3c0-0.2-0.2-0.4-0.4-0.4H21.3z"/>
		<path class="st1" d="M26.5,55.6h5.9v1.3h-3.9v0.6h3.9v1.2h-3.9v0.6h3.9v1.3h-5.9V55.6z"/>
		<path class="st1" d="M39.7,58.5c-0.1,1.7-1.6,2.2-3.4,2.2c-1.9,0-3.5-0.6-3.4-2.5v-0.4c0-1.9,1.6-2.5,3.4-2.5
			c1.8,0,3.3,0.5,3.4,2.2h-2c-0.2-0.5-0.7-0.6-1.4-0.6c-0.8,0-1.5,0.2-1.5,1v0.1c0,0.8,0.7,1,1.5,1c0.7,0,1.2-0.1,1.4-0.6H39.7z"/>
		<path class="st1" d="M42.2,60.6v-3.4h-2.3v-1.6h6.6v1.6h-2.3v3.4H42.2z"/>
		<path class="st1" d="M47.9,55.6h2.3l2.7,5h-2.2l-0.4-0.9h-2.5l-0.4,0.9h-2.2L47.9,55.6z M48.3,58.5h1.4L49,57L48.3,58.5z"/>
		<path class="st1" d="M58.3,55.6h2v5h-2.2l-2.7-3.1v3.1h-2v-5h2.7l2.2,2.7V55.6z"/>
		<path class="st1" d="M64.1,57.8h3.4v2.9h-1l-0.1-0.8c-0.6,0.6-1.5,0.8-2.3,0.8c-1.9,0-3.5-0.6-3.4-2.5v-0.4c0-1.9,1.5-2.5,3.4-2.5
			c1.7,0,3.2,0.5,3.4,2h-2.1c-0.1-0.2-0.3-0.3-0.5-0.3c-0.2-0.1-0.5-0.1-0.8-0.1c-0.8,0-1.5,0.2-1.5,1v0.1c0,0.8,0.7,1,1.5,1
			c0.8,0,1.3,0,1.6-0.4h-1.6V57.8z"/>
		<path class="st1" d="M69.9,55.6V59h3.9v1.6h-5.9v-5H69.9z"/>
		<path class="st1" d="M74.2,55.6h5.9v1.3h-3.9v0.6h3.9v1.2h-3.9v0.6h3.9v1.3h-5.9V55.6z"/>
	</g>
	<text transform="matrix(1 0 0 1 33.5198 64.1746)" class="st1 st4 st5">Think out of the box</text>
</g>
</svg>
