<?xml version="1.0" encoding="utf-8"?>
<!-- Generator: Adobe Illustrator 26.0.1, SVG Export Plug-In . SVG Version: 6.00 Build 0)  -->
<svg version="1.1" id="Layer_1" xmlns="http://www.w3.org/2000/svg" xmlns:xlink="http://www.w3.org/1999/xlink" x="0px" y="0px"
	 viewBox="0 0 100 100" style="enable-background:new 0 0 100 100;" xml:space="preserve">
<style type="text/css">
	.st0{display:none;}
	.st1{fill:#FFFFFF;}
	.st2{fill-rule:evenodd;clip-rule:evenodd;fill:#FFFFFF;}
	.st3{fill-rule:evenodd;clip-rule:evenodd;}
	.st4{fill:none;}
	.st5{clip-path:url(#XMLID_00000036250885553567775650000011312205352424033938_);fill:#FFFFFF;}
</style>
<rect class="st0" width="100" height="100"/>
<g>
	<g>
		<path class="st1" d="M31.2,44.7c0.2-0.1,0.4-0.1,0.3,0.1c0,0.2-0.2,0.5-0.6,0.9c-0.1,0.1-0.2,0.2-0.3,0.3c-1.1,0.4-2.3,1-3.8,1.6
			c-0.4,1.6-0.9,4-1.6,7.3c-0.7,3.3-1.3,5.7-1.7,7.4c-0.1,0.2-0.3,0.5-0.7,0.8c-0.4,0.3-0.6,0.3-0.7,0.1c0,0,0-0.1,0-0.1
			c0.2-1.1,0.5-2.4,0.8-3.7s0.6-2.6,0.8-3.7c0.2-1.1,0.5-2.4,0.8-3.7c0.3-1.4,0.6-2.6,0.8-3.7c-1.9,0.9-4.3,2-7.2,3.3
			c-0.4,1.8-0.8,3.6-1.2,5.5c-0.1,0.2-0.3,0.5-0.7,0.8c-0.4,0.3-0.6,0.3-0.7,0.1c0,0,0-0.1,0-0.1c0.4-1.9,0.9-3.8,1.3-5.7l-4.5,2.1
			c-0.2,0.1-0.4,0.1-0.3-0.1c0-0.3,0.2-0.6,0.6-0.9c0.1-0.1,0.2-0.2,0.3-0.2c1.4-0.7,2.8-1.3,4.3-2c1-4.6,1.8-8.2,2.4-10.9
			c0-0.2,0.3-0.5,0.7-0.8c0.4-0.3,0.6-0.3,0.7-0.1c0,0,0,0.1,0,0.1c-0.6,2.7-1.4,6.4-2.4,11.1c2.9-1.3,5.3-2.4,7.2-3.3
			c0.8-3.6,1.6-7.2,2.3-10.8c0-0.2,0.3-0.5,0.7-0.8c0.4-0.3,0.6-0.3,0.7-0.1c0,0,0,0.1,0,0.1c-0.8,3.7-1.6,7.3-2.4,11
			C28.5,45.8,29.8,45.2,31.2,44.7z"/>
		<path class="st1" d="M29.6,54.1C29.6,54.1,29.6,54.1,29.6,54.1c0.2,0,0.5,0,0.7,0c0.4-0.1,0.8-0.3,1.1-0.6
			c0.4-0.4,0.8-0.8,1.1-1.3c0.1-0.2,0.3-0.1,0.5,0.3c0.3,0.4,0.4,0.7,0.4,0.9c0,0,0,0,0,0c-0.5,0.9-1.3,1.6-2.2,2
			c-0.4,0.2-0.9,0.2-1.3,0.1c-0.4-0.1-0.8-0.5-1.1-1c-0.2-0.3-0.3-0.7-0.4-1c-0.1-0.4-0.1-0.7-0.1-1.1c0-0.4,0.1-0.8,0.2-1.1
			c0.1-0.4,0.2-0.8,0.3-1.1c0.1-0.3,0.2-0.6,0.4-1c0.1-0.1,0.2-0.1,0.5,0.3c0.3,0.4,0.4,0.7,0.4,0.9c-0.5,1.2-0.8,2.4-0.8,3.7"/>
		<path class="st1" d="M29.3,48.7c-0.1,0-0.2,0-0.3,0c-0.1-0.1-0.2-0.2-0.3-0.3c-0.1-0.1-0.2-0.3-0.2-0.4c-0.1-0.1-0.1-0.2-0.1-0.4
			c0-0.1,0-0.2,0.1-0.2c0.5-0.3,0.9-0.4,1.2-0.6c0.3-0.1,0.5-0.1,0.6,0c0.2,0.2,0.4,0.4,0.5,0.6c0.1,0.3,0.1,0.5,0,0.7
			c0,0-0.1,0-0.2,0c0,0,0,0,0,0c0,0,0,0,0,0c-0.1,0.1-0.3,0.1-0.5,0.2C29.8,48.4,29.6,48.6,29.3,48.7L29.3,48.7z"/>
		<path class="st1" d="M45.6,50.2c0,0,0,0,0,0.1c-0.2,0.6-0.5,1.3-1.1,2.1c-1,1.5-1.8,2.1-2.6,1.8c-0.2-0.1-0.3-0.2-0.4-0.3
			c-0.5-0.5-0.7-1.5-0.8-3c-1.1,1.3-2.2,2.6-3.6,3.7c-0.1,0.1-0.2,0-0.4-0.1c-0.1-0.2-0.3-0.4-0.3-0.6c-0.1-0.2-0.1-0.4-0.1-0.5
			c0.3-1.2,0.4-2.4,0.3-3.6c-0.3,0.3-0.6,0.8-1.1,1.5c-0.5,0.7-0.8,1.1-1.1,1.4c0,0-0.1,0.2-0.2,0.4c-0.1,0.2-0.2,0.4-0.3,0.5
			c-0.1,0.1-0.2,0.3-0.4,0.4C33.4,54,33.3,54,33.1,54c-0.1,0-0.3-0.1-0.4-0.3c-0.1-0.2-0.2-0.4-0.3-0.6c-0.1-0.3-0.1-0.6-0.1-0.9
			c0-0.4,0-0.7,0.1-1.1c0.1-0.4,0.1-0.7,0.2-1.1c0.1-0.3,0.2-0.7,0.3-1.1c0.1-0.4,0.2-0.7,0.2-0.9c0-0.1,0.2,0,0.4,0.2
			c0.3,0.4,0.5,0.7,0.4,0.9c0,0.1-0.1,0.6-0.3,1.3c-0.2,0.7-0.3,1.3-0.4,1.7c0.3-0.4,0.6-0.8,0.8-1.2c0.3-0.5,0.5-0.8,0.6-0.9
			c0.9-1.2,1.5-1.9,1.8-2.3c0.1-0.1,0.2,0,0.4,0.2c0.2,0.3,0.3,0.5,0.3,0.6c0.3,1.2,0.4,2.4,0.4,3.6c1.1-1.1,2.2-2.4,3.2-3.6
			c0.2-0.2,0.4,0,0.7,0.5c0.1,0.3,0.2,0.5,0.2,0.6c0,0.1,0,0.1,0,0.2c0,0.4,0,0.7,0.1,0.9c0,0.2,0.1,0.6,0.1,1
			c0,0.3,0.1,0.6,0.2,0.9c0.1,0.2,0.2,0.4,0.4,0.4c0.1,0,0.3,0,0.5-0.2c0.2-0.2,0.4-0.4,0.6-0.6c0.2-0.3,0.5-0.5,0.7-0.8
			c0.2-0.3,0.5-0.5,0.7-0.8C45.2,50.5,45.4,50.3,45.6,50.2z"/>
		<path class="st1" d="M53.8,51.6c0.1,0.1,0.1,0.3,0,0.4c-0.1,0.2-0.2,0.3-0.4,0.4l-0.1,0.1c-2.1,1.9-3.3,2.2-3.7,0.9
			c-0.1-0.3-0.2-0.7-0.2-1c-0.2,0.2-0.3,0.5-0.5,0.7c-0.4,0.4-0.8,0.8-1.2,1.2c-0.4,0.4-0.9,0.5-1.3,0.5c-0.3,0-0.6-0.2-0.9-0.5
			c-0.3-0.3-0.5-0.6-0.7-1c-0.3-0.5-0.4-1.1-0.3-1.7c0.1-0.6,0.3-1.2,0.6-1.7c0.3-0.5,0.7-1,1.1-1.5c0.7-0.7,1.3-1,1.8-1
			c0.5,0.1,1,0.5,1.5,1.3c0.1-0.3,0.2-0.6,0.2-0.8c0-0.1,0.2,0,0.4,0.2c0.3,0.4,0.5,0.7,0.4,0.9c0,0,0,0,0,0v0c0,1,0,1.8,0.1,2.5
			c0,0,0,0.1,0,0.2s0,0.2,0,0.2c0,0,0,0.1,0,0.2c0,0.1,0,0.2,0.1,0.2c0,0.1,0.1,0.1,0.1,0.2c0,0.1,0.1,0.1,0.1,0.1
			c0.1,0,0.2,0.1,0.2,0.1c0.1,0,0.2,0,0.3-0.1c0.1-0.1,0.2-0.1,0.3-0.1c0.1-0.1,0.2-0.1,0.3-0.2c0.1-0.1,0.2-0.2,0.2-0.2
			c0.1-0.1,0.1-0.1,0.2-0.2c0.1-0.1,0.1-0.1,0.2-0.2C53.3,51.5,53.6,51.4,53.8,51.6z M46.7,53.1c1.3-0.7,2.2-1.9,2.9-3.7
			c0-0.1-0.1-0.1-0.1-0.2c-0.2-0.3-0.4-0.4-0.6-0.5c-0.2,0-0.5,0-0.7,0.1c-0.2,0.1-0.5,0.3-0.7,0.4c-0.2,0.2-0.4,0.4-0.6,0.6
			c-0.2,0.2-0.3,0.4-0.4,0.6c-0.4,0.5-0.6,1.1-0.8,1.7c-0.2,0.8-0.1,1.2,0.4,1.1C46.3,53.3,46.5,53.2,46.7,53.1z"/>
		<path class="st1" d="M57.4,52.6c0.1-0.2,0.4-0.4,0.8-0.7c0.4-0.2,0.6-0.2,0.5,0c0,0.1,0,0.1-0.1,0.2c-0.2,0.3-0.3,0.6-0.4,0.9
			c-0.2,0.3-0.4,0.6-0.6,0.9c-0.2,0.3-0.5,0.6-0.7,0.9c-0.2,0.2-0.5,0.4-0.8,0.5c-0.3,0.1-0.6,0.2-1,0.2c-0.5-0.1-0.9-0.4-1.2-0.8
			c-0.1-0.2-0.2-0.4-0.3-0.7c-0.1-0.3-0.2-0.5-0.2-0.8c-0.1-0.3-0.1-0.6-0.1-0.8c0-0.2,0-0.4-0.1-0.7c-0.1-1.9-0.1-3.7,0.2-5.6
			c0.2-1.9,0.6-4,1.1-6.3c0-0.2,0.3-0.5,0.7-0.8c0.4-0.3,0.6-0.3,0.7-0.1c0,0,0,0.1,0,0.1c-0.5,2.5-0.9,5.1-1.1,7.6
			c-0.1,0.8-0.1,1.4-0.1,1.9c0,0.6,0,1.2,0,1.7c0,0.6,0.1,1.3,0.2,1.9c0.1,0.4,0.2,0.8,0.5,1.2c0.2,0.3,0.4,0.5,0.6,0.6
			c0.2,0.1,0.5,0,0.7-0.2C56.9,53.5,57.1,53.1,57.4,52.6z"/>
		<path class="st1" d="M66.7,51.6c0.1,0.1,0.1,0.3,0,0.4c-0.1,0.2-0.2,0.3-0.4,0.4l-0.1,0.1c-2.1,1.9-3.3,2.2-3.7,0.9
			c-0.1-0.3-0.2-0.7-0.2-1c-0.1,0.2-0.3,0.5-0.5,0.7c-0.4,0.4-0.8,0.8-1.2,1.2c-0.4,0.4-0.9,0.5-1.3,0.5c-0.3,0-0.6-0.2-0.9-0.5
			c-0.3-0.3-0.5-0.6-0.7-1c-0.3-0.5-0.4-1.1-0.3-1.7c0.1-0.6,0.3-1.2,0.6-1.7c0.3-0.5,0.7-1,1.1-1.5c0.7-0.7,1.3-1,1.8-1
			c0.5,0.1,1,0.5,1.5,1.3c0.1-0.3,0.2-0.6,0.2-0.8c0-0.1,0.2,0,0.4,0.2c0.3,0.4,0.5,0.7,0.4,0.9c0,0,0,0,0,0v0c0,1,0,1.8,0.1,2.5
			c0,0,0,0.1,0,0.2s0,0.2,0,0.2c0,0,0,0.1,0,0.2c0,0.1,0,0.2,0.1,0.2c0,0.1,0.1,0.1,0.1,0.2c0,0.1,0.1,0.1,0.1,0.1
			c0.1,0,0.2,0.1,0.2,0.1c0.1,0,0.2,0,0.3-0.1c0.1-0.1,0.2-0.1,0.3-0.1c0.1-0.1,0.2-0.1,0.3-0.2c0.1-0.1,0.2-0.2,0.2-0.2
			c0.1-0.1,0.1-0.1,0.2-0.2c0.1-0.1,0.1-0.1,0.2-0.2C66.3,51.5,66.6,51.4,66.7,51.6z M59.6,53.1c1.3-0.7,2.2-1.9,2.9-3.7
			c0-0.1-0.1-0.1-0.1-0.2c-0.2-0.3-0.4-0.4-0.6-0.5c-0.2,0-0.5,0-0.7,0.1c-0.2,0.1-0.5,0.3-0.7,0.4c-0.2,0.2-0.4,0.4-0.6,0.6
			c-0.2,0.2-0.3,0.4-0.4,0.6c-0.4,0.5-0.6,1.1-0.8,1.7c-0.2,0.8-0.1,1.2,0.4,1.1C59.2,53.3,59.4,53.2,59.6,53.1z"/>
		<path class="st1" d="M71.6,47.8c0.1-0.1,0.2-0.1,0.5,0.3c0.3,0.4,0.4,0.7,0.4,0.9c-0.3,0.7-0.6,1.5-0.9,2.3
			c-0.3,0.8-0.5,1.7-0.6,2.5c-0.2,0.9-0.3,1.7-0.4,2.4s-0.2,1.6-0.3,2.7c-0.1,1-0.2,1.9-0.2,2.5c0,0.6-0.1,1.4-0.2,2.5
			c0,0.3,0,0.5,0,0.7c0,0.2-0.2,0.2-0.4-0.1c-0.3-0.4-0.5-0.7-0.5-0.9c0.1-1.7,0.2-2.9,0.2-3.6s0.1-1.8,0.3-3.2
			c0.2-1.4,0.3-2.7,0.6-3.8c-1.3,1.6-2.5,2.1-3.6,1.6c-0.2-0.1-0.4-0.2-0.6-0.4c-0.2-0.2-0.3-0.4-0.3-0.6c-0.1-0.2-0.1-0.5-0.1-0.7
			c0-0.3,0-0.6,0.1-0.8c0.1-0.3,0.1-0.6,0.2-0.8c0.1-0.3,0.2-0.6,0.3-0.8c0.1-0.3,0.2-0.6,0.3-0.7c0.1-0.2,0.2-0.4,0.3-0.6
			c0,0,0-0.1,0-0.1c0,0,0-0.1,0-0.1c0,0,0-0.1,0-0.1c0.1-0.2,0.2-0.1,0.5,0.3c0.3,0.4,0.4,0.7,0.4,0.9c-0.3,0.7-0.6,1.4-0.8,2.1
			c-0.1,0.3-0.2,0.6-0.3,0.9c0,0.2,0,0.3,0.1,0.3c0,0.1,0.1,0.1,0.2,0.1l0.1,0c0.5-0.1,0.9-0.4,1.3-0.7
			C69.5,51.7,70.6,50.1,71.6,47.8z"/>
		<path class="st1" d="M81.2,51.6c0.1,0.1,0.1,0.3,0,0.4c-0.1,0.2-0.2,0.3-0.4,0.4l-0.1,0.1c-2.1,1.9-3.3,2.2-3.7,0.9
			c-0.1-0.3-0.2-0.7-0.2-1c-0.2,0.2-0.3,0.5-0.5,0.7c-0.4,0.4-0.8,0.8-1.2,1.2c-0.4,0.4-0.9,0.5-1.3,0.5c-0.3,0-0.6-0.2-0.9-0.5
			c-0.3-0.3-0.5-0.6-0.7-1c-0.3-0.5-0.4-1.1-0.3-1.7c0.1-0.6,0.3-1.2,0.6-1.7c0.3-0.5,0.7-1,1.1-1.5c0.7-0.7,1.3-1,1.8-1
			c0.5,0.1,1,0.5,1.5,1.3c0.1-0.3,0.2-0.6,0.2-0.8c0-0.1,0.2,0,0.4,0.2c0.3,0.4,0.5,0.7,0.4,0.9c0,0,0,0,0,0v0c0,1,0,1.8,0.1,2.5
			c0,0,0,0.1,0,0.2c0,0.1,0,0.2,0,0.2c0,0,0,0.1,0,0.2c0,0.1,0,0.2,0.1,0.2c0,0.1,0.1,0.1,0.1,0.2c0,0.1,0.1,0.1,0.1,0.1
			c0.1,0,0.2,0.1,0.2,0.1c0.1,0,0.2,0,0.3-0.1c0.1-0.1,0.2-0.1,0.3-0.1c0.1-0.1,0.2-0.1,0.3-0.2c0.1-0.1,0.2-0.2,0.2-0.2
			s0.1-0.1,0.2-0.2c0.1-0.1,0.1-0.1,0.2-0.2C80.8,51.5,81.1,51.4,81.2,51.6z M74.1,53.1c1.3-0.7,2.2-1.9,2.9-3.7
			c0-0.1-0.1-0.1-0.1-0.2c-0.2-0.3-0.4-0.4-0.6-0.5c-0.2,0-0.5,0-0.7,0.1c-0.2,0.1-0.5,0.3-0.7,0.4c-0.2,0.2-0.4,0.4-0.6,0.6
			c-0.2,0.2-0.3,0.4-0.4,0.6c-0.4,0.5-0.6,1.1-0.8,1.7c-0.2,0.8-0.1,1.2,0.4,1.1C73.7,53.3,73.9,53.2,74.1,53.1z"/>
		<path class="st1" d="M87.6,51.2c0.1-0.2,0.1-0.3,0.2-0.3c0.1,0,0.1,0.2,0,0.7c-0.2,0.7-0.5,1.2-0.9,1.6c-0.4,0.4-0.9,0.4-1.5,0.1
			c-0.2-0.1-0.3-0.2-0.5-0.4c-0.1-0.1-0.2-0.3-0.3-0.4c-0.1-0.2-0.2-0.4-0.2-0.5c0-0.2-0.1-0.4-0.1-0.6c0-0.1-0.1-0.4-0.1-0.6
			c0-0.3-0.1-0.5-0.1-0.6c-0.1,0.1-0.1,0.1-0.2,0.2c-0.3,0.3-0.7,0.9-1.2,1.8c-0.6,0.9-1.2,1.9-1.7,2.8c-0.1,0.2-0.3,0.1-0.6-0.4
			c-0.2-0.4-0.3-0.7-0.3-0.8l1.8-7.2c0-0.1,0.2,0,0.4,0.2c0.3,0.4,0.5,0.7,0.4,0.9l-0.7,2.9c0.2-0.4,0.4-0.7,0.5-0.9
			c0.2-0.3,0.3-0.5,0.5-0.7c0.2-0.3,0.4-0.4,0.6-0.5c0.1,0,0.3,0,0.4,0.1c0.1,0.1,0.3,0.2,0.3,0.4c0.1,0.2,0.1,0.3,0.2,0.5
			c0,0.2,0.1,0.3,0.1,0.5c0,0.1,0.1,0.3,0.1,0.7s0.1,0.6,0.1,0.8c0,0.2,0.1,0.4,0.2,0.6c0.1,0.2,0.2,0.4,0.4,0.5
			c0.4,0.3,0.7,0.2,1.1-0.1C87.2,52.1,87.4,51.7,87.6,51.2z"/>
		<g>
			<path class="st1" d="M35.7,58.4c0,0-0.1,0.1-0.1,0.1l-0.7,2.7h-0.1L34,58.8l-0.8,2.4h-0.1l-0.8-2.6c0-0.1,0-0.1-0.1-0.1h0.3
				c0,0.1,0,0.1,0,0.2l0.6,2.1l0.7-2.2h0.2l0.8,2.2l0.6-2.1c0-0.1,0-0.1,0-0.2L35.7,58.4z"/>
			<path class="st1" d="M38.2,61l0,0.2h-1.4c0,0,0-0.1,0-0.1v-2.6c0,0,0-0.1,0-0.1h1.5v0.3c-0.1,0-0.2,0-0.2,0h-1v1h1.1
				c0,0,0,0,0.1,0v0.2l-0.1,0H37V61h1.1C38.2,61,38.2,61,38.2,61z"/>
			<path class="st1" d="M40.9,61l0,0.2h-1.4c0,0,0-0.1,0-0.1v-2.6c0,0,0-0.1,0-0.1h0.3c0,0,0,0.1,0,0.1V61h1.1
				C40.8,61,40.8,61,40.9,61z"/>
			<path class="st1" d="M43.4,61l0,0.2h-1.4c0,0,0-0.1,0-0.1v-2.6c0,0,0-0.1,0-0.1h0.3c0,0,0,0.1,0,0.1V61h1.1
				C43.3,61,43.4,61,43.4,61z"/>
			<path class="st1" d="M46.8,58.4C46.8,58.4,46.8,58.5,46.8,58.4l0,2.8h-0.3l-1.7-2.5v2.4c0,0,0,0.1,0,0.1h-0.3c0,0,0-0.1,0-0.1
				v-2.6c0,0,0-0.1,0-0.1h0.3l1.8,2.5v-2.4c0,0,0-0.1,0-0.1H46.8z"/>
			<path class="st1" d="M49.5,61l0,0.2H48c0,0,0-0.1,0-0.1v-2.6c0,0,0-0.1,0-0.1h1.5v0.3c-0.1,0-0.2,0-0.2,0h-1v1h1.1c0,0,0,0,0.1,0
				v0.2l-0.1,0h-1.1V61h1.1C49.4,61,49.5,61,49.5,61z"/>
			<path class="st1" d="M50.7,61C50.7,61,50.7,61,50.7,61l-0.1-0.3c0.2,0.2,0.5,0.3,0.8,0.3c0.1,0,0.2,0,0.4-0.1
				c0.2-0.1,0.3-0.2,0.3-0.4c0-0.1,0-0.3-0.1-0.4c-0.1-0.1-0.2-0.1-0.5-0.2c-0.4-0.1-0.8-0.3-0.9-0.8c0-0.2,0.1-0.4,0.2-0.5
				c0.2-0.1,0.4-0.2,0.6-0.2c0.1,0,0.2,0,0.2,0c0.1,0,0.3,0.1,0.4,0.1v0.3c-0.2-0.1-0.3-0.2-0.5-0.2c-0.2,0-0.4,0-0.5,0.1
				c-0.1,0.1-0.2,0.2-0.2,0.4c0,0.4,0.3,0.5,0.7,0.6c0.2,0.1,0.4,0.2,0.6,0.3c0.2,0.1,0.3,0.4,0.2,0.6c0,0.2-0.2,0.4-0.4,0.6
				c-0.1,0.1-0.3,0.1-0.5,0.1c-0.2,0-0.3,0-0.5-0.1C50.9,61.1,50.8,61.1,50.7,61z"/>
			<path class="st1" d="M53.5,61C53.5,61,53.5,61,53.5,61l-0.1-0.3c0.2,0.2,0.5,0.3,0.8,0.3c0.1,0,0.2,0,0.4-0.1
				c0.2-0.1,0.3-0.2,0.3-0.4c0-0.1,0-0.3-0.1-0.4c-0.1-0.1-0.2-0.1-0.5-0.2c-0.4-0.1-0.8-0.3-0.9-0.8c0-0.2,0.1-0.4,0.2-0.5
				c0.2-0.1,0.4-0.2,0.6-0.2c0.1,0,0.2,0,0.2,0c0.1,0,0.3,0.1,0.4,0.1v0.3c-0.2-0.1-0.3-0.2-0.5-0.2c-0.2,0-0.4,0-0.5,0.1
				c-0.1,0.1-0.2,0.2-0.2,0.4c0,0.4,0.3,0.5,0.7,0.6c0.2,0.1,0.4,0.2,0.6,0.3c0.2,0.1,0.3,0.4,0.2,0.6c0,0.2-0.2,0.4-0.4,0.6
				c-0.1,0.1-0.3,0.1-0.5,0.1c-0.2,0-0.3,0-0.5-0.1C53.7,61.1,53.6,61.1,53.5,61z"/>
			<path class="st1" d="M60.4,60.7c0,0.1,0,0.3-0.1,0.3c-0.2,0.1-0.5,0.2-0.8,0.2c-0.8,0-1.4-0.6-1.4-1.4v0c0-0.8,0.7-1.5,1.5-1.4
				c0.2,0,0.4,0.1,0.6,0.2v0.3c-0.3-0.2-0.6-0.2-0.7-0.2h0c-0.3,0-0.6,0.1-0.8,0.4c-0.5,0.5-0.5,1.3,0,1.7c0.2,0.2,0.5,0.4,0.8,0.4
				h0C59.9,61,60.2,60.9,60.4,60.7z"/>
			<path class="st1" d="M64.2,59.8c0,0.8-0.6,1.5-1.4,1.5c-0.8,0-1.5-0.6-1.5-1.4c0-0.8,0.6-1.5,1.4-1.5c0.4,0,0.8,0.1,1,0.4
				C64.1,59,64.2,59.4,64.2,59.8z M64,59.8c0-0.7-0.6-1.2-1.2-1.2s-1.2,0.6-1.2,1.2c0,0.7,0.6,1.2,1.2,1.2C63.4,61,64,60.5,64,59.8
				C64,59.8,64,59.8,64,59.8L64,59.8z"/>
			<path class="st1" d="M65.4,61.1c0,0.1-0.1,0.2-0.2,0.2c-0.1,0-0.2-0.1-0.2-0.2c0-0.1,0.1-0.2,0.2-0.2c0,0,0,0,0,0
				C65.4,60.9,65.4,61,65.4,61.1z"/>
		</g>
	</g>
</g>
</svg>
