<?xml version="1.0" encoding="utf-8"?>
<!-- Generator: Adobe Illustrator 26.0.1, SVG Export Plug-In . SVG Version: 6.00 Build 0)  -->
<svg version="1.1" id="Layer_1" xmlns="http://www.w3.org/2000/svg" xmlns:xlink="http://www.w3.org/1999/xlink" x="0px" y="0px"
	 viewBox="0 0 100 100" style="enable-background:new 0 0 100 100;" xml:space="preserve">
<style type="text/css">
	.st0{display:none;}
	.st1{fill:#FFFFFF;}
	.st2{fill-rule:evenodd;clip-rule:evenodd;fill:#FFFFFF;}
	.st3{fill-rule:evenodd;clip-rule:evenodd;}
	.st4{fill:none;}
	.st5{clip-path:url(#XMLID_00000163755600622723301070000017245503458918912396_);fill:#FFFFFF;}
</style>
<rect class="st0" width="100" height="100"/>
<g>
	<path class="st1" d="M68,20c7.4,1.2-10.9,11.8-10.9,11.8l-0.1,0c0.4-3.6-2-5.8-5.5-3.4c-2.6,1.7-2.8,3.5-1.9,5.5L49.4,34
		C15.6,44.9,60.6,18.7,68,20z"/>
	<path class="st1" d="M54.7,37.2c8.9,2.1,15.5,10.1,15.5,19.6C70.2,68,61.1,77,50,77c-0.3,0-0.6,0-0.9,0c-0.2-0.2-0.5-0.4-0.7-0.6
		c5.9-6.1,13.2-15.1,8.8-18.6c-6.9-5.5-1.1-6.1,0.4-6.7c1.6-0.6,4.3-3-0.2-8.3c-1.2-1.4-2.7-2.8-4-4.2
		C53.9,38.2,54.3,37.7,54.7,37.2z"/>
	<path class="st1" d="M57.5,42.9c4.5,5.3,1.8,7.6,0.2,8.3c-1.6,0.6-7.3,1.1-0.4,6.7c4.4,3.5-2.9,12.5-8.8,18.6
		c-4.5-3.8-8.1-10.4-9.2-14.6c-1.2-4.6,13.7-6.9,5.5-11.1c-8.3-4.1-4.3-2.3,5.7-9.4c1.2-0.9,2.3-1.8,3.1-2.7
		C54.8,40,56.3,41.4,57.5,42.9z"/>
	<path class="st1" d="M54.7,37.2c-0.4,0.5-0.8,1-1.2,1.5c-0.6-0.7-1.3-1.3-1.8-1.9C52.7,36.8,53.7,37,54.7,37.2z"/>
	<path class="st1" d="M47.1,25.9c3.2-1.2,7.1-3.7,7.1-3.7C51.6,24.9,47.4,25.8,47.1,25.9z"/>
	<path class="st1" d="M54.1,20.3c-0.3-0.2-3.1-2.4-6.2-0.5c-2.7,1.7-2.3,5.2-2.2,5.5c-0.1-0.3-1.6-4.4,1.1-6.5
		c0.2,0.1,0.3,0.2,0.5,0.3l0.5,0c-0.2-0.2-0.5-0.3-0.8-0.4c0.1,0,0.1-0.1,0.2-0.1C50.8,16.4,53.3,19.3,54.1,20.3z"/>
	<path class="st1" d="M51.7,36.7c0.6,0.6,1.2,1.3,1.8,1.9c-0.9,0.9-1.9,1.8-3.1,2.7c-10,7.1-14,5.3-5.7,9.4
		c8.3,4.1-6.7,6.5-5.5,11.1c1.1,4.2,4.8,10.8,9.2,14.6c-0.2,0.2-0.3,0.3-0.5,0.5c-10.2-1-18.1-9.6-18.1-20.1
		c0-11.2,9-20.2,20.2-20.2C50.5,36.7,51.1,36.7,51.7,36.7z"/>
	<path class="st1" d="M47.7,19.2l-0.5,0c-0.2-0.1-0.3-0.2-0.5-0.3c0.1-0.1,0.1-0.1,0.2-0.2C47.3,18.9,47.5,19,47.7,19.2z"/>
	<path class="st1" d="M47,18.7c-0.1,0-0.1,0.1-0.2,0.2c-0.9-0.3-2.1,0.5-2.8,0.4c0,0,0.5-0.2,0.8-0.5c-0.8,0.5-1.9,0.5-2.7,0.2
		c0.3-0.1,0.6-0.4,0.6-0.4c-0.5,0.3-0.9,0.3-0.9,0.3c-0.4,0-1.5-0.7-2.5-0.5C41.9,16.8,44.8,17.6,47,18.7z"/>
	<path class="st1" d="M48.4,76.4c0.2,0.2,0.5,0.4,0.7,0.6c-0.4,0-0.8,0-1.2-0.1C48.1,76.8,48.2,76.6,48.4,76.4z"/>
	<g>
		<g>
			<path class="st4" d="M54.1,37.1c0-0.1,1.1-4.7,1.6-4.8c0.2-0.1,0.5-0.1,0.7-0.2c0.1-0.9,0.1-1.8-0.2-2.6
				c-0.4-1.3-1.7-1.7-2.9-1.3c-5.8,2.3-3.5,5.9-0.1,9.3c0.1,0.1,0.2,0.2,0.3,0.3C53.6,37.6,53.8,37.4,54.1,37.1
				C54,37.1,54,37.1,54.1,37.1z"/>
			<path class="st4" d="M44,45.9c-0.6,0.4-2.3,1.2-2.9,1.6c-0.2,0.1-0.4,0.3-0.4,0.4c0,0,0,0,0,0c1.8,1.7,4.5,2.1,6.3,4
				c2.6,3.1-4.5,5.5-6.2,7.3c-0.5,0.5-1,1-1.3,1.6c-0.2,0.7,0,1.3,0.2,2c1.7,5.1,4.6,10,8.6,13.6c5.1-5.4,10.7-12.4,9.6-16.7
				c-0.4-1.4-2-2-2.9-3.1c-0.8-0.9-1.8-2-1.6-3.3c0.5-1.8,2.6-2,4-2.5c1.6-0.6,2.3-2.4,1.7-3.9c-1.1-2.9-3.5-5-5.7-7.2
				C50.8,42.2,47.2,44.1,44,45.9z"/>
			<path d="M49.5,77.3c-0.3-0.3-0.6-0.5-0.9-0.8c0,0,0,0,0,0C48.9,76.8,49.2,77.1,49.5,77.3z"/>
			<g>
				<defs>
					<path id="XMLID_00000052068222447178061770000013272992599966493850_" d="M53.4,37.8c-0.1-0.1-0.2-0.2-0.3-0.3
						c-3.4-3.4-5.7-7,0.1-9.3c1.2-0.4,2.4,0,2.9,1.3c0.3,0.8,0.3,1.7,0.2,2.6c0.5-0.2,0.9-0.4,1.3-0.6c0.1-1.8-0.4-3.6-2.1-4.4
						c-2.9-1.2-7.6,2.2-7,5.4c0.4,2.4,2.2,4.2,3.8,5.9c0.1,0.1,0.2,0.2,0.3,0.4C52.9,38.4,53.2,38.1,53.4,37.8z"/>
				</defs>
				<use xlink:href="#XMLID_00000052068222447178061770000013272992599966493850_"  style="overflow:visible;"/>
				<clipPath id="XMLID_00000173142160051406502920000006968922145688100016_">
					<use xlink:href="#XMLID_00000052068222447178061770000013272992599966493850_"  style="overflow:visible;"/>
				</clipPath>
				<path style="clip-path:url(#XMLID_00000173142160051406502920000006968922145688100016_);fill:#FFFFFF;" d="M48.4,34.2
					c0,0,2.3-0.6,2.7-0.7c0.4-0.1,1.6,3.3,1.6,3.3c0.1,0-0.1-0.1-2.4-0.2"/>
			</g>
			<path d="M54.1,37.1C54,37.1,54,37.1,54.1,37.1c-0.2,0.3-0.4,0.5-0.6,0.7c0.3,0.3,0.5,0.6,0.8,0.9c0.4-0.4,0.7-0.8,1-1.3
				C54.7,37.2,54.1,37.1,54.1,37.1C54.1,37.1,54.1,37.1,54.1,37.1z"/>
			<path d="M42.1,82.5c1.5-1.3,3.9-3.5,6.4-6c-0.1-0.1-0.2-0.1-0.3-0.2C45.8,78.9,43.5,81.1,42.1,82.5z"/>
			<path d="M54.9,52.7c0.8-0.6,2-0.8,3-1.1c3.3-1.3,3.1-4.8,1.3-7.4c-1.4-2.1-3.2-3.8-4.9-5.6c-0.3,0.3-0.5,0.6-0.8,0.8
				c2.2,2.2,4.6,4.3,5.7,7.2c0.6,1.6-0.1,3.3-1.7,3.9c-1.4,0.5-3.5,0.7-4,2.5c-0.2,1.3,0.8,2.4,1.6,3.3c0.9,1.1,2.4,1.7,2.9,3.1
				c1.1,4.3-4.5,11.3-9.6,16.7c0.1,0.1,0.2,0.1,0.2,0.2C54,71.1,59.9,64,58.7,59.3c-0.5-1.6-2-2.3-3-3.5C55,55,53.7,53.6,54.9,52.7z
				"/>
			<path d="M48.3,76.3c0.1,0.1,0.2,0.1,0.3,0.2c0,0,0,0,0,0C48.5,76.4,48.4,76.4,48.3,76.3C48.3,76.3,48.3,76.3,48.3,76.3z"/>
			<path d="M54.2,38.6c-0.3-0.3-0.5-0.6-0.8-0.9c-0.3,0.3-0.5,0.6-0.8,0.8c0.3,0.3,0.5,0.6,0.8,0.8C53.7,39.2,54,38.9,54.2,38.6z"/>
			<path d="M40.7,47.9C40.7,47.9,40.7,47.9,40.7,47.9C40.7,47.9,40.7,47.9,40.7,47.9z"/>
			<path d="M39.8,62.7c-0.2-0.7-0.5-1.3-0.2-2c0.2-0.6,0.7-1.1,1.3-1.6c1.7-1.8,8.8-4.1,6.2-7.3c-1.8-1.8-4.5-2.3-6.3-4c0,0,0,0,0,0
				c0,0,0,0,0,0c0,0,0,0,0,0c0-0.1,0.2-0.2,0.4-0.4c0.6-0.4,2.3-1.2,2.9-1.6c3.3-1.8,6.8-3.8,9.5-6.4c-0.3-0.3-0.5-0.6-0.8-0.8
				c-2.6,2.7-5.9,4.5-9.2,6.3c-1,0.6-2.7,1.3-3.5,2.1c-0.7,0.7-0.1,1.6,0.6,2.1c1.6,1,3.4,1.7,4.9,2.6c1.4,0.9,1.6,1.8,0.2,2.9
				c-1.7,1.5-3.7,2.4-5.4,3.9c-1.4,1.2-1.9,2.5-1.2,4.3c1.9,5.1,4.9,9.9,9.1,13.4c0,0,0,0,0,0C44.3,72.7,41.5,67.8,39.8,62.7z"/>
			<path class="st1" d="M54.1,37.1C54.1,37.1,54.1,37.1,54.1,37.1c0,0,0.7,0.2,1.2,0.3c0.8-1.1,1.4-2.2,1.9-3.5
				c0.2-0.7,0.4-1.5,0.5-2.4c-0.3,0.2-0.8,0.4-1.3,0.6C56.1,33.9,55.1,35.7,54.1,37.1z"/>
		</g>
		<path d="M57.1,31.8C59.7,30,69.2,24,69.2,21.1c-1.6-2.6-12.5,2.9-14.9,4C48.8,28,43,30.8,38.2,34.9c-0.3,0.3-0.8,0.7-0.8,1.2
			c0,0.1,0.4,0.2,0.7,0.2c3.8-0.1,7.6-1.4,11.3-2.3c-2.7,1-5.3,1.9-8.1,2.6c-1.3,0.3-2.8,0.7-4.2,0.3c-1.2-0.6-0.2-2,0.4-2.6
			c4.8-4.4,10.6-7.3,16.3-10.2c3.4-1.5,12.1-6,15.5-4.2c0.9,0.4,1.2,1.6,0.7,2.4c-1.3,2.2-3.5,3.7-5.6,5.1
			C62,29,59.6,30.5,57.1,31.8L57.1,31.8z"/>
	</g>
</g>
</svg>
