<?xml version="1.0" encoding="utf-8"?>
<!-- Generator: Adobe Illustrator 26.0.1, SVG Export Plug-In . SVG Version: 6.00 Build 0)  -->
<svg version="1.1" id="Layer_1" xmlns="http://www.w3.org/2000/svg" xmlns:xlink="http://www.w3.org/1999/xlink" x="0px" y="0px"
	 viewBox="0 0 100 100" style="enable-background:new 0 0 100 100;" xml:space="preserve">
<style type="text/css">
	.st0{display:none;}
	.st1{fill:#FFFFFF;}
	.st2{fill-rule:evenodd;clip-rule:evenodd;fill:#FFFFFF;}
	.st3{fill-rule:evenodd;clip-rule:evenodd;}
	.st4{fill:none;}
	.st5{clip-path:url(#XMLID_00000022562412023993692240000005619130504271977893_);fill:#FFFFFF;}
</style>
<rect class="st0" width="100" height="100"/>
<g>
	<path class="st1" d="M69.4,33.8c-0.4-1.7-0.9-3.2-1.6-4.5c-0.7-1.3-1.6-2.4-2.6-3.2c-1-0.9-2.1-1.6-3.4-2.1
		c-0.6-0.2-1.3-0.4-2.1-0.6c-0.8-0.1-1.5-0.3-2.3-0.4c-0.8-0.1-1.6-0.2-2.4-0.2c-0.8,0-1.5,0-2.2,0c-0.7,0-1.5,0-2.3,0
		c-0.8,0-1.7,0.1-2.5,0.2c-0.8,0.1-1.7,0.2-2.5,0.3c-0.8,0.1-1.5,0.4-2.2,0.6c-2.5,1-4.5,2.8-6,5.3c-1.5,2.5-2.2,6-2.2,10.4
		c0,3.2,0.4,5.9,1.2,8.2c0.8,2.2,1.9,4,3.4,5.4c0.9,0.8,1.8,1.5,2.9,2.1c0.7-0.8,1.3-1.6,1.9-2.4c2.2-2.9,3-5.3,2.3-6.2
		c-0.4-0.6-1.9-1.1-7.1,1.2c-0.2,0.1-0.3,0.1-0.4,0.2c-0.7,0.3-1.1-0.1-1.2-0.3c-0.2-0.3-0.2-0.7,0.2-1.1c0,0,0.1-0.1,0.2-0.1
		c1.2-0.9,2.6-2.6,3.3-4.4c2-4.8,4-7.3,6.5-8.2c2.3-0.8,4.6,0,7,0.8c0.2,0.1,0.5,0.2,0.7,0.2c1.9,0.6,3.8,0.6,5.7-0.1
		c1.3-0.5,2.1-1.1,2.2-1.3c0,0,0,0,0,0l1.1,1.2c0,0,0,0,0,0c-0.4,0.4-3.9,3.5-6.2,6.4c-1.7,2.1-2.2,3.8-1.9,4.5
		c0,0.1,0.1,0.3,0.7,0.3c1.8,0,3.4,0.3,4.7,0.9c1.8,0.7,3,1.9,3.6,3.5c0.2,0.5,0.3,1.1,0.4,1.7c1.1-1.2,1.9-2.8,2.6-4.6
		c0.8-2.2,1.2-5,1.2-8.2C70,37.4,69.8,35.5,69.4,33.8z"/>
	<path class="st1" d="M65.4,53.3c-1.4,1.4-3.2,2.4-5.2,3c-2,0.6-4.3,0.9-6.7,0.9h-1.8c-2.4,0-4.7-0.3-6.7-0.9
		c-0.5-0.2-1.1-0.4-1.6-0.6c-2.5,2.9-5.9,6.3-10.3,10c-2.4,2,15.7-9.6,14.5-5.9C46.3,63.5,31.8,76,30.1,76.9
		c-0.3,0.1,0.5,0.2,0.6,0.3c0.8,0.1,1.7,0.1,2.5,0c3-0.1,6-0.6,9-1.3c3.8-1,7.6-2.4,11-4.4c3.7-2.2,7-5.2,9.2-8.9
		c1.4-2.3,2.5-4.9,2.9-7.6C65.3,54.4,65.4,53.8,65.4,53.3C65.4,53.3,65.4,53.3,65.4,53.3z"/>
</g>
</svg>
