<?xml version="1.0" encoding="utf-8"?>
<!-- Generator: Adobe Illustrator 26.0.1, SVG Export Plug-In . SVG Version: 6.00 Build 0)  -->
<svg version="1.1" id="Layer_1" xmlns="http://www.w3.org/2000/svg" xmlns:xlink="http://www.w3.org/1999/xlink" x="0px" y="0px"
	 viewBox="0 0 100 100" style="enable-background:new 0 0 100 100;" xml:space="preserve">
<style type="text/css">
	.st0{display:none;}
	.st1{fill:#FFFFFF;}
	.st2{fill-rule:evenodd;clip-rule:evenodd;fill:#FFFFFF;}
	.st3{fill-rule:evenodd;clip-rule:evenodd;}
	.st4{fill:none;}
	.st5{clip-path:url(#XMLID_00000063624596148367991130000015129538657029280910_);fill:#FFFFFF;}
</style>
<rect class="st0" width="100" height="100"/>
<g>
	<g>
		<path class="st1" d="M29.3,69.5v-5.6h3.3c0.4,0,0.7,0.1,0.9,0.2c0.3,0.2,0.5,0.4,0.6,0.7c0.2,0.3,0.2,0.6,0.2,1
			c0,0.4-0.1,0.7-0.2,1c-0.2,0.3-0.4,0.5-0.6,0.7c-0.3,0.2-0.6,0.2-0.9,0.2h-1.5v1.8H29.3z M31.1,66.3H32c0.2,0,0.3,0,0.4-0.1
			c0.1-0.1,0.1-0.2,0.1-0.4c0-0.1,0-0.2-0.1-0.3c0-0.1-0.1-0.1-0.2-0.2c-0.1,0-0.2-0.1-0.3-0.1h-0.9V66.3z"/>
		<path class="st1" d="M34.9,69.5v-5.6h3.5c0.4,0,0.8,0.1,1.1,0.3c0.3,0.2,0.5,0.4,0.6,0.7c0.1,0.3,0.2,0.6,0.2,0.9
			c0,0.4-0.1,0.7-0.3,1c-0.2,0.3-0.4,0.5-0.7,0.7l1.1,2.2h-2l-0.9-1.9h-0.9v1.9H34.9z M36.7,66.3H38c0.1,0,0.3-0.1,0.4-0.2
			c0.1-0.1,0.1-0.3,0.1-0.4c0-0.1,0-0.2-0.1-0.3c0-0.1-0.1-0.2-0.2-0.2c-0.1-0.1-0.2-0.1-0.3-0.1h-1.3V66.3z"/>
		<path class="st1" d="M43.6,69.6c-0.6,0-1.2-0.1-1.6-0.3c-0.5-0.2-0.8-0.5-1-1c-0.2-0.4-0.4-1-0.4-1.6c0-0.6,0.1-1.2,0.4-1.6
			c0.2-0.4,0.6-0.8,1-1c0.5-0.2,1-0.3,1.6-0.3c0.6,0,1.2,0.1,1.6,0.3c0.5,0.2,0.8,0.5,1,1c0.2,0.4,0.4,1,0.4,1.6
			c0,0.6-0.1,1.2-0.4,1.6c-0.2,0.4-0.6,0.8-1,1C44.8,69.4,44.3,69.6,43.6,69.6z M43.6,68.2c0.2,0,0.4,0,0.5-0.1
			c0.2-0.1,0.3-0.2,0.4-0.3c0.1-0.1,0.2-0.3,0.2-0.4c0-0.2,0.1-0.3,0.1-0.5v-0.5c0-0.2,0-0.4-0.1-0.5c0-0.2-0.1-0.3-0.2-0.4
			c-0.1-0.1-0.2-0.2-0.4-0.3c-0.2-0.1-0.3-0.1-0.5-0.1c-0.2,0-0.4,0-0.5,0.1c-0.2,0.1-0.3,0.2-0.4,0.3c-0.1,0.1-0.2,0.3-0.2,0.4
			c0,0.2-0.1,0.3-0.1,0.5v0.5c0,0.2,0,0.4,0.1,0.5c0,0.2,0.1,0.3,0.2,0.4c0.1,0.1,0.2,0.2,0.4,0.3C43.3,68.2,43.4,68.2,43.6,68.2z"
			/>
		<path class="st1" d="M48.8,69.5v-4.2h-1.9v-1.4h5.5v1.4h-1.8v4.2H48.8z"/>
		<path class="st1" d="M53,69.5v-5.6h4.9v1.4h-3.1v0.8h2.6v1.3h-2.6v0.9h3.1v1.4H53z"/>
		<path class="st1" d="M58.4,69.5l2.1-5.6h2.1l2.1,5.6h-1.9l-0.2-0.8h-2l-0.2,0.8H58.4z M60.9,67.4h1.2l-0.3-0.9
			c0-0.1,0-0.1-0.1-0.2c0-0.1-0.1-0.2-0.1-0.3c0-0.1-0.1-0.2-0.1-0.3c0-0.1-0.1-0.2-0.1-0.3h-0.1c0,0.1-0.1,0.2-0.1,0.3
			c0,0.1-0.1,0.3-0.1,0.4c0,0.1-0.1,0.3-0.1,0.4L60.9,67.4z"/>
		<path class="st1" d="M65.1,69.5v-5.6h1.5l1.8,2c0,0.1,0.1,0.1,0.2,0.2c0.1,0.1,0.2,0.2,0.3,0.3c0.1,0.1,0.1,0.2,0.2,0.3l0,0
			c0-0.2,0-0.3,0-0.5c0-0.2,0-0.3,0-0.3v-2h1.6v5.6h-1.5l-2-2.3C67.1,67.1,67,67,67,66.9c-0.1-0.1-0.1-0.2-0.2-0.3l0,0
			c0,0.1,0,0.2,0,0.3c0,0.1,0,0.2,0,0.2v2.3H65.1z"/>
	</g>
	<g>
		<path class="st1" d="M12.5,74.3v-3h1.3l0.3,1c0,0,0,0.1,0,0.2c0,0.1,0,0.2,0.1,0.3c0,0.1,0,0.2,0.1,0.3h0c0-0.1,0-0.1,0.1-0.2
			c0-0.1,0-0.2,0.1-0.3c0-0.1,0-0.2,0.1-0.2l0.3-1H16v3h-0.9v-1.1c0-0.1,0-0.2,0-0.4c0-0.1,0-0.2,0-0.3c0-0.1,0-0.2,0-0.3h0
			c0,0.1,0,0.1,0,0.2c0,0.1,0,0.2,0,0.2c0,0.1,0,0.1-0.1,0.2l-0.4,1.4h-0.7l-0.4-1.4c0-0.1,0-0.1,0-0.2c0-0.1,0-0.2,0-0.2
			c0-0.1,0-0.1,0-0.2h0c0,0.1,0,0.2,0,0.3c0,0.1,0,0.2,0,0.3c0,0.1,0,0.2,0,0.4v1.1H12.5z"/>
		<path class="st1" d="M16.2,74.3l1.1-3h1.1l1.1,3h-1l-0.1-0.4h-1l-0.1,0.4H16.2z M17.5,73.2h0.6L18,72.7c0,0,0-0.1,0-0.1
			c0,0,0-0.1,0-0.2c0-0.1,0-0.1,0-0.2c0-0.1,0-0.1,0-0.1h0c0,0.1,0,0.1,0,0.2c0,0.1,0,0.1-0.1,0.2c0,0.1,0,0.1-0.1,0.2L17.5,73.2z"
			/>
		<path class="st1" d="M19.7,74.3v-3h1.9c0.2,0,0.4,0,0.6,0.1c0.1,0.1,0.3,0.2,0.3,0.3c0.1,0.1,0.1,0.3,0.1,0.5c0,0.2,0,0.4-0.1,0.5
			c-0.1,0.1-0.2,0.3-0.4,0.4l0.6,1.2h-1.1l-0.5-1h-0.5v1H19.7z M20.7,72.6h0.7c0.1,0,0.1,0,0.2-0.1s0.1-0.1,0.1-0.2
			c0-0.1,0-0.1,0-0.2c0,0-0.1-0.1-0.1-0.1c0,0-0.1,0-0.1,0h-0.7V72.6z"/>
		<path class="st1" d="M22.9,74.3v-3h0.9v1.3l1.1-1.3h1.2L25,72.6l1.1,1.7H25l-0.6-1.1l-0.5,0.5v0.6H22.9z"/>
		<path class="st1" d="M26.3,74.3v-3h2.6V72h-1.6v0.4h1.4v0.7h-1.4v0.5h1.6v0.7H26.3z"/>
		<path class="st1" d="M30.2,74.3v-2.2h-1v-0.8h2.9v0.8h-1v2.2H30.2z"/>
		<path class="st1" d="M32.5,74.3v-3h0.9v3H32.5z"/>
		<path class="st1" d="M33.8,74.3v-3h0.8l0.9,1.1c0,0,0.1,0.1,0.1,0.1c0,0.1,0.1,0.1,0.1,0.2c0,0.1,0.1,0.1,0.1,0.1l0,0
			c0-0.1,0-0.2,0-0.2c0-0.1,0-0.1,0-0.2v-1.1h0.9v3h-0.8l-1-1.2c0-0.1-0.1-0.1-0.1-0.2c0,0-0.1-0.1-0.1-0.1l0,0c0,0.1,0,0.1,0,0.2
			c0,0.1,0,0.1,0,0.1v1.2H33.8z"/>
		<path class="st1" d="M38.6,74.3c-0.5,0-0.9-0.1-1.1-0.4c-0.2-0.3-0.4-0.6-0.4-1.1c0-0.3,0.1-0.6,0.2-0.8c0.1-0.2,0.3-0.4,0.5-0.5
			c0.2-0.1,0.5-0.2,0.9-0.2c0.2,0,0.4,0,0.6,0.1c0.2,0,0.3,0.1,0.5,0.2c0.1,0.1,0.2,0.2,0.3,0.3c0.1,0.1,0.1,0.3,0.1,0.5h-0.9
			c0-0.1,0-0.1,0-0.2c0-0.1-0.1-0.1-0.1-0.1c-0.1,0-0.1-0.1-0.2-0.1c-0.1,0-0.1,0-0.2,0c-0.1,0-0.2,0-0.3,0c-0.1,0-0.2,0.1-0.2,0.1
			c-0.1,0.1-0.1,0.1-0.1,0.2c0,0.1,0,0.2,0,0.3V73c0,0.1,0,0.3,0.1,0.4c0.1,0.1,0.1,0.2,0.2,0.2c0.1,0.1,0.2,0.1,0.4,0.1
			c0.1,0,0.2,0,0.3,0c0.1,0,0.2-0.1,0.2-0.1c0.1-0.1,0.1-0.1,0.1-0.2v0h-0.7v-0.6h1.6v1.6h-0.5L39.6,74c-0.1,0.1-0.2,0.1-0.3,0.2
			c-0.1,0.1-0.2,0.1-0.3,0.1C38.8,74.3,38.7,74.3,38.6,74.3z"/>
		<path class="st1" d="M42.9,74.3c-0.3,0-0.6,0-0.9-0.1c-0.2-0.1-0.4-0.2-0.5-0.3c-0.1-0.1-0.2-0.3-0.2-0.4c0-0.2,0-0.3,0.1-0.4
			c0.1-0.1,0.2-0.2,0.4-0.3v0c-0.1,0-0.2-0.1-0.3-0.2c-0.1-0.1-0.1-0.2-0.1-0.4c0-0.2,0.1-0.3,0.2-0.4c0.1-0.1,0.3-0.2,0.5-0.3
			c0.2-0.1,0.5-0.1,0.8-0.1c0.3,0,0.6,0,0.8,0.1c0.2,0.1,0.4,0.2,0.5,0.3s0.2,0.3,0.2,0.4v0.1h-0.8l0-0.1c0,0,0-0.1-0.1-0.1
			c0,0-0.1-0.1-0.2-0.1c-0.1,0-0.2,0-0.3,0c-0.1,0-0.2,0-0.3,0c-0.1,0-0.1,0-0.2,0.1c0,0-0.1,0.1-0.1,0.1c0,0,0,0.1,0,0.1
			c0,0.1,0,0.1,0,0.2c0,0,0.1,0.1,0.1,0.1c0,0,0.1,0,0.1,0h0.4v0.5h-0.5c-0.1,0-0.1,0-0.2,0c0,0-0.1,0.1-0.1,0.1c0,0,0,0.1,0,0.2
			c0,0.1,0,0.1,0.1,0.2c0,0.1,0.1,0.1,0.2,0.1c0.1,0,0.2,0,0.4,0c0.2,0,0.3,0,0.4-0.1c0.1,0,0.2-0.1,0.2-0.1s0.1-0.1,0.1-0.2v-0.8
			h1.4v0.5h-0.6v0.3c0,0.2,0,0.4-0.1,0.5c-0.1,0.2-0.2,0.3-0.5,0.3C43.5,74.3,43.2,74.3,42.9,74.3z"/>
		<path class="st1" d="M47.4,74.3c-0.3,0-0.6-0.1-0.8-0.2c-0.2-0.1-0.4-0.3-0.5-0.5c-0.1-0.2-0.2-0.5-0.2-0.8c0-0.5,0.1-0.9,0.4-1.1
			c0.3-0.3,0.6-0.4,1.1-0.4c0.3,0,0.5,0,0.7,0.1c0.2,0.1,0.4,0.2,0.5,0.4c0.1,0.2,0.2,0.4,0.2,0.7h-0.9c0-0.1,0-0.2-0.1-0.3
			c0-0.1-0.1-0.1-0.2-0.2c-0.1,0-0.2-0.1-0.3-0.1c-0.1,0-0.2,0-0.3,0.1c-0.1,0.1-0.1,0.1-0.2,0.2c0,0.1-0.1,0.2-0.1,0.4V73
			c0,0.1,0,0.3,0.1,0.4c0,0.1,0.1,0.2,0.2,0.2c0.1,0.1,0.2,0.1,0.3,0.1c0.1,0,0.2,0,0.3-0.1c0.1,0,0.1-0.1,0.2-0.2
			c0-0.1,0.1-0.2,0.1-0.3h0.9c0,0.3-0.1,0.5-0.2,0.7c-0.1,0.2-0.3,0.3-0.5,0.4C48,74.3,47.7,74.3,47.4,74.3z"/>
		<path class="st1" d="M50.7,74.3c-0.3,0-0.6-0.1-0.9-0.2c-0.2-0.1-0.4-0.3-0.5-0.5c-0.1-0.2-0.2-0.5-0.2-0.8c0-0.3,0.1-0.6,0.2-0.8
			c0.1-0.2,0.3-0.4,0.5-0.5c0.2-0.1,0.5-0.2,0.9-0.2c0.3,0,0.6,0.1,0.9,0.2c0.2,0.1,0.4,0.3,0.5,0.5c0.1,0.2,0.2,0.5,0.2,0.8
			c0,0.3-0.1,0.6-0.2,0.8c-0.1,0.2-0.3,0.4-0.5,0.5C51.3,74.3,51,74.3,50.7,74.3z M50.7,73.6c0.1,0,0.2,0,0.3,0
			c0.1,0,0.1-0.1,0.2-0.1c0.1-0.1,0.1-0.1,0.1-0.2c0-0.1,0-0.2,0-0.3v-0.3c0-0.1,0-0.2,0-0.3c0-0.1-0.1-0.2-0.1-0.2
			C51.1,72.1,51,72.1,51,72c-0.1,0-0.2,0-0.3,0c-0.1,0-0.2,0-0.3,0c-0.1,0-0.1,0.1-0.2,0.1s-0.1,0.1-0.1,0.2c0,0.1,0,0.2,0,0.3V73
			c0,0.1,0,0.2,0,0.3c0,0.1,0.1,0.2,0.1,0.2c0.1,0.1,0.1,0.1,0.2,0.1C50.5,73.6,50.6,73.6,50.7,73.6z"/>
		<path class="st1" d="M52.5,74.3v-3h1.3l0.3,1c0,0,0,0.1,0,0.2c0,0.1,0,0.2,0.1,0.3c0,0.1,0,0.2,0.1,0.3h0c0-0.1,0-0.1,0.1-0.2
			c0-0.1,0-0.2,0.1-0.3c0-0.1,0-0.2,0.1-0.2l0.3-1h1.3v3h-0.9v-1.1c0-0.1,0-0.2,0-0.4c0-0.1,0-0.2,0-0.3c0-0.1,0-0.2,0-0.3h0
			c0,0.1,0,0.1,0,0.2c0,0.1,0,0.2,0,0.2c0,0.1,0,0.1-0.1,0.2l-0.4,1.4h-0.7l-0.4-1.4c0-0.1,0-0.1,0-0.2c0-0.1,0-0.2,0-0.2
			c0-0.1,0-0.1,0-0.2h0c0,0.1,0,0.2,0,0.3c0,0.1,0,0.2,0,0.3c0,0.1,0,0.2,0,0.4v1.1H52.5z"/>
		<path class="st1" d="M56.4,74.3v-3h1.3l0.3,1c0,0,0,0.1,0,0.2c0,0.1,0,0.2,0.1,0.3c0,0.1,0,0.2,0.1,0.3h0c0-0.1,0-0.1,0.1-0.2
			c0-0.1,0-0.2,0.1-0.3c0-0.1,0-0.2,0.1-0.2l0.3-1h1.3v3H59v-1.1c0-0.1,0-0.2,0-0.4c0-0.1,0-0.2,0-0.3c0-0.1,0-0.2,0-0.3h0
			c0,0.1,0,0.1,0,0.2c0,0.1,0,0.2,0,0.2c0,0.1,0,0.1-0.1,0.2l-0.4,1.4h-0.7l-0.4-1.4c0-0.1,0-0.1,0-0.2c0-0.1,0-0.2,0-0.2
			c0-0.1,0-0.1,0-0.2h0c0,0.1,0,0.2,0,0.3c0,0.1,0,0.2,0,0.3c0,0.1,0,0.2,0,0.4v1.1H56.4z"/>
		<path class="st1" d="M61.8,74.3c-0.3,0-0.6,0-0.8-0.1c-0.2-0.1-0.4-0.2-0.5-0.4c-0.1-0.2-0.2-0.4-0.2-0.7v-1.8h0.9v1.8
			c0,0.2,0,0.3,0.1,0.4c0.1,0.1,0.2,0.2,0.4,0.2c0.2,0,0.3-0.1,0.4-0.2c0.1-0.1,0.1-0.2,0.1-0.4v-1.8h0.9v1.8c0,0.3-0.1,0.5-0.2,0.7
			c-0.1,0.2-0.3,0.3-0.5,0.4C62.4,74.3,62.1,74.3,61.8,74.3z"/>
		<path class="st1" d="M63.6,74.3v-3h0.8l0.9,1.1c0,0,0.1,0.1,0.1,0.1c0,0.1,0.1,0.1,0.1,0.2c0,0.1,0.1,0.1,0.1,0.1l0,0
			c0-0.1,0-0.2,0-0.2c0-0.1,0-0.1,0-0.2v-1.1h0.9v3h-0.8l-1-1.2c0-0.1-0.1-0.1-0.1-0.2c0,0-0.1-0.1-0.1-0.1l0,0c0,0.1,0,0.1,0,0.2
			c0,0.1,0,0.1,0,0.1v1.2H63.6z"/>
		<path class="st1" d="M66.9,74.3v-3h0.9v3H66.9z"/>
		<path class="st1" d="M69.6,74.3c-0.3,0-0.6-0.1-0.8-0.2c-0.2-0.1-0.4-0.3-0.5-0.5c-0.1-0.2-0.2-0.5-0.2-0.8c0-0.5,0.1-0.9,0.4-1.1
			c0.3-0.3,0.6-0.4,1.1-0.4c0.3,0,0.5,0,0.7,0.1c0.2,0.1,0.4,0.2,0.5,0.4C71,72,71,72.3,71,72.6h-0.9c0-0.1,0-0.2-0.1-0.3
			c0-0.1-0.1-0.1-0.2-0.2c-0.1,0-0.2-0.1-0.3-0.1c-0.1,0-0.2,0-0.3,0.1c-0.1,0.1-0.1,0.1-0.2,0.2c0,0.1-0.1,0.2-0.1,0.4V73
			c0,0.1,0,0.3,0.1,0.4c0,0.1,0.1,0.2,0.2,0.2c0.1,0.1,0.2,0.1,0.3,0.1c0.1,0,0.2,0,0.3-0.1c0.1,0,0.1-0.1,0.2-0.2
			c0-0.1,0.1-0.2,0.1-0.3H71c0,0.3-0.1,0.5-0.2,0.7c-0.1,0.2-0.3,0.3-0.5,0.4S69.9,74.3,69.6,74.3z"/>
		<path class="st1" d="M70.9,74.3l1.1-3h1.1l1.1,3h-1L73,73.9h-1l-0.1,0.4H70.9z M72.2,73.2h0.6l-0.1-0.5c0,0,0-0.1,0-0.1
			c0,0,0-0.1,0-0.2c0-0.1,0-0.1,0-0.2c0-0.1,0-0.1,0-0.1h0c0,0.1,0,0.1,0,0.2c0,0.1,0,0.1-0.1,0.2c0,0.1,0,0.1-0.1,0.2L72.2,73.2z"
			/>
		<path class="st1" d="M74.7,74.3v-2.2h-1v-0.8h2.9v0.8h-1v2.2H74.7z"/>
		<path class="st1" d="M77,74.3v-3h0.9v3H77z"/>
		<path class="st1" d="M79.8,74.3c-0.3,0-0.6-0.1-0.9-0.2c-0.2-0.1-0.4-0.3-0.5-0.5c-0.1-0.2-0.2-0.5-0.2-0.8c0-0.3,0.1-0.6,0.2-0.8
			c0.1-0.2,0.3-0.4,0.5-0.5c0.2-0.1,0.5-0.2,0.9-0.2c0.3,0,0.6,0.1,0.9,0.2s0.4,0.3,0.5,0.5c0.1,0.2,0.2,0.5,0.2,0.8
			c0,0.3-0.1,0.6-0.2,0.8c-0.1,0.2-0.3,0.4-0.5,0.5S80.1,74.3,79.8,74.3z M79.8,73.6c0.1,0,0.2,0,0.3,0c0.1,0,0.1-0.1,0.2-0.1
			c0.1-0.1,0.1-0.1,0.1-0.2c0-0.1,0-0.2,0-0.3v-0.3c0-0.1,0-0.2,0-0.3c0-0.1-0.1-0.2-0.1-0.2c-0.1-0.1-0.1-0.1-0.2-0.1
			c-0.1,0-0.2,0-0.3,0c-0.1,0-0.2,0-0.3,0c-0.1,0-0.1,0.1-0.2,0.1c-0.1,0.1-0.1,0.1-0.1,0.2c0,0.1,0,0.2,0,0.3V73c0,0.1,0,0.2,0,0.3
			c0,0.1,0.1,0.2,0.1,0.2c0.1,0.1,0.1,0.1,0.2,0.1C79.6,73.6,79.7,73.6,79.8,73.6z"/>
		<path class="st1" d="M81.6,74.3v-3h0.8l0.9,1.1c0,0,0.1,0.1,0.1,0.1c0,0.1,0.1,0.1,0.1,0.2c0,0.1,0.1,0.1,0.1,0.1l0,0
			c0-0.1,0-0.2,0-0.2c0-0.1,0-0.1,0-0.2v-1.1h0.9v3h-0.8l-1-1.2c0-0.1-0.1-0.1-0.1-0.2c0,0-0.1-0.1-0.1-0.1l0,0c0,0.1,0,0.1,0,0.2
			c0,0.1,0,0.1,0,0.1v1.2H81.6z"/>
		<path class="st1" d="M86.2,74.3c-0.2,0-0.4,0-0.6,0c-0.2,0-0.3-0.1-0.5-0.2c-0.1-0.1-0.2-0.2-0.3-0.3c-0.1-0.1-0.1-0.3-0.1-0.5
			c0,0,0,0,0,0c0,0,0,0,0,0h0.9c0,0,0,0,0,0c0,0,0,0,0,0c0,0.1,0,0.2,0.1,0.2c0,0,0.1,0.1,0.2,0.1c0.1,0,0.2,0,0.2,0
			c0,0,0.1,0,0.1,0c0,0,0.1,0,0.1,0c0,0,0.1,0,0.1,0c0,0,0.1,0,0.1-0.1c0,0,0-0.1,0-0.1c0-0.1,0-0.1-0.1-0.1c0,0-0.1-0.1-0.2-0.1
			c-0.1,0-0.2,0-0.3-0.1c-0.1,0-0.2,0-0.3-0.1c-0.1,0-0.2-0.1-0.3-0.1c-0.1,0-0.2-0.1-0.3-0.2c-0.1-0.1-0.1-0.2-0.2-0.3
			c0-0.1-0.1-0.2-0.1-0.4c0-0.2,0-0.3,0.1-0.4c0.1-0.1,0.2-0.2,0.3-0.3c0.1-0.1,0.3-0.1,0.4-0.2c0.2,0,0.3-0.1,0.5-0.1
			c0.2,0,0.3,0,0.5,0.1c0.2,0,0.3,0.1,0.4,0.2c0.1,0.1,0.2,0.2,0.3,0.3c0.1,0.1,0.1,0.3,0.1,0.4v0.1h-0.9v0c0-0.1,0-0.1,0-0.1
			c0,0-0.1-0.1-0.1-0.1c-0.1,0-0.1,0-0.2,0c-0.1,0-0.2,0-0.2,0c-0.1,0-0.1,0-0.1,0.1c0,0,0,0.1,0,0.1c0,0.1,0,0.1,0.1,0.1
			c0,0,0.1,0.1,0.2,0.1c0.1,0,0.2,0,0.3,0.1c0.1,0,0.2,0,0.3,0.1c0.1,0,0.2,0.1,0.3,0.1c0.1,0,0.2,0.1,0.3,0.2
			c0.1,0.1,0.1,0.1,0.2,0.2c0,0.1,0.1,0.2,0.1,0.3c0,0.2-0.1,0.4-0.2,0.6s-0.3,0.3-0.5,0.3C86.7,74.3,86.5,74.3,86.2,74.3z"/>
	</g>
	<g>
		<path class="st1" d="M27.3,77.9v-1.8h0.3l0.8,1.1c0,0,0,0,0,0c0,0,0,0,0,0.1c0,0,0,0,0,0h0c0,0,0-0.1,0-0.1c0,0,0,0,0-0.1v-1.1
			h0.3v1.8h-0.3l-0.8-1.1c0,0,0,0-0.1-0.1c0,0,0-0.1,0-0.1h0c0,0,0,0,0,0.1c0,0,0,0.1,0,0.1v1.1H27.3z"/>
		<path class="st1" d="M28.9,77.9l0.7-1.8H30l0.7,1.8h-0.3l-0.2-0.4h-0.8l-0.2,0.4H28.9z M29.4,77.2h0.6l-0.2-0.5c0,0,0,0,0-0.1
			c0,0,0-0.1,0-0.1c0,0,0-0.1,0-0.1c0,0,0-0.1,0-0.1h0c0,0,0,0.1,0,0.1c0,0,0,0.1,0,0.1c0,0,0,0.1,0,0.1L29.4,77.2z"/>
		<path class="st1" d="M31,77.9l-0.7-1.8h0.3l0.4,1.2c0,0,0,0,0,0.1c0,0,0,0.1,0,0.1c0,0,0,0,0,0.1h0c0,0,0,0,0-0.1c0,0,0,0,0-0.1
			c0,0,0-0.1,0-0.1l0.4-1.2H32l-0.7,1.8H31z"/>
		<path class="st1" d="M32.2,77.9v-1.8h0.3v1.8H32.2z"/>
		<path class="st1" d="M33.5,77.9c-0.3,0-0.5-0.1-0.6-0.2c-0.2-0.1-0.2-0.4-0.2-0.7c0-0.2,0-0.4,0.1-0.5c0.1-0.1,0.2-0.2,0.3-0.3
			c0.1-0.1,0.3-0.1,0.5-0.1c0.1,0,0.2,0,0.3,0c0.1,0,0.2,0.1,0.3,0.1c0.1,0.1,0.1,0.1,0.2,0.2c0,0.1,0.1,0.2,0.1,0.3h-0.3
			c0-0.1,0-0.1,0-0.2c0,0-0.1-0.1-0.1-0.1c0,0-0.1-0.1-0.2-0.1c-0.1,0-0.1,0-0.2,0c-0.1,0-0.2,0-0.3,0c-0.1,0-0.1,0.1-0.2,0.1
			S33,76.6,33,76.7c0,0.1,0,0.2,0,0.3V77c0,0.2,0,0.3,0.1,0.4c0,0.1,0.1,0.2,0.2,0.2c0.1,0,0.2,0.1,0.3,0.1c0.1,0,0.2,0,0.3-0.1
			c0.1,0,0.1-0.1,0.2-0.2s0.1-0.2,0.1-0.3v0h-0.6v-0.2h0.9v0.9h-0.2l0-0.2c0,0.1-0.1,0.1-0.2,0.1c-0.1,0-0.1,0.1-0.2,0.1
			C33.7,77.9,33.6,77.9,33.5,77.9z"/>
		<path class="st1" d="M34.5,77.9l0.7-1.8h0.4l0.7,1.8H36l-0.2-0.4H35l-0.2,0.4H34.5z M35.1,77.2h0.6l-0.2-0.5c0,0,0,0,0-0.1
			c0,0,0-0.1,0-0.1c0,0,0-0.1,0-0.1s0-0.1,0-0.1h0c0,0,0,0.1,0,0.1c0,0,0,0.1,0,0.1c0,0,0,0.1,0,0.1L35.1,77.2z"/>
		<path class="st1" d="M36.6,77.9v-1.5H36v-0.2h1.5v0.2h-0.6v1.5H36.6z"/>
		<path class="st1" d="M37.7,77.9v-1.8H38v1.8H37.7z"/>
		<path class="st1" d="M38.2,77.9v-1.8h0.3l0.8,1.1c0,0,0,0,0,0c0,0,0,0,0,0.1c0,0,0,0,0,0h0c0,0,0-0.1,0-0.1c0,0,0,0,0-0.1v-1.1
			h0.3v1.8h-0.3l-0.8-1.1c0,0,0,0-0.1-0.1s0-0.1,0-0.1h0c0,0,0,0,0,0.1c0,0,0,0.1,0,0.1v1.1H38.2z"/>
		<path class="st1" d="M40.7,77.9c-0.3,0-0.5-0.1-0.6-0.2c-0.2-0.1-0.2-0.4-0.2-0.7c0-0.2,0-0.4,0.1-0.5c0.1-0.1,0.2-0.2,0.3-0.3
			c0.1-0.1,0.3-0.1,0.5-0.1c0.1,0,0.2,0,0.3,0c0.1,0,0.2,0.1,0.3,0.1c0.1,0.1,0.1,0.1,0.2,0.2c0,0.1,0.1,0.2,0.1,0.3h-0.3
			c0-0.1,0-0.1,0-0.2c0,0-0.1-0.1-0.1-0.1c0,0-0.1-0.1-0.2-0.1c-0.1,0-0.1,0-0.2,0c-0.1,0-0.2,0-0.3,0c-0.1,0-0.1,0.1-0.2,0.1
			s-0.1,0.1-0.1,0.2c0,0.1,0,0.2,0,0.3V77c0,0.2,0,0.3,0.1,0.4c0,0.1,0.1,0.2,0.2,0.2c0.1,0,0.2,0.1,0.3,0.1c0.1,0,0.2,0,0.3-0.1
			c0.1,0,0.1-0.1,0.2-0.2c0-0.1,0.1-0.2,0.1-0.3v0h-0.6v-0.2h0.9v0.9h-0.2l0-0.2c0,0.1-0.1,0.1-0.2,0.1c-0.1,0-0.1,0.1-0.2,0.1
			C40.8,77.9,40.7,77.9,40.7,77.9z"/>
		<path class="st1" d="M43.1,77.9c-0.2,0-0.3,0-0.5-0.1c-0.1-0.1-0.2-0.2-0.3-0.3c-0.1-0.1-0.1-0.3-0.1-0.5c0-0.3,0.1-0.5,0.2-0.7
			c0.2-0.2,0.4-0.2,0.6-0.2c0.1,0,0.3,0,0.4,0.1c0.1,0,0.2,0.1,0.3,0.2c0.1,0.1,0.1,0.2,0.1,0.4h-0.3c0-0.1,0-0.2-0.1-0.2
			c0-0.1-0.1-0.1-0.2-0.1c-0.1,0-0.2,0-0.3,0c-0.1,0-0.2,0-0.3,0.1c-0.1,0-0.1,0.1-0.2,0.2c0,0.1-0.1,0.2-0.1,0.4V77
			c0,0.1,0,0.3,0.1,0.4c0,0.1,0.1,0.2,0.2,0.2c0.1,0,0.2,0.1,0.3,0.1c0.1,0,0.2,0,0.3,0c0.1,0,0.1-0.1,0.2-0.1
			c0-0.1,0.1-0.1,0.1-0.2h0.3c0,0.2,0,0.3-0.1,0.4c-0.1,0.1-0.2,0.2-0.3,0.2C43.4,77.9,43.3,77.9,43.1,77.9z"/>
		<path class="st1" d="M44.9,77.9c-0.2,0-0.3,0-0.5-0.1c-0.1-0.1-0.2-0.2-0.3-0.3C44.1,77.4,44,77.2,44,77c0-0.2,0-0.4,0.1-0.5
			c0.1-0.1,0.2-0.2,0.3-0.3c0.1-0.1,0.3-0.1,0.5-0.1c0.2,0,0.3,0,0.5,0.1c0.1,0.1,0.2,0.2,0.3,0.3c0.1,0.1,0.1,0.3,0.1,0.5
			c0,0.2,0,0.4-0.1,0.5c-0.1,0.1-0.2,0.2-0.3,0.3S45.1,77.9,44.9,77.9z M44.9,77.7c0.1,0,0.2,0,0.3,0c0.1,0,0.1-0.1,0.2-0.1
			c0.1-0.1,0.1-0.1,0.1-0.2c0-0.1,0-0.2,0-0.3V77c0-0.1,0-0.2,0-0.3c0-0.1-0.1-0.1-0.1-0.2s-0.1-0.1-0.2-0.1c-0.1,0-0.2,0-0.3,0
			c-0.1,0-0.2,0-0.2,0c-0.1,0-0.1,0.1-0.2,0.1s-0.1,0.1-0.1,0.2c0,0.1,0,0.2,0,0.3V77c0,0.1,0,0.2,0,0.3c0,0.1,0.1,0.1,0.1,0.2
			c0.1,0.1,0.1,0.1,0.2,0.1C44.7,77.6,44.8,77.7,44.9,77.7z"/>
		<path class="st1" d="M46,77.9v-1.8h0.5l0.3,1.1c0,0,0,0.1,0,0.1c0,0,0,0.1,0,0.1c0,0,0,0.1,0,0.1h0c0,0,0-0.1,0-0.1
			c0,0,0-0.1,0-0.1c0,0,0-0.1,0-0.1l0.3-1.1h0.4v1.8h-0.3v-1c0-0.1,0-0.1,0-0.2c0-0.1,0-0.1,0-0.2c0-0.1,0-0.1,0-0.1h0
			c0,0,0,0.1,0,0.1c0,0,0,0.1,0,0.1s0,0.1,0,0.1L47,77.9h-0.3l-0.4-1.1c0,0,0-0.1,0-0.1c0,0,0-0.1,0-0.1c0,0,0-0.1,0-0.1h0
			c0,0,0,0.1,0,0.2c0,0.1,0,0.1,0,0.2c0,0.1,0,0.1,0,0.2v1H46z"/>
		<path class="st1" d="M47.9,77.9v-1.8h0.9c0.1,0,0.2,0,0.3,0.1c0.1,0,0.1,0.1,0.2,0.2c0,0.1,0.1,0.2,0.1,0.3c0,0.1,0,0.2-0.1,0.3
			c0,0.1-0.1,0.2-0.2,0.2c-0.1,0-0.2,0.1-0.3,0.1h-0.6v0.7H47.9z M48.2,77h0.6c0.1,0,0.2,0,0.2-0.1c0.1-0.1,0.1-0.1,0.1-0.2
			c0-0.1,0-0.1,0-0.2c0,0-0.1-0.1-0.1-0.1c0,0-0.1,0-0.2,0h-0.6V77z"/>
		<path class="st1" d="M49.6,77.9v-1.8h0.3v1.5h0.9v0.2H49.6z"/>
		<path class="st1" d="M50.9,77.9v-1.8h1.4v0.2h-1.1v0.5h1v0.2h-1v0.5h1.1v0.2H50.9z"/>
		<path class="st1" d="M52.5,77.9l0.7-0.9l-0.6-0.8h0.4l0.4,0.6h0l0.4-0.6h0.3l-0.6,0.8l0.7,0.9h-0.4l-0.5-0.7h0l-0.5,0.7H52.5z"/>
		<path class="st1" d="M54.3,77.9v-1.8h0.3v1.8H54.3z"/>
		<path class="st1" d="M55.4,77.9v-1.5h-0.6v-0.2h1.5v0.2h-0.6v1.5H55.4z"/>
		<path class="st1" d="M57.1,77.9v-0.7l-0.7-1h0.3l0.5,0.8h0l0.5-0.8H58l-0.7,1v0.7H57.1z"/>
		<path class="st1" d="M57.8,77.9v-0.3H58v0.3H57.8z"/>
		<path class="st1" d="M59.3,77.9v-1.8h0.7c0.2,0,0.3,0,0.5,0.1c0.1,0.1,0.2,0.2,0.3,0.3c0.1,0.1,0.1,0.3,0.1,0.5
			c0,0.2,0,0.4-0.1,0.5c-0.1,0.1-0.2,0.2-0.3,0.3c-0.1,0.1-0.3,0.1-0.5,0.1H59.3z M59.5,77.6h0.4c0.1,0,0.2,0,0.2,0
			c0.1,0,0.1-0.1,0.2-0.1c0,0,0.1-0.1,0.1-0.2c0-0.1,0-0.2,0-0.3V77c0-0.1,0-0.2,0-0.3c0-0.1-0.1-0.1-0.1-0.2c0,0-0.1-0.1-0.2-0.1
			c-0.1,0-0.2,0-0.2,0h-0.4V77.6z"/>
		<path class="st1" d="M61,77.9v-1.8h0.9c0.1,0,0.2,0,0.3,0.1c0.1,0,0.1,0.1,0.2,0.2c0,0.1,0.1,0.2,0.1,0.3c0,0.1,0,0.2-0.1,0.3
			c-0.1,0.1-0.1,0.2-0.2,0.2l0.4,0.7h-0.3l-0.3-0.7h-0.6v0.7H61z M61.2,76.9h0.6c0.1,0,0.2,0,0.2-0.1c0.1-0.1,0.1-0.1,0.1-0.2
			c0-0.1,0-0.1,0-0.2c0,0-0.1-0.1-0.1-0.1c0,0-0.1,0-0.2,0h-0.6V76.9z"/>
		<path class="st1" d="M62.6,77.9v-1.8h0.3v1.8H62.6z"/>
		<path class="st1" d="M63.7,77.9l-0.7-1.8h0.3l0.4,1.2c0,0,0,0,0,0.1c0,0,0,0.1,0,0.1c0,0,0,0,0,0.1h0c0,0,0,0,0-0.1c0,0,0,0,0-0.1
			c0,0,0-0.1,0-0.1l0.4-1.2h0.3l-0.7,1.8H63.7z"/>
		<path class="st1" d="M64.9,77.9v-1.8h0.3v1.8H64.9z"/>
		<path class="st1" d="M65.4,77.9v-1.8h0.3l0.8,1.1c0,0,0,0,0,0s0,0,0,0.1c0,0,0,0,0,0h0c0,0,0-0.1,0-0.1c0,0,0,0,0-0.1v-1.1h0.3
			v1.8h-0.3l-0.8-1.1c0,0,0,0-0.1-0.1c0,0,0-0.1,0-0.1h0c0,0,0,0,0,0.1c0,0,0,0.1,0,0.1v1.1H65.4z"/>
		<path class="st1" d="M67.9,77.9c-0.3,0-0.5-0.1-0.6-0.2C67.1,77.5,67,77.3,67,77c0-0.2,0-0.4,0.1-0.5c0.1-0.1,0.2-0.2,0.3-0.3
			c0.1-0.1,0.3-0.1,0.5-0.1c0.1,0,0.2,0,0.3,0c0.1,0,0.2,0.1,0.3,0.1c0.1,0.1,0.1,0.1,0.2,0.2c0,0.1,0.1,0.2,0.1,0.3h-0.3
			c0-0.1,0-0.1,0-0.2c0,0-0.1-0.1-0.1-0.1c0,0-0.1-0.1-0.2-0.1c-0.1,0-0.1,0-0.2,0c-0.1,0-0.2,0-0.3,0c-0.1,0-0.1,0.1-0.2,0.1
			c-0.1,0.1-0.1,0.1-0.1,0.2c0,0.1,0,0.2,0,0.3V77c0,0.2,0,0.3,0.1,0.4c0,0.1,0.1,0.2,0.2,0.2c0.1,0,0.2,0.1,0.3,0.1
			c0.1,0,0.2,0,0.3-0.1c0.1,0,0.1-0.1,0.2-0.2c0-0.1,0.1-0.2,0.1-0.3v0h-0.6v-0.2h0.9v0.9h-0.2l0-0.2c0,0.1-0.1,0.1-0.2,0.1
			c-0.1,0-0.1,0.1-0.2,0.1C68,77.9,68,77.9,67.9,77.9z"/>
		<path class="st1" d="M70.3,77.9c-0.3,0-0.5-0.1-0.6-0.2c-0.2-0.1-0.2-0.4-0.2-0.7c0-0.2,0-0.4,0.1-0.5c0.1-0.1,0.2-0.2,0.3-0.3
			c0.1-0.1,0.3-0.1,0.5-0.1c0.1,0,0.2,0,0.3,0c0.1,0,0.2,0.1,0.3,0.1c0.1,0.1,0.1,0.1,0.2,0.2c0,0.1,0.1,0.2,0.1,0.3h-0.3
			c0-0.1,0-0.1,0-0.2c0,0-0.1-0.1-0.1-0.1c0,0-0.1-0.1-0.2-0.1c-0.1,0-0.1,0-0.2,0c-0.1,0-0.2,0-0.3,0c-0.1,0-0.1,0.1-0.2,0.1
			c-0.1,0.1-0.1,0.1-0.1,0.2c0,0.1,0,0.2,0,0.3V77c0,0.2,0,0.3,0.1,0.4c0,0.1,0.1,0.2,0.2,0.2c0.1,0,0.2,0.1,0.3,0.1
			c0.1,0,0.2,0,0.3-0.1c0.1,0,0.1-0.1,0.2-0.2c0-0.1,0.1-0.2,0.1-0.3v0h-0.6v-0.2h0.9v0.9H71l0-0.2c0,0.1-0.1,0.1-0.2,0.1
			c-0.1,0-0.1,0.1-0.2,0.1C70.5,77.9,70.4,77.9,70.3,77.9z"/>
		<path class="st1" d="M71.4,77.9v-1.8h0.9c0.1,0,0.2,0,0.3,0.1c0.1,0,0.1,0.1,0.2,0.2s0.1,0.2,0.1,0.3c0,0.1,0,0.2-0.1,0.3
			c-0.1,0.1-0.1,0.2-0.2,0.2l0.4,0.7h-0.3l-0.3-0.7h-0.6v0.7H71.4z M71.7,76.9h0.6c0.1,0,0.2,0,0.2-0.1c0.1-0.1,0.1-0.1,0.1-0.2
			c0-0.1,0-0.1,0-0.2c0,0-0.1-0.1-0.1-0.1c0,0-0.1,0-0.2,0h-0.6V76.9z"/>
		<path class="st1" d="M73.9,77.9c-0.2,0-0.3,0-0.5-0.1s-0.2-0.2-0.3-0.3C73.1,77.4,73,77.2,73,77c0-0.2,0-0.4,0.1-0.5
			c0.1-0.1,0.2-0.2,0.3-0.3c0.1-0.1,0.3-0.1,0.5-0.1c0.2,0,0.3,0,0.5,0.1c0.1,0.1,0.2,0.2,0.3,0.3c0.1,0.1,0.1,0.3,0.1,0.5
			c0,0.2,0,0.4-0.1,0.5c-0.1,0.1-0.2,0.2-0.3,0.3C74.3,77.9,74.1,77.9,73.9,77.9z M73.9,77.7c0.1,0,0.2,0,0.3,0
			c0.1,0,0.1-0.1,0.2-0.1c0.1-0.1,0.1-0.1,0.1-0.2c0-0.1,0-0.2,0-0.3V77c0-0.1,0-0.2,0-0.3c0-0.1-0.1-0.1-0.1-0.2
			c-0.1-0.1-0.1-0.1-0.2-0.1c-0.1,0-0.2,0-0.3,0c-0.1,0-0.2,0-0.2,0c-0.1,0-0.1,0.1-0.2,0.1c-0.1,0.1-0.1,0.1-0.1,0.2
			c0,0.1,0,0.2,0,0.3V77c0,0.1,0,0.2,0,0.3c0,0.1,0.1,0.1,0.1,0.2c0.1,0.1,0.1,0.1,0.2,0.1C73.7,77.6,73.8,77.7,73.9,77.7z"/>
		<path class="st1" d="M75.3,77.9l-0.5-1.8h0.3l0.3,1.2c0,0,0,0,0,0.1c0,0,0,0.1,0,0.1c0,0,0,0.1,0,0.1h0c0,0,0,0,0-0.1
			c0,0,0-0.1,0-0.1c0,0,0,0,0-0.1c0,0,0,0,0-0.1l0.3-1.2h0.4l0.3,1.2c0,0,0,0,0,0.1c0,0,0,0.1,0,0.1c0,0,0,0.1,0,0.1h0
			c0,0,0,0,0-0.1c0,0,0-0.1,0-0.1c0,0,0,0,0-0.1c0,0,0,0,0-0.1l0.3-1.2h0.3l-0.5,1.8h-0.3L76,76.7c0,0,0-0.1,0-0.1c0,0,0-0.1,0-0.1
			c0,0,0-0.1,0-0.1h0c0,0,0,0.1,0,0.1c0,0,0,0.1,0,0.1c0,0,0,0.1,0,0.1l-0.3,1.2H75.3z"/>
		<path class="st1" d="M77.9,77.9v-1.5h-0.6v-0.2h1.5v0.2h-0.6v1.5H77.9z"/>
		<path class="st1" d="M78.9,77.9v-1.8h0.3v0.7h0.9v-0.7h0.3v1.8h-0.3v-0.8h-0.9v0.8H78.9z"/>
		<path class="st1" d="M80.6,77.9v-0.3h0.3v0.3H80.6z"/>
	</g>
	<g>
		<path class="st1" d="M65.4,45.9c0,8.3-6.7,15.1-15.1,15.1c-8.3,0-15.1-6.7-15.1-15.1c0-8.3,6.7-15.1,15.1-15.1
			C58.7,30.9,65.4,37.6,65.4,45.9"/>
		<g>
			<path d="M61,34.7l7.1-5.2l-0.5-5.7l-35.6,26l0.7,5.5l6.6-4.8c2.6,3.1,6.5,5,10.8,4.9c7.4-0.3,13.2-6.5,13-13.9
				C63,38.9,62.2,36.6,61,34.7z"/>
			<path d="M32,56.9l-1-7.5l37.4-27.2l0.7,7.8l-6.8,5c1.1,2,1.7,4.2,1.8,6.5c0.1,3.8-1.2,7.5-3.8,10.3c-2.6,2.8-6.2,4.4-10,4.6
				c-4.2,0.1-8.2-1.5-11-4.6L32,56.9z M39.4,49.2l0.5,0.7c2.5,3,6.2,4.7,10.1,4.5c3.3-0.1,6.4-1.5,8.7-4c2.3-2.4,3.5-5.6,3.4-9
				c-0.1-2.2-0.8-4.4-1.9-6.3l-0.5-0.7l7.4-5.4l-0.3-3.6L32.9,50.2l0.5,3.4L39.4,49.2z"/>
		</g>
		<path class="st1" d="M61,34.7l7.1-5.2l-0.5-5.7l-35.6,26l0.7,5.5l6.6-4.8c2.6,3.1,6.5,5,10.8,4.9c7.4-0.3,13.2-6.5,13-13.9
			C63,38.9,62.2,36.6,61,34.7z"/>
		<path class="st3" d="M38.7,49.4L54.8,38c1,1.5,1.6,3.3,1.7,5.2c0.2,5.5-4.1,10-9.5,10.2C43.6,53.5,40.6,51.9,38.7,49.4"/>
	</g>
</g>
</svg>
