<?xml version="1.0" encoding="utf-8"?>
<!-- Generator: Adobe Illustrator 26.0.1, SVG Export Plug-In . SVG Version: 6.00 Build 0)  -->
<svg version="1.1" id="Layer_1" xmlns="http://www.w3.org/2000/svg" xmlns:xlink="http://www.w3.org/1999/xlink" x="0px" y="0px"
	 viewBox="0 0 100 100" style="enable-background:new 0 0 100 100;" xml:space="preserve">
<style type="text/css">
	.st0{display:none;}
	.st1{fill:#FFFFFF;}
	.st2{fill-rule:evenodd;clip-rule:evenodd;fill:#FFFFFF;}
	.st3{fill-rule:evenodd;clip-rule:evenodd;}
	.st4{fill:none;}
	.st5{clip-path:url(#XMLID_00000012454956987120828680000008061087990165187216_);fill:#FFFFFF;}
</style>
<rect class="st0" width="100" height="100"/>
<g>
	<path class="st1" d="M36.3,48c0.5-1,1-2.1,1.5-3.1c0.4-1,0.8-1.9,1.2-2.8c0.3-0.9,0.6-1.6,0.8-2.2c0.2-0.6,0.4-1,0.4-1.3h-1.8
		c-0.4,1.4-0.9,2.8-1.5,4.2c-0.5,1.3-1.1,2.6-1.7,3.7c-0.6,1.2-1.2,2.2-1.8,3.2c-0.6,0.9-1.2,1.8-1.9,2.4c-0.6,0.7-1.2,1.2-1.8,1.6
		c-0.6,0.4-1.1,0.6-1.6,0.6c-0.4,0-0.6-0.2-0.8-0.5c-0.1-0.3-0.2-0.8-0.1-1.3c0.1-0.6,0.2-1.2,0.4-1.9c0.2-0.7,0.5-1.5,0.7-2.3
		c0.3-0.8,0.6-1.6,0.9-2.3c0.3-0.8,0.7-1.5,1-2.2c0.3-0.7,0.6-1.3,0.8-1.8c0.2-0.5,0.4-0.9,0.5-1.1h-1.9c-0.1,0.2-0.2,0.5-0.5,1
		c-0.2,0.5-0.5,1.1-0.8,1.8c-0.3,0.7-0.6,1.4-0.9,2.3c-0.3,0.8-0.6,1.6-0.9,2.4c-0.2,0.3-0.4,0.7-0.6,1.1c-0.3,0.4-0.6,0.9-0.9,1.3
		c-0.4,0.4-0.7,0.9-1.1,1.3c-0.4,0.4-0.8,0.8-1.2,1.1c-0.4,0.3-0.8,0.6-1.3,0.8c-0.4,0.2-0.8,0.3-1.2,0.3c-0.5,0-0.8-0.2-0.9-0.6
		c-0.1-0.4,0-1,0.2-1.7c0.2-0.7,0.5-1.5,0.9-2.4c0.4-0.9,0.8-1.8,1.2-2.8c0.4-0.9,0.7-1.9,1-2.8c0.3-0.9,0.4-1.7,0.4-2.4
		c0-0.7-0.2-1.3-0.7-1.7c-0.4-0.4-1.1-0.6-2.2-0.6c-0.6,0-1.2,0.1-1.8,0.4c-0.6,0.3-1.1,0.6-1.6,1.1c-0.5,0.5-0.9,1.1-1.2,1.9
		c-0.3,0.7-0.5,1.6-0.6,2.6h1.7c0.1-0.9,0.3-1.6,0.6-2.2c0.3-0.6,0.6-1,1-1.3c0.4-0.3,0.7-0.5,1.1-0.6c0.3-0.1,0.6-0.2,0.8-0.2
		c0.5,0,0.8,0.1,0.9,0.4c0.2,0.3,0.2,0.7,0.1,1.1c-0.1,0.5-0.2,1-0.5,1.7c-0.3,0.6-0.5,1.3-0.9,2c-0.3,0.7-0.7,1.5-1,2.2
		c-0.3,0.8-0.6,1.5-0.9,2.2c-0.3,0.7-0.4,1.4-0.6,2c-0.1,0.6-0.1,1.2,0,1.7c0.1,0.5,0.4,0.9,0.8,1.1c0.4,0.3,1,0.4,1.8,0.4
		c0.5,0,0.9-0.1,1.4-0.2s0.9-0.4,1.3-0.7c0.4-0.3,0.9-0.6,1.3-1c0.4-0.4,0.8-0.8,1.2-1.2c0,0.4,0.1,0.8,0.2,1.2
		c0.1,0.4,0.3,0.7,0.5,1c0.2,0.3,0.5,0.5,0.8,0.6c0.3,0.2,0.7,0.2,1.2,0.2c0.8,0,1.6-0.2,2.3-0.7c0.7-0.4,1.5-1,2.2-1.8
		c0.7-0.7,1.3-1.6,2-2.5C35.2,50,35.8,49,36.3,48z"/>
	<path class="st1" d="M84.4,51.1c-0.3-0.4-0.5-0.8-0.8-1.2c-0.3-0.3-0.6-0.7-0.8-1c-0.3-0.3-0.4-0.6-0.4-1c0-0.3,0.1-0.5,0.3-0.7
		c0.2-0.2,0.4-0.3,0.6-0.3v-1.8c-0.8,0-1.5,0.1-2,0.4c-0.6,0.3-1.1,0.6-1.5,1.1c-0.4,0.5-0.8,1-1.1,1.7c-0.3,0.6-0.6,1.3-0.8,2.1
		c0,0,0,0,0,0c-0.3,0.8-0.6,1.5-0.8,2.1c-0.3,0.6-0.6,1.1-0.9,1.6c-0.3,0.4-0.7,0.8-1,1.1c-0.4,0.3-0.8,0.6-1.2,0.8
		c0.4-0.9,0.7-1.7,1-2.5c0.3-0.8,0.6-1.6,0.8-2.3c0.2-0.7,0.4-1.3,0.6-1.9c0.2-0.6,0.4-1.2,0.5-1.7c0.2-0.5,0.3-1,0.4-1.4
		c0.1-0.4,0.3-0.7,0.4-0.9h-1.9c-0.1,0.1-0.2,0.4-0.3,0.7c-0.1,0.3-0.2,0.8-0.4,1.2c-0.1,0.5-0.3,1-0.5,1.6
		c-0.2,0.6-0.4,1.2-0.6,1.9c-0.1,0.2-0.1,0.3-0.2,0.5c-0.1,0.2-0.1,0.3-0.2,0.5c-0.1,0.3-0.3,0.7-0.5,1c-0.2,0.3-0.3,0.6-0.5,0.9
		c-0.2,0.3-0.4,0.5-0.6,0.6c-0.2,0.2-0.4,0.2-0.6,0.2c-0.3,0-0.6-0.1-0.7-0.2c-0.2-0.1-0.3-0.4-0.3-0.7c0-0.4,0-0.8,0.2-1.4
		c0.1-0.6,0.4-1.3,0.7-2.3c0.3-0.7,0.4-1.3,0.4-1.9c0-0.6-0.1-1-0.2-1.4c-0.2-0.4-0.4-0.7-0.8-0.9c-0.3-0.2-0.7-0.3-1.2-0.3
		c-0.4,0-0.9,0.1-1.2,0.3c-0.4,0.2-0.7,0.4-1,0.8c-0.3,0.3-0.6,0.7-0.8,1.1c-0.2,0.4-0.4,0.8-0.6,1.2c-0.2,0.4-0.3,0.8-0.5,1.2
		c-0.1,0.4-0.3,0.7-0.4,1.1h0c-0.1,0.3-0.2,0.6-0.3,0.9c-0.2,0.5-0.4,0.9-0.6,1.3c-0.2,0.4-0.5,0.7-0.8,0.9
		c-0.3,0.2-0.6,0.4-0.9,0.4c-0.3,0-0.5-0.1-0.6-0.3c-0.1-0.2-0.2-0.4-0.2-0.6c0-0.3,0-0.6,0.1-0.9c0.1-0.3,0.1-0.6,0.2-1
		c0.1-0.3,0.2-0.6,0.3-0.8S62,50.2,62,50c0.8-2.4,1.6-4.4,2.4-6.1c0.8-1.7,1.4-3.1,1.9-4.2h-1.9c-0.1,0.1-0.2,0.3-0.3,0.7
		c-0.2,0.3-0.4,0.8-0.6,1.3c-0.2,0.5-0.5,1-0.7,1.6c-0.3,0.6-0.5,1.2-0.8,1.8c-0.3,0.6-0.5,1.3-0.7,1.9c-0.2,0.6-0.4,1.2-0.6,1.7
		c-0.2,0.6-0.4,1.2-0.6,1.7c-0.4,1.2-0.9,2.1-1.4,2.8c-0.5,0.7-1.3,1-2.2,1c-0.4,0-0.7-0.1-1-0.2c-0.2-0.1-0.4-0.3-0.6-0.5
		c-0.1-0.2-0.2-0.5-0.3-0.7c-0.1-0.3-0.1-0.6,0-0.9c0.2,0.1,0.5,0.1,0.8,0.1c0.8,0,1.6-0.2,2.2-0.5c0.6-0.3,1.1-0.8,1.5-1.3
		c0.4-0.5,0.7-1.1,0.8-1.7c0.2-0.6,0.2-1.1,0.1-1.7c-0.1-0.5-0.3-0.9-0.6-1.3c-0.3-0.3-0.8-0.5-1.4-0.5c-0.8,0-1.5,0.3-2.1,0.8
		c-0.7,0.5-1.2,1.2-1.7,2c-0.4,0.7-0.8,1.6-1,2.4h0c-0.4,1.2-0.9,2.2-1.5,2.9c-0.5,0.7-1.3,1-2.2,1c-0.4,0-0.7-0.1-1-0.2
		c-0.2-0.1-0.4-0.3-0.6-0.5c-0.1-0.2-0.2-0.5-0.3-0.7c-0.1-0.3-0.1-0.6,0-0.9C48,52,48.2,52,48.5,52c0.8,0,1.6-0.2,2.2-0.5
		c0.6-0.3,1.1-0.8,1.5-1.3c0.4-0.5,0.7-1.1,0.8-1.7c0.2-0.6,0.2-1.1,0.1-1.7c-0.1-0.5-0.3-0.9-0.6-1.3c-0.3-0.3-0.8-0.5-1.4-0.5
		c-0.8,0-1.5,0.3-2.1,0.8c-0.7,0.5-1.2,1.2-1.7,2c-0.4,0.7-0.8,1.6-1,2.4h0c-0.1,0.4-0.3,0.9-0.5,1.3c-0.2,0.5-0.4,0.9-0.6,1.3
		c-0.2,0.4-0.5,0.7-0.8,1c-0.3,0.3-0.6,0.4-0.8,0.4c-0.3,0-0.5-0.1-0.7-0.2c-0.2-0.1-0.3-0.4-0.3-0.7c0-0.4,0-0.8,0.2-1.4
		c0.1-0.6,0.4-1.3,0.7-2.3c0.2-0.7,0.4-1.3,0.4-1.8c0-0.6,0-1-0.2-1.4c-0.2-0.4-0.4-0.7-0.7-0.9c-0.3-0.2-0.7-0.3-1.2-0.3
		c-0.4,0-0.9,0.1-1.4,0.3c0.5-1.1,0.9-2,1.3-3c0.4-0.9,0.8-1.8,1.1-2.7h-1.9c-0.3,0.9-0.8,1.9-1.2,3c-0.5,1.1-1,2.3-1.5,3.6
		c-0.6,1.3-1.2,2.8-1.8,4.4c-0.6,1.6-1.3,3.3-2,5.2h1.9c0.2-0.5,0.5-1.1,0.8-1.7c0.3-0.6,0.5-1.3,0.8-2c0.3-0.7,0.6-1.3,0.9-2
		c0.3-0.6,0.6-1.2,0.9-1.7c0.3-0.5,0.6-0.9,1-1.2c0.3-0.3,0.7-0.5,1.1-0.5c0.2,0,0.4,0.1,0.5,0.2c0.1,0.1,0.1,0.3,0.1,0.6
		c0,0.2-0.1,0.5-0.2,0.8c-0.1,0.3-0.2,0.7-0.3,1c-0.3,0.9-0.5,1.7-0.7,2.5c-0.1,0.8-0.1,1.5,0,2.1c0.1,0.6,0.4,1.1,0.8,1.4
		c0.4,0.3,1,0.5,1.9,0.5c0.7,0,1.3-0.2,1.8-0.6c0.4-0.3,0.8-0.7,1.1-1.2c0.2,0.4,0.4,0.7,0.7,1c0.5,0.5,1.3,0.8,2.3,0.8
		c0.8,0,1.5-0.2,2.2-0.5c0.6-0.4,1.1-0.8,1.6-1.4c0,0,0.1-0.1,0.1-0.1c0.2,0.5,0.4,0.9,0.8,1.2c0.5,0.5,1.3,0.8,2.3,0.8
		c0.8,0,1.5-0.2,2.2-0.5c0.5-0.3,0.9-0.6,1.3-1.1c0.1,0.3,0.3,0.5,0.4,0.8c0.4,0.5,1.1,0.8,1.9,0.8c0.7,0,1.3-0.2,1.8-0.6
		c0.5-0.4,0.9-0.9,1.3-1.5c0.4-0.6,0.7-1.2,0.9-1.8c0.2-0.6,0.4-1.2,0.6-1.6h0c0.1-0.3,0.2-0.6,0.3-0.9c0.2-0.5,0.4-0.9,0.6-1.3
		c0.2-0.4,0.5-0.7,0.8-1c0.3-0.3,0.6-0.4,0.8-0.4c0.2,0,0.4,0.1,0.4,0.2c0.1,0.1,0.1,0.3,0.1,0.6c0,0.2-0.1,0.5-0.2,0.9
		c-0.1,0.3-0.2,0.7-0.3,1c-0.3,0.9-0.5,1.7-0.6,2.5c-0.1,0.8-0.1,1.5,0,2.1c0.1,0.6,0.4,1.1,0.8,1.4c0.4,0.3,1,0.5,1.9,0.5
		c0.1,0,0.1,0,0.2,0c0.1,0,0.1,0,0.2,0c-0.1,0.1-0.1,0.3-0.2,0.4c-0.1,0.1-0.1,0.2-0.2,0.4c-0.3,0-0.6,0.1-0.9,0.1c-0.3,0-0.7,0-1,0
		c-0.3,0-0.6,0-0.9,0c-0.3,0-0.6,0-0.9,0.1c-0.3,0.1-0.6,0.2-0.9,0.4c-0.5,0.3-0.9,0.8-1,1.2c-0.2,0.5-0.1,0.9,0,1.4
		c0.2,0.4,0.5,0.8,0.9,1.1c0.4,0.3,1,0.5,1.6,0.5c0.9,0,1.7-0.3,2.4-0.9c0.7-0.6,1.3-1.4,1.9-2.3c1.1-0.2,2-0.6,2.7-1.1
		c0.8-0.5,1.4-1.1,1.9-1.7c0.5-0.6,0.8-1.2,1.2-1.9c0,0.1,0.1,0.3,0.1,0.4c0.2,0.4,0.4,0.8,0.6,1.1c0.3,0.3,0.6,0.5,1,0.7
		c0.4,0.2,0.8,0.2,1.3,0.2c0.5,0,0.9-0.1,1.3-0.2c0.4-0.2,0.8-0.4,1-0.7c0.3-0.3,0.5-0.6,0.7-1c0.2-0.4,0.2-0.8,0.2-1.3
		C84.8,52.1,84.7,51.6,84.4,51.1z M48.6,49c0.2-0.4,0.4-0.8,0.7-1.1c0.2-0.3,0.5-0.6,0.7-0.8c0.3-0.2,0.5-0.3,0.7-0.3
		c0.2,0,0.4,0.1,0.5,0.3s0.2,0.4,0.1,0.6c0,0.3-0.1,0.5-0.2,0.8c-0.1,0.3-0.3,0.6-0.6,0.8c-0.2,0.3-0.5,0.5-0.9,0.6
		c-0.4,0.2-0.8,0.3-1.2,0.3c-0.2,0-0.4,0-0.4,0C48.2,49.8,48.4,49.4,48.6,49z M55.5,49c0.2-0.4,0.4-0.8,0.7-1.1
		c0.2-0.3,0.5-0.6,0.7-0.8c0.3-0.2,0.5-0.3,0.7-0.3c0.2,0,0.4,0.1,0.5,0.3c0.1,0.2,0.2,0.4,0.1,0.6c0,0.3-0.1,0.5-0.2,0.8
		c-0.1,0.3-0.3,0.6-0.6,0.8c-0.2,0.3-0.5,0.5-0.9,0.6c-0.4,0.2-0.8,0.3-1.2,0.3c-0.2,0-0.4,0-0.4,0C55.1,49.8,55.3,49.4,55.5,49z
		 M69.3,59.3c-0.3,0.2-0.6,0.3-1,0.3c-0.3,0-0.5,0-0.6-0.1c-0.1-0.1-0.2-0.2-0.2-0.3c0-0.1,0-0.2,0.1-0.4c0.1-0.1,0.2-0.2,0.4-0.3
		c0.2-0.1,0.6-0.2,1-0.2c0.2,0,0.4,0,0.6,0c0.2,0,0.5,0,0.8,0C69.9,58.8,69.6,59.2,69.3,59.3z M82.6,53.8c-0.3,0.3-0.6,0.4-1.1,0.4
		c-0.5,0-0.8-0.1-1.1-0.4c-0.3-0.3-0.4-0.7-0.4-1.2h-1.2c0.3-0.7,0.5-1.4,0.8-2.2h0c0.1-0.4,0.3-0.8,0.5-1.2
		c0.2-0.4,0.4-0.7,0.6-1.1c0,0.6,0.2,1.1,0.5,1.5c0.3,0.4,0.5,0.8,0.8,1.1c0.3,0.3,0.5,0.6,0.8,0.9c0.2,0.3,0.3,0.7,0.3,1.1
		C83.1,53.2,82.9,53.6,82.6,53.8z"/>
</g>
</svg>
