<?xml version="1.0" encoding="utf-8"?>
<!-- Generator: Adobe Illustrator 26.0.1, SVG Export Plug-In . SVG Version: 6.00 Build 0)  -->
<svg version="1.1" id="Layer_1" xmlns="http://www.w3.org/2000/svg" xmlns:xlink="http://www.w3.org/1999/xlink" x="0px" y="0px"
	 viewBox="0 0 100 100" style="enable-background:new 0 0 100 100;" xml:space="preserve">
<style type="text/css">
	.st0{display:none;}
	.st1{fill:#FFFFFF;}
	.st2{fill-rule:evenodd;clip-rule:evenodd;fill:#FFFFFF;}
	.st3{fill-rule:evenodd;clip-rule:evenodd;}
	.st4{fill:none;}
	.st5{clip-path:url(#XMLID_00000123423552240266945410000008538890842442291376_);fill:#FFFFFF;}
</style>
<rect x="0.3" class="st0" width="100" height="100"/>
<g>
	<g id="XMLID_00000101799536583268838300000010500438877502442677_">
		<g>
			<path d="M38.3,54.5c0.2,1.4-0.1,2.7-0.9,3.7c-0.1,0.2-0.4,0.3-0.6,0.2c0,0,0,0,0,0c0,0,0,0,0,0C35,57.8,33.4,56,33,54.2
				c0-0.2-0.1-0.4-0.2-0.6c0-1-0.2-1.9-0.6-2.7c0.3-0.7,0.5-1.5,0.6-2.2C35.6,49.2,37.9,51.7,38.3,54.5z"/>
			<path class="st1" d="M37.8,51.2c1.6,2.4,1.8,5.4,0.2,7.4c-0.2,0.2-0.5,0.4-0.7,0.5c0,0.2-0.1,0.4-0.3,0.6
				c-2.2,1.6-5.1,1.2-7.3-0.3c-2.3,1.7-5.5,2-7.6,0.3c-0.2-0.2-0.4-0.5-0.5-0.7c-0.2,0-0.4-0.1-0.6-0.3c-0.2-0.3-0.4-0.6-0.6-1
				c-0.1-0.2,0-0.4,0.2-0.5c0.2-0.1,0.4,0,0.5,0.2c0.1,0.3,0.3,0.6,0.5,0.8c0,0,0,0,0,0c0,0,0,0,0,0c0.7-2,2.6-3.7,4.7-4.2
				c1.8-0.4,3.6-2,4.2-3.8c0,0,0,0,0,0c0,0,0,0,0,0c0.1-0.2,0-0.5-0.2-0.6c-1-0.8-2.3-1.1-3.7-0.9c-1.4,0.2-2.8,0.9-3.9,2
				c-1.4,1.4-2.2,3.4-2,5.2c0,0.2-0.1,0.4-0.3,0.4c-0.2,0-0.3-0.1-0.3-0.3c0-0.4,0-0.8,0-1.2c-0.5-0.3-1-0.7-1.4-1.1
				c-2.4-2.4-3.4-5.7-3.4-7.9c0-0.9,0.7-1.7,1.7-1.7c2.1,0.1,5.1,0.9,7.5,3c0.2-3.2,1.7-5.9,3.1-7.4c0.6-0.7,1.7-0.7,2.4,0
				c0.7,0.8,1.5,1.9,2.1,3.2c1.1-0.3,2.2-0.2,3.2,0.1c0.2,0.1,0.3,0.3,0.2,0.4c-0.1,0.2-0.3,0.3-0.4,0.2c-0.9-0.3-1.8-0.3-2.7-0.1
				c0.6,1.5,0.8,3.1,0.8,4.4c1.6,0.3,3.2,1.3,4.4,2.7c1.3-2,1-4.7-1.1-6.2c-0.2-0.1-0.2-0.3-0.1-0.5c0.1-0.2,0.3-0.2,0.5-0.1
				C39.1,45.7,39.5,49,37.8,51.2z M37.4,58.2c0.8-1,1.1-2.3,0.9-3.7c-0.4-2.8-2.7-5.3-5.4-5.9c-0.1,0.8-0.3,1.5-0.6,2.2
				c0.4,0.8,0.6,1.8,0.6,2.7c0.1,0.2,0.1,0.4,0.2,0.6c0.4,1.8,2,3.6,3.8,4.2c0,0,0,0,0,0c0,0,0,0,0,0C37,58.5,37.2,58.4,37.4,58.2z
				 M36.5,59.1C36.5,59.1,36.5,59.1,36.5,59.1C36.5,59.1,36.5,59.1,36.5,59.1c-1.7-0.6-3.2-2.2-3.9-3.9c-0.4,1.4-1.2,2.7-2.4,3.8
				C32.1,60.2,34.6,60.4,36.5,59.1z M31.8,50.1c0.3-0.8,0.4-1.6,0.4-2.4c0-2.8-1.2-5.7-3-7.5c-0.4-0.4-1-0.4-1.3,0
				c-1.4,1.5-3,4.3-3,7.5c0,0,0,0.1,0,0.1c0.1,0.1,0.3,0.3,0.4,0.4c1-0.3,2-0.4,2.9-0.3v-3.3c0-0.2,0.2-0.4,0.4-0.4
				c0.2,0,0.4,0.2,0.4,0.4v3.5c0.7,0.2,1.3,0.5,1.8,0.9c0.2,0.2,0.4,0.5,0.5,0.7C31.4,49.8,31.6,49.9,31.8,50.1z M30,58.1
				c2.2-2.2,2.7-5.4,1.2-7.6c0,0,0,0,0,0c0,0,0,0,0,0c-0.7,2-2.6,3.7-4.7,4.2c-1.8,0.4-3.6,2-4.2,3.8c0,0,0,0,0,0c0,0,0,0,0,0
				c-0.1,0.2,0,0.5,0.2,0.6c1,0.8,2.3,1.1,3.7,0.9C27.5,59.9,28.9,59.2,30,58.1z M24.6,48.5c-0.1-0.2-0.3-0.3-0.4-0.5
				c-2.3-2.3-5.3-3.2-7.4-3.2c-0.5,0-1,0.4-0.9,0.9c0.1,2.1,1,5.2,3.2,7.4c0.3,0.3,0.6,0.6,1,0.8c0.2-1.1,0.7-2.1,1.4-3l-2.3-2.3
				c-0.1-0.1-0.1-0.4,0-0.5c0.1-0.1,0.4-0.1,0.5,0l2.2,2.2c0.1-0.1,0.1-0.2,0.2-0.2C22.9,49.5,23.7,48.9,24.6,48.5z"/>
			<path d="M36.5,59.1C36.5,59.1,36.5,59.1,36.5,59.1c-1.9,1.4-4.4,1.1-6.4-0.2c1.2-1.1,2-2.4,2.4-3.8
				C33.2,56.9,34.8,58.5,36.5,59.1C36.5,59.1,36.5,59.1,36.5,59.1z"/>
			<path d="M32.2,47.7c0,0.8-0.2,1.6-0.4,2.4c-0.1-0.2-0.3-0.3-0.6-0.3c-0.1-0.3-0.2-0.6-0.5-0.7c-0.6-0.4-1.2-0.7-1.8-0.9v-3.5
				c0-0.2-0.2-0.4-0.4-0.4c-0.2,0-0.4,0.2-0.4,0.4V48c-0.9-0.1-1.9,0-2.9,0.3c-0.1-0.2-0.2-0.3-0.4-0.4c0,0,0-0.1,0-0.1
				c0-3.2,1.5-6,3-7.5c0.4-0.4,1-0.4,1.3,0C31,42,32.2,44.9,32.2,47.7z"/>
			<path d="M31.2,50.5c1.5,2.1,1,5.4-1.2,7.6c-1.1,1.1-2.5,1.8-3.9,2c-1.4,0.2-2.7-0.1-3.7-0.9c-0.2-0.1-0.3-0.4-0.2-0.6
				c0,0,0,0,0,0c0,0,0,0,0,0c0.6-1.7,2.4-3.3,4.2-3.8C28.5,54.2,30.5,52.5,31.2,50.5C31.2,50.5,31.2,50.5,31.2,50.5
				C31.2,50.5,31.2,50.5,31.2,50.5z"/>
			<path d="M24.2,48c0.1,0.1,0.3,0.3,0.4,0.5c-0.9,0.4-1.7,0.9-2.5,1.7c-0.1,0.1-0.1,0.2-0.2,0.2l-2.2-2.2c-0.1-0.1-0.4-0.1-0.5,0
				c-0.1,0.1-0.1,0.4,0,0.5l2.3,2.3c-0.7,0.9-1.2,2-1.4,3c-0.4-0.2-0.7-0.5-1-0.8c-2.3-2.3-3.2-5.3-3.2-7.4c0-0.5,0.4-1,0.9-0.9
				C18.9,44.9,21.9,45.8,24.2,48z"/>
		</g>
	</g>
	<g>
		<path class="st1" d="M41.2,49.8V41h3.4c0.5,0,0.9,0.1,1.3,0.4c0.4,0.2,0.7,0.6,1,1c0.2,0.4,0.4,0.8,0.4,1.3c0,0.7-0.3,1.2-0.8,1.7
			c0.3,0.2,0.5,0.5,0.7,0.8c0.2,0.3,0.3,0.7,0.3,1.1c0,0.5-0.1,0.9-0.4,1.3c-0.2,0.4-0.6,0.7-1,1c-0.4,0.2-0.8,0.4-1.3,0.4H41.2z
			 M43.8,43.2v1.3h0.3c0.2,0,0.3-0.1,0.4-0.2c0.1-0.1,0.2-0.3,0.2-0.5c0-0.2-0.1-0.3-0.2-0.4c-0.1-0.1-0.3-0.2-0.4-0.2H43.8z
			 M43.8,46.3v1.3h0.5c0.2,0,0.3-0.1,0.5-0.2c0.1-0.1,0.2-0.3,0.2-0.5c0-0.2-0.1-0.3-0.2-0.5c-0.1-0.1-0.3-0.2-0.5-0.2H43.8z"/>
		<path class="st1" d="M55.7,49.8h-3.5l-1.4-1.6v1.6h-2.6V41h3.3c0.6,0,1.1,0.1,1.6,0.4c0.5,0.3,0.9,0.7,1.2,1.2
			c0.3,0.5,0.4,1,0.4,1.6c0,0.5-0.1,1-0.4,1.5c-0.3,0.5-0.6,0.8-1.1,1.1L55.7,49.8z M50.8,43.5v1.9h0.5c0.3,0,0.5-0.1,0.7-0.3
			c0.2-0.2,0.3-0.4,0.3-0.7c0-0.3-0.1-0.5-0.3-0.7c-0.2-0.2-0.4-0.3-0.7-0.3H50.8z"/>
		<path class="st1" d="M56,41h5.5v2.6h-2.9v1.1h2.9v1.4h-2.9v1.1h2.9v2.6H56V41z"/>
		<path class="st1" d="M67.6,46.1l-1.7,4l-3.9-9h2.9l1.2,3.1l1.2-3.1h0.9l1.2,3.1l1.1-3.1h2.9l-3.9,9L67.6,46.1z"/>
		<path class="st1" d="M82.1,44.5h2.8L83,47.7l0.9,2.1h-2.8L81,49.6c-0.5,0.3-1,0.4-1.5,0.4c-0.5,0-1.1-0.1-1.5-0.4
			c-0.5-0.3-0.8-0.6-1.1-1.1c-0.3-0.5-0.4-1-0.4-1.5c0-0.7,0.2-1.3,0.6-1.8c0.4-0.5,0.9-0.9,1.5-1.1l-1.3-3h5.4v2.6h-1.4l0.5,1.3
			L82.1,44.5z M79.6,46.3l-0.1,0c-0.2,0-0.3,0.1-0.4,0.2c-0.1,0.1-0.2,0.3-0.2,0.4c0,0.2,0.1,0.3,0.2,0.4c0.1,0.1,0.3,0.2,0.4,0.2
			c0.1,0,0.2,0,0.3-0.1c0.1,0,0.2-0.1,0.2-0.2L79.6,46.3z"/>
		<path class="st1" d="M41.2,60.3v-8.8h3.4c0.5,0,0.9,0.1,1.3,0.4c0.4,0.2,0.7,0.6,1,1c0.2,0.4,0.4,0.8,0.4,1.3
			c0,0.7-0.3,1.2-0.8,1.7c0.3,0.2,0.5,0.5,0.7,0.8c0.2,0.3,0.3,0.7,0.3,1.1c0,0.5-0.1,0.9-0.4,1.3c-0.2,0.4-0.6,0.7-1,1
			c-0.4,0.2-0.8,0.4-1.3,0.4H41.2z M43.8,53.7V55h0.3c0.2,0,0.3-0.1,0.4-0.2c0.1-0.1,0.2-0.3,0.2-0.5c0-0.2-0.1-0.3-0.2-0.4
			c-0.1-0.1-0.3-0.2-0.4-0.2H43.8z M43.8,56.9v1.3h0.5c0.2,0,0.3-0.1,0.5-0.2c0.1-0.1,0.2-0.3,0.2-0.5c0-0.2-0.1-0.3-0.2-0.5
			c-0.1-0.1-0.3-0.2-0.5-0.2H43.8z"/>
		<path class="st1" d="M48.3,51.6h2.6v6.2h2.9v2.6h-5.5V51.6z"/>
		<path class="st1" d="M56,59.9c-0.7-0.4-1.3-1-1.7-1.7c-0.4-0.7-0.6-1.5-0.6-2.3c0-0.8,0.2-1.6,0.6-2.3c0.4-0.7,1-1.3,1.7-1.7
			c0.7-0.4,1.5-0.6,2.3-0.6c0.8,0,1.6,0.2,2.3,0.6c0.7,0.4,1.3,1,1.7,1.7c0.4,0.7,0.6,1.5,0.6,2.3c0,0.8-0.2,1.6-0.6,2.3
			c-0.4,0.7-1,1.2-1.7,1.7c-0.7,0.4-1.5,0.6-2.3,0.6C57.4,60.5,56.7,60.3,56,59.9z M59.1,57.4c0.3-0.2,0.5-0.4,0.6-0.6
			c0.2-0.3,0.2-0.5,0.2-0.9c0-0.3-0.1-0.6-0.2-0.9c-0.2-0.3-0.4-0.5-0.6-0.6c-0.3-0.2-0.6-0.2-0.9-0.2c-0.3,0-0.6,0.1-0.9,0.2
			c-0.3,0.2-0.5,0.4-0.6,0.6c-0.2,0.3-0.2,0.6-0.2,0.9c0,0.3,0.1,0.6,0.2,0.9c0.2,0.3,0.4,0.5,0.6,0.6c0.3,0.2,0.6,0.2,0.9,0.2
			C58.6,57.7,58.9,57.6,59.1,57.4z"/>
		<path class="st1" d="M65.4,59.9c-0.7-0.4-1.3-1-1.7-1.7c-0.4-0.7-0.6-1.5-0.6-2.3c0-0.8,0.2-1.6,0.6-2.3c0.4-0.7,1-1.3,1.7-1.7
			c0.7-0.4,1.5-0.6,2.3-0.6c0.8,0,1.6,0.2,2.3,0.6c0.7,0.4,1.3,1,1.7,1.7c0.4,0.7,0.6,1.5,0.6,2.3c0,0.8-0.2,1.6-0.6,2.3
			c-0.4,0.7-1,1.2-1.7,1.7c-0.7,0.4-1.5,0.6-2.3,0.6C66.9,60.5,66.1,60.3,65.4,59.9z M68.6,57.4c0.3-0.2,0.5-0.4,0.6-0.6
			c0.2-0.3,0.2-0.5,0.2-0.9c0-0.3-0.1-0.6-0.2-0.9c-0.2-0.3-0.4-0.5-0.6-0.6c-0.3-0.2-0.6-0.2-0.9-0.2c-0.3,0-0.6,0.1-0.9,0.2
			c-0.3,0.2-0.5,0.4-0.6,0.6C66.1,55.3,66,55.6,66,56c0,0.3,0.1,0.6,0.2,0.9c0.2,0.3,0.4,0.5,0.6,0.6c0.3,0.2,0.6,0.2,0.9,0.2
			C68,57.7,68.3,57.6,68.6,57.4z"/>
		<path class="st1" d="M78.9,57.3l-1.1,3.1h-1.2l-1.2-3.1l-1.1,3.1h-2.8l3.9-9l1.7,4l1.7-4l3.9,9h-2.8L78.9,57.3z"/>
	</g>
</g>
</svg>
