<?xml version="1.0" encoding="utf-8"?>
<!-- Generator: Adobe Illustrator 26.0.1, SVG Export Plug-In . SVG Version: 6.00 Build 0)  -->
<svg version="1.1" id="Layer_1" xmlns="http://www.w3.org/2000/svg" xmlns:xlink="http://www.w3.org/1999/xlink" x="0px" y="0px"
	 viewBox="0 0 100 100" style="enable-background:new 0 0 100 100;" xml:space="preserve">
<style type="text/css">
	.st0{display:none;}
	.st1{fill:#FFFFFF;}
	.st2{fill-rule:evenodd;clip-rule:evenodd;fill:#FFFFFF;}
	.st3{fill-rule:evenodd;clip-rule:evenodd;}
	.st4{fill:none;}
	.st5{clip-path:url(#XMLID_00000164507285346844226690000004691774196617439366_);fill:#FFFFFF;}
</style>
<rect class="st0" width="100" height="100"/>
<g>
	<g>
		<g>
			<path class="st1" d="M35.6,57.1c-0.8,0.2-1.5,0.3-2.2,0.3c-0.7,0.1-1.3,0.1-1.8,0.1c-1.3,0-2.4-0.2-3.3-0.5
				c-0.8-0.3-1.4-0.7-1.8-1.2c-0.4-0.5-0.6-1.1-0.6-1.6c0-0.6,0.2-1.1,0.5-1.6c0.3-0.5,0.8-0.9,1.3-1.3c0.6-0.4,1.3-0.5,2-0.6
				c1.3,0,2.4,0.3,3.5,0.9c1.1,0.7,2.1,1.5,3.1,2.5c0.9-0.6,1.8-1.5,2.7-2.7c0.9-1.2,1.6-2.5,2.3-4s1.2-2.9,1.5-4.4
				c0.4-1.5,0.5-2.9,0.4-4.1c-0.1-1.2-0.5-2.3-1.2-3c-0.7-0.8-1.8-1.2-3.2-1.2c-1,0-2,0.3-3.1,0.8c-1.1,0.6-2.1,1.3-3,2.3
				c-0.9,1-1.7,2-2.3,3.3c-0.6,1.2-0.9,2.5-0.9,3.9c0,0.8,0.2,1.4,0.5,1.8c0.4,0.5,0.9,0.7,1.7,0.7c0.3,0,0.6-0.1,0.8-0.3
				c0.2-0.2,0.4-0.5,0.5-0.8c0.1-0.3,0.2-0.6,0.2-0.9c0.1-0.3,0.1-0.6,0.2-0.8c0.3-1.2,0.8-2,1.5-2.6c0.7-0.6,1.4-0.8,2.1-0.8
				c0.7,0,1.2,0.2,1.6,0.7c0.4,0.5,0.5,1.2,0.2,2.2c-0.2,0.8-0.6,1.5-1.1,2.1c-0.5,0.6-1.2,1.1-1.9,1.5c-0.7,0.4-1.5,0.7-2.3,0.9
				c-0.8,0.2-1.6,0.3-2.4,0.3c-2.3,0-4-0.5-5.2-1.6c-1.2-1-1.8-2.4-1.8-4.1c0-1.6,0.4-3.1,1.3-4.4c0.9-1.3,2-2.4,3.3-3.4
				s2.9-1.7,4.6-2.2c1.7-0.5,3.5-0.8,5.2-0.8c2.1,0,3.9,0.3,5.4,0.8c1.5,0.6,2.7,1.3,3.6,2.3c0.9,1,1.6,2,1.9,3.3
				c0.4,1.2,0.5,2.5,0.4,3.9c-0.1,1.3-0.5,2.7-1.1,4.1c-0.6,1.4-1.4,2.7-2.4,3.9c-1,1.2-2.2,2.3-3.6,3.3c-1.4,1-2.9,1.8-4.6,2.3
				c0.8,0.9,1.5,1.7,2.2,2.6c0.7,0.9,1.5,1.6,2.3,2.3c0.8,0.7,1.6,1.3,2.5,1.7c0.9,0.4,1.8,0.7,2.8,0.7c0.5,0,0.9-0.1,1.2-0.3
				c0.3-0.2,0.5-0.4,0.7-0.7c0.2-0.3,0.4-0.6,0.5-0.9c0.2-0.3,0.4-0.6,0.6-0.9c0.2-0.3,0.6-0.5,1-0.7c0.4-0.2,0.9-0.3,1.6-0.3
				c1,0,1.8,0.2,2.4,0.6c0.6,0.4,1.1,0.9,1.3,1.5c0.2,0.6,0.3,1.2,0.1,2c-0.2,0.7-0.6,1.4-1.2,2c-0.6,0.6-1.5,1.1-2.6,1.5
				c-1.1,0.4-2.5,0.6-4.2,0.5c-1.5,0-2.8-0.2-3.9-0.6c-1.1-0.4-2.2-0.9-3-1.5c-0.9-0.6-1.7-1.3-2.4-2.1c-0.7-0.8-1.3-1.6-1.9-2.3
				c-0.6-0.8-1.1-1.6-1.5-2.3C36.5,58.4,36,57.7,35.6,57.1z"/>
		</g>
		<g>
			<path class="st1" d="M67.8,46.7c-0.2,0.5-0.4,1-0.8,1.4c-0.3,0.4-0.7,0.8-1.2,1.1c-0.4,0.3-0.9,0.5-1.4,0.7
				c-0.5,0.2-0.9,0.2-1.4,0.2c-0.6,0-1.1-0.1-1.5-0.4c-0.4-0.3-0.7-0.8-0.9-1.4c-0.6,0.6-1.3,1.1-2.2,1.4c-0.9,0.3-1.8,0.5-2.7,0.5
				c-0.6,0-1.2-0.1-1.8-0.3c-0.6-0.2-1-0.5-1.4-0.8c-0.4-0.4-0.6-0.8-0.8-1.4c-0.1-0.6-0.1-1.3,0.1-2.1c0.1-0.4,0.2-0.8,0.4-1.2
				c0.2-0.4,0.4-0.8,0.5-1.2c0.2-0.4,0.3-0.8,0.4-1.1c0.1-0.4,0.2-0.7,0.2-1c0-0.3-0.1-0.6-0.3-0.8c-0.2-0.2-0.5-0.4-0.9-0.6
				c-0.2-0.1-0.3-0.2-0.3-0.3c-0.1-0.1-0.1-0.3,0-0.5c0-0.2,0.1-0.3,0.2-0.5c0.1-0.1,0.3-0.2,0.5-0.3c0.2-0.1,0.6-0.1,1-0.3
				c0.5-0.1,0.9-0.3,1.5-0.4c0.5-0.1,1.1-0.2,1.6-0.3c0.5-0.1,1-0.2,1.4-0.2c0.3,0,0.5,0,0.7,0.1c0.2,0.1,0.3,0.2,0.3,0.4
				c0,0.4-0.1,0.9-0.3,1.5c-0.2,0.7-0.5,1.4-0.8,2.1c-0.3,0.8-0.6,1.5-0.8,2.3c-0.3,0.8-0.4,1.5-0.5,2.1c-0.1,0.6,0,1.2,0.2,1.6
				c0.2,0.4,0.6,0.6,1.3,0.6c0.5,0,1-0.2,1.5-0.5c0.5-0.3,0.9-0.8,1.3-1.3c0.4-0.5,0.7-1.1,0.9-1.7c0.2-0.6,0.4-1.2,0.4-1.8
				s0-1.1-0.2-1.6c-0.2-0.5-0.4-0.8-0.8-1c-0.2-0.1-0.3-0.2-0.3-0.3c-0.1-0.1-0.1-0.3,0-0.5c0-0.2,0.1-0.3,0.2-0.5
				c0.1-0.1,0.3-0.2,0.5-0.3l6.2-1.2h0.3c0.3,0,0.5,0.2,0.5,0.5c0,0.3-0.1,0.7-0.2,1.2c-0.2,0.5-0.4,1-0.7,1.7
				c-0.3,0.6-0.6,1.2-0.9,1.9c-0.3,0.6-0.5,1.3-0.7,1.9c-0.2,0.6-0.3,1.1-0.3,1.6c0,0.6,0.3,0.9,0.9,0.9c0.1,0,0.2,0,0.3,0
				c0.1,0,0.3,0,0.4-0.1c0.1,0,0.2,0,0.2,0C67.8,46.5,67.8,46.6,67.8,46.7z"/>
			<path class="st1" d="M68.7,43.4c0.3-1.1,0.8-2.1,1.5-2.9c0.7-0.8,1.5-1.5,2.4-2.1c0.9-0.6,1.9-1,3-1.3c1.1-0.3,2.1-0.4,3.1-0.4
				c0.5,0,1.1,0.1,1.6,0.2c0.6,0.1,1.1,0.3,1.5,0.6c0.4,0.3,0.8,0.6,1,1.1c0.2,0.4,0.3,1,0.1,1.6c-0.2,0.6-0.5,1.1-0.9,1.5
				c-0.4,0.4-1,0.8-1.6,1c-0.6,0.3-1.2,0.5-1.9,0.6c-0.7,0.1-1.3,0.2-1.9,0.2c-0.9,0-1.6-0.1-2.2-0.4c-0.1,0.5-0.1,0.9,0,1.4
				c0.1,0.5,0.2,0.9,0.4,1.2c0.2,0.3,0.5,0.6,1,0.8c0.4,0.2,1,0.3,1.6,0.3c0.4,0,0.9,0,1.3-0.1c0.4-0.1,0.8-0.3,1.2-0.6
				c0.3-0.2,0.5-0.3,0.7-0.3c0.2,0,0.4,0.1,0.5,0.3c0.1,0.2,0,0.4-0.2,0.6c-0.8,1.1-1.8,2-3.1,2.5c-1.2,0.5-2.4,0.8-3.7,0.8
				c-0.9,0-1.7-0.1-2.6-0.4c-0.8-0.3-1.5-0.7-2-1.3c-0.5-0.6-0.9-1.3-1.1-2.1C68.4,45.5,68.4,44.5,68.7,43.4z M74.8,42
				c0.3,0.1,0.7,0,1.2-0.1c0.5-0.1,0.9-0.4,1.3-0.6c0.4-0.3,0.8-0.6,1.1-1c0.3-0.4,0.5-0.7,0.6-1c0.1-0.3,0-0.6-0.1-0.9
				c-0.2-0.2-0.4-0.3-0.7-0.3c-0.3,0-0.6,0.1-0.9,0.3c-0.3,0.2-0.6,0.5-1,0.9c-0.3,0.4-0.6,0.8-0.9,1.2C75.2,41,75,41.4,74.8,42z"/>
		</g>
		<g>
			<path class="st1" d="M51.1,53.9c-0.3,0-0.6,0.1-0.9,0.2c-0.2,0.2-0.5,0.4-0.6,0.6c-0.2,0.2-0.3,0.5-0.4,0.8
				c-0.1,0.3-0.1,0.5-0.1,0.8c0,0.3,0.1,0.5,0.2,0.7s0.4,0.2,0.7,0.1c0.1,0,0.1,0,0.1,0c0,0,0,0.1,0,0.1c-0.1,0.3-0.2,0.6-0.4,0.8
				c-0.2,0.2-0.4,0.4-0.7,0.6c-0.2,0.1-0.5,0.3-0.8,0.3c-0.3,0.1-0.5,0.1-0.8,0.1c-0.2,0-0.4,0-0.6-0.1c-0.2-0.1-0.4-0.1-0.5-0.3
				c-0.1-0.1-0.2-0.2-0.3-0.4c0-0.2,0-0.3,0-0.6c0-0.1,0.1-0.3,0.2-0.6c0.1-0.2,0.2-0.5,0.3-0.8c0.1-0.3,0.2-0.6,0.3-0.9
				c0.1-0.3,0.2-0.6,0.2-0.9c0-0.3,0-0.5-0.1-0.7c-0.1-0.2-0.2-0.3-0.4-0.3c-0.1,0-0.2-0.1-0.2-0.1c0-0.1-0.1-0.2,0-0.3
				c0-0.1,0.1-0.2,0.1-0.3c0.1-0.1,0.2-0.1,0.3-0.2l2.6-0.5c0.1,0,0.1,0,0.2,0s0.2,0,0.3,0c0.1,0,0.2,0,0.3,0.1c0.1,0,0.1,0.1,0,0.3
				c-0.2,0.3-0.3,0.7-0.5,1.2c0.3-0.3,0.6-0.5,0.8-0.7c0.2-0.2,0.5-0.4,0.7-0.5c0.2-0.1,0.4-0.2,0.6-0.3c0.2-0.1,0.4-0.1,0.7-0.1
				c0.4,0,0.6,0.1,0.8,0.4c0.2,0.2,0.2,0.5,0.2,0.8c0,0.3-0.2,0.6-0.4,0.8c-0.2,0.2-0.6,0.4-1,0.4c-0.1,0-0.2,0-0.3-0.1
				c-0.1,0-0.2-0.1-0.2-0.1c-0.1,0-0.1-0.1-0.2-0.1C51.3,53.9,51.2,53.9,51.1,53.9z"/>
			<path class="st1" d="M57.4,52.1c0.3,0,0.5,0,0.6,0.1c0.2,0,0.3,0.1,0.4,0.2c0.1,0.1,0.2,0.1,0.3,0.2c0.1,0,0.3,0.1,0.4,0.1
				c0.2,0,0.3,0,0.6-0.1c0.2,0,0.5-0.1,0.9-0.3c0.1,0,0.1,0,0.2,0c0.1,0,0.1,0,0.2,0.1s0.1,0.1,0.1,0.1c0,0.1,0,0.1,0,0.2
				c0,0.1-0.1,0.3-0.3,0.6c-0.1,0.3-0.3,0.6-0.4,1c-0.2,0.4-0.3,0.7-0.4,1.1c-0.1,0.4-0.2,0.7-0.2,1c0,0.3,0,0.5,0.2,0.7
				c0.1,0.2,0.4,0.2,0.7,0.1c0,0,0.1,0,0.1,0c0,0,0,0.1,0,0.1c-0.1,0.3-0.2,0.5-0.4,0.7c-0.2,0.2-0.4,0.4-0.6,0.6
				c-0.2,0.2-0.5,0.3-0.7,0.4c-0.2,0.1-0.5,0.1-0.7,0.1c-0.3,0-0.5-0.1-0.7-0.2c-0.2-0.1-0.4-0.3-0.5-0.5c-0.2,0.2-0.5,0.4-0.8,0.5
				c-0.3,0.1-0.7,0.2-1,0.2c-0.5,0-1-0.1-1.3-0.3c-0.4-0.2-0.7-0.4-0.9-0.8c-0.2-0.3-0.3-0.7-0.4-1.1c0-0.4,0-0.9,0.1-1.3
				c0.1-0.5,0.3-0.9,0.6-1.3c0.3-0.4,0.6-0.8,1-1.1c0.4-0.3,0.8-0.6,1.3-0.8C56.4,52.2,56.9,52.1,57.4,52.1z M57.8,53.3
				c-0.3,0-0.5,0.1-0.8,0.3s-0.5,0.5-0.6,0.9c-0.2,0.3-0.3,0.7-0.4,1.1c-0.1,0.4-0.2,0.8-0.2,1.1c0,0.3,0,0.6,0.2,0.9
				c0.1,0.2,0.3,0.3,0.6,0.3c0.2,0,0.4-0.1,0.6-0.3c0.2-0.2,0.4-0.5,0.6-0.9c0.2-0.3,0.3-0.7,0.4-1.1c0.1-0.4,0.2-0.8,0.2-1.1
				c0-0.3,0-0.6-0.1-0.9C58.1,53.4,58,53.3,57.8,53.3z"/>
			<path class="st1" d="M62.1,53.1c-0.1,0-0.2,0-0.3-0.1c0-0.1-0.1-0.2,0-0.3c0-0.1,0.1-0.2,0.2-0.3c0.1-0.1,0.2-0.1,0.4-0.1h0.9
				c0.2,0,0.4,0,0.7-0.1c0.3,0,0.5-0.1,0.7-0.2c0.2-0.1,0.5-0.2,0.7-0.4c0.2-0.2,0.3-0.4,0.4-0.6c0-0.1,0.1-0.2,0.2-0.3
				c0.1-0.1,0.2-0.1,0.3-0.1c0.1,0,0.2,0,0.3,0.1c0.1,0.1,0.1,0.2,0,0.3c-0.1,0.5-0.2,0.8-0.3,1.1c0,0.1,0,0.1,0.1,0.1
				c0.1,0,0.1,0,0.2,0c0.1,0,0.2,0,0.4,0c0.1,0,0.3,0,0.4,0c0.1,0,0.2,0,0.3,0.1c0,0.1,0.1,0.2,0,0.3c0,0.1-0.1,0.2-0.2,0.3
				c-0.1,0.1-0.2,0.1-0.3,0.1h-0.8c-0.1,0-0.3,0.1-0.4,0.3c-0.2,0.2-0.3,0.5-0.4,0.8c-0.1,0.3-0.3,0.7-0.4,1.1
				c-0.1,0.4-0.2,0.8-0.2,1.1c0,0.3,0,0.6,0,0.8c0,0.2,0.2,0.3,0.3,0.3c0.1,0,0.2,0,0.4-0.1c0.2-0.1,0.4-0.1,0.5-0.3
				c0.1-0.1,0.2-0.1,0.2-0.1c0.1,0,0.1,0,0.2,0.1c0,0.1,0.1,0.1,0.1,0.2c0,0.1,0,0.2,0,0.2c0,0.1-0.1,0.2-0.1,0.2
				c-0.2,0.2-0.4,0.3-0.6,0.4c-0.2,0.1-0.5,0.3-0.8,0.4C64.6,58.9,64.3,59,64,59c-0.3,0.1-0.6,0.1-0.8,0.1c-0.3,0-0.5,0-0.7-0.1
				c-0.2-0.1-0.4-0.2-0.5-0.4c-0.1-0.2-0.2-0.4-0.2-0.7c0-0.3,0-0.6,0.1-1c0.1-0.3,0.2-0.6,0.3-0.9c0.1-0.3,0.2-0.6,0.4-0.9
				c0.1-0.3,0.3-0.6,0.4-0.8c0.1-0.3,0.2-0.5,0.2-0.7c0-0.2,0.1-0.3,0-0.5c0-0.1-0.1-0.2-0.3-0.2H62.1z"/>
			<path class="st1" d="M66.9,55.6c0.2-0.6,0.4-1.1,0.8-1.5c0.4-0.4,0.8-0.8,1.3-1.1c0.5-0.3,1-0.5,1.6-0.7c0.6-0.1,1.1-0.2,1.6-0.2
				c0.3,0,0.6,0,0.9,0.1c0.3,0.1,0.6,0.2,0.8,0.3c0.2,0.1,0.4,0.3,0.5,0.6c0.1,0.2,0.1,0.5,0,0.9c-0.1,0.3-0.2,0.6-0.5,0.8
				c-0.2,0.2-0.5,0.4-0.8,0.5c-0.3,0.1-0.7,0.2-1,0.3c-0.4,0.1-0.7,0.1-1,0.1c-0.5,0-0.9-0.1-1.2-0.2c0,0.3,0,0.5,0,0.7
				c0,0.2,0.1,0.4,0.2,0.6c0.1,0.2,0.3,0.3,0.5,0.4c0.2,0.1,0.5,0.2,0.9,0.2c0.2,0,0.5,0,0.7-0.1c0.2,0,0.4-0.1,0.7-0.3
				C73,57,73.2,57,73.3,57c0.1,0,0.2,0,0.2,0.1c0,0.1,0,0.2-0.1,0.3c-0.4,0.6-1,1-1.6,1.3c-0.6,0.3-1.3,0.4-1.9,0.4
				c-0.5,0-0.9-0.1-1.3-0.2c-0.4-0.1-0.8-0.4-1.1-0.7c-0.3-0.3-0.5-0.7-0.6-1.1C66.7,56.7,66.8,56.2,66.9,55.6z M70.1,54.9
				c0.2,0,0.4,0,0.6-0.1c0.2-0.1,0.5-0.2,0.7-0.3c0.2-0.1,0.4-0.3,0.6-0.5c0.2-0.2,0.3-0.4,0.3-0.5c0-0.2,0-0.3-0.1-0.4
				c-0.1-0.1-0.2-0.2-0.4-0.2c-0.2,0-0.3,0.1-0.5,0.2c-0.2,0.1-0.3,0.3-0.5,0.5s-0.3,0.4-0.5,0.7C70.3,54.3,70.2,54.6,70.1,54.9z"/>
			<path class="st1" d="M82.4,57.4c-0.1,0.3-0.2,0.5-0.4,0.7c-0.2,0.2-0.4,0.4-0.6,0.6c-0.2,0.2-0.5,0.3-0.7,0.4
				c-0.3,0.1-0.5,0.1-0.7,0.1c-0.3,0-0.5-0.1-0.7-0.2c-0.2-0.1-0.4-0.3-0.5-0.6c-0.3,0.2-0.5,0.4-0.9,0.5c-0.3,0.1-0.7,0.2-1.1,0.2
				c-0.5,0-1-0.1-1.3-0.3c-0.4-0.2-0.7-0.4-0.9-0.8c-0.2-0.3-0.3-0.7-0.4-1.1c0-0.4,0-0.9,0.1-1.3c0.1-0.5,0.3-0.9,0.6-1.3
				c0.3-0.4,0.6-0.8,1-1.1c0.4-0.3,0.8-0.6,1.3-0.8c0.5-0.2,1-0.3,1.5-0.3c0.4,0,0.6,0,0.9,0.1c0.2,0.1,0.4,0.2,0.5,0.4
				c0.1-0.6,0.1-1,0-1.4c-0.1-0.4-0.2-0.6-0.5-0.6c-0.1,0-0.2-0.1-0.2-0.1c0-0.1,0-0.2,0-0.3c0-0.1,0.1-0.2,0.1-0.3
				c0.1-0.1,0.1-0.1,0.2-0.2c0.1,0,0.1,0,0.2,0l2.3-0.5c0.1,0,0.2,0,0.4-0.1c0.1,0,0.3-0.1,0.4-0.1c0.1,0,0.2,0,0.2,0.1
				c0.1,0,0.1,0.1,0,0.3c-0.1,0.3-0.2,0.6-0.3,1c-0.1,0.4-0.3,0.8-0.4,1.2c-0.1,0.4-0.3,0.9-0.4,1.3c-0.1,0.5-0.3,0.9-0.4,1.4
				c-0.1,0.4-0.2,0.9-0.3,1.3c-0.1,0.4-0.1,0.8-0.1,1.2c0,0.3,0.2,0.5,0.5,0.5c0.1,0,0.1,0,0.2,0c0.1,0,0.1,0,0.2,0
				c0.1,0,0.1,0,0.1,0C82.4,57.3,82.4,57.3,82.4,57.4z M79.1,53.3c-0.3,0-0.5,0.1-0.8,0.3s-0.5,0.5-0.6,0.9
				c-0.2,0.3-0.3,0.7-0.4,1.1c-0.1,0.4-0.2,0.8-0.2,1.1c0,0.3,0,0.6,0.2,0.9c0.1,0.2,0.3,0.3,0.6,0.3c0.2,0,0.3,0,0.4-0.1
				c0.1-0.1,0.3-0.2,0.4-0.4c0.1-0.1,0.2-0.3,0.3-0.4c0.1-0.2,0.1-0.3,0.2-0.4c0.1-0.2,0.1-0.3,0.2-0.5c0.1-0.2,0.1-0.3,0.2-0.5
				c0.1-0.3,0.1-0.6,0.2-0.8c0-0.3,0-0.5,0-0.7c0-0.2-0.1-0.4-0.1-0.5C79.4,53.3,79.3,53.3,79.1,53.3z"/>
		</g>
	</g>
	<g>
		<path class="st1" d="M23.3,45.2c-0.9-1.5-1.2-3.2-1-5c0.1-0.9,0.4-1.7,0.8-2.5c0.4-0.8,1-1.5,1.6-2.1c1.3-1.2,2.8-2.1,4.4-2.6
			c1.6-0.6,3.3-0.9,5-1.1c-1.6,0.6-3.2,1.1-4.7,1.8c-1.5,0.7-2.9,1.6-4.1,2.6c-1.2,1.1-2,2.5-2.4,4C22.8,41.9,22.8,43.6,23.3,45.2z"
			/>
		<path class="st1" d="M58.7,41.7c-0.2,0.8-0.3,1.6-0.5,2.4c-0.1,0.4-0.1,0.8-0.1,1.1c0,0.2,0,0.4,0.1,0.5c0,0,0,0.1,0,0.1
			c0,0,0,0,0,0.1c0,0,0,0,0,0c0,0,0,0,0,0c0,0,0,0,0,0c0,0,0,0,0.1,0c0,0,0.1,0,0.1,0l0.1,0l0.1,0c0,0,0.1,0,0.1,0
			c0.2,0,0.3-0.1,0.5-0.2c0.3-0.2,0.5-0.4,0.8-0.8c0.4-0.6,0.8-1.4,1.1-2.1c-0.1,0.8-0.2,1.6-0.6,2.4c-0.2,0.4-0.5,0.7-0.9,1
			c-0.2,0.1-0.4,0.2-0.6,0.3c-0.1,0-0.1,0-0.2,0l-0.1,0l-0.1,0c-0.1,0-0.1,0-0.2,0c-0.1,0-0.1,0-0.2,0c0,0-0.1,0-0.1,0
			c0,0-0.1,0-0.1-0.1c-0.1,0-0.1-0.1-0.2-0.2c-0.1-0.1-0.1-0.1-0.1-0.2c0-0.1-0.1-0.1-0.1-0.2c-0.1-0.2-0.1-0.5-0.1-0.7
			c0-0.2,0-0.4,0.1-0.6c0-0.2,0.1-0.4,0.1-0.6C58,43.1,58.3,42.4,58.7,41.7z"/>
		<path class="st1" d="M78.5,35.8c0.7-0.2,1.4-0.3,2.2-0.2c0.7,0,1.5,0.2,2.2,0.5c0.3,0.2,0.7,0.4,1,0.7c0.3,0.3,0.5,0.7,0.6,1.1
			c0.1,0.4,0,0.8-0.1,1.2c-0.1,0.4-0.3,0.7-0.6,0.9c0-0.1,0-0.2,0-0.3c0-0.1,0-0.2,0-0.3c0-0.2,0-0.3,0-0.5c0-0.3,0-0.6-0.1-0.9
			c-0.2-0.5-0.7-0.9-1.2-1.1c-0.6-0.3-1.2-0.5-1.8-0.6C79.9,36.1,79.2,36,78.5,35.8z"/>
		<g>
			<path class="st1" d="M48.2,63.3c0.4,0,0.7-0.1,0.9-0.2c0.2-0.2,0.4-0.3,0.6-0.6c0.1-0.2,0.3-0.4,0.4-0.6c-0.3,0-0.7,0-1,0
				c-1.4,0.1-2.8,0.2-4.1,0.4c0.2,0.1,0.4,0.3,0.6,0.4C46.4,63.1,47.3,63.3,48.2,63.3z"/>
			<path class="st1" d="M39.9,64.3c-0.4-0.5-0.8-0.9-1.1-1.4c-2.2,0.2-4.3,0.5-6.5,0.8c-5.6,0.9-11.1,1.9-16.5,3.5
				c5.6-0.8,11.1-1.4,16.7-2c2.6-0.2,5.1-0.5,7.7-0.7C40.1,64.4,40,64.4,39.9,64.3z"/>
			<path class="st1" d="M66,61.7c-2.7-0.1-5.5-0.1-8.2-0.1c0.1,0.1,0.2,0.2,0.2,0.3c0.2,0.5,0.2,1,0.2,1.5c2.6-0.1,5.2-0.2,7.8-0.2
				c5.6-0.2,11.2,0,16.8,0C77.3,62.4,71.7,61.8,66,61.7z"/>
		</g>
	</g>
</g>
</svg>
