<?xml version="1.0" encoding="utf-8"?>
<!-- Generator: Adobe Illustrator 26.0.1, SVG Export Plug-In . SVG Version: 6.00 Build 0)  -->
<svg version="1.1" id="Layer_1" xmlns="http://www.w3.org/2000/svg" xmlns:xlink="http://www.w3.org/1999/xlink" x="0px" y="0px"
	 viewBox="0 0 100 100" style="enable-background:new 0 0 100 100;" xml:space="preserve">
<style type="text/css">
	.st0{display:none;}
	.st1{fill:#FFFFFF;}
	.st2{fill-rule:evenodd;clip-rule:evenodd;fill:#FFFFFF;}
	.st3{fill-rule:evenodd;clip-rule:evenodd;}
	.st4{fill:none;}
	.st5{clip-path:url(#XMLID_00000000206237996872256260000010637122769288970679_);fill:#FFFFFF;}
</style>
<rect class="st0" width="100" height="100"/>
<g>
	<g>
		<polygon class="st1" points="45.6,61.2 47.4,59.7 45.6,58.3 		"/>
		<polygon class="st1" points="49.1,61.2 50.9,59.7 49.1,58.3 		"/>
		<polygon class="st1" points="52.6,58.3 52.6,61.2 54.4,59.7 		"/>
	</g>
	<path class="st1" d="M57.5,46.4l-4.8-2.4c-0.1,0-0.1-0.1,0-0.2l5.2-4.8c0.1-0.1,0-0.3-0.1-0.3h-9.5c-0.1,0-0.2,0-0.3,0.1l-6,5.9
		c-0.1,0.1-0.1,0.2,0,0.3l5,2.8l-4.5,2.2c0.7-0.2,1.5-0.3,2.2-0.6c2-0.6,3.6-1.2,4.3-1.7c0.3-0.2,0.4-0.4,0.4-0.6
		c0-0.5-1-0.9-2.2-1.3c-0.8-0.3-1.8-0.7-2.6-1.2c-0.3-0.2-0.4-0.3-0.3-0.5c0.3-1.2,8.1-2.5,9.4-2.7c-1,0.3-5.5,1.7-5.6,2.3
		c0,0.1,0,0.2,0.2,0.2c0.3,0.1,0.8,0.2,1.3,0.4c1.8,0.5,4.4,1.1,4.9,2.4c0.1,0.4,0,0.8-0.3,1.3c-0.5,0.7-1.2,1.3-2,2H54
		c0.1,0,0.2,0,0.3-0.1l3.3-3.3C57.6,46.6,57.6,46.5,57.5,46.4z"/>
	<g>
		<path class="st1" d="M18.7,53.5h4.4l-1,3.2h-6.5l0.4-1.2h4.4l0.3-0.8h-4.4l0.7-2.4l-0.7-0.8h7.4l-0.4,1.2H19L18.7,53.5z"/>
		<path class="st1" d="M29.8,51.5l0.4,5.2h-2.3L27.8,55h-2.6l-1.2,1.7h-1.7l3.1-4.4l-0.7-0.8H29.8z M27.7,53.9l-0.1-1.2h-0.7
			L26,53.9H27.7z"/>
		<path class="st1" d="M38.3,51.5l-3.6,5.2h-3.4l-0.4-4.5l-0.7-0.7H33l0.3,4h0l2.8-4H38.3z"/>
		<path class="st1" d="M46.2,51.5l-1.6,5.2h-6.6l1.4-4.4l-0.7-0.8H46.2z M43.7,52.7h-2.4l-0.9,2.9h2.4L43.7,52.7z"/>
		<path class="st1" d="M52.5,55.5l-0.4,1.2h-6.3l1.4-4.4l-0.7-0.8h3.2l-1.2,4H52.5z"/>
		<path class="st1" d="M59.7,51.5l0.7,0.8l-1.1,3.6l-1.2,0.8h-5.6l1.4-4.4l-0.7-0.8H59.7z M58.2,52.7h-2.4l-0.9,2.9h2.4L58.2,52.7z"
			/>
		<path class="st1" d="M63.2,52.7l-0.3,0.8H67l-0.4,1.2h-4.1l-0.3,0.9h4.1l-0.4,1.2h-6.3l1.4-4.4l-0.7-0.8h7.2l-0.4,1.2H63.2z"/>
		<path class="st1" d="M73.9,55.5l-0.4,1.2h-6.3l1.4-4.4l-0.7-0.8h3.2l-1.2,4H73.9z"/>
		<path class="st1" d="M80.5,55.5l-0.4,1.2h-6.3l1.4-4.4l-0.7-0.8h3.2l-1.2,4H80.5z"/>
		<path class="st1" d="M84.3,51.5l-1.6,5.2h-2.2l1.4-4.4l-0.7-0.8H84.3z"/>
	</g>
</g>
</svg>
