<?xml version="1.0" encoding="utf-8"?>
<!-- Generator: Adobe Illustrator 26.0.1, SVG Export Plug-In . SVG Version: 6.00 Build 0)  -->
<svg version="1.1" id="Layer_1" xmlns="http://www.w3.org/2000/svg" xmlns:xlink="http://www.w3.org/1999/xlink" x="0px" y="0px"
	 viewBox="0 0 100 100" style="enable-background:new 0 0 100 100;" xml:space="preserve">
<style type="text/css">
	.st0{display:none;}
	.st1{fill:#FFFFFF;}
	.st2{fill-rule:evenodd;clip-rule:evenodd;fill:#FFFFFF;}
	.st3{fill-rule:evenodd;clip-rule:evenodd;}
	.st4{fill:none;}
	.st5{clip-path:url(#XMLID_00000019662613397113982600000017605624623626470556_);fill:#FFFFFF;}
</style>
<rect class="st0" width="100" height="100"/>
<g>
	<g>
		<path class="st1" d="M23,65.7l0.1-0.3h1.5l-0.1,0.3h-0.6l-0.2,1h-0.4l0.2-1H23z"/>
		<path class="st1" d="M26.9,66.8l0.3-1.4H28c0.3,0,0.6,0.1,0.5,0.5c0,0.2-0.2,0.3-0.3,0.4l0.2,0.5H28l-0.2-0.5h-0.5l-0.1,0.5H26.9z
			 M27.4,66.1h0.5c0.1,0,0.2,0,0.2-0.2s-0.1-0.2-0.2-0.2h-0.5L27.4,66.1z"/>
		<path class="st1" d="M31.9,65.4h0.3l0.5,1.4h-0.4l-0.1-0.2h-0.7l-0.2,0.2h-0.4L31.9,65.4z M31.7,66.3h0.4L32,65.9L31.7,66.3z"/>
		<path class="st1" d="M35.9,65.4l0.5,0.9l0.2-0.9H37l-0.3,1.4h-0.4l-0.5-0.9l-0.2,0.9h-0.4l0.3-1.4H35.9z"/>
		<path class="st1" d="M39.6,66.4c0.1,0.1,0.3,0.1,0.5,0.1c0.1,0,0.4,0,0.4-0.1c0-0.1-0.3-0.1-0.4-0.1c-0.2,0-0.6-0.1-0.5-0.4
			c0.1-0.4,0.4-0.4,0.7-0.4c0.2,0,0.5,0,0.6,0.1l-0.2,0.2c-0.1-0.1-0.3-0.1-0.5-0.1c-0.1,0-0.3,0-0.3,0.1c0,0.1,0.2,0.1,0.3,0.1
			c0.3,0,0.7,0.1,0.6,0.4c-0.1,0.4-0.5,0.4-0.8,0.4c-0.2,0-0.5,0-0.7-0.2L39.6,66.4z"/>
		<path class="st1" d="M43.7,65.4h0.9c0.3,0,0.5,0.1,0.5,0.5c-0.1,0.3-0.4,0.5-0.7,0.5h-0.5l-0.1,0.4h-0.4L43.7,65.4z M44.4,66.1
			c0.1,0,0.2-0.1,0.2-0.2c0-0.1,0-0.2-0.2-0.2h-0.5l-0.1,0.4H44.4z"/>
		<path class="st1" d="M47.6,66.1c0.1-0.5,0.6-0.7,1.1-0.7c0.5,0,0.9,0.2,0.8,0.7c-0.1,0.5-0.6,0.7-1.1,0.7
			C47.9,66.8,47.5,66.6,47.6,66.1z M48.4,66.5c0.3,0,0.6-0.1,0.6-0.4c0.1-0.3-0.2-0.4-0.5-0.4c-0.3,0-0.6,0.1-0.6,0.4
			C47.9,66.4,48.2,66.5,48.4,66.5z"/>
		<path class="st1" d="M51.9,66.8l0.3-1.4h0.9c0.3,0,0.6,0.1,0.5,0.5c0,0.2-0.2,0.3-0.3,0.4l0.2,0.5H53l-0.2-0.5h-0.5l-0.1,0.5H51.9
			z M52.4,66.1h0.5c0.1,0,0.2,0,0.2-0.2s-0.1-0.2-0.2-0.2h-0.5L52.4,66.1z"/>
		<path class="st1" d="M56.2,65.7l0.1-0.3h1.5l-0.1,0.3h-0.6l-0.2,1h-0.4l0.2-1H56.2z"/>
		<path class="st1" d="M60.7,65.4H61l0.5,1.4h-0.4L61,66.5h-0.7l-0.2,0.2h-0.4L60.7,65.4z M60.5,66.3h0.4l-0.1-0.4L60.5,66.3z"/>
		<path class="st1" d="M63.9,65.7l0.1-0.3h1.5l-0.1,0.3h-0.6l-0.2,1h-0.4l0.2-1H63.9z"/>
		<path class="st1" d="M68.1,65.4h0.4l-0.3,1.4h-0.4L68.1,65.4z"/>
		<path class="st1" d="M70.9,66.1c0.1-0.5,0.6-0.7,1.1-0.7c0.5,0,0.9,0.2,0.8,0.7c-0.1,0.5-0.6,0.7-1.1,0.7S70.8,66.6,70.9,66.1z
			 M71.7,66.5c0.3,0,0.6-0.1,0.6-0.4c0.1-0.3-0.2-0.4-0.5-0.4c-0.3,0-0.6,0.1-0.6,0.4C71.2,66.4,71.5,66.5,71.7,66.5z"/>
		<path class="st1" d="M75.9,65.4l0.5,0.9l0.2-0.9H77l-0.3,1.4h-0.4l-0.5-0.9l-0.2,0.9h-0.4l0.3-1.4H75.9z"/>
	</g>
	<g>
		<path class="st1" d="M39.3,42.9C39.2,42.8,39.3,42.9,39.3,42.9C39.3,42.9,39.3,42.9,39.3,42.9c0.1,0.1,0.7,0.5,3.5,2.4
			c4,2.7,6-3,6-3c0.2,1,3.9,2.4,7.8,3.9l2.6-13H40.6l-2.2,11C38.9,43.4,39.3,42.9,39.3,42.9z"/>
		<path class="st1" d="M65,50.3c-0.5-1.1-4.5-2.6-8.4-4.2l-1.1,5.6H36.8l1.5-7.6c-1.7,2.6-5.2,8.2-2.5,8.3c3.5,0.2,26,0,26,0
			S65.9,52.5,65,50.3z"/>
		<path class="st1" d="M39.3,42.9C39.3,42.9,39.3,42.9,39.3,42.9C39.3,42.9,39.2,42.8,39.3,42.9z"/>
	</g>
	<g>
		<g>
			<path class="st1" d="M20.1,58.2c1.9,0.1,4.6,0.2,4.2,2c-0.4,2-2.8,2.4-5.2,2.4c-2.4,0-4.4-0.3-4.2-2.4h2.8
				c0.2,0.5,0.9,0.7,1.7,0.7c0.8,0,1.9-0.1,2-0.7c0.1-0.3-0.8-0.3-1.8-0.4c-1.9-0.1-4.6-0.2-4.2-2c0.4-2,2.8-2.4,5.2-2.4
				c2.4,0,4.4,0.3,4.2,2.4H22c-0.2-0.5-0.9-0.7-1.7-0.7c-0.8,0-1.9,0.1-2,0.7C18.3,58.1,19.1,58.2,20.1,58.2z"/>
			<path class="st1" d="M27.5,60.1L27,62.4h-2.7l1.4-6.9h2.7l-0.5,2.4h4l0.5-2.4h2.7l-1.4,6.9H31l0.5-2.4H27.5z"/>
			<path class="st1" d="M44.3,58.7l-0.1,0.5c-0.5,2.6-2.8,3.4-5.4,3.4c-2.6,0-4.6-0.8-4-3.4l0.1-0.5c0.5-2.6,2.8-3.4,5.4-3.4
				C42.9,55.4,44.8,56.1,44.3,58.7z M41.6,58.9c0.2-1.1-0.6-1.3-1.7-1.3c-1.1,0-2.1,0.2-2.3,1.3l0,0.2c-0.2,1.1,0.6,1.3,1.7,1.3
				c1.1,0,2.1-0.2,2.3-1.3L41.6,58.9z"/>
			<path class="st1" d="M45.4,55.6h8.1l-0.4,1.8h-5.4l-0.2,0.9h5.4l-0.3,1.6h-5.4L47,60.7h5.4L52,62.4h-8.1L45.4,55.6z"/>
		</g>
		<g>
			<g>
				<path class="st1" d="M65,60.6c-0.2,1.2-1.4,1.8-2.6,1.8h-7.1l1.4-6.9h6.5c1.2,0,2.1,0.6,1.8,1.8c-0.1,0.7-0.5,1.2-1.1,1.5
					C64.7,59.1,65.1,59.7,65,60.6z M62,60.8c0.2,0,0.5-0.2,0.5-0.5c0-0.2-0.1-0.5-0.3-0.5h-3.6l-0.2,0.9H62z M59.1,57.2l-0.2,0.9H62
					c0.2,0,0.5-0.2,0.5-0.5c0-0.2-0.1-0.5-0.3-0.5H59.1z"/>
				<path class="st1" d="M74.9,58.7l-0.1,0.5c-0.5,2.6-2.8,3.4-5.4,3.4c-2.6,0-4.6-0.8-4-3.4l0.1-0.5c0.5-2.6,2.8-3.4,5.4-3.4
					C73.5,55.4,75.5,56.1,74.9,58.7z M72.2,58.9c0.2-1.1-0.6-1.3-1.7-1.3c-1.1,0-2.1,0.2-2.3,1.3l0,0.2c-0.2,1.1,0.6,1.3,1.7,1.3
					c1.1,0,2.1-0.2,2.3-1.3L72.2,58.9z"/>
				<path class="st1" d="M81.6,55.6H85L80.7,59l2.9,3.4h-3.4l-1.5-2l-2.3,2H73l4.3-3.4l-2.9-3.4h3.4l1.5,2L81.6,55.6z"/>
			</g>
		</g>
	</g>
</g>
</svg>
