<?xml version="1.0" encoding="utf-8"?>
<!-- Generator: Adobe Illustrator 26.0.1, SVG Export Plug-In . SVG Version: 6.00 Build 0)  -->
<svg version="1.1" id="Layer_1" xmlns="http://www.w3.org/2000/svg" xmlns:xlink="http://www.w3.org/1999/xlink" x="0px" y="0px"
	 viewBox="0 0 100 100" style="enable-background:new 0 0 100 100;" xml:space="preserve">
<style type="text/css">
	.st0{display:none;}
	.st1{fill:#FFFFFF;}
	.st2{fill-rule:evenodd;clip-rule:evenodd;fill:#FFFFFF;}
	.st3{fill-rule:evenodd;clip-rule:evenodd;}
	.st4{fill:none;}
	.st5{clip-path:url(#XMLID_00000096780999244059949740000013310095136715291314_);fill:#FFFFFF;}
</style>
<rect class="st0" width="100" height="100"/>
<g>
	<path class="st1" d="M25.6,34.8c-5.9,0-10.6,4.8-10.6,10.6h0v3.2v4v0.1v12.6h21.2V45.4C36.2,39.6,31.4,34.8,25.6,34.8z M27.4,44.1
		c1-1.1,1.1-1.4,1.1-1.5c-0.1,0-0.3,0.1-1.3,1.2l-2.4-0.5l-0.2,0.1l2,1c0,0-0.6,0.5-2,1.4c-1.9,1.2-4.7,2.4-8.4,2.6v-3.1
		c0-5.2,4.2-9.4,9.4-9.4s9.4,4.2,9.4,9.4v11.4c-0.7,0.6-1.7,1.6-2.9,2.5L26,53l-0.4,0.5c0,0-0.8,1.1-2.6,2.6c-0.6-0.4-2-1.2-3.3-1.9
		L19.3,54L19,54.4c-1,1.2-2.1,2.3-2.8,2.8v-4.8c2.1-0.6,6.6-2.2,9.5-5.5c0.7-0.7,1.3-2.1,1.3-2.1l1.2,1.9l0.1-0.2L27.4,44.1z
		 M16.1,58.5c1-0.5,2.4-1.9,3.4-3c0.9,0.6,1.9,1.1,2.5,1.5c-1.5,1.2-3.4,2.7-5.9,4.1V58.5z M16.1,64v-1.5c5.7-3.3,8.9-6.5,10-7.7
		l5.1,5.2c-1.3,1-2.5,1.8-3.3,2l0.3,1.1c1.9-0.6,5.1-3.3,6.8-4.8V64H16.1z"/>
	<g>
		<path class="st1" d="M42.2,51.3h-1.6c-0.3,0-0.4-0.1-0.4-0.4V39.8c0-0.3,0.1-0.4,0.4-0.4h4.5c1,0,1.7,0.3,2.2,0.8
			c0.5,0.5,0.8,1.3,0.8,2.2v1.8c0,1-0.3,1.7-0.8,2.2c-0.5,0.5-1.3,0.8-2.2,0.8h-2.3c-0.1,0-0.2,0.1-0.2,0.2v3.5
			C42.6,51.1,42.5,51.3,42.2,51.3z M42.8,45.1h2c0.4,0,0.7-0.1,0.8-0.2c0.2-0.2,0.2-0.4,0.2-0.8v-1.6c0-0.4-0.1-0.7-0.2-0.8
			c-0.2-0.2-0.4-0.2-0.8-0.2h-2c-0.1,0-0.2,0.1-0.2,0.2v3.3C42.6,45.1,42.6,45.1,42.8,45.1z"/>
		<path class="st1" d="M49.8,51.3H48c-0.2,0-0.3-0.1-0.2-0.4l2.9-11.1c0.1-0.3,0.3-0.4,0.6-0.4h2.5c0.3,0,0.5,0.1,0.6,0.4l2.9,11.1
			c0.1,0.3,0,0.4-0.2,0.4h-1.8c-0.1,0-0.2,0-0.3-0.1c0-0.1-0.1-0.2-0.1-0.3l-0.5-2h-3.6l-0.5,2c0,0.1-0.1,0.2-0.1,0.3
			C50,51.2,49.9,51.3,49.8,51.3z M52.5,41.6L51.1,47h2.7L52.5,41.6L52.5,41.6z"/>
		<path class="st1" d="M60.1,51.3h-1.6c-0.3,0-0.4-0.1-0.4-0.4V39.8c0-0.3,0.1-0.4,0.4-0.4h1.6c0.3,0,0.4,0.1,0.4,0.4V45h0
			c0.1-0.3,0.3-0.7,0.6-1.1l2.8-4.1c0.2-0.3,0.4-0.4,0.7-0.4h1.8c0.1,0,0.2,0,0.2,0.1c0,0.1,0,0.2-0.1,0.3l-3.5,4.9l3.9,6.1
			c0.1,0.1,0.1,0.3,0,0.3c-0.1,0.1-0.2,0.1-0.3,0.1h-1.4c-0.4,0-0.7-0.1-0.9-0.4l-2.8-4.5l-1.2,1.4v3.2
			C60.5,51.1,60.3,51.3,60.1,51.3z"/>
		<path class="st1" d="M42.2,65.2h-1.6c-0.3,0-0.4-0.1-0.4-0.4V53.7c0-0.3,0.1-0.4,0.4-0.4h1.6c0.3,0,0.4,0.1,0.4,0.4V58
			c0,0.1,0.1,0.2,0.2,0.2h3.1c0.1,0,0.2-0.1,0.2-0.2v-4.3c0-0.3,0.1-0.4,0.4-0.4h1.6c0.3,0,0.4,0.1,0.4,0.4v11.1
			c0,0.3-0.1,0.4-0.4,0.4h-1.6c-0.3,0-0.4-0.1-0.4-0.4v-4.3c0-0.1-0.1-0.2-0.2-0.2h-3.1c-0.1,0-0.2,0.1-0.2,0.2v4.3
			C42.6,65.1,42.5,65.2,42.2,65.2z"/>
		<path class="st1" d="M56.6,65.2h-6.1c-0.3,0-0.4-0.1-0.4-0.4V53.7c0-0.3,0.1-0.4,0.4-0.4h6.1c0.2,0,0.4,0.1,0.4,0.4V55
			c0,0.3-0.1,0.4-0.4,0.4h-3.9c-0.1,0-0.2,0.1-0.2,0.2V58c0,0.1,0.1,0.2,0.2,0.2h3.2c0.3,0,0.4,0.1,0.4,0.4v1.3
			c0,0.3-0.1,0.4-0.4,0.4h-3.2c-0.1,0-0.2,0.1-0.2,0.2V63c0,0.1,0.1,0.2,0.2,0.2h3.9c0.2,0,0.4,0.1,0.4,0.4v1.3
			C57,65.1,56.8,65.2,56.6,65.2z"/>
		<path class="st1" d="M60.2,65.2h-1.6c-0.3,0-0.4-0.1-0.4-0.4V53.7c0-0.3,0.1-0.4,0.4-0.4h4.4c1,0,1.7,0.3,2.3,0.8
			c0.5,0.5,0.8,1.3,0.8,2.2v1.4c0,1.4-0.5,2.3-1.6,2.8v0.1l2,4.1c0.1,0.3,0,0.4-0.3,0.4h-1.5c-0.2,0-0.4,0-0.5-0.1
			c-0.1,0-0.2-0.2-0.2-0.3l-1.9-4h-1.2c-0.1,0-0.2,0.1-0.2,0.2v3.8C60.6,65.1,60.5,65.2,60.2,65.2z M60.8,58.9h1.8
			c0.4,0,0.7-0.1,0.9-0.2c0.2-0.2,0.3-0.4,0.3-0.8v-1.4c0-0.4-0.1-0.7-0.3-0.8c-0.2-0.2-0.5-0.3-0.9-0.3h-1.8
			c-0.1,0-0.2,0.1-0.2,0.2v3.2C60.6,58.9,60.7,58.9,60.8,58.9z"/>
		<path class="st1" d="M67.7,64.8V53.7c0-0.3,0.1-0.4,0.4-0.4h4.4c1,0,1.7,0.3,2.3,0.8c0.5,0.5,0.8,1.3,0.8,2.2v0.8
			c0,1-0.5,1.7-1.5,2c0.5,0.1,0.9,0.3,1.2,0.6c0.3,0.3,0.4,0.8,0.4,1.4v1.1c0,1-0.3,1.7-0.8,2.2c-0.5,0.5-1.3,0.8-2.2,0.8H68
			C67.8,65.2,67.7,65.1,67.7,64.8z M70.2,58.1h1.9c0.4,0,0.7-0.1,0.9-0.2c0.2-0.2,0.3-0.4,0.3-0.8v-0.7c0-0.4-0.1-0.7-0.3-0.8
			c-0.2-0.2-0.5-0.2-0.9-0.2h-1.9c-0.1,0-0.2,0.1-0.2,0.2v2.5C70,58.1,70.1,58.1,70.2,58.1z M70.2,63.2h2.1c0.4,0,0.7-0.1,0.9-0.2
			c0.2-0.2,0.3-0.4,0.3-0.8v-1.1c0-0.4-0.1-0.7-0.3-0.8C73,60.1,72.7,60,72.2,60h-2c-0.1,0-0.2,0.1-0.2,0.2V63
			C70,63.2,70.1,63.2,70.2,63.2z"/>
		<path class="st1" d="M76.9,62.2v-0.4c0-0.3,0.1-0.4,0.4-0.4h1.6c0.3,0,0.4,0.1,0.4,0.4V62c0,0.5,0.1,0.8,0.3,1
			c0.2,0.2,0.5,0.3,1,0.3h0.9c0.5,0,0.8-0.1,1-0.3c0.2-0.2,0.3-0.5,0.3-1v-0.2c0-0.4-0.1-0.6-0.4-0.8c-0.3-0.2-0.7-0.3-1.1-0.3
			c-0.4,0-0.9-0.1-1.4-0.2c-0.5-0.1-1-0.2-1.4-0.4c-0.4-0.2-0.8-0.5-1.1-1c-0.3-0.5-0.4-1.1-0.4-1.9v-0.6c0-1,0.3-1.7,0.8-2.2
			c0.5-0.5,1.3-0.8,2.3-0.8h1.9c1,0,1.7,0.3,2.3,0.8c0.5,0.5,0.8,1.3,0.8,2.2v0.4c0,0.3-0.1,0.4-0.4,0.4h-1.6
			c-0.3,0-0.4-0.1-0.4-0.4v-0.1c0-0.5-0.1-0.8-0.3-1c-0.2-0.2-0.5-0.3-1-0.3h-0.7c-0.5,0-0.8,0.1-1,0.3c-0.2,0.2-0.3,0.6-0.3,1.1
			v0.4c0,0.6,0.5,0.9,1.5,1c1,0.1,2,0.3,2.8,0.6c0.4,0.2,0.8,0.5,1.1,1c0.3,0.5,0.4,1.1,0.4,1.8v0.6c0,1-0.3,1.7-0.8,2.2
			c-0.5,0.5-1.3,0.8-2.3,0.8h-2c-1,0-1.7-0.3-2.3-0.8C77.2,63.9,76.9,63.1,76.9,62.2z"/>
	</g>
</g>
</svg>
