<?xml version="1.0" encoding="utf-8"?>
<!-- Generator: Adobe Illustrator 26.0.1, SVG Export Plug-In . SVG Version: 6.00 Build 0)  -->
<svg version="1.1" id="Layer_1" xmlns="http://www.w3.org/2000/svg" xmlns:xlink="http://www.w3.org/1999/xlink" x="0px" y="0px"
	 viewBox="0 0 100 100" style="enable-background:new 0 0 100 100;" xml:space="preserve">
<style type="text/css">
	.st0{display:none;}
	.st1{fill:#FFFFFF;}
	.st2{fill-rule:evenodd;clip-rule:evenodd;fill:#FFFFFF;}
	.st3{fill-rule:evenodd;clip-rule:evenodd;}
	.st4{fill:none;}
	.st5{clip-path:url(#XMLID_00000143599468378612514710000014923452952327929501_);fill:#FFFFFF;}
</style>
<rect class="st0" width="100" height="100"/>
<g>
	<path class="st1" d="M81,50c-1.6,0.3-3.4,0.9-4.6-0.4c-0.4-0.4-0.6-1-0.6-1.5c-0.1-1.5,0.6-2.8,1.3-4c0.1-0.2,0.2-0.3,0.3-0.5
		c0.7-1.2,1.4-2.4,1.4-3.8c0-1-0.4-2-1.2-2.6c-0.8-0.6-2-0.6-2.8,0c-0.6,0.5-0.9,1.2-1.5,1.7c-1,0.8-2.6,0.4-3.4-0.5
		c-0.9-0.9-1.2-2.2-1.4-3.5c-0.3-2-0.4-4.2-2.2-5.6c-0.8-0.6-2-0.6-2.8,0c-1.1,0.9-0.8,2.3-0.8,3.6c0,1.7-2.2,2.5-3.2,1.1
		c-0.4-0.6-0.9-1.2-1.5-1.3c-1.5-0.2-2.1,2.1-3.3,3c-1.2,0.8-2.9,0.2-3.9-0.9c-0.9-1.1-1.3-2.6-1.6-4c-0.5-1.7-1.1-3.5-2.8-4.3
		c-0.9-0.4-1.9-0.3-2.6,0.3c-1.2,1-0.8,2.6-0.1,3.8c0.8,1.3,1.9,2.4,1.9,4c0,0.7-0.4,1.5-1.1,1.8c-2.1,1-3.7-2.9-5.9-1.5
		c-0.6,0.4-1,1.1-1,1.9c-0.1,1.4-1.2,4-3.2,2.5c-0.2-0.2-0.4-0.4-0.6-0.6c-0.5-0.6-1.6-1.2-2.2-0.7c-0.5,0.5-0.3,1.3-0.5,2
		c-0.4,1.4-2.3,1.8-3.7,1.3c-1.8-0.7-3.2-2.4-5.4-2.4c-0.9,0-1.8,0.5-2.1,1.4c-0.6,1.7,1.4,3,3,3.3c0.7,0.2,1.3,0.3,2,0.6
		c0.5,0.2,1.1,0.5,1.4,0.9c0.1,0.1,0.2,0.3,0.2,0.5c0,0.2-0.2,0.4-0.3,0.4c-0.2,0.1-0.4,0-0.7-0.1c-0.2-0.1-0.3-0.1-0.5-0.2
		c-0.4-0.1-0.8-0.1-1.2,0.1c-0.5,0.2-1,0.5-1.3,1c-0.5,0.8-0.5,2.1,0.9,2.8c0.8,0.5,1.9,0.5,2.8,0.2c0.5-0.2,1-0.3,1.4,0.1
		c0.3,0.3,0.4,0.8,0.2,1.2c-0.3,0.7-1.1,1-1.8,1.3c-2.4,0.9-4.7,1.8-7.1,2.6c-1.2,0.5-2.5,0.9-3.2,2.1c-0.3,0.4-0.4,1-0.3,1.5
		c0.3,1.6,2.1,1.8,3.3,1.2c1-0.5,1.7-1.4,2.5-2.2c0.9-0.9,2.1-1.8,3.5-1.4c0.9,0.2,1.6,1.2,1.3,2.1c-0.3,0.9-1.3,1.2-2.1,1.6
		c-0.9,0.5-1.7,1.6-0.8,2.3c0.4,0.3,0.9,0.3,1.4,0.2l5.3-2.2c1.1-0.5,2.1,0.7,1.5,1.7c-0.1,0.2-0.3,0.4-0.4,0.6
		c-1,1.1-2.3,1.8-2.9,3.2c-0.2,0.6-0.2,1.3,0.1,1.8c0.9,1.4,2.9,0.7,3.9-0.4c1.6-1.8,2.2-4.4,4.5-5.6c0.9-0.5,2-0.5,2.9,0.1
		c1.3,0.8,1,2.1,1.1,3.3c0.1,0.8,0.5,1.7,1.3,1.9c0.9,0.2,1.6-0.7,1.9-1.5c0.4-1,0.6-2.2,1.8-2.6c0.9-0.3,2,0,2.6,0.8
		c1.3,1.6,1,3.5,0.8,5.4c-0.1,1.5-0.1,3.1,0.9,4.3c0.6,0.8,1.6,1.1,2.6,0.9c1.7-0.5,1.9-2.9,1.6-4.7c-0.3-1.8-0.5-4,1-4.9
		c0.4-0.3,1-0.4,1.5-0.5c1.1-0.2,2.3-0.5,3.4-0.7c1.9-0.4,4.2-0.7,5.6,0.7c0.7,0.7,1,1.6,1.9,2.1c0.4,0.2,0.9,0.3,1.3,0.1
		c0.9-0.5,0.6-1.8,0.9-2.8c0.4-1.1,1.8-1.7,3-1.5c1.2,0.2,2.3,0.8,3.4,1.3c1.8,0.9,4,1.4,5.8,0.2c1.2-0.8,1.7-2.2,1.2-3.5
		c-0.6-1.2-1.8-1.6-3.2-1.6c-1.6,0-2-2.2-0.6-2.8c0,0,0,0,0,0c1.6-0.7,3.6-0.4,5-1.6c0.6-0.5,0.9-1.3,0.7-2
		C84.4,49.9,82.4,49.7,81,50z M35.3,53.7c0,0.2,0,0.4-0.1,0.5c-0.1,0.2-0.2,0.3-0.3,0.4c-0.1,0.1-0.3,0.2-0.5,0.3
		C34.1,55,34,55,33.8,55c-0.2,0-0.4,0-0.5-0.1c-0.2-0.1-0.3-0.2-0.5-0.3c-0.1-0.1-0.3-0.3-0.3-0.4c-0.1-0.2-0.1-0.4-0.1-0.6v-9.2
		c0-0.2,0-0.4,0.1-0.5c0.1-0.2,0.2-0.3,0.3-0.4c0.1-0.1,0.3-0.2,0.5-0.3c0.2-0.1,0.4-0.1,0.5-0.1c0.2,0,0.4,0,0.5,0.1
		c0.2,0.1,0.3,0.2,0.5,0.3c0.1,0.1,0.3,0.3,0.3,0.4c0.1,0.2,0.1,0.4,0.1,0.6v1c0,0.2-0.1,0.3-0.2,0.4C35,45.9,34.8,46,34.7,46
		c-0.2,0-0.3-0.1-0.4-0.2c-0.1-0.1-0.2-0.3-0.2-0.4v-0.8c0-0.1,0-0.2-0.1-0.2c-0.1-0.1-0.1-0.1-0.2-0.1c-0.1,0-0.1,0-0.2,0.1
		c-0.1,0.1-0.1,0.1-0.1,0.2v9c0,0.1,0,0.2,0.1,0.2c0.1,0.1,0.1,0.1,0.2,0.1c0.1,0,0.2,0,0.2-0.1c0.1-0.1,0.1-0.1,0.1-0.2V49
		c0-0.2,0.1-0.3,0.2-0.4c0.1-0.1,0.3-0.2,0.4-0.2c0.2,0,0.3,0.1,0.4,0.2c0.1,0.1,0.2,0.3,0.2,0.4V53.7z M38.9,46.3
		c0,0.3-0.1,0.6-0.3,0.9c0.2,0.3,0.3,0.6,0.3,0.9v6.3c0,0.2-0.1,0.3-0.2,0.4C38.6,55,38.4,55,38.3,55c-0.2,0-0.3-0.1-0.4-0.2
		c-0.1-0.1-0.2-0.3-0.2-0.4v-6.3c0-0.1,0-0.2-0.1-0.2c-0.1-0.1-0.1-0.1-0.2-0.1h-0.3v6.7c0,0.2-0.1,0.3-0.2,0.4
		C36.8,55,36.6,55,36.5,55c-0.2,0-0.3-0.1-0.4-0.2c-0.1-0.1-0.2-0.3-0.2-0.4v-6.7h-1.2c-0.2,0-0.3-0.1-0.4-0.2
		c-0.1-0.1-0.2-0.3-0.2-0.4c0-0.2,0.1-0.3,0.2-0.4c0.1-0.1,0.3-0.2,0.4-0.2h1.2v-3c0-0.2,0.1-0.3,0.2-0.4c0.1-0.1,0.3-0.2,0.4-0.2
		h0.9c0.4,0,0.8,0.1,1.1,0.4c0.3,0.3,0.4,0.6,0.4,1.1V46.3z M42.9,46.4c0-0.4,0.1-0.8,0.4-1.1c0.3-0.3,0.6-0.4,1.1-0.4
		c0.4,0,0.8,0.1,1.1,0.4c0.3,0.3,0.4,0.6,0.4,1.1v8.1c0,0.2-0.1,0.3-0.2,0.4C45.6,55,45.5,55,45.3,55c-0.2,0-0.3-0.1-0.4-0.2
		c-0.1-0.1-0.2-0.3-0.2-0.4v-4.9h-0.6v4.9c0,0.2-0.1,0.3-0.2,0.4C43.8,55,43.6,55,43.5,55c-0.2,0-0.3-0.1-0.4-0.2
		c-0.1-0.1-0.2-0.3-0.2-0.4V46.4z M42.4,58.7H42v-2.4h0.4V58.7z M41.3,46.6c0.2,0,0.3,0.1,0.4,0.2s0.2,0.3,0.2,0.4
		c0,0.2-0.1,0.3-0.2,0.4c-0.1,0.1-0.3,0.2-0.4,0.2h-0.6v6.1h1.2c0.2,0,0.3,0.1,0.4,0.2c0.1,0.1,0.2,0.3,0.2,0.4
		c0,0.2-0.1,0.3-0.2,0.4C42.2,55,42,55,41.9,55h-1.8c-0.2,0-0.3-0.1-0.4-0.2c-0.1-0.1-0.2-0.3-0.2-0.4V43.6c0-0.2,0.1-0.3,0.2-0.4
		c0.1-0.1,0.3-0.2,0.4-0.2h1.8c0.2,0,0.3,0.1,0.4,0.2c0.1,0.1,0.2,0.3,0.2,0.4c0,0.2-0.1,0.3-0.2,0.4c-0.1,0.1-0.3,0.2-0.4,0.2h-1.2
		v2.4H41.3z M44.2,58.7h-0.4L43,56.9v1.8h-0.4v-2.4h0.4l0.8,1.7v-1.7h0.4V58.7z M45.5,58.7l-0.7-1.1v1.1h-0.4v-2.4h0.4v1.1l0.6-1.1
		h0.4l-0.7,1.2l0.8,1.2H45.5z M43.5,44.2c-0.2,0-0.3-0.1-0.4-0.2c-0.1-0.1-0.2-0.3-0.2-0.4c0-0.2,0.1-0.3,0.2-0.4
		c0.1-0.1,0.3-0.2,0.4-0.2h4.2c0.2,0,0.3,0.1,0.4,0.2c0.1,0.1,0.2,0.3,0.2,0.4c0,0.2-0.1,0.3-0.2,0.4c-0.1,0.1-0.3,0.2-0.4,0.2v10.2
		c0,0.2-0.1,0.3-0.2,0.4C47.4,55,47.3,55,47.1,55c-0.2,0-0.3-0.1-0.4-0.2c-0.1-0.1-0.2-0.3-0.2-0.4V44.2H43.5z M47.9,56.6h-0.4v2.1
		H47v-2.1h-0.4v-0.4h1.3V56.6z M49.5,58.7h-0.4v-1.1h-0.7v1.1H48v-2.4h0.4v1h0.7v-1h0.4V58.7z M49.5,55c-0.2,0-0.3-0.1-0.4-0.2
		c-0.1-0.1-0.2-0.3-0.2-0.4V43.6c0-0.2,0.1-0.3,0.2-0.4c0.1-0.1,0.3-0.2,0.4-0.2c0.2,0,0.3,0.1,0.4,0.2c0.1,0.1,0.2,0.3,0.2,0.4
		v10.8c0,0.2-0.1,0.3-0.2,0.4C49.8,55,49.7,55,49.5,55z M51,56.6h-0.8v0.6H51v0.4h-0.8v0.7H51v0.4h-1.2v-2.4H51V56.6z M53.5,58
		c0,0.2-0.1,0.4-0.2,0.5c-0.1,0.1-0.3,0.2-0.6,0.2c-0.3,0-0.5-0.1-0.6-0.2C52,58.4,52,58.2,52,58v-1.8h0.4v1.7c0,0.1,0,0.2,0.1,0.3
		c0.1,0.1,0.2,0.1,0.3,0.1c0.1,0,0.2,0,0.3-0.1c0.1-0.1,0.1-0.2,0.1-0.3v-1.7h0.4V58z M52.8,54.5c0,0.2-0.1,0.3-0.2,0.4
		C52.5,55,52.4,55,52.2,55h-0.1c-0.2,0-0.3-0.1-0.4-0.2c-0.1-0.1-0.2-0.2-0.2-0.4l-0.8-10.9c0-0.1,0-0.3,0.1-0.4
		c0.1-0.1,0.2-0.2,0.3-0.2c0.1,0,0.3,0,0.4,0.1c0.1,0.1,0.2,0.2,0.2,0.4l0.4,5.9l0.4-5.9c0-0.1,0.1-0.3,0.2-0.4
		c0.1-0.1,0.2-0.1,0.4-0.1c0.1,0,0.3,0.1,0.4,0.2c0.1,0.1,0.1,0.2,0.1,0.4L52.8,54.5z M55.3,58.7h-0.4l-0.8-1.8v1.8h-0.4v-2.4h0.4
		l0.8,1.7v-1.7h0.4V58.7z M56.7,56.6h-0.4v2.1h-0.4v-2.1h-0.4v-0.4h1.3V56.6z M56.3,54.9C56.1,55,55.9,55,55.7,55
		c-0.2,0-0.4,0-0.6-0.1c-0.2-0.1-0.3-0.2-0.5-0.3c-0.1-0.1-0.2-0.3-0.3-0.4c-0.1-0.2-0.1-0.3-0.1-0.5v-9.3c0-0.2,0-0.4,0.1-0.5
		c0.1-0.2,0.2-0.3,0.3-0.4c0.1-0.1,0.3-0.2,0.5-0.3c0.2-0.1,0.4-0.1,0.5-0.1c0.2,0,0.4,0,0.5,0.1c0.2,0.1,0.3,0.2,0.5,0.3
		c0.1,0.1,0.3,0.3,0.3,0.4c0.1,0.2,0.1,0.4,0.1,0.6v2.8c0,0.2-0.1,0.3-0.2,0.4c-0.1,0.1-0.2,0.2-0.4,0.2h-1.2v5.8
		c0,0.1,0,0.1,0.1,0.2c0.1,0.1,0.1,0.1,0.2,0.1c0.1,0,0.1,0,0.2-0.1c0.1-0.1,0.1-0.1,0.1-0.2V49c0-0.2,0.1-0.3,0.2-0.4
		c0.1-0.1,0.3-0.2,0.4-0.2s0.3,0.1,0.4,0.2c0.1,0.1,0.2,0.3,0.2,0.4v4.7c0,0.2,0,0.4-0.1,0.5c-0.1,0.2-0.2,0.3-0.3,0.4
		C56.6,54.8,56.5,54.9,56.3,54.9z M58.4,58.7H58v-1.1h-0.7v1.1h-0.4v-2.4h0.4v1H58v-1h0.4V58.7z M59.1,58.7h-0.4v-2.4h0.4V58.7z
		 M62,44.5c0-0.4,0.1-0.8,0.4-1.1c0.3-0.3,0.6-0.4,1.1-0.4c0.4,0,0.8,0.1,1.1,0.4c0.3,0.3,0.4,0.6,0.4,1.1v1.8v8.1
		c0,0.2-0.1,0.3-0.2,0.4C64.7,55,64.6,55,64.4,55c-0.2,0-0.3-0.1-0.4-0.2c-0.1-0.1-0.2-0.3-0.2-0.4v-9.9c0-0.1,0-0.1-0.1-0.2
		c-0.1-0.1-0.1-0.1-0.2-0.1c-0.1,0-0.1,0-0.2,0.1c-0.1,0.1-0.1,0.1-0.1,0.2v9.9c0,0.2-0.1,0.3-0.2,0.4C62.9,55,62.8,55,62.6,55
		c-0.2,0-0.3-0.1-0.4-0.2c-0.1-0.1-0.2-0.3-0.2-0.4V44.5z M60.4,43.2c0.1-0.1,0.3-0.2,0.4-0.2c0.2,0,0.3,0.1,0.4,0.2
		c0.1,0.1,0.2,0.3,0.2,0.4c0,0.2-0.1,0.3-0.2,0.4c-0.1,0.1-0.3,0.2-0.4,0.2c-0.2,0-0.3-0.1-0.4-0.2c-0.1-0.1-0.2-0.3-0.2-0.4
		C60.2,43.5,60.3,43.3,60.4,43.2z M60.2,45.3c0-0.2,0.1-0.3,0.2-0.4c0.1-0.1,0.3-0.2,0.4-0.2c0.2,0,0.3,0.1,0.4,0.2
		c0.1,0.1,0.2,0.3,0.2,0.4v9.1c0,0.2-0.1,0.3-0.2,0.4C61.1,55,61,55,60.8,55c-0.2,0-0.3-0.1-0.4-0.2c-0.1-0.1-0.2-0.3-0.2-0.4V45.3z
		 M60.9,58.7h-0.4l-0.8-1.8v1.8h-0.4v-2.4h0.4l0.8,1.7v-1.7h0.4V58.7z M62.2,58.7l-0.7-1.1v1.1h-0.4v-2.4h0.4v1.1l0.6-1.1h0.4
		l-0.7,1.2l0.8,1.2H62.2z M64.1,58.7l-0.2-0.6h-0.6l-0.2,0.6h-0.4l0.7-2.4h0.4l0.7,2.4H64.1z M65.8,58.5c-0.1,0.1-0.3,0.2-0.5,0.2
		h-0.7v-2.4h0.6c0.2,0,0.4,0.1,0.5,0.2c0.1,0.1,0.2,0.3,0.2,0.5c0,0.3-0.2,0.5-0.4,0.5c0.3,0.1,0.5,0.3,0.5,0.6
		C66,58.2,65.9,58.4,65.8,58.5z M67.2,58.7h-1.1v-2.4h0.4v2.1h0.7V58.7z M66.8,49v5.5c0,0.2-0.1,0.3-0.2,0.4
		C66.5,55,66.4,55,66.2,55c-0.2,0-0.3-0.1-0.4-0.2c-0.1-0.1-0.2-0.3-0.2-0.4V43.6c0-0.2,0.1-0.3,0.2-0.4c0.1-0.1,0.3-0.2,0.4-0.2
		c0.2,0,0.3,0.1,0.4,0.2c0.1,0.1,0.2,0.3,0.2,0.4v4.2l0.5-4.2c0-0.2,0.1-0.3,0.2-0.4c0.1-0.1,0.3-0.2,0.4-0.1c0.2,0,0.3,0.1,0.4,0.2
		c0.1,0.1,0.1,0.3,0.1,0.4L68,48.4l0.6,6c0,0.2,0,0.3-0.1,0.4C68.3,55,68.2,55,68,55c-0.2,0-0.3,0-0.4-0.1c-0.1-0.1-0.2-0.2-0.2-0.4
		L66.8,49z M68.6,56.6h-0.8v0.6h0.8v0.4h-0.8v0.7h0.8v0.4h-1.2v-2.4h1.2V56.6z"/>
	<path class="st1" d="M65.4,57.2c0.1-0.1,0.1-0.1,0.1-0.3c0-0.1,0-0.2-0.1-0.2c0,0-0.1-0.1-0.2-0.1H65v0.6h0.2
		C65.3,57.2,65.3,57.2,65.4,57.2z"/>
	<path class="st1" d="M44.7,46.4c0-0.1,0-0.2-0.1-0.2c-0.1-0.1-0.1-0.1-0.2-0.1c-0.1,0-0.2,0-0.2,0.1c-0.1,0.1-0.1,0.1-0.1,0.2v2
		h0.6V46.4z"/>
	<path class="st1" d="M56,44.5c0-0.1,0-0.2-0.1-0.2c-0.1-0.1-0.1-0.1-0.2-0.1c-0.1,0-0.1,0-0.2,0.1c-0.1,0.1-0.1,0.1-0.1,0.2v2H56
		V44.5z"/>
	<polygon class="st1" points="63.4,57.7 63.8,57.7 63.6,56.8 	"/>
	<path class="st1" d="M65.2,57.6H65v0.7h0.2c0.1,0,0.2,0,0.3-0.1c0.1-0.1,0.1-0.1,0.1-0.3c0-0.1,0-0.2-0.1-0.3
		C65.4,57.6,65.3,57.6,65.2,57.6z"/>
	<path class="st1" d="M37.4,44.2h-0.3v2.4h0.3c0.1,0,0.2,0,0.2-0.1c0.1-0.1,0.1-0.1,0.1-0.2v-1.7c0-0.1,0-0.2-0.1-0.2
		C37.5,44.3,37.5,44.2,37.4,44.2z"/>
</g>
</svg>
