<?xml version="1.0" encoding="utf-8"?>
<!-- Generator: Adobe Illustrator 26.0.1, SVG Export Plug-In . SVG Version: 6.00 Build 0)  -->
<svg version="1.1" id="Layer_1" xmlns="http://www.w3.org/2000/svg" xmlns:xlink="http://www.w3.org/1999/xlink" x="0px" y="0px"
	 viewBox="0 0 100 100" style="enable-background:new 0 0 100 100;" xml:space="preserve">
<style type="text/css">
	.st0{display:none;}
	.st1{fill:#FFFFFF;}
	.st2{fill-rule:evenodd;clip-rule:evenodd;fill:#FFFFFF;}
	.st3{fill-rule:evenodd;clip-rule:evenodd;}
	.st4{fill:none;}
	.st5{clip-path:url(#XMLID_00000025429411375314418450000007823084252283720382_);fill:#FFFFFF;}
</style>
<rect class="st0" width="100" height="100"/>
<g>
	<path class="st1" d="M12,41.7h4.2l3.2,8.6l3.2-8.6h4.2l-7.3,17L12,41.7z"/>
	<path class="st1" d="M43.4,41.7h3.8v6.5l4.6-6.5h4.4l-5.4,7.7H51l5.9,9h-4.5l-5.1-7.8v7.8h-3.8V41.7z"/>
	<path class="st1" d="M72.9,41.3l9.2,9.3v-8.9H86v17l-9.2-9.3v8.9h-3.8V41.3z"/>
	<path class="st1" d="M40,43.8c-1.6-1.6-3.6-2.5-6.1-2.5c-1.6,0-3.1,0.4-4.3,1.1c-1.3,0.7-2.3,1.8-3,3.1c-0.7,1.3-1.1,2.8-1.1,4.5
		c0,2.5,0.8,4.6,2.4,6.2c1.6,1.6,3.6,2.5,6.1,2.5c2.4,0,4.5-0.8,6-2.5c1.6-1.6,2.4-3.7,2.4-6.2S41.6,45.4,40,43.8z M33.9,55.4v-5.3
		h2.9v-0.3h-2.9v-2.5h1.5v-0.3h-1.5v-2.5c1.3,0,2.4,0.5,3.2,1.5c0.6,0.7,1,1.5,1.1,2.4h-2.2v0.3h2.3c0.1,0.4,0.1,0.8,0.1,1.2
		c0,0.4,0,0.8-0.1,1.2h-1.8v0.3h1.7c-0.2,0.9-0.6,1.7-1.1,2.4C36.3,54.9,35.3,55.4,33.9,55.4z"/>
	<path class="st1" d="M69.6,43.8c-1.6-1.6-3.6-2.5-6.1-2.5c-1.6,0-3.1,0.4-4.3,1.1c-1.3,0.7-2.3,1.8-3,3.1c-0.7,1.3-1.1,2.8-1.1,4.5
		c0,2.5,0.8,4.6,2.4,6.2c1.6,1.6,3.6,2.5,6.1,2.5c2.4,0,4.5-0.8,6-2.5c1.6-1.6,2.4-3.7,2.4-6.2S71.2,45.4,69.6,43.8z M63.6,55.4
		v-5.3h2.9v-0.3h-2.9v-2.5h1.5v-0.3h-1.5v-2.5c1.3,0,2.4,0.5,3.2,1.5c0.6,0.7,1,1.5,1.1,2.4h-2.2v0.3H68c0.1,0.4,0.1,0.8,0.1,1.2
		c0,0.4,0,0.8-0.1,1.2h-1.8v0.3h1.7c-0.2,0.9-0.6,1.7-1.1,2.4C65.9,54.9,64.9,55.4,63.6,55.4z"/>
</g>
</svg>
