<?xml version="1.0" encoding="utf-8"?>
<!-- Generator: Adobe Illustrator 26.0.1, SVG Export Plug-In . SVG Version: 6.00 Build 0)  -->
<svg version="1.1" id="Layer_1" xmlns="http://www.w3.org/2000/svg" xmlns:xlink="http://www.w3.org/1999/xlink" x="0px" y="0px"
	 viewBox="0 0 100 100" style="enable-background:new 0 0 100 100;" xml:space="preserve">
<style type="text/css">
	.st0{display:none;}
	.st1{fill:#FFFFFF;}
	.st2{fill-rule:evenodd;clip-rule:evenodd;fill:#FFFFFF;}
	.st3{fill-rule:evenodd;clip-rule:evenodd;}
	.st4{fill:none;}
	.st5{clip-path:url(#XMLID_00000062884647973764223810000002047284561273785738_);fill:#FFFFFF;}
</style>
<rect class="st0" width="100" height="100"/>
<g>
	<path class="st1" d="M24,43.5c-0.4-0.3-0.7-0.5-1.2-0.6c-0.4-0.1-0.8-0.2-1.2-0.2h-4.7c-0.6,0-1.2,0.1-1.7,0.4
		c-0.5,0.2-0.8,0.5-1.1,0.9c-0.3,0.4-0.5,0.7-0.6,1.2c-0.1,0.4-0.2,0.8-0.2,1.2v3.6c0,0.6,0.1,1.2,0.4,1.7c0.2,0.5,0.5,0.8,0.9,1.1
		c0.4,0.3,0.7,0.5,1.2,0.6c0.4,0.1,0.8,0.2,1.2,0.2h8.3V51h-8.2c-0.3,0-0.6-0.1-0.8-0.3c-0.2-0.2-0.3-0.5-0.3-0.8v-3.6
		c0-0.3,0.1-0.6,0.3-0.8c0.2-0.2,0.5-0.3,0.8-0.3h4.7c0.3,0,0.6,0.1,0.8,0.3c0.2,0.2,0.3,0.5,0.3,0.8c0,0.3-0.1,0.6-0.3,0.8
		c-0.2,0.2-0.5,0.3-0.8,0.3h-4.7v2.5h4.7c0.6,0,1.2-0.1,1.7-0.4c0.5-0.2,0.8-0.5,1.1-0.9c0.3-0.4,0.5-0.7,0.6-1.2
		c0.1-0.4,0.2-0.8,0.2-1.2c0-0.6-0.1-1.2-0.4-1.7C24.7,44.1,24.4,43.8,24,43.5z"/>
	<path class="st1" d="M28.9,42.8c-0.3,0.1-0.5,0.1-0.8,0.3c-0.3,0.1-0.5,0.3-0.8,0.5c-0.2,0.2-0.5,0.4-0.7,0.7
		c-0.2,0.3-0.3,0.6-0.5,0.9c-0.1,0.4-0.2,0.7-0.2,1.2v7.1h2.6v-7.1c0-0.3,0.1-0.6,0.3-0.8c0.2-0.2,0.4-0.3,0.8-0.3h5.8v-2.6h-5.8
		C29.5,42.7,29.2,42.7,28.9,42.8z"/>
	<path class="st1" d="M47.6,43.9c-0.3-0.4-0.7-0.7-1.1-0.9c-0.5-0.2-1-0.4-1.7-0.4h-4.7c-0.4,0-0.7,0.1-1.2,0.2
		c-0.4,0.1-0.8,0.3-1.2,0.6c-0.4,0.3-0.7,0.7-0.9,1.1c-0.2,0.5-0.4,1-0.4,1.7v3.5c0,0.7,0.1,1.2,0.4,1.7c0.2,0.5,0.5,0.8,0.9,1.1
		c0.4,0.3,0.8,0.5,1.2,0.6c0.4,0.1,0.8,0.2,1.2,0.2h4.7c0.2,0,0.5,0,0.8-0.1c0.3-0.1,0.5-0.1,0.8-0.3c0.3-0.1,0.5-0.3,0.8-0.5
		c0.2-0.2,0.5-0.4,0.6-0.7c0.2-0.3,0.3-0.6,0.4-0.9c0.1-0.4,0.2-0.8,0.2-1.2v-3.5c0-0.4-0.1-0.8-0.2-1.2
		C48.1,44.7,47.9,44.3,47.6,43.9z M45.8,49.8c0,0.3-0.1,0.6-0.3,0.8c-0.2,0.2-0.4,0.3-0.8,0.3h-4.6c-0.3,0-0.6-0.1-0.8-0.3
		c-0.2-0.2-0.3-0.4-0.3-0.8v-3.5c0-0.3,0.1-0.6,0.3-0.8c0.2-0.2,0.4-0.3,0.8-0.3h4.6c0.3,0,0.6,0.1,0.8,0.3c0.2,0.2,0.3,0.4,0.3,0.8
		V49.8z"/>
	<path class="st1" d="M51.7,42.8c-0.4,0.1-0.7,0.3-0.9,0.4c-0.3,0.2-0.5,0.4-0.7,0.6c-0.2,0.2-0.3,0.5-0.5,0.8
		c-0.1,0.3-0.2,0.5-0.3,0.8c-0.1,0.3-0.1,0.5-0.1,0.8v3.5c0,0.7,0.1,1.2,0.4,1.7c0.2,0.5,0.5,0.8,0.9,1.1c0.4,0.3,0.8,0.5,1.2,0.6
		c0.4,0.1,0.8,0.2,1.2,0.2h7v-2.6h-7c-0.3,0-0.6-0.1-0.8-0.3c-0.2-0.2-0.3-0.4-0.3-0.8v-3.5c0-0.4,0.1-0.6,0.3-0.8
		c0.2-0.2,0.4-0.3,0.8-0.3h7v-2.6h-7C52.5,42.7,52.1,42.7,51.7,42.8z"/>
	<path class="st1" d="M68.6,53h3.7l-5.7-5.4l6.1-4.9h-4.1l-4.7,3.8c-0.1,0.1-0.3,0.3-0.3,0.4c-0.1,0.2-0.1,0.3-0.1,0.5
		c0,0.4,0.1,0.7,0.4,1L68.6,53z"/>
	<rect x="61" y="38.1" class="st1" width="2.6" height="15.3"/>
	<polygon class="st1" points="81.3,47.7 85.9,42.7 82.3,42.7 79.5,45.8 76.6,42.7 73.1,42.7 77.7,47.7 64,61.9 67.6,61.9 79.5,49.7 
		82.9,53.4 86.5,53.4 	"/>
</g>
</svg>
